<svg xmlns="http://www.w3.org/2000/svg" width="190.332" height="100" viewBox="0 0 190.332 100">
  <g id="Grupo_167078" data-name="Grupo 167078" transform="translate(-179.668 -1624.087)">
    <rect id="Rectángulo_45188" data-name="Rectángulo 45188" width="190" height="100" transform="translate(180 1624.087)" fill="none"/>
    <path id="Trazado_231192" data-name="Trazado 231192" d="M-22,0H107a40,40,0,0,1,0,80H-22Z" transform="translate(201.668 1634.087)" fill="rgba(121,210,220,0.2)"/>
    <g id="Grupo_165777" data-name="Grupo 165777" transform="translate(-2896.217 -2450.314)">
      <path id="Trazado_231962" data-name="Trazado 231962" d="M3134.012,4074.4h42.87c1.252.436,1.436.685,1.439,2.18.013,6.7,0,13.4.006,20.107,0,1.685,0,1.688,1.658,1.688h20.864c.442,0,.886-.015,1.327.024a1.832,1.832,0,0,1,1.921,2.09q.009,8.157,0,16.314,0,20.581,0,41.163c0,1.987-.471,2.463-2.452,2.486-2.5.029-2.251-.274-2.264,2.315-.01,2.213.015,4.426-.009,6.639-.019,1.706-.537,2.213-2.224,2.214q-41.68,0-83.361,0c-1.747,0-2.255-.5-2.271-2.265-.022-2.529,0-5.058-.01-7.587-.006-1.223-.088-1.3-1.28-1.313-.443-.006-.885.006-1.328-.007-1.276-.041-1.595-.27-2.014-1.438v-59.189a1.913,1.913,0,0,1,2.155-1.437c3.159-.008,6.319,0,9.479,0q6.3,0,12.607,0c1.415,0,1.442-.027,1.443-1.417q0-9.717,0-19.434c0-.379-.006-.759.005-1.137C3132.616,4075.087,3132.81,4074.821,3134.012,4074.4Z" transform="translate(0 0)"/>
      <path id="Trazado_231963" data-name="Trazado 231963" d="M3254.325,4157.927a9.8,9.8,0,0,0-2.864,2.489c-.267.37-.455.333-.684-.038a10.5,10.5,0,0,0-3.844-3.707c-.613-.345-.216-.561.031-.825a8.069,8.069,0,0,0-8.094-13.39,8.131,8.131,0,0,0-5.678,7.393,7.909,7.909,0,0,0,2.335,5.994c.344.349.528.551-.047.876a10.5,10.5,0,0,0-3.718,3.575c-.208.329-.377.613-.73.123a9.827,9.827,0,0,0-2.9-2.51,6.518,6.518,0,0,0,1.791-4.665,6.3,6.3,0,0,0-7.1-6.163c-1.078.127-1-.271-1-1.006q.019-21.147.01-42.294c0-5.248.01-10.495-.012-15.742,0-.676.084-.973.9-.971q18.537.045,37.074,0c.719,0,.881.189.881.891q-.03,29.16,0,58.321c0,.766-.157.865-.929.791a6.079,6.079,0,0,0-6.276,3.191,6.17,6.17,0,0,0,.531,7.181C3254.11,4157.594,3254.208,4157.753,3254.325,4157.927Z" transform="translate(-85.8 -9.453)" fill="#26c7db"/>
      <path id="Trazado_231964" data-name="Trazado 231964" d="M3410.433,4210.437q0,13.277.015,26.554c0,.7-.116,1.088-.9.931a.294.294,0,0,0-.095,0,2.579,2.579,0,0,1-2.968-1.336,5.486,5.486,0,0,0-2.171-1.939c-.409-.236-.492-.4-.172-.84,3.121-4.3.714-9.883-4.5-10.388a6.413,6.413,0,0,0-5.777,10.11c.49.69.382.914-.262,1.311-1.212.748-1.194.79-1.692-.486a9.215,9.215,0,0,0-3.722-4.532c-.54-.343-.491-.518-.142-.969a6.2,6.2,0,0,0,.1-7.57,1.986,1.986,0,0,1-.393-1.221q.014-18.161-.011-36.322c0-.743.229-.868.909-.865q10.431.038,20.862,0c.718,0,.943.146.94.913C3410.422,4192.67,3410.433,4201.553,3410.433,4210.437Z" transform="translate(-209.657 -80.974)" fill="#deddec"/>
      <path id="Trazado_231965" data-name="Trazado 231965" d="M3119.579,4210.4c0-8.851.01-17.7-.019-26.554,0-.769.154-.993.964-.989q10.383.055,20.767,0c.8,0,.981.205.979.989q-.04,18.018-.013,36.038a2.242,2.242,0,0,1-.4,1.407,6.208,6.208,0,0,0,.128,7.57c.294.384.442.569-.1.907a9.3,9.3,0,0,0-4.039,5.309c-.187.614-.333.636-.774.244-.421-.374-1.108-.6-1.283-1.052s.53-.834.77-1.307a6.257,6.257,0,0,0-.453-6.965,6.084,6.084,0,0,0-6.6-2.479,6.147,6.147,0,0,0-4.9,4.96,6,6,0,0,0,1.22,5.258c.348.432.328.634-.144.912a7.3,7.3,0,0,0-2.584,2.462,1.579,1.579,0,0,1-1.612.813c-1.906-.042-1.906-.014-1.906-1.917Z" transform="translate(-9.46 -80.959)" fill="#deddec"/>
      <path id="Trazado_231966" data-name="Trazado 231966" d="M3274.438,4387.7c-2.434,0-4.867,0-7.3,0-.437,0-.8.031-.781-.61.087-3.853-.166-7.712.136-11.561a7.946,7.946,0,0,1,8.26-7.218c4.532.217,7.721,3.562,7.821,8.332.073,3.444,0,6.891.028,10.336,0,.606-.212.734-.768.729C3279.368,4387.686,3276.9,4387.7,3274.438,4387.7Z" transform="translate(-119.03 -219.398)" fill="#f57c22"/>
      <path id="Trazado_231967" data-name="Trazado 231967" d="M3209.087,4392.353c-1.926,0-3.852-.017-5.777.012-.522.007-.7-.125-.694-.673.024-3.536-.026-7.073.024-10.609a6.451,6.451,0,1,1,12.9-.084c.071,3.566.007,7.136.033,10.7,0,.567-.208.668-.711.662C3212.939,4392.339,3211.013,4392.353,3209.087,4392.353Z" transform="translate(-71.461 -224.051)" fill="#fed935"/>
      <path id="Trazado_231968" data-name="Trazado 231968" d="M3349.6,4392.409c-1.926,0-3.852-.011-5.777.008-.454,0-.676-.062-.672-.6.03-3.662-.035-7.326.05-10.986a6.329,6.329,0,0,1,5.045-6.065,6.427,6.427,0,0,1,7.133,3.408,6.758,6.758,0,0,1,.719,3.2c0,3.41-.019,6.82.017,10.229.007.667-.167.846-.832.83C3353.387,4392.377,3351.492,4392.409,3349.6,4392.409Z" transform="translate(-176.368 -224.107)" fill="#fed935"/>
      <path id="Trazado_231969" data-name="Trazado 231969" d="M3413.357,4406.645c-1.9,0-3.792-.016-5.688.011-.531.006-.788-.06-.772-.7.047-1.927-.024-3.856.029-5.783a6.464,6.464,0,1,1,12.927.144c0,1.865-.02,3.73.014,5.594.01.567-.125.762-.728.75C3417.213,4406.619,3415.284,4406.645,3413.357,4406.645Z" transform="translate(-223.955 -238.342)" fill="#fda829"/>
      <path id="Trazado_231970" data-name="Trazado 231970" d="M3145.313,4406.783c-1.928,0-3.856-.015-5.783.01-.511.007-.719-.107-.707-.669.044-2.117-.03-4.238.071-6.351a6.428,6.428,0,0,1,12.689-.851c.453,2.468.117,4.982.19,7.475.016.539-.4.378-.677.379C3149.168,4406.789,3147.24,4406.783,3145.313,4406.783Z" transform="translate(-23.839 -238.481)" fill="#fda829"/>
      <path id="Trazado_231971" data-name="Trazado 231971" d="M3284.04,4326.731a4.838,4.838,0,0,1-4.728-4.9,4.849,4.849,0,1,1,9.7.147A4.834,4.834,0,0,1,3284.04,4326.731Z" transform="translate(-128.713 -181.135)" fill="#f57c22"/>
      <path id="Trazado_231972" data-name="Trazado 231972" d="M3356,4339.5a3.194,3.194,0,0,1,3.255-3.2,3.225,3.225,0,1,1-3.255,3.2Z" transform="translate(-185.964 -195.504)" fill="#fed935"/>
      <path id="Trazado_231973" data-name="Trazado 231973" d="M3218.641,4336.3a3.225,3.225,0,1,1,.015,6.45,3.225,3.225,0,0,1-.015-6.45Z" transform="translate(-81.031 -195.504)" fill="#fed935"/>
      <path id="Trazado_231974" data-name="Trazado 231974" d="M3423.008,4355.449a3.225,3.225,0,0,1-.055,6.45,3.225,3.225,0,1,1,.055-6.45Z" transform="translate(-233.542 -209.8)" fill="#fda829"/>
      <path id="Trazado_231975" data-name="Trazado 231975" d="M3151.677,4358.709a3.194,3.194,0,0,1,3.226-3.253,3.225,3.225,0,1,1-3.226,3.253Z" transform="translate(-33.435 -209.805)" fill="#fda829"/>
      <path id="Trazado_231976" data-name="Trazado 231976" d="M3264.978,4116.087c-3.033,0-6.066.006-9.1,0-1.653,0-2.193-.557-2.2-2.231q-.008-5.878,0-11.756c0-1.635.585-2.2,2.245-2.2q9.1,0,18.2,0c1.657,0,2.238.568,2.241,2.2q.01,5.878,0,11.755c0,1.677-.54,2.226-2.2,2.23C3271.108,4116.092,3268.043,4116.087,3264.978,4116.087Z" transform="translate(-109.579 -19.028)"/>
      <path id="Trazado_231977" data-name="Trazado 231977" d="M3293.67,4278.719c1.6,0,1.6,0,1.6,1.644,0,1.591,0,1.591-1.562,1.591-1.7,0-1.7,0-1.7-1.737C3292.014,4278.719,3292.014,4278.719,3293.67,4278.719Z" transform="translate(-138.196 -152.521)" fill="#020203"/>
      <path id="Trazado_231978" data-name="Trazado 231978" d="M3292.015,4254.837c0-1.611,0-1.611,1.636-1.611s1.622,0,1.622,1.625c0,1.609,0,1.609-1.637,1.609S3292.015,4256.46,3292.015,4254.837Z" transform="translate(-138.197 -133.491)" fill="#020203"/>
      <path id="Trazado_231979" data-name="Trazado 231979" d="M3293.642,4202.167c1.63,0,1.63,0,1.63,1.643,0,1.6,0,1.6-1.583,1.6-1.677,0-1.677,0-1.677-1.695C3292.012,4202.167,3292.012,4202.167,3293.642,4202.167Z" transform="translate(-138.195 -95.376)" fill="#020304"/>
      <path id="Trazado_231980" data-name="Trazado 231980" d="M3293.648,4179.844c-1.638,0-1.638,0-1.638-1.641,0-1.608,0-1.608,1.575-1.608,1.686,0,1.686,0,1.686,1.687C3295.271,4179.844,3295.271,4179.844,3293.648,4179.844Z" transform="translate(-138.193 -76.287)" fill="#020304"/>
      <path id="Trazado_231981" data-name="Trazado 231981" d="M3295.272,4229.34c0,1.617,0,1.617-1.633,1.617s-1.627,0-1.627-1.623,0-1.613,1.633-1.613S3295.272,4227.721,3295.272,4229.34Z" transform="translate(-138.195 -114.452)" fill="#020203"/>
      <path id="Trazado_231982" data-name="Trazado 231982" d="M3317.642,4254.813c0-1.584,0-1.584,1.553-1.584,1.688,0,1.688,0,1.688,1.649,0,1.583,0,1.583-1.564,1.583C3317.642,4256.461,3317.642,4256.461,3317.642,4254.813Z" transform="translate(-157.327 -133.493)" fill="#010101"/>
      <path id="Trazado_231983" data-name="Trazado 231983" d="M3346.431,4254.888c0,1.574,0,1.574-1.57,1.574-1.671,0-1.671,0-1.671-1.656,0-1.576,0-1.576,1.563-1.576C3346.431,4253.23,3346.431,4253.23,3346.431,4254.888Z" transform="translate(-176.399 -133.494)" fill="#000001"/>
      <path id="Trazado_231984" data-name="Trazado 231984" d="M3242.584,4278.722c1.566,0,1.566,0,1.566,1.575,0,1.658,0,1.658-1.669,1.658-1.572,0-1.572,0-1.572-1.573C3240.909,4278.722,3240.909,4278.722,3242.584,4278.722Z" transform="translate(-100.046 -152.524)" fill="#000101"/>
      <path id="Trazado_231985" data-name="Trazado 231985" d="M3269.7,4280.313c0,1.642,0,1.642-1.685,1.642-1.557,0-1.557,0-1.557-1.591,0-1.643,0-1.643,1.6-1.643h.094C3269.7,4278.721,3269.7,4278.721,3269.7,4280.313Z" transform="translate(-119.116 -152.523)" fill="#010101"/>
      <path id="Trazado_231986" data-name="Trazado 231986" d="M3269.7,4254.875c0,1.585,0,1.585-1.551,1.585-1.691,0-1.691,0-1.691-1.738,0-1.494,0-1.494,1.467-1.494h.094C3269.7,4253.229,3269.7,4253.229,3269.7,4254.875Z" transform="translate(-119.116 -133.493)" fill="#010101"/>
      <path id="Trazado_231987" data-name="Trazado 231987" d="M3319.232,4281.955c-1.591,0-1.591,0-1.591-1.546,0-1.688,0-1.688,1.641-1.688,1.6,0,1.6,0,1.6,1.642C3320.883,4281.955,3320.883,4281.955,3319.232,4281.955Z" transform="translate(-157.327 -152.523)" fill="#010101"/>
      <path id="Trazado_231988" data-name="Trazado 231988" d="M3346.432,4280.331c0,1.625,0,1.625-1.614,1.625s-1.626,0-1.626-1.606c0-1.627,0-1.627,1.608-1.627C3346.432,4278.722,3346.432,4278.722,3346.432,4280.331Z" transform="translate(-176.399 -152.524)" fill="#000101"/>
      <path id="Trazado_231989" data-name="Trazado 231989" d="M3244.149,4254.871c0,1.591,0,1.591-1.547,1.591-1.693,0-1.693,0-1.693-1.734,0-1.5,0-1.5,1.459-1.5h.095C3244.149,4253.23,3244.149,4253.23,3244.149,4254.871Z" transform="translate(-100.046 -133.494)" fill="#000001"/>
      <path id="Trazado_231990" data-name="Trazado 231990" d="M3344.906,4227.725c1.526,0,1.526,0,1.526,1.524,0,1.71,0,1.71-1.72,1.71-1.521,0-1.521,0-1.521-1.529C3343.191,4227.725,3343.191,4227.725,3344.906,4227.725Z" transform="translate(-176.399 -114.455)" fill="#010101"/>
      <path id="Trazado_231991" data-name="Trazado 231991" d="M3244.148,4203.781c0,1.63,0,1.63-1.638,1.63-1.6,0-1.6,0-1.6-1.571,0-1.669,0-1.669,1.691-1.669C3244.148,4202.172,3244.148,4202.172,3244.148,4203.781Z" transform="translate(-100.045 -95.379)" fill="#010102"/>
      <path id="Trazado_231992" data-name="Trazado 231992" d="M3268.21,4227.724c1.485,0,1.485,0,1.485,1.485,0,1.75,0,1.75-1.8,1.75-1.445,0-1.445,0-1.445-1.442C3266.453,4227.724,3266.453,4227.724,3268.21,4227.724Z" transform="translate(-119.115 -114.454)" fill="#010101"/>
      <path id="Trazado_231993" data-name="Trazado 231993" d="M3244.149,4229.445c0,1.515,0,1.515-1.535,1.515-1.706,0-1.706,0-1.706-1.724,0-1.51,0-1.51,1.541-1.51C3244.149,4227.725,3244.149,4227.725,3244.149,4229.445Z" transform="translate(-100.046 -114.455)" fill="#010101"/>
      <path id="Trazado_231994" data-name="Trazado 231994" d="M3346.431,4203.769c0,1.643,0,1.643-1.626,1.643s-1.615,0-1.615-1.652c0-1.587,0-1.587,1.573-1.587h.095C3346.431,4202.172,3346.431,4202.172,3346.431,4203.769Z" transform="translate(-176.399 -95.379)" fill="#010102"/>
      <path id="Trazado_231995" data-name="Trazado 231995" d="M3319.287,4227.724c1.6,0,1.6,0,1.6,1.575,0,1.66,0,1.66-1.7,1.66-1.541,0-1.541,0-1.541-1.532v-.095C3317.641,4227.724,3317.641,4227.724,3319.287,4227.724Z" transform="translate(-157.327 -114.454)" fill="#010101"/>
      <path id="Trazado_231996" data-name="Trazado 231996" d="M3269.695,4203.738c0,1.673,0,1.673-1.69,1.673-1.553,0-1.553,0-1.553-1.53,0-1.71,0-1.71,1.745-1.71C3269.695,4202.171,3269.695,4202.171,3269.695,4203.738Z" transform="translate(-119.114 -95.379)" fill="#010102"/>
      <path id="Trazado_231997" data-name="Trazado 231997" d="M3320.882,4178.209c0,1.637,0,1.637-1.635,1.637-1.608,0-1.608,0-1.608-1.567,0-1.68,0-1.68,1.673-1.679C3320.882,4176.6,3320.882,4176.6,3320.882,4178.209Z" transform="translate(-157.325 -76.29)" fill="#010202"/>
      <path id="Trazado_231998" data-name="Trazado 231998" d="M3268.062,4176.6c1.632,0,1.632,0,1.632,1.626s0,1.62-1.649,1.62c-1.594,0-1.594,0-1.594-1.584v-.094C3266.451,4176.6,3266.451,4176.6,3268.062,4176.6Z" transform="translate(-119.114 -76.29)" fill="#010202"/>
      <path id="Trazado_231999" data-name="Trazado 231999" d="M3317.64,4203.647c0-1.477,0-1.477,1.494-1.477,1.749,0,1.749,0,1.749,1.707,0,1.534,0,1.534-1.549,1.534C3317.64,4205.411,3317.64,4205.411,3317.64,4203.647Z" transform="translate(-157.326 -95.379)" fill="#010102"/>
      <path id="Trazado_232000" data-name="Trazado 232000" d="M3406.66,4234.131c0-4.046.015-8.092-.016-12.137-.005-.662.166-.846.835-.841,2.413.018,2.413-.008,2.413,2.375,0,7.554-.011,15.108.018,22.663,0,.744-.183,1.019-.931.921s-1.722.319-2.181-.165-.129-1.444-.132-2.195C3406.652,4241.211,3406.66,4237.671,3406.66,4234.131Z" transform="translate(-223.702 -109.548)"/>
      <path id="Trazado_232001" data-name="Trazado 232001" d="M3448.43,4234.149c0,4.043-.016,8.087.016,12.129.005.668-.183.84-.841.835-2.413-.016-2.413.008-2.413-2.381,0-7.549.012-15.1-.018-22.649,0-.755.2-.95.943-.937,2.313.038,2.313.006,2.313,2.293Q3448.431,4228.795,3448.43,4234.149Z" transform="translate(-252.529 -109.543)"/>
      <path id="Trazado_232002" data-name="Trazado 232002" d="M3142.06,4234.215c0,4.012-.014,8.023.014,12.035,0,.645-.139.861-.825.857-2.427-.014-2.427.014-2.427-2.362,0-7.55.009-15.1-.014-22.648,0-.708.13-.977.916-.961,2.336.045,2.337.007,2.337,2.371Z" transform="translate(-23.828 -109.535)"/>
      <path id="Trazado_232003" data-name="Trazado 232003" d="M3176.972,4234.129c0-4.045.015-8.092-.015-12.138,0-.662.169-.843.835-.838,2.412.019,2.413-.007,2.413,2.376,0,7.554-.012,15.109.018,22.663,0,.75-.191,1.015-.935.919s-1.764.325-2.167-.167c-.378-.462-.144-1.441-.146-2.194Q3176.964,4239.44,3176.972,4234.129Z" transform="translate(-52.268 -109.549)"/>
      <path id="Trazado_232004" data-name="Trazado 232004" d="M3274.42,4122.333c-2.37,0-4.74-.022-7.109.014-.668.01-.94-.111-.926-.867.049-2.686.043-5.373,0-8.058-.011-.7.238-.821.868-.818q7.251.035,14.5,0c.619,0,.887.1.877.81q-.063,4.075,0,8.153c.009.658-.227.784-.82.777C3279.35,4122.316,3276.885,4122.333,3274.42,4122.333Z" transform="translate(-119.064 -28.517)" fill="#fed935"/>
    </g>
  </g>
</svg>
