<svg xmlns="http://www.w3.org/2000/svg" width="824.63" height="629.642" viewBox="0 0 824.63 629.642">
  <g id="Grupo_167079" data-name="Grupo 167079" transform="translate(4614.32 9678.997)">
    <path id="Trazado_230829" data-name="Trazado 230829" d="M1557.745,100.149l1.264-6.216-5.053-1.028a14.071,14.071,0,0,0-.9-4.62l4.3-2.848-3.5-5.292-4.3,2.848a14.146,14.146,0,0,0-3.907-2.631l1.029-5.059-6.217-1.265-1.029,5.06a14.044,14.044,0,0,0-4.618.9l-2.848-4.3-5.294,3.5,2.848,4.3a14.061,14.061,0,0,0-2.63,3.9l-5.059-1.029-1.264,6.216,5.059,1.03a14.141,14.141,0,0,0,.9,4.624l-4.3,2.848,3.506,5.287,4.3-2.848a14.052,14.052,0,0,0,3.9,2.636l-1.028,5.054,6.217,1.264,1.028-5.053a14.173,14.173,0,0,0,4.626-.9l2.848,4.3,5.286-3.5-2.848-4.3a14.163,14.163,0,0,0,2.637-3.906Zm-19.553.958a8.008,8.008,0,1,1,9.443-6.251A8.005,8.005,0,0,1,1538.192,101.107Z" transform="translate(-5816.299 -9387.998)" fill="#26c7db"/>
    <path id="Trazado_230830" data-name="Trazado 230830" d="M1604.7,142.844l1.441-4.367-3.55-1.171a10.2,10.2,0,0,0-.255-3.4l3.34-1.683-2.066-4.108-3.34,1.682a10.258,10.258,0,0,0-2.588-2.227l1.173-3.554-4.367-1.442-1.173,3.554a10.19,10.19,0,0,0-3.4.251l-1.683-3.34-4.11,2.071,1.682,3.34a10.187,10.187,0,0,0-2.226,2.584l-3.554-1.173-1.441,4.367,3.554,1.173a10.263,10.263,0,0,0,.25,3.405l-3.34,1.683,2.072,4.105,3.34-1.682a10.2,10.2,0,0,0,2.582,2.23l-1.172,3.55,4.367,1.441,1.172-3.55a10.277,10.277,0,0,0,3.407-.254l1.682,3.34,4.1-2.068-1.682-3.34a10.258,10.258,0,0,0,2.231-2.587Zm-14.158-.98a5.8,5.8,0,1,1,7.331-3.693A5.8,5.8,0,0,1,1590.546,141.863Z" transform="translate(-5842.272 -9409.725)" fill="none" stroke="#26c7db" stroke-miterlimit="10" stroke-width="1"/>
    <path id="Trazado_230831" data-name="Trazado 230831" d="M1625.839,98.579l.558-2.908-2.364-.454a6.58,6.58,0,0,0-.445-2.152l1.994-1.351-1.66-2.452-1.994,1.351a6.6,6.6,0,0,0-1.837-1.208l.455-2.367-2.908-.558-.454,2.367a6.549,6.549,0,0,0-2.151.442L1613.68,87.3l-2.453,1.663,1.351,1.993a6.55,6.55,0,0,0-1.207,1.834L1609,92.332l-.559,2.908,2.367.455a6.592,6.592,0,0,0,.442,2.154l-1.993,1.352,1.663,2.45,1.993-1.352a6.564,6.564,0,0,0,1.834,1.211l-.453,2.364,2.908.558.454-2.364a6.614,6.614,0,0,0,2.154-.445l1.352,1.993,2.45-1.66-1.352-1.994a6.6,6.6,0,0,0,1.211-1.836Zm-9.122.547a3.738,3.738,0,1,1,4.375-2.966A3.737,3.737,0,0,1,1616.717,99.126Z" transform="translate(-5855.64 -9393.568)" fill="none" stroke="#26c7db" stroke-miterlimit="10" stroke-width="1"/>
    <path id="Trazado_230832" data-name="Trazado 230832" d="M1888.93,112.327l-.53-6.6-5.363.431a14.676,14.676,0,0,0-2.241-4.369l3.489-4.1-5.037-4.293-3.489,4.1a14.757,14.757,0,0,0-4.677-1.507l-.432-5.369-6.6.531.432,5.369a14.676,14.676,0,0,0-4.37,2.235l-4.1-3.489-4.293,5.044,4.1,3.489a14.67,14.67,0,0,0-1.508,4.67l-5.369.432.53,6.6,5.369-.431a14.763,14.763,0,0,0,2.235,4.376l-3.488,4.1,5.043,4.286,3.489-4.1a14.657,14.657,0,0,0,4.671,1.514l.431,5.363,6.6-.53-.431-5.363a14.762,14.762,0,0,0,4.376-2.242l4.1,3.489,4.287-5.037-4.1-3.489a14.769,14.769,0,0,0,1.514-4.678Zm-19.323,6.615a8.354,8.354,0,1,1,7.657-9A8.351,8.351,0,0,1,1869.607,118.943Z" transform="translate(-5963.305 -9395.423)" fill="#26c7db"/>
    <path id="Trazado_230833" data-name="Trazado 230833" d="M1794.167,5.548l.559-2.908-2.364-.454a6.555,6.555,0,0,0-.445-2.151l1.994-1.352-1.661-2.452-1.993,1.352a6.586,6.586,0,0,0-1.837-1.208l.455-2.367-2.909-.558-.455,2.367a6.552,6.552,0,0,0-2.151.442l-1.351-1.993-2.453,1.663,1.352,1.993A6.555,6.555,0,0,0,1779.7-.245L1777.332-.7l-.558,2.908,2.367.455a6.607,6.607,0,0,0,.441,2.154l-1.993,1.351,1.664,2.45,1.993-1.351a6.575,6.575,0,0,0,1.834,1.21l-.454,2.364,2.909.558.453-2.364a6.6,6.6,0,0,0,2.155-.445l1.351,1.993,2.45-1.66-1.352-1.993a6.6,6.6,0,0,0,1.211-1.836Zm-9.122.547a3.738,3.738,0,1,1,4.375-2.966A3.736,3.736,0,0,1,1785.045,6.1Z" transform="translate(-5930.996 -9351.921)" fill="none" stroke="#26c7db" stroke-miterlimit="10" stroke-width="1"/>
    <path id="Trazado_232864" data-name="Trazado 232864" d="M20.21,0A20.21,20.21,0,1,1,0,20.21,20.21,20.21,0,0,1,20.21,0Z" transform="translate(-4265.339 -9370.785)" fill="#f57c22"/>
    <path id="Trazado_232865" data-name="Trazado 232865" d="M17.327,0A17.327,17.327,0,1,1,0,17.327,17.327,17.327,0,0,1,17.327,0Z" transform="translate(-4262.456 -9367.902)" fill="#fdfefd"/>
    <path id="Trazado_232869" data-name="Trazado 232869" d="M.022,0,0,2.3" transform="translate(-4245.146 -9367.035)" fill="none" stroke="#212b3b" stroke-width="2"/>
    <path id="Trazado_232870" data-name="Trazado 232870" d="M.022,0,0,2.3" transform="translate(-4245.134 -9336.42)" fill="none" stroke="#212b3b" stroke-width="2"/>
    <path id="Trazado_232866" data-name="Trazado 232866" d="M0,0,2.3.017" transform="translate(-4261.588 -9350.582)" fill="none" stroke="#212b3b" stroke-width="2"/>
    <path id="Trazado_232872" data-name="Trazado 232872" d="M0,0,2.3.022" transform="translate(-4230.973 -9350.593)" fill="none" stroke="#212b3b" stroke-width="2"/>
    <path id="Trazado_232867" data-name="Trazado 232867" d="M0,0,1.607,1.64" transform="translate(-4256.761 -9362.219)" fill="none" stroke="#212b3b" stroke-width="1"/>
    <path id="Trazado_232873" data-name="Trazado 232873" d="M0,0,1.607,1.635" transform="translate(-4235.104 -9340.573)" fill="none" stroke="#212b3b" stroke-width="1"/>
    <path id="Trazado_232868" data-name="Trazado 232868" d="M0,1.613,1.64,0" transform="translate(-4256.772 -9340.557)" fill="none" stroke="#212b3b" stroke-width="1"/>
    <path id="Trazado_232874" data-name="Trazado 232874" d="M0,1.607,1.635,0" transform="translate(-4235.126 -9362.208)" fill="none" stroke="#212b3b" stroke-width="1"/>
    <path id="Trazado_232871" data-name="Trazado 232871" d="M1.386,0A1.386,1.386,0,1,1,0,1.386,1.386,1.386,0,0,1,1.386,0Z" transform="translate(-4246.515 -9351.962)" fill="#212b3b"/>
    <path id="Trazado_230834" data-name="Trazado 230834" d="M1795.265,45.916V36.388a7.526,7.526,0,0,1,7.528-7.528h38.172a7.527,7.527,0,0,1,7.528,7.528v9.528a7.527,7.527,0,0,1-7.528,7.528h-38.172A7.534,7.534,0,0,1,1795.265,45.916Z" transform="translate(-5939.274 -9367.773)" fill="#f57c22"/>
    <path id="Trazado_230835" data-name="Trazado 230835" d="M1835.853,66.26l-1.718,16.321,15.36-16.062Z" transform="translate(-5956.675 -9384.516)" fill="#f57c22"/>
    <path id="Trazado_232887" data-name="Trazado 232887" d="M2.828,0A2.751,2.751,0,0,1,5.656,2.668,2.751,2.751,0,0,1,2.828,5.336,2.751,2.751,0,0,1,0,2.668,2.751,2.751,0,0,1,2.828,0Z" transform="translate(-4135.42 -9328.236)" fill="#26c7db"/>
    <path id="Trazado_232888" data-name="Trazado 232888" d="M2.828,0A2.751,2.751,0,0,1,5.656,2.668,2.751,2.751,0,0,1,2.828,5.336,2.751,2.751,0,0,1,0,2.668,2.751,2.751,0,0,1,2.828,0Z" transform="translate(-4120.016 -9328.236)" fill="#26c7db"/>
    <path id="Trazado_232889" data-name="Trazado 232889" d="M2.828,0A2.751,2.751,0,0,1,5.656,2.668,2.751,2.751,0,0,1,2.828,5.336,2.751,2.751,0,0,1,0,2.668,2.751,2.751,0,0,1,2.828,0Z" transform="translate(-4105.031 -9328.236)" fill="#26c7db"/>
    <path id="Trazado_232875" data-name="Trazado 232875" d="M22.357,0A22.552,22.552,0,1,1,0,22.551,22.455,22.455,0,0,1,22.357,0Z" transform="translate(-4209.771 -9375.308)" fill="#fdeeeb"/>
    <path id="Trazado_232876" data-name="Trazado 232876" d="M22.357,0A22.552,22.552,0,1,1,0,22.551,22.455,22.455,0,0,1,22.357,0Z" transform="translate(-4208.283 -9373.521)" fill="#fda829"/>
    <path id="Trazado_230836" data-name="Trazado 230836" d="M1702.879,16.818a3.93,3.93,0,0,0-5.592-.064,4.013,4.013,0,0,0-.028,5.642,3.93,3.93,0,0,0,5.592.06A4.013,4.013,0,0,0,1702.879,16.818Zm-3.542,5.487-1.955-2,.732-2.7,2.685-.695,1.956,2-.731,2.7Z" transform="translate(-5894.887 -9361.845)" fill="#fed935"/>
    <path id="Trazado_230837" data-name="Trazado 230837" d="M1735.927-13.106l-3.105,3.083a1.209,1.209,0,0,1-1.719-.02l-.967-.992a1.233,1.233,0,0,1,.007-1.734l3.1-3.08a4.134,4.134,0,0,0-4.025,1.087,4.116,4.116,0,0,0-.168,5.781,4.031,4.031,0,0,0,5.732-.079A4.225,4.225,0,0,0,1735.927-13.106Z" transform="translate(-5909.137 -9347.691)" fill="#fed935"/>
    <path id="Trazado_230838" data-name="Trazado 230838" d="M1706.958,9.249,1704.4,6.627a163.071,163.071,0,0,1,13.36-13.263l2.558,2.622A184.3,184.3,0,0,1,1706.958,9.249Z" transform="translate(-5898.596 -9351.883)" fill="#fed935"/>
    <path id="Trazado_230839" data-name="Trazado 230839" d="M1725.459,35.275l8.151,9.072-.092-15.187Z" transform="translate(-5908.023 -9367.907)" fill="#fda829"/>
    <path id="Trazado_230840" data-name="Trazado 230840" d="M1803.055,230.2c2.386-12.753,5.7-25.462,11.185-37.52a96.559,96.559,0,0,1,23.618-32.665c3.932-3.474,9.307-6.838,14.427-5.38s7.109,7.108,6.667,11.98c-.768,8.5-6.49,16.095-12.472,22.889C1833.8,203.9,1819.117,216.791,1803.055,230.2Z" transform="translate(-5942.761 -9423.923)" fill="#f57c22" opacity="0.35"/>
    <path id="Trazado_230841" data-name="Trazado 230841" d="M1853.968,163.59a417.776,417.776,0,0,0-49.163,69.069" transform="translate(-5943.544 -9428.087)" fill="none" stroke="#fda829" stroke-miterlimit="10" stroke-width="1" opacity="0.35"/>
    <path id="Trazado_230842" data-name="Trazado 230842" d="M1879.285,158.76a36.6,36.6,0,0,1,2.314,9.368,24.128,24.128,0,0,1,10.378.63" transform="translate(-5976.887 -9425.925)" fill="none" stroke="#fda829" stroke-miterlimit="10" stroke-width="1" opacity="0.35"/>
    <path id="Trazado_230843" data-name="Trazado 230843" d="M1851.765,182.77a22.9,22.9,0,0,1,4.96,11.45,30.517,30.517,0,0,1,15.924.895" transform="translate(-5964.566 -9436.674)" fill="none" stroke="#fda829" stroke-miterlimit="10" stroke-width="1" opacity="0.35"/>
    <path id="Trazado_230844" data-name="Trazado 230844" d="M1829.945,218.02a21.24,21.24,0,0,1,3.562,10.34,55.792,55.792,0,0,1,15-.944" transform="translate(-5954.799 -9452.454)" fill="none" stroke="#fda829" stroke-miterlimit="10" stroke-width="1" opacity="0.35"/>
    <path id="Trazado_230845" data-name="Trazado 230845" d="M1816.445,250.99a14.621,14.621,0,0,1,2.342,5.623,42.711,42.711,0,0,1,8.125-2.336" transform="translate(-5948.755 -9467.214)" fill="none" stroke="#fda829" stroke-miterlimit="10" stroke-width="1" opacity="0.35"/>
    <path id="Trazado_230846" data-name="Trazado 230846" d="M1796.285,269.246c11.858-11.2,24-22.59,39.458-30.268,3.96-1.966,8.285-3.712,12.83-3.833s9.334,1.784,10.738,5.264c1.37,3.4-.829,7.329-4.2,9.8s-7.71,3.817-11.925,5.093C1827.845,259.962,1812.5,264.612,1796.285,269.246Z" transform="translate(-5939.73 -9460.117)" fill="#f57c22" opacity="0.35"/>
    <path id="Trazado_230847" data-name="Trazado 230847" d="M1857.839,246.59a160.516,160.516,0,0,0-57.514,26.385" transform="translate(-5941.539 -9465.243)" fill="none" stroke="#fda829" stroke-miterlimit="10" stroke-width="1" opacity="0.35"/>
    <path id="Trazado_230848" data-name="Trazado 230848" d="M1889.568,238.98a17.5,17.5,0,0,1-1.083,6.413,9.661,9.661,0,0,1,4.8,5.435" transform="translate(-5981.006 -9461.837)" fill="none" stroke="#fda829" stroke-miterlimit="10" stroke-width="1" opacity="0.35"/>
    <path id="Trazado_230849" data-name="Trazado 230849" d="M1866.537,245.52a28.522,28.522,0,0,1-1.762,7.4,14.851,14.851,0,0,1,5.1,5.833" transform="translate(-5970.391 -9464.765)" fill="none" stroke="#fda829" stroke-miterlimit="10" stroke-width="1" opacity="0.35"/>
    <path id="Trazado_230850" data-name="Trazado 230850" d="M1841.744,259a15.187,15.187,0,0,1-.039,5.844,10.162,10.162,0,0,1,6.125,3.679" transform="translate(-5960.063 -9470.799)" fill="none" stroke="#fda829" stroke-miterlimit="10" stroke-width="1" opacity="0.35"/>
    <path id="Trazado_230851" data-name="Trazado 230851" d="M1821.111,275.4a6.4,6.4,0,0,1-.486,3.308,9.392,9.392,0,0,1,5.75,2.309" transform="translate(-5950.626 -9478.141)" fill="none" stroke="#fda829" stroke-miterlimit="10" stroke-width="1" opacity="0.35"/>
    <path id="Trazado_230852" data-name="Trazado 230852" d="M1798.252,209.486q15.816-40.58,28.942-82.695c2-6.424,3.894-14.029,1.038-19.8-2.971-6.009-10.1-6.76-15.034-3.22s-8.025,10.152-10.229,16.791C1793.143,150.122,1796.584,183.51,1798.252,209.486Z" transform="translate(-5939.731 -9400.358)" fill="#f57c22" opacity="0.35"/>
    <path id="Trazado_230853" data-name="Trazado 230853" d="M1823.544,109.25c-12.753,24-18.674,59.259-22.369,103" transform="translate(-5941.919 -9403.761)" fill="none" stroke="#fda829" stroke-miterlimit="10" stroke-width="1" opacity="0.35"/>
    <path id="Trazado_230854" data-name="Trazado 230854" d="M1810.415,143.75a30.119,30.119,0,0,1,6.33,9.561,30.663,30.663,0,0,1,13.421-4.849" transform="translate(-5946.056 -9419.205)" fill="none" stroke="#fda829" stroke-miterlimit="10" stroke-width="1" opacity="0.35"/>
    <path id="Trazado_230855" data-name="Trazado 230855" d="M1799.925,183.96a41.443,41.443,0,0,1,7.589,8.583,31.9,31.9,0,0,1,11.87-7.175" transform="translate(-5941.36 -9437.206)" fill="none" stroke="#fda829" stroke-miterlimit="10" stroke-width="1" opacity="0.35"/>
    <path id="Trazado_230856" data-name="Trazado 230856" d="M1799.665,224.241a17.627,17.627,0,0,1,4.215,4.673,29.023,29.023,0,0,1,8.053-5.214" transform="translate(-5941.243 -9454.996)" fill="none" stroke="#cc8f8d" stroke-linecap="round" stroke-miterlimit="10" stroke-width="1"/>
    <path id="Trazado_230857" data-name="Trazado 230857" d="M1823.195,114.49a15.439,15.439,0,0,1,4.723,9.677,13.916,13.916,0,0,1,11.455-1.922" transform="translate(-5951.777 -9406.106)" fill="none" stroke="#fda829" stroke-miterlimit="10" stroke-width="1" opacity="0.35"/>
    <path id="Trazado_230858" data-name="Trazado 230858" d="M1672.715,120a258.173,258.173,0,0,1,23.032,75.636" transform="translate(-5884.411 -9408.573)" fill="#26c7db"/>
    <path id="Trazado_230859" data-name="Trazado 230859" d="M1664.006,110.163a15.2,15.2,0,0,1-11-9.688c-.486-1.436-.591-3.314.718-4.225s3.132-.221,4.408.663C1662.548,99.973,1665.227,105.159,1664.006,110.163Z" transform="translate(-5875.438 -9397.747)" fill="#26c7db"/>
    <path id="Trazado_230860" data-name="Trazado 230860" d="M1676.484,114.741a28.33,28.33,0,0,1,.171-14.35,5.736,5.736,0,0,1,.8-1.878,2.225,2.225,0,0,1,1.718-.983,2.172,2.172,0,0,1,1.707.983,4.652,4.652,0,0,1,.69,1.911,14.757,14.757,0,0,1-.939,7.6A21,21,0,0,1,1676.484,114.741Z" transform="translate(-5885.723 -9398.514)" fill="#26c7db"/>
    <path id="Trazado_230861" data-name="Trazado 230861" d="M1683.581,127.128a26.919,26.919,0,0,1,2.463-13.057,11.659,11.659,0,0,1,3.253-4.446,2.728,2.728,0,0,1,2.712-.619,2.175,2.175,0,0,1,1.1,1.889,5.612,5.612,0,0,1-.481,2.231A41.523,41.523,0,0,1,1683.581,127.128Z" transform="translate(-5889.251 -9403.577)" fill="#26c7db"/>
    <path id="Trazado_230862" data-name="Trazado 230862" d="M1688.783,142.955a14.2,14.2,0,0,1,7.291-13.333c1.022-.547,2.32-.95,3.292-.315a2.472,2.472,0,0,1,.922,2.447,6.192,6.192,0,0,1-1.149,2.485A22.787,22.787,0,0,1,1688.783,142.955Z" transform="translate(-5891.586 -9412.595)" fill="#26c7db"/>
    <path id="Trazado_230863" data-name="Trazado 230863" d="M1693.445,158.023a16.964,16.964,0,0,1,9.1-13.8,2.688,2.688,0,0,1,2.6-.249,2.407,2.407,0,0,1,.746,2.408,10.834,10.834,0,0,1-2.861,5.3C1700.471,154.643,1697.389,157.14,1693.445,158.023Z" transform="translate(-5893.691 -9419.195)" fill="#26c7db"/>
    <path id="Trazado_230864" data-name="Trazado 230864" d="M1698.425,171.835a18.573,18.573,0,0,1,10.776-12.389,3.5,3.5,0,0,1,2.723-.249,2.466,2.466,0,0,1,1.276,2.314,5.232,5.232,0,0,1-.934,2.6,16.753,16.753,0,0,1-6.3,5.59A14.738,14.738,0,0,1,1698.425,171.835Z" transform="translate(-5895.921 -9426.036)" fill="#26c7db"/>
    <path id="Trazado_230865" data-name="Trazado 230865" d="M1665.746,127.024a16.426,16.426,0,0,0-11.952-7.307,3.443,3.443,0,0,0-1.966.226,2.525,2.525,0,0,0-.779,3.325c.751,1.453,2.425,2.149,3.993,2.612A31.374,31.374,0,0,0,1665.746,127.024Z" transform="translate(-5874.575 -9408.428)" fill="#26c7db"/>
    <path id="Trazado_230866" data-name="Trazado 230866" d="M1672.231,141.794a12.536,12.536,0,0,0-12.035-5.971,5.5,5.5,0,0,0-3.159,1.254,2.7,2.7,0,0,0-.7,3.132c.624,1.127,2.088,1.419,3.375,1.552A61.08,61.08,0,0,0,1672.231,141.794Z" transform="translate(-5876.968 -9415.62)" fill="#26c7db"/>
    <path id="Trazado_230867" data-name="Trazado 230867" d="M1677.188,157.954a15.454,15.454,0,0,0-13.527-5.065,5.054,5.054,0,0,0-2.342.806,2.209,2.209,0,0,0-.939,2.165,2.274,2.274,0,0,0,1.442,1.486,6.835,6.835,0,0,0,2.115.337C1668.224,157.894,1672.51,158.1,1677.188,157.954Z" transform="translate(-5878.87 -9423.236)" fill="#26c7db"/>
    <path id="Trazado_230868" data-name="Trazado 230868" d="M1682.962,172.993a16.639,16.639,0,0,0-6.595-5.672,10.508,10.508,0,0,0-8.539-.171,2.671,2.671,0,0,0-1.69,1.745,2.088,2.088,0,0,0,1.149,2.033,6.087,6.087,0,0,0,2.391.6C1673.009,171.894,1676.339,172.264,1682.962,172.993Z" transform="translate(-5881.458 -9429.311)" fill="#26c7db"/>
    <path id="Trazado_230869" data-name="Trazado 230869" d="M1686.737,186.69a16.231,16.231,0,0,0-12.129-5.761,5.732,5.732,0,0,0-3.485.862,2.567,2.567,0,0,0-.9,3.209c.624,1.049,2.027,1.27,3.242,1.375A94.218,94.218,0,0,0,1686.737,186.69Z" transform="translate(-5883.178 -9435.85)" fill="#26c7db"/>
    <path id="Trazado_230870" data-name="Trazado 230870" d="M1689.9,199.492c-3.2-2.949-8-3.435-12.3-2.8a5.465,5.465,0,0,0-3.088,1.21,2.129,2.129,0,0,0-.182,2.994,3.171,3.171,0,0,0,2.37.436A87.168,87.168,0,0,0,1689.9,199.492Z" transform="translate(-5884.894 -9442.796)" fill="#26c7db"/>
    <path id="Trazado_230871" data-name="Trazado 230871" d="M1693.406,212.278a9.128,9.128,0,0,0-6.2-3.01,17.825,17.825,0,0,0-6.959.978,5.87,5.87,0,0,0-2.414,1.248,2.287,2.287,0,0,0-.624,2.491c.552,1.188,2.165,1.32,3.469,1.21C1684.37,214.88,1688.009,213.924,1693.406,212.278Z" transform="translate(-5886.351 -9448.513)" fill="#26c7db"/>
    <path id="Trazado_230872" data-name="Trazado 230872" d="M1696.228,226.283c-4.358-2.375-9.693-3.491-14.322-1.712-1.149.442-2.392,1.32-2.314,2.552a2.195,2.195,0,0,0,1.331,1.734,5.431,5.431,0,0,0,2.248.376C1687.065,229.249,1690.876,228.189,1696.228,226.283Z" transform="translate(-5887.489 -9454.995)" fill="#26c7db"/>
    <path id="Trazado_230873" data-name="Trazado 230873" d="M1698.7,239.256a16.531,16.531,0,0,0-11.726-1.049,5.793,5.793,0,0,0-2.9,1.613,2.576,2.576,0,0,0-.3,3.1c.7.928,2.027,1.038,3.187,1.011C1690.313,243.835,1693.627,243.194,1698.7,239.256Z" transform="translate(-5889.185 -9461.213)" fill="#26c7db"/>
    <path id="Trazado_230874" data-name="Trazado 230874" d="M1702.785,187.879a13.817,13.817,0,0,1,8.467-9.738,6.168,6.168,0,0,1,3.413-.436,2.992,2.992,0,0,1,2.386,2.254,3.093,3.093,0,0,1-.884,2.5,8.12,8.12,0,0,1-2.231,1.563A35.885,35.885,0,0,1,1702.785,187.879Z" transform="translate(-5897.873 -9434.365)" fill="#26c7db"/>
    <path id="Trazado_230875" data-name="Trazado 230875" d="M1705.695,202.168a16.586,16.586,0,0,1,11.367-11.074,2.414,2.414,0,0,1,2,.094c.807.563.7,1.8.3,2.7a11.066,11.066,0,0,1-5.209,4.927A52.42,52.42,0,0,1,1705.695,202.168Z" transform="translate(-5899.175 -9440.324)" fill="#26c7db"/>
    <path id="Trazado_230876" data-name="Trazado 230876" d="M1708.225,216.283a11.3,11.3,0,0,1,4.546-5.153,16.894,16.894,0,0,1,6.562-2.242,5.687,5.687,0,0,1,2.535.083,2.062,2.062,0,0,1,.856,3.645,5.579,5.579,0,0,1-1.8,1.038C1717.3,215.123,1713.384,215.659,1708.225,216.283Z" transform="translate(-5900.308 -9448.32)" fill="#26c7db"/>
    <path id="Trazado_230877" data-name="Trazado 230877" d="M1711.145,228.981c2.894-4.485,7.617-8.13,12.947-8.346,1.348-.055,2.977.315,3.4,1.6a2.357,2.357,0,0,1-.7,2.331,5.594,5.594,0,0,1-2.231,1.21C1720.038,227.275,1714.779,227.126,1711.145,228.981Z" transform="translate(-5901.615 -9453.622)" fill="#26c7db"/>
    <path id="Trazado_230878" data-name="Trazado 230878" d="M1484.785,258.5a198.832,198.832,0,0,1,94.647,16.216" transform="translate(-5800.281 -9470.327)" fill="#26c7db"/>
    <path id="Trazado_230879" data-name="Trazado 230879" d="M1482.02,256.338a12.087,12.087,0,0,0-14.024.447,4.506,4.506,0,0,0-1.359,1.563,2.072,2.072,0,0,0,.05,2,3.018,3.018,0,0,0,2.756.917A22.918,22.918,0,0,0,1482.02,256.338Z" transform="translate(-5792.052 -9468.7)" fill="#26c7db"/>
    <path id="Trazado_230880" data-name="Trazado 230880" d="M1501.563,257.95a13.837,13.837,0,0,0-8.539,6.12,5.339,5.339,0,0,0-.856,2.132,2.206,2.206,0,0,0,2.96,2.513,5.128,5.128,0,0,0,2.005-1.27C1500.3,264.473,1501.894,259.762,1501.563,257.95Z" transform="translate(-5803.576 -9470.329)" fill="#26c7db"/>
    <path id="Trazado_230881" data-name="Trazado 230881" d="M1521.811,258.94a15.748,15.748,0,0,0-11.406,10.792c-.309,1.077-.387,2.474.558,3.082,1.022.652,2.331-.16,3.209-.989A26.126,26.126,0,0,0,1521.811,258.94Z" transform="translate(-5811.656 -9470.772)" fill="#26c7db"/>
    <path id="Trazado_230882" data-name="Trazado 230882" d="M1539.737,259.64c-4.9,1.917-8.7,5.96-11.615,10.345a6.6,6.6,0,0,0-1.193,2.59,2.185,2.185,0,0,0,3.4,2.358,6.578,6.578,0,0,0,1.784-1.734A54.933,54.933,0,0,0,1539.737,259.64Z" transform="translate(-5819.132 -9471.086)" fill="#26c7db"/>
    <path id="Trazado_230883" data-name="Trazado 230883" d="M1555.99,261.61a13.3,13.3,0,0,0-8.561,10.472,5.11,5.11,0,0,0,.077,2.2,2.329,2.329,0,0,0,1.436,1.58,2.458,2.458,0,0,0,2.469-.878,7.172,7.172,0,0,0,1.221-2.469C1553.9,268.829,1555.167,265.139,1555.99,261.61Z" transform="translate(-5828.288 -9471.968)" fill="#26c7db"/>
    <path id="Trazado_230884" data-name="Trazado 230884" d="M1570.284,262.97a32.04,32.04,0,0,0-4.181,6.28,10.8,10.8,0,0,0-.856,7.351c.2.712.619,1.491,1.348,1.607a2.025,2.025,0,0,0,1.668-.817,12.332,12.332,0,0,0,3-6.23A13.809,13.809,0,0,0,1570.284,262.97Z" transform="translate(-5836.158 -9472.576)" fill="#26c7db"/>
    <path id="Trazado_230885" data-name="Trazado 230885" d="M1589.036,266.93a10.006,10.006,0,0,0-4.424,4,23.692,23.692,0,0,0-2.364,5.562,6.543,6.543,0,0,0-.42,2.381,2.127,2.127,0,0,0,3.806,1.408,5.994,5.994,0,0,0,1.331-2.535A68.366,68.366,0,0,0,1589.036,266.93Z" transform="translate(-5843.721 -9474.35)" fill="#26c7db"/>
    <path id="Trazado_230886" data-name="Trazado 230886" d="M1495.458,249.035a13.557,13.557,0,0,1-8.108-6.948,2.377,2.377,0,0,1-.326-1.342,1.94,1.94,0,0,1,1.685-1.458,4.444,4.444,0,0,1,3.955,1.6,10.694,10.694,0,0,1,1.994,3.944A13.447,13.447,0,0,1,1495.458,249.035Z" transform="translate(-5801.277 -9461.95)" fill="#26c7db"/>
    <path id="Trazado_230887" data-name="Trazado 230887" d="M1515.051,249.186a17,17,0,0,1-6.623-7.042,5.6,5.6,0,0,1-.668-2.093,2.15,2.15,0,0,1,3.071-2.265,5.186,5.186,0,0,1,1.933,1.453C1514.813,241.481,1516.05,244.441,1515.051,249.186Z" transform="translate(-5810.563 -9461.223)" fill="#26c7db"/>
    <path id="Trazado_230888" data-name="Trazado 230888" d="M1536.06,248.476a12.493,12.493,0,0,1-5.993-11.284,1.78,1.78,0,0,1,.718-1.563,1.264,1.264,0,0,1,1.287.2,3.4,3.4,0,0,1,.834,1.077A23.869,23.869,0,0,1,1536.06,248.476Z" transform="translate(-5820.543 -9460.291)" fill="#26c7db"/>
    <path id="Trazado_230889" data-name="Trazado 230889" d="M1554.376,250.386a10.892,10.892,0,0,1-5.3-8.986c-.028-1.193.271-2.574,1.331-3.126a2.468,2.468,0,0,1,2.408.232,5.469,5.469,0,0,1,1.651,1.895C1556.259,243.454,1556.85,247.188,1554.376,250.386Z" transform="translate(-5829.06 -9461.423)" fill="#26c7db"/>
    <path id="Trazado_230890" data-name="Trazado 230890" d="M1570.254,252.148a6.562,6.562,0,0,1-3.043-4.236,16.942,16.942,0,0,1-.265-5.336,7.029,7.029,0,0,1,.685-3.054,2.516,2.516,0,0,1,2.612-1.353c1.083.265,1.679,1.419,2.022,2.48A12.054,12.054,0,0,1,1570.254,252.148Z" transform="translate(-5837.023 -9461.45)" fill="#26c7db"/>
    <path id="Trazado_230891" data-name="Trazado 230891" d="M1587.4,255.018a11.734,11.734,0,0,1-.375-12.3c.436-.735,1.116-1.491,1.961-1.4.779.083,1.287.851,1.6,1.569A10.083,10.083,0,0,1,1587.4,255.018Z" transform="translate(-5845.351 -9462.879)" fill="#26c7db"/>
    <path id="Trazado_230892" data-name="Trazado 230892" d="M1687.827,177.691l-2.839-9.671s-7.633,3.3-10.058,8.362c-5.49,11.488-8.948,33.814-11.174,36.929s-29.621,6.827-29.621,6.827l2.806,14.123s33.5-2.414,37.989-6.374c6.075-5.363,13.4-28.688,13.4-28.688Z" transform="translate(-5867.141 -9430.07)" fill="#ff9517"/>
    <path id="Trazado_230893" data-name="Trazado 230893" d="M1759.207,75.421c.955-3.96,5.225-6.645,9.284-6.313a11.59,11.59,0,0,1,9.268,7.042A16.71,16.71,0,0,1,1777.9,88.1c-.9,2.607-2.3,5.4-1.3,7.97.746,1.911,2.657,3.1,4.535,3.933s3.9,1.469,5.429,2.845,2.375,3.8,1.237,5.512c-1.64,2.48-6.191,2-7.213,4.794-.525,1.42.216,2.988.127,4.5a5.478,5.478,0,0,1-3.259,4.358,13.408,13.408,0,0,1-5.568,1.038c-3.347.083-6.838-.2-9.738-1.867s-5.031-5.054-4.336-8.329c.569-2.684,2.9-5.17,2.088-7.788-.585-1.894-2.574-2.911-4-4.292-3.016-2.922-3.491-7.738-2.27-11.754S1757.71,81.646,1759.207,75.421Z" transform="translate(-5920.359 -9385.778)" fill="#6b2e40"/>
    <path id="Trazado_230894" data-name="Trazado 230894" d="M1754.456,145.286c-4.772,7.374-13.228,15.675-16.244,15.272-2.491-.331-5.037-3.828-5.037-10a4.493,4.493,0,0,0,1.033-.6,5.7,5.7,0,0,0,1.778-2.4,4.475,4.475,0,0,0,.238-.773,5.758,5.758,0,0,0-1.149-4.888c-.055-.061-.1-.121-.16-.177a87.422,87.422,0,0,1,12.1-8.859,18.558,18.558,0,0,0,1.547,6.573,11.92,11.92,0,0,0,.679,1.292A10.6,10.6,0,0,0,1754.456,145.286Z" transform="translate(-5911.478 -9414.335)" fill="#fac8bf"/>
    <path id="Trazado_230895" data-name="Trazado 230895" d="M1749.375,139.427c-2.966,4.115-8.092,10.621-14.35,10.527a5.7,5.7,0,0,0,1.779-2.4,4.506,4.506,0,0,0,.237-.773,5.758,5.758,0,0,0-1.149-4.888c-.055-.061-.1-.122-.16-.177a87.381,87.381,0,0,1,12.1-8.859A18.615,18.615,0,0,0,1749.375,139.427Z" transform="translate(-5912.306 -9414.331)" fill="#eda19f"/>
    <path id="Trazado_230896" data-name="Trazado 230896" d="M1740.708,153.26s-6.821,14.51-14.957,14.9c-4.651.226-3.872-9.8-3.872-9.8s-7.76,3.64-10,6.418c-2.579,3.2-5.766,22.646-5.49,27.732.5,9.169,5.319,15.15,5.319,20.132s-3.618,16.945-3.618,16.945l49.3-.133a128.778,128.778,0,0,1-3.11-21.867c-.508-11.256,5.23-36.4,3.159-43.49C1755.974,159.12,1740.708,153.26,1740.708,153.26Z" transform="translate(-5899.479 -9423.463)" fill="#fda829"/>
    <path id="Trazado_230897" data-name="Trazado 230897" d="M1741.125,167.714s10.688-4.12,14.72-15.5c0,0,5.844,1.685,6.219,2.646.63,1.607-2.121,13.19-5.584,14.924C1753.5,171.271,1741.125,167.714,1741.125,167.714Z" transform="translate(-5915.037 -9422.993)" fill="#ff9517"/>
    <path id="Trazado_230898" data-name="Trazado 230898" d="M1730.841,171.342s-3.518-5.043-2.143-11a16.829,16.829,0,0,0-4.794,2.59c-2.463,2.231-6.738,11.025-5.545,11.892C1719.187,175.419,1730.841,171.342,1730.841,171.342Z" transform="translate(-5904.752 -9426.633)" fill="#ff9517"/>
    <path id="Trazado_232881" data-name="Trazado 232881" d="M1.475,0A1.475,1.475,0,1,1,0,1.475,1.475,1.475,0,0,1,1.475,0Z" transform="translate(-4176.055 -9251.75)" fill="#ff9517"/>
    <path id="Trazado_232882" data-name="Trazado 232882" d="M1.475,0A1.475,1.475,0,1,1,0,1.475,1.475,1.475,0,0,1,1.475,0Z" transform="translate(-4177.099 -9242.675)" fill="#ff9517"/>
    <path id="Trazado_232877" data-name="Trazado 232877" d="M6.368,0c3.517,0,6.368,4.078,6.368,9.108s-2.851,9.108-6.368,9.108S0,14.138,0,9.108,2.851,0,6.368,0Z" transform="translate(-4199.413 -9294.989) rotate(-9.933)" fill="#0387d9"/>
    <path id="Trazado_230899" data-name="Trazado 230899" d="M1743.277,96.373c1.547-12.311-5.556-23.369-15.868-24.7s-21.464,7.479-21.464,19.889c0,16.719,6.672,27.418,16.67,25.462C1732.208,115.152,1741.73,108.685,1743.277,96.373Z" transform="translate(-5899.287 -9386.88)" fill="#fac8bf"/>
    <path id="Trazado_230900" data-name="Trazado 230900" d="M1740.964,98.078a11.284,11.284,0,0,1-7.976-5.733,5.45,5.45,0,0,1-2.016,5.2,2.194,2.194,0,0,1-2.071.5,2.385,2.385,0,0,1-1.116-1.259,9.218,9.218,0,0,1-.7-5.915,11.7,11.7,0,0,1-8.357,6.722,3.034,3.034,0,0,1-2.845-.547,2.346,2.346,0,0,1-.326-2.353,6.879,6.879,0,0,1,1.381-2.066,16.871,16.871,0,0,1-11.858,2.889,22.6,22.6,0,0,1,9.792-13.946,17.819,17.819,0,0,1,16.725-1.121c5.241,2.541,8.865,8.373,8.3,14.178" transform="translate(-5898.902 -9390.159)" fill="#eda19f"/>
    <path id="Trazado_230901" data-name="Trazado 230901" d="M1740.257,98.917a41.281,41.281,0,0,0-1.895-6.838,24.075,24.075,0,0,1-7.18-9.252c-.011.133-.011.249-.011.381-.077,2.844-2.088,8.274-2.977,7.711-1.447-.9-1.226-10.781-1.839-16.172a16.268,16.268,0,0,1-1.618,9.738,11.5,11.5,0,0,1-7.7,5.888,1.359,1.359,0,0,1-1.237-.21c-.364-.4-.182-1.033.028-1.524,1.646-3.877,3.286-7.738,4.9-11.615-1.281,2.988-2.756,5.91-5.275,7.843-2.817,2.182-6.578,3.143-10.765,3.1a23.711,23.711,0,0,0-.038,6.645,19.16,19.16,0,0,1-2.088-6.252A20.669,20.669,0,0,1,1727.144,64.9,20.222,20.222,0,0,1,1744.9,77.807,20.549,20.549,0,0,1,1740.257,98.917Z" transform="translate(-5897.67 -9383.724)" fill="#904b57"/>
    <path id="Trazado_230902" data-name="Trazado 230902" d="M1731.839,65.707A30.231,30.231,0,0,0,1713.4,70.12c-6.175,3.982-10.533,10.947-10.831,18.232a20.669,20.669,0,0,1,24.579-23.463A20.092,20.092,0,0,1,1731.839,65.707Z" transform="translate(-5897.67 -9383.719)" fill="#bd7d81"/>
    <path id="Trazado_230903" data-name="Trazado 230903" d="M1743.649,90.79s1.154-13.267-6.49-19.332c-9.251-7.335-21.7-2.215-21.7-2.215s-.751-1.751,6.91-4.142c3.75-1.171,12.858-2.314,19.121,3.5,7.468,6.926,7.015,19.066,7.015,19.066Z" transform="translate(-5903.537 -9383.571)" fill="#0a4494"/>
    <path id="Trazado_230904" data-name="Trazado 230904" d="M1760.282,113.491c.656-4.988,4.014-8.659,7.5-8.2s5.783,4.873,5.128,9.86-4.014,8.659-7.5,8.2S1759.627,118.479,1760.282,113.491Z" transform="translate(-5923.563 -9401.971)" fill="#0387d9"/>
    <path id="Trazado_230905" data-name="Trazado 230905" d="M1768.449,115.137c.585-4.449,2.893-7.815,5.155-7.517s3.623,4.145,3.038,8.594-2.893,7.815-5.155,7.518S1767.865,119.586,1768.449,115.137Z" transform="translate(-5927.208 -9403.022)" fill="#26c7db"/>
    <path id="Trazado_230906" data-name="Trazado 230906" d="M1741.345,113.993a6.355,6.355,0,0,0-6.91-1.425" transform="translate(-5912.042 -9405.035)" fill="none" stroke="#904b57" stroke-linecap="round" stroke-miterlimit="10" stroke-width="2"/>
    <path id="Trazado_230907" data-name="Trazado 230907" d="M1715.2,112.629a4.638,4.638,0,0,0-6.175.387" transform="translate(-5900.666 -9404.831)" fill="none" stroke="#904b57" stroke-linecap="round" stroke-miterlimit="10" stroke-width="2"/>
    <path id="Trazado_230908" data-name="Trazado 230908" d="M1723.4,123.7a16.819,16.819,0,0,0,.514,4.86" transform="translate(-5907.097 -9410.229)" fill="none" stroke="#b35267" stroke-linecap="round" stroke-miterlimit="10" stroke-width="2"/>
    <path id="Trazado_232883" data-name="Trazado 232883" d="M.956,0c.528,0,.956.65.956,1.453S1.483,2.905.956,2.905,0,2.255,0,1.453.428,0,.956,0Z" transform="translate(-4176.06 -9287.988)" fill="#363857"/>
    <path id="Trazado_232884" data-name="Trazado 232884" d="M.956,0c.528,0,.956.65.956,1.453S1.483,2.905.956,2.905,0,2.255,0,1.453.428,0,.956,0Z" transform="translate(-4189.509 -9287.988)" fill="#363857"/>
    <path id="Trazado_230909" data-name="Trazado 230909" d="M1733.015,139.169a3.646,3.646,0,0,1-3.866-.845,6.361,6.361,0,0,1-1.513-2.668l.237-.066,7.125-2.11a6.722,6.722,0,0,1,.331.967,4.965,4.965,0,0,1,.144.724A3.3,3.3,0,0,1,1733.015,139.169Z" transform="translate(-5908.997 -9414.608)" fill="#b35267"/>
    <path id="Trazado_230910" data-name="Trazado 230910" d="M1735.526,134.447a41.754,41.754,0,0,1-6.44,1.773,1.591,1.591,0,0,1-1.011-.63l7.125-2.11A6.4,6.4,0,0,1,1735.526,134.447Z" transform="translate(-5909.194 -9414.608)" fill="#ffedef"/>
    <path id="Trazado_230911" data-name="Trazado 230911" d="M1734.241,140.534a3.646,3.646,0,0,1-3.866-.845,9.253,9.253,0,0,1,6.324-3.159A3.3,3.3,0,0,1,1734.241,140.534Z" transform="translate(-5910.224 -9415.974)" fill="#e6919d"/>
    <path id="Trazado_230912" data-name="Trazado 230912" d="M1718.494,148.449a10.674,10.674,0,0,1-6.5-2.657,8.947,8.947,0,0,1-3.22-7.153" transform="translate(-5900.547 -9416.918)" fill="none" stroke="#363857" stroke-miterlimit="10" stroke-width="1"/>
    <path id="Trazado_232885" data-name="Trazado 232885" d="M2.949,0C4.578,0,5.9.8,5.9,1.8s-1.321,1.8-2.949,1.8S0,2.786,0,1.8,1.321,0,2.949,0Z" transform="translate(-4183.842 -9270.264)" fill="#363857"/>
    <path id="Trazado_230913" data-name="Trazado 230913" d="M1479.355,294.268v3.507l190.349.4,42.071-9.058v-3.38Z" transform="translate(-5797.85 -9482.771)" fill="#1b2e34"/>
    <path id="Trazado_230914" data-name="Trazado 230914" d="M1548.076,285.8l163.7-.061-42.369,8.594-190.051-.066Z" transform="translate(-5797.85 -9482.771)" fill="#fff"/>
    <path id="Trazado_230915" data-name="Trazado 230915" d="M1616.334,279.906c-3.546.436-7.545.712-11.748.856-4.071.16-8.329.215-12.621.215a14.955,14.955,0,0,1,6.484-8.622,12.718,12.718,0,0,1,3.143-1.353,11.509,11.509,0,0,1,14.742,8.9Z" transform="translate(-5848.262 -9475.958)" fill="#12252b"/>
    <path id="Trazado_230916" data-name="Trazado 230916" d="M1604.586,281.15c-4.071.16-8.329.215-12.621.215a14.955,14.955,0,0,1,6.484-8.622,12.72,12.72,0,0,1,3.143-1.353,7.78,7.78,0,0,1,2.789,4.33A14.476,14.476,0,0,1,1604.586,281.15Z" transform="translate(-5848.262 -9476.346)" fill="#597375"/>
    <path id="Trazado_230917" data-name="Trazado 230917" d="M1619.624,271.832a11.632,11.632,0,0,1-6.512,1.055c-.917,1.2-5.529,5.087-6.716,4.054-.917-.8,2.419-4.049,3.093-5.286a6.677,6.677,0,0,0,.906-2.966c-1.132-1.353-3.386-2.651-4.838-2.287-2.265.569-5.043,3.872-7.876,6.275a3.784,3.784,0,0,1-1.26.812,1.192,1.192,0,0,1-1.331-.376c-.552-.746-.1-1.889.386-2.7a36.856,36.856,0,0,1,9.782-10.748,39.659,39.659,0,0,1,12.356,3.712A21.849,21.849,0,0,1,1619.624,271.832Z" transform="translate(-5849.548 -9471.099)" fill="#fac8bf"/>
    <path id="Trazado_230918" data-name="Trazado 230918" d="M1624.555,284.847v2.629h75.492l16.68-3.27V282.55Z" transform="translate(-5862.852 -9481.342)" fill="#1b2e34"/>
    <path id="Trazado_230919" data-name="Trazado 230919" d="M1651.807,282.566l64.921-.017-16.8,2.32-75.371-.022Z" transform="translate(-5862.852 -9481.342)" fill="#324b4f"/>
    <path id="Trazado_230920" data-name="Trazado 230920" d="M1782.054,256.29s-5.186,5.142-.094,13.538a6.475,6.475,0,0,0,4.894-6.136C1787.108,260.322,1782.054,256.29,1782.054,256.29Z" transform="translate(-5932.315 -9469.586)" fill="#ff8603"/>
    <path id="Trazado_230921" data-name="Trazado 230921" d="M1768.877,264.1c-.171.309-2.342.608-3.911.762-.4.028-1.911-.011-2.187,0a2.734,2.734,0,0,1-1.69,3.215,3.776,3.776,0,0,1-3.281-1.16,3.053,3.053,0,0,1-3.419.574,5.012,5.012,0,0,1-2.187-3.839,6.832,6.832,0,0,0-.3,2.574c.2.74,2.861,4.38.939,4.993-.884.282-3.8-2.856-4.131-4.231a10.982,10.982,0,0,1,.574-6.357c-1.674,2-2.264,3-2.441,3.844-.458,2.171-.1,6.031-1.629,5.9-1.823,0-2.165-5.507-1.42-7.865.536-1.7,3.933-7.064,5.761-7.517,1.69-.42,10.87-.044,12.593.21.862.133,1.718.221,2.508.293,2.165.188,3.877.177,3.971.254C1769.7,256.892,1769.347,263.183,1768.877,264.1Z" transform="translate(-5916.067 -9468.923)" fill="#fac8bf"/>
    <path id="Trazado_230922" data-name="Trazado 230922" d="M1786.08,264.664c-.171.309-2.342.608-3.91.762a10.883,10.883,0,0,0,.757-2.828,11.605,11.605,0,0,0-1.072-6.529c2.165.188,3.877.177,3.971.254C1786.9,257.456,1786.55,263.747,1786.08,264.664Z" transform="translate(-5933.271 -9469.487)" fill="#ff9517"/>
    <path id="Trazado_230923" data-name="Trazado 230923" d="M1765.245,264.77a11.531,11.531,0,0,0,2.077,6.175" transform="translate(-5925.835 -9473.382)" fill="none" stroke="#b35267" stroke-linecap="round" stroke-miterlimit="10" stroke-width="1"/>
    <path id="Trazado_230924" data-name="Trazado 230924" d="M1777.159,272.291a3.361,3.361,0,0,1-1.154-.7" transform="translate(-5930.651 -9476.436)" fill="none" stroke="#b35267" stroke-linecap="round" stroke-miterlimit="10" stroke-width="1"/>
    <path id="Trazado_230925" data-name="Trazado 230925" d="M1775.653,269.68a3.677,3.677,0,0,1-.348,2.126" transform="translate(-5930.338 -9475.58)" fill="none" stroke="#b35267" stroke-linecap="round" stroke-miterlimit="10" stroke-width="1"/>
    <path id="Trazado_230926" data-name="Trazado 230926" d="M1794.668,173.013c-1.441-3.3-5.827-6.368-9.925-8.633-.132.077-.265.149-.4.232a28.808,28.808,0,0,0-6.059,5.645c-.077.088-.149.188-.221.276,1.132,7.462,2.563,16.945,3.082,20.469,1.088,7.368,9.251,21.6,9.141,23.093s-9.141.718-9.141.718c3.607,5.015,2.778,10.345-.055,13.736,0,0,23.38,1.337,26.2-2.347S1796.772,177.84,1794.668,173.013Z" transform="translate(-5931.574 -9428.44)" fill="#fda829"/>
    <path id="Trazado_230927" data-name="Trazado 230927" d="M1788.427,174.39a51.1,51.1,0,0,0,1.453,35.1" transform="translate(-5935.125 -9432.921)" fill="none" stroke="#ff9517" stroke-miterlimit="10" stroke-width="1"/>
    <path id="Trazado_230928" data-name="Trazado 230928" d="M1775.865,209.48a25.794,25.794,0,0,0,8.484,13.267" transform="translate(-5930.589 -9448.63)" fill="none" stroke="#ff9517" stroke-miterlimit="10" stroke-width="1"/>
    <path id="Trazado_230929" data-name="Trazado 230929" d="M1784.585,255.56a15.968,15.968,0,0,0,4.065.392" transform="translate(-5934.493 -9469.259)" fill="none" stroke="#ff9517" stroke-miterlimit="10" stroke-width="1"/>
    <path id="Trazado_230930" data-name="Trazado 230930" d="M1790.773,280.854c-2.513,0-4.131-.077-6.578-.2" transform="translate(-5934.318 -9480.491)" fill="none" stroke="#ff9517" stroke-miterlimit="10" stroke-width="1"/>
    <path id="Trazado_230931" data-name="Trazado 230931" d="M1509.611,214.947l-3.016-68.787h94.3l3.016,68.787Z" transform="translate(-5810.044 -9420.284)" fill="#1b2e34"/>
    <path id="Trazado_230932" data-name="Trazado 230932" d="M1674.5,214.947l-3.016-68.787h3.231l3.016,68.787Z" transform="translate(-5883.861 -9420.284)" fill="#324b4f"/>
    <path id="Trazado_230933" data-name="Trazado 230933" d="M1561.245,265.45l8.8-36.94h17.094l-8.8,36.94Z" transform="translate(-5834.51 -9457.149)" fill="#12252b"/>
    <path id="Trazado_230934" data-name="Trazado 230934" d="M1590.2,265.45l8.8-36.94h1.1l-8.8,36.94Z" transform="translate(-5847.475 -9457.149)" fill="#324b4f"/>
    <path id="Trazado_232878" data-name="Trazado 232878" d="M0,0H34.857V3.861H0Z" transform="translate(-4281.373 -9195.561)" fill="#12252b"/>
    <path id="Trazado_232879" data-name="Trazado 232879" d="M0,0H2.248V3.861H0Z" transform="translate(-4248.764 -9195.561)" fill="#324b4f"/>
    <path id="Trazado_232886" data-name="Trazado 232886" d="M32.563,11.141V15H29.82V3.625h4.539a5.287,5.287,0,0,1,2.309.48,3.621,3.621,0,0,1,1.555,1.367,3.734,3.734,0,0,1,.551,2.012,3.291,3.291,0,0,1-1.191,2.66,4.943,4.943,0,0,1-3.27,1Zm0-2.117h1.8a1.7,1.7,0,0,0,1.215-.4A1.48,1.48,0,0,0,35.992,7.5a1.83,1.83,0,0,0-.43-1.273,1.522,1.522,0,0,0-1.172-.484H32.563ZM45.227,8.93l-.867-.062a1.558,1.558,0,0,0-1.594.781V15H40.133V6.547H42.6l.086,1.086a2.039,2.039,0,0,1,1.852-1.242,2.567,2.567,0,0,1,.734.094Zm.336,1.766a4.989,4.989,0,0,1,.492-2.254,3.52,3.52,0,0,1,1.414-1.52,4.259,4.259,0,0,1,2.164-.531,3.887,3.887,0,0,1,2.992,1.176,4.512,4.512,0,0,1,1.094,3.2v.094A4.378,4.378,0,0,1,52.621,14a3.9,3.9,0,0,1-2.973,1.16,3.942,3.942,0,0,1-2.9-1.082,4.232,4.232,0,0,1-1.18-2.934Zm2.633.164a3.145,3.145,0,0,0,.367,1.719,1.223,1.223,0,0,0,1.086.547q1.406,0,1.438-2.164V10.7q0-2.273-1.453-2.273-1.32,0-1.43,1.961Zm10.258,2.266a1.171,1.171,0,0,0,.859-.3,1.1,1.1,0,0,0,.3-.84h2.469a2.922,2.922,0,0,1-1,2.281,3.705,3.705,0,0,1-2.566.891A3.751,3.751,0,0,1,55.609,14a4.556,4.556,0,0,1-1.062-3.2v-.109a5.149,5.149,0,0,1,.473-2.262,3.441,3.441,0,0,1,1.363-1.508,4.065,4.065,0,0,1,2.109-.527,3.658,3.658,0,0,1,2.617.914,3.242,3.242,0,0,1,.969,2.477H59.609a1.445,1.445,0,0,0-.32-1.008,1.106,1.106,0,0,0-.859-.352q-1.023,0-1.2,1.3a9.206,9.206,0,0,0-.055,1.141,3.616,3.616,0,0,0,.3,1.766A1.055,1.055,0,0,0,58.453,13.125Zm8.828,2.031A4.345,4.345,0,0,1,64.133,14a4.006,4.006,0,0,1-1.2-3.02v-.219a5.191,5.191,0,0,1,.48-2.289,3.516,3.516,0,0,1,1.4-1.535A4.233,4.233,0,0,1,67,6.391,3.659,3.659,0,0,1,69.813,7.5a4.344,4.344,0,0,1,1.031,3.082V11.6H65.609a1.9,1.9,0,0,0,.617,1.117,1.836,1.836,0,0,0,1.234.406,2.366,2.366,0,0,0,1.953-.875l1.2,1.422a3.363,3.363,0,0,1-1.395,1.082A4.713,4.713,0,0,1,67.281,15.156Zm-.3-6.734q-1.156,0-1.375,1.531h2.656v-.2a1.3,1.3,0,0,0-.32-.98A1.275,1.275,0,0,0,66.984,8.422Zm9.344,4.2a.608.608,0,0,0-.352-.539,5.348,5.348,0,0,0-1.336-.422,6.092,6.092,0,0,1-1.625-.574,2.722,2.722,0,0,1-.977-.863A2.061,2.061,0,0,1,71.7,9.063a2.336,2.336,0,0,1,.961-1.918,3.958,3.958,0,0,1,2.516-.754,4.386,4.386,0,0,1,2.688.758,2.37,2.37,0,0,1,1.016,1.992H76.242q0-1.016-1.07-1.016a1.061,1.061,0,0,0-.7.23.714.714,0,0,0-.281.574.655.655,0,0,0,.344.57,3.248,3.248,0,0,0,1.1.359,9.486,9.486,0,0,1,1.324.336,2.406,2.406,0,0,1,1.906,2.352A2.214,2.214,0,0,1,77.84,14.43a4.505,4.505,0,0,1-2.66.727,4.6,4.6,0,0,1-1.937-.391A3.24,3.24,0,0,1,71.914,13.7a2.406,2.406,0,0,1-.477-1.414H73.9a1.017,1.017,0,0,0,.391.855,1.607,1.607,0,0,0,.961.27,1.264,1.264,0,0,0,.809-.219A.7.7,0,0,0,76.328,12.625Zm3.438-1.93a4.989,4.989,0,0,1,.492-2.254,3.52,3.52,0,0,1,1.414-1.52,4.259,4.259,0,0,1,2.164-.531,3.887,3.887,0,0,1,2.992,1.176,4.512,4.512,0,0,1,1.094,3.2v.094A4.378,4.378,0,0,1,86.824,14a3.9,3.9,0,0,1-2.973,1.16,3.942,3.942,0,0,1-2.9-1.082,4.232,4.232,0,0,1-1.18-2.934Zm2.633.164a3.145,3.145,0,0,0,.367,1.719,1.223,1.223,0,0,0,1.086.547q1.406,0,1.438-2.164V10.7q0-2.273-1.453-2.273-1.32,0-1.43,1.961Zm10.336-.148A5.164,5.164,0,0,1,93.6,7.547a2.854,2.854,0,0,1,2.422-1.156,2.428,2.428,0,0,1,1.906.891V3h2.641V15H98.2l-.133-.906a2.493,2.493,0,0,1-2.062,1.063A2.849,2.849,0,0,1,93.617,14,5.327,5.327,0,0,1,92.734,10.711Zm2.633.164q0,2.25,1.313,2.25a1.3,1.3,0,0,0,1.25-.734V9.172a1.261,1.261,0,0,0-1.234-.75q-1.219,0-1.32,1.969Zm10.789,4.281A4.345,4.345,0,0,1,103.008,14a4.006,4.006,0,0,1-1.2-3.02v-.219a5.191,5.191,0,0,1,.48-2.289,3.516,3.516,0,0,1,1.4-1.535,4.233,4.233,0,0,1,2.188-.543A3.659,3.659,0,0,1,108.688,7.5a4.344,4.344,0,0,1,1.031,3.082V11.6h-5.234a1.9,1.9,0,0,0,.617,1.117,1.836,1.836,0,0,0,1.234.406,2.366,2.366,0,0,0,1.953-.875l1.2,1.422a3.363,3.363,0,0,1-1.395,1.082A4.713,4.713,0,0,1,106.156,15.156Zm-.3-6.734q-1.156,0-1.375,1.531h2.656v-.2a1.3,1.3,0,0,0-.32-.98A1.275,1.275,0,0,0,105.859,8.422Zm-94.883,24.2a.608.608,0,0,0-.352-.539,5.348,5.348,0,0,0-1.336-.422,6.092,6.092,0,0,1-1.625-.574,2.722,2.722,0,0,1-.977-.863,2.061,2.061,0,0,1-.336-1.164,2.336,2.336,0,0,1,.961-1.918,3.958,3.958,0,0,1,2.516-.754,4.386,4.386,0,0,1,2.688.758,2.37,2.37,0,0,1,1.016,1.992H10.891q0-1.016-1.07-1.016a1.061,1.061,0,0,0-.7.23.714.714,0,0,0-.281.574.655.655,0,0,0,.344.57,3.248,3.248,0,0,0,1.1.359,9.485,9.485,0,0,1,1.324.336,2.406,2.406,0,0,1,1.906,2.352,2.214,2.214,0,0,1-1.027,1.883,4.505,4.505,0,0,1-2.66.727,4.6,4.6,0,0,1-1.937-.391A3.24,3.24,0,0,1,6.563,33.7a2.406,2.406,0,0,1-.477-1.414H8.547a1.017,1.017,0,0,0,.391.855,1.607,1.607,0,0,0,.961.27,1.264,1.264,0,0,0,.809-.219A.7.7,0,0,0,10.977,32.625Zm7.859,2.531A4.345,4.345,0,0,1,15.688,34a4.006,4.006,0,0,1-1.2-3.02v-.219a5.191,5.191,0,0,1,.48-2.289,3.516,3.516,0,0,1,1.4-1.535,4.233,4.233,0,0,1,2.188-.543A3.659,3.659,0,0,1,21.367,27.5,4.344,4.344,0,0,1,22.4,30.578V31.6H17.164a1.9,1.9,0,0,0,.617,1.117,1.836,1.836,0,0,0,1.234.406,2.366,2.366,0,0,0,1.953-.875l1.2,1.422a3.363,3.363,0,0,1-1.395,1.082A4.713,4.713,0,0,1,18.836,35.156Zm-.3-6.734q-1.156,0-1.375,1.531H19.82v-.2a1.3,1.3,0,0,0-.32-.98A1.275,1.275,0,0,0,18.539,28.422Zm10.031.508-.867-.062a1.558,1.558,0,0,0-1.594.781V35H23.477V26.547h2.469l.086,1.086a2.039,2.039,0,0,1,1.852-1.242,2.567,2.567,0,0,1,.734.094Zm4.461,2.938,1.336-5.32h2.773L34.383,35H31.7l-2.758-8.453h2.781ZM40.7,35H38.063V26.547H40.7Zm-2.8-10.641a1.186,1.186,0,0,1,.406-.927,1.719,1.719,0,0,1,2.109,0,1.262,1.262,0,0,1,0,1.855,1.719,1.719,0,0,1-2.109,0A1.186,1.186,0,0,1,37.906,24.359ZM45.9,33.125a1.171,1.171,0,0,0,.859-.3,1.1,1.1,0,0,0,.3-.84h2.469a2.923,2.923,0,0,1-1,2.281,3.705,3.705,0,0,1-2.566.891A3.751,3.751,0,0,1,43.055,34a4.556,4.556,0,0,1-1.062-3.2v-.109a5.149,5.149,0,0,1,.473-2.262,3.441,3.441,0,0,1,1.363-1.508,4.065,4.065,0,0,1,2.109-.527,3.658,3.658,0,0,1,2.617.914,3.242,3.242,0,0,1,.969,2.477H47.055a1.445,1.445,0,0,0-.32-1.008,1.106,1.106,0,0,0-.859-.352q-1.023,0-1.2,1.3a9.206,9.206,0,0,0-.055,1.141,3.616,3.616,0,0,0,.3,1.766A1.055,1.055,0,0,0,45.9,33.125ZM53.414,35H50.773V26.547h2.641Zm-2.8-10.641a1.186,1.186,0,0,1,.406-.927,1.719,1.719,0,0,1,2.109,0,1.262,1.262,0,0,1,0,1.855,1.719,1.719,0,0,1-2.109,0A1.186,1.186,0,0,1,50.617,24.359ZM54.7,30.7a4.989,4.989,0,0,1,.492-2.254,3.52,3.52,0,0,1,1.414-1.52,4.259,4.259,0,0,1,2.164-.531,3.887,3.887,0,0,1,2.992,1.176,4.512,4.512,0,0,1,1.094,3.2v.094A4.378,4.378,0,0,1,61.762,34a3.9,3.9,0,0,1-2.973,1.16,3.942,3.942,0,0,1-2.9-1.082,4.232,4.232,0,0,1-1.18-2.934Zm2.633.164a3.145,3.145,0,0,0,.367,1.719,1.223,1.223,0,0,0,1.086.547q1.406,0,1.438-2.164V30.7q0-2.273-1.453-2.273-1.32,0-1.43,1.961ZM72.766,35a2.973,2.973,0,0,1-.25-.758,2.448,2.448,0,0,1-2.031.914,3,3,0,0,1-2.031-.723,2.3,2.3,0,0,1-.836-1.816,2.364,2.364,0,0,1,1.016-2.078,5.174,5.174,0,0,1,2.953-.7H72.4v-.448q0-1.17-1.008-1.17a.824.824,0,0,0-.937.926H67.82a2.36,2.36,0,0,1,1.043-1.99,4.383,4.383,0,0,1,2.66-.765,3.843,3.843,0,0,1,2.555.789,2.743,2.743,0,0,1,.961,2.164v3.742a3.832,3.832,0,0,0,.359,1.781V35Zm-1.648-1.719a1.469,1.469,0,0,0,.816-.211,1.322,1.322,0,0,0,.465-.477V31.242h-.766q-1.375,0-1.375,1.234a.754.754,0,0,0,.242.582A.876.876,0,0,0,71.117,33.281ZM79.273,35H76.633V23h2.641Zm9.18-1.875a1.171,1.171,0,0,0,.859-.3,1.1,1.1,0,0,0,.3-.84h2.469a2.923,2.923,0,0,1-1,2.281,3.705,3.705,0,0,1-2.566.891A3.751,3.751,0,0,1,85.609,34a4.556,4.556,0,0,1-1.062-3.2v-.109a5.149,5.149,0,0,1,.473-2.262,3.441,3.441,0,0,1,1.363-1.508,4.065,4.065,0,0,1,2.109-.527,3.658,3.658,0,0,1,2.617.914,3.242,3.242,0,0,1,.969,2.477H89.609a1.445,1.445,0,0,0-.32-1.008,1.106,1.106,0,0,0-.859-.352q-1.023,0-1.2,1.3a9.206,9.206,0,0,0-.055,1.141,3.616,3.616,0,0,0,.3,1.766A1.055,1.055,0,0,0,88.453,33.125ZM95.969,35H93.328V23h2.641Zm4.4,0H97.727V26.547h2.641Zm-2.8-10.641a1.186,1.186,0,0,1,.406-.927,1.719,1.719,0,0,1,2.109,0,1.262,1.262,0,0,1,0,1.855,1.719,1.719,0,0,1-2.109,0A1.186,1.186,0,0,1,97.57,24.359Zm8.508,10.8A4.345,4.345,0,0,1,102.93,34a4.006,4.006,0,0,1-1.2-3.02v-.219a5.191,5.191,0,0,1,.48-2.289,3.516,3.516,0,0,1,1.4-1.535,4.233,4.233,0,0,1,2.188-.543,3.659,3.659,0,0,1,2.813,1.105,4.344,4.344,0,0,1,1.031,3.082V31.6h-5.234a1.9,1.9,0,0,0,.617,1.117,1.836,1.836,0,0,0,1.234.406,2.366,2.366,0,0,0,1.953-.875l1.2,1.422a3.363,3.363,0,0,1-1.395,1.082A4.713,4.713,0,0,1,106.078,35.156Zm-.3-6.734q-1.156,0-1.375,1.531h2.656v-.2a1.3,1.3,0,0,0-.32-.98A1.275,1.275,0,0,0,105.781,28.422Zm7.336-1.875.086.992a2.867,2.867,0,0,1,2.414-1.148,2.412,2.412,0,0,1,1.973.789,3.757,3.757,0,0,1,.676,2.375V35h-2.641V29.664a1.426,1.426,0,0,0-.258-.941,1.193,1.193,0,0,0-.937-.3,1.256,1.256,0,0,0-1.148.609V35h-2.633V26.547Zm9.672-2.1v2.1h1.391v1.828h-1.391v3.867a.987.987,0,0,0,.172.664.922.922,0,0,0,.68.188,3.862,3.862,0,0,0,.656-.047V34.93a4.859,4.859,0,0,1-1.484.227,2.758,2.758,0,0,1-2.008-.641,2.626,2.626,0,0,1-.648-1.945v-4.2h-1.078V26.547h1.078v-2.1ZM129.3,35.156A4.345,4.345,0,0,1,126.156,34a4.006,4.006,0,0,1-1.2-3.02v-.219a5.191,5.191,0,0,1,.48-2.289,3.516,3.516,0,0,1,1.4-1.535,4.233,4.233,0,0,1,2.188-.543,3.659,3.659,0,0,1,2.813,1.105,4.344,4.344,0,0,1,1.031,3.082V31.6h-5.234a1.9,1.9,0,0,0,.617,1.117,1.836,1.836,0,0,0,1.234.406,2.366,2.366,0,0,0,1.953-.875l1.2,1.422a3.363,3.363,0,0,1-1.395,1.082A4.713,4.713,0,0,1,129.3,35.156Zm-.3-6.734q-1.156,0-1.375,1.531h2.656v-.2a1.3,1.3,0,0,0-.32-.98A1.275,1.275,0,0,0,129.008,28.422Z" transform="translate(-4262.734 -9166.563)" fill="#12263f"/>
    <path id="Trazado_232880" data-name="Trazado 232880" d="M15.809,10.4H13.137V15H11.629V3.625h3.766a4.457,4.457,0,0,1,2.957.875,3.148,3.148,0,0,1,1.035,2.547A3.062,3.062,0,0,1,18.813,8.9a3.428,3.428,0,0,1-1.6,1.18l2.672,4.828V15H18.277ZM13.137,9.172h2.3a2.6,2.6,0,0,0,1.777-.579,1.959,1.959,0,0,0,.66-1.55,2.062,2.062,0,0,0-.629-1.62,2.663,2.663,0,0,0-1.816-.571h-2.3ZM24.77,15.156a3.693,3.693,0,0,1-2.8-1.129,4.19,4.19,0,0,1-1.078-3.02v-.266a5.073,5.073,0,0,1,.48-2.246,3.748,3.748,0,0,1,1.344-1.547,3.378,3.378,0,0,1,1.871-.559,3.166,3.166,0,0,1,2.563,1.086,4.7,4.7,0,0,1,.914,3.109v.6H22.34a3,3,0,0,0,.73,2.02,2.3,2.3,0,0,0,1.777.77,2.517,2.517,0,0,0,1.3-.312,3.259,3.259,0,0,0,.93-.828l.883.688A3.55,3.55,0,0,1,24.77,15.156Zm-.18-7.578a1.928,1.928,0,0,0-1.469.637A3.1,3.1,0,0,0,22.387,10h4.234V9.891a2.753,2.753,0,0,0-.594-1.707A1.815,1.815,0,0,0,24.59,7.578Zm8.539,6.4a2.082,2.082,0,0,0,1.352-.469,1.649,1.649,0,0,0,.641-1.172h1.367a2.621,2.621,0,0,1-.5,1.383,3.293,3.293,0,0,1-1.23,1.047,3.55,3.55,0,0,1-1.629.391A3.482,3.482,0,0,1,30.383,14a4.59,4.59,0,0,1-1.02-3.152v-.242a5.089,5.089,0,0,1,.453-2.2,3.451,3.451,0,0,1,1.3-1.492,3.7,3.7,0,0,1,2-.531,3.39,3.39,0,0,1,2.363.852,3.043,3.043,0,0,1,1,2.211H35.121A1.992,1.992,0,0,0,34.5,8.105a1.932,1.932,0,0,0-1.379-.527,2.023,2.023,0,0,0-1.707.793,3.724,3.724,0,0,0-.605,2.293v.273a3.65,3.65,0,0,0,.6,2.25A2.033,2.033,0,0,0,33.129,13.977Zm8.492,1.18a3.693,3.693,0,0,1-2.8-1.129,4.19,4.19,0,0,1-1.078-3.02v-.266a5.073,5.073,0,0,1,.48-2.246A3.748,3.748,0,0,1,39.57,6.949a3.378,3.378,0,0,1,1.871-.559A3.166,3.166,0,0,1,44,7.477a4.7,4.7,0,0,1,.914,3.109v.6H39.191a3,3,0,0,0,.73,2.02,2.3,2.3,0,0,0,1.777.77,2.517,2.517,0,0,0,1.3-.312,3.259,3.259,0,0,0,.93-.828l.883.688A3.55,3.55,0,0,1,41.621,15.156Zm-.18-7.578a1.928,1.928,0,0,0-1.469.637A3.1,3.1,0,0,0,39.238,10h4.234V9.891a2.753,2.753,0,0,0-.594-1.707A1.815,1.815,0,0,0,41.441,7.578ZM53.73,10.867a5.062,5.062,0,0,1-.883,3.109,2.829,2.829,0,0,1-2.391,1.18,3.1,3.1,0,0,1-2.422-.977v4.07H46.59V6.547h1.32l.07.938a2.977,2.977,0,0,1,2.453-1.094,2.882,2.882,0,0,1,2.41,1.148,5.117,5.117,0,0,1,.887,3.2ZM52.285,10.7a3.735,3.735,0,0,0-.609-2.258A1.963,1.963,0,0,0,50,7.617a2.125,2.125,0,0,0-1.969,1.164V12.82a2.129,2.129,0,0,0,1.984,1.156,1.954,1.954,0,0,0,1.652-.824A4.077,4.077,0,0,0,52.285,10.7Zm6.672,3.273a2.082,2.082,0,0,0,1.352-.469,1.649,1.649,0,0,0,.641-1.172h1.367a2.621,2.621,0,0,1-.5,1.383,3.293,3.293,0,0,1-1.23,1.047,3.55,3.55,0,0,1-1.629.391A3.482,3.482,0,0,1,56.211,14a4.59,4.59,0,0,1-1.02-3.152v-.242a5.089,5.089,0,0,1,.453-2.2,3.451,3.451,0,0,1,1.3-1.492,3.7,3.7,0,0,1,2-.531,3.39,3.39,0,0,1,2.363.852,3.043,3.043,0,0,1,1,2.211H60.949a1.992,1.992,0,0,0-.621-1.348,1.932,1.932,0,0,0-1.379-.527,2.023,2.023,0,0,0-1.707.793,3.724,3.724,0,0,0-.605,2.293v.273a3.65,3.65,0,0,0,.6,2.25A2.033,2.033,0,0,0,58.957,13.977ZM65.512,15H64.066V6.547h1.445ZM63.949,4.3a.863.863,0,0,1,.215-.594.807.807,0,0,1,.637-.242.819.819,0,0,1,.641.242.854.854,0,0,1,.219.594.826.826,0,0,1-.219.586.834.834,0,0,1-.641.234.821.821,0,0,1-.637-.234A.834.834,0,0,1,63.949,4.3ZM67.441,10.7a4.993,4.993,0,0,1,.488-2.234A3.643,3.643,0,0,1,69.289,6.93a3.7,3.7,0,0,1,1.988-.539,3.565,3.565,0,0,1,2.793,1.2,4.6,4.6,0,0,1,1.066,3.18v.1a5.036,5.036,0,0,1-.473,2.215,3.589,3.589,0,0,1-1.352,1.527,3.743,3.743,0,0,1-2.02.547,3.556,3.556,0,0,1-2.785-1.2A4.575,4.575,0,0,1,67.441,10.8Zm1.453.172a3.616,3.616,0,0,0,.652,2.258,2.211,2.211,0,0,0,3.5-.012,3.955,3.955,0,0,0,.648-2.418,3.61,3.61,0,0,0-.66-2.254,2.1,2.1,0,0,0-1.754-.863,2.075,2.075,0,0,0-1.727.852A3.925,3.925,0,0,0,68.895,10.867Zm3.039-7.852h1.75l-2.094,2.3-1.164,0Zm6.383,3.531.047,1.063a3.08,3.08,0,0,1,2.531-1.219q2.68,0,2.7,3.023V15H82.152V9.406a1.946,1.946,0,0,0-.418-1.352,1.675,1.675,0,0,0-1.277-.437,2.086,2.086,0,0,0-1.234.375,2.546,2.546,0,0,0-.828.984V15H76.949V6.547ZM12,30.7a4.952,4.952,0,0,1,.922-3.129,2.915,2.915,0,0,1,2.414-1.184,2.932,2.932,0,0,1,2.352,1.016V23h1.445V35H17.8l-.07-.906a2.943,2.943,0,0,1-2.414,1.063,2.887,2.887,0,0,1-2.395-1.2A5.008,5.008,0,0,1,12,30.813Zm1.445.164a3.749,3.749,0,0,0,.594,2.25,1.92,1.92,0,0,0,1.641.813A2.108,2.108,0,0,0,17.684,32.7V28.813a2.125,2.125,0,0,0-1.992-1.2,1.929,1.929,0,0,0-1.656.82A4.128,4.128,0,0,0,13.441,30.867Zm11.438,4.289a3.693,3.693,0,0,1-2.8-1.129A4.19,4.19,0,0,1,21,31.008v-.266a5.073,5.073,0,0,1,.48-2.246,3.748,3.748,0,0,1,1.344-1.547,3.378,3.378,0,0,1,1.871-.559,3.166,3.166,0,0,1,2.563,1.086,4.7,4.7,0,0,1,.914,3.109v.6H22.449a3,3,0,0,0,.73,2.02,2.3,2.3,0,0,0,1.777.77,2.517,2.517,0,0,0,1.3-.312,3.259,3.259,0,0,0,.93-.828l.883.688A3.55,3.55,0,0,1,24.879,35.156Zm-.18-7.578a1.928,1.928,0,0,0-1.469.637A3.1,3.1,0,0,0,22.5,30H26.73v-.109a2.753,2.753,0,0,0-.594-1.707A1.815,1.815,0,0,0,24.7,27.578ZM31.418,35H29.973V23h1.445Zm9.664-1.023a2.082,2.082,0,0,0,1.352-.469,1.649,1.649,0,0,0,.641-1.172h1.367a2.621,2.621,0,0,1-.5,1.383,3.293,3.293,0,0,1-1.23,1.047,3.55,3.55,0,0,1-1.629.391A3.482,3.482,0,0,1,38.336,34a4.59,4.59,0,0,1-1.02-3.152v-.242a5.089,5.089,0,0,1,.453-2.2,3.451,3.451,0,0,1,1.3-1.492,3.7,3.7,0,0,1,2-.531,3.39,3.39,0,0,1,2.363.852,3.043,3.043,0,0,1,1,2.211H43.074a1.992,1.992,0,0,0-.621-1.348,1.932,1.932,0,0,0-1.379-.527,2.023,2.023,0,0,0-1.707.793,3.724,3.724,0,0,0-.605,2.293v.273a3.65,3.65,0,0,0,.6,2.25A2.033,2.033,0,0,0,41.082,33.977ZM47.637,35H46.191V23h1.445Zm3.883,0H50.074V26.547H51.52ZM49.957,24.3a.863.863,0,0,1,.215-.594.807.807,0,0,1,.637-.242.819.819,0,0,1,.641.242.854.854,0,0,1,.219.594.826.826,0,0,1-.219.586.834.834,0,0,1-.641.234.821.821,0,0,1-.637-.234A.834.834,0,0,1,49.957,24.3ZM57.34,35.156a3.693,3.693,0,0,1-2.8-1.129,4.19,4.19,0,0,1-1.078-3.02v-.266a5.073,5.073,0,0,1,.48-2.246,3.748,3.748,0,0,1,1.344-1.547,3.378,3.378,0,0,1,1.871-.559,3.166,3.166,0,0,1,2.563,1.086,4.7,4.7,0,0,1,.914,3.109v.6H54.91a3,3,0,0,0,.73,2.02,2.3,2.3,0,0,0,1.777.77,2.517,2.517,0,0,0,1.3-.312,3.258,3.258,0,0,0,.93-.828l.883.688A3.55,3.55,0,0,1,57.34,35.156Zm-.18-7.578a1.928,1.928,0,0,0-1.469.637A3.1,3.1,0,0,0,54.957,30h4.234v-.109a2.753,2.753,0,0,0-.594-1.707A1.815,1.815,0,0,0,57.16,27.578Zm6.516-1.031.047,1.063a3.08,3.08,0,0,1,2.531-1.219q2.68,0,2.7,3.023V35H67.512V29.406a1.946,1.946,0,0,0-.418-1.352,1.675,1.675,0,0,0-1.277-.437,2.086,2.086,0,0,0-1.234.375,2.547,2.547,0,0,0-.828.984V35H62.309V26.547ZM73.1,24.5v2.047h1.578v1.117H73.1v5.249a1.173,1.173,0,0,0,.211.763.888.888,0,0,0,.719.254,3.5,3.5,0,0,0,.688-.094V35a4.215,4.215,0,0,1-1.109.155,1.8,1.8,0,0,1-1.461-.586,2.517,2.517,0,0,1-.492-1.664V27.664H70.113V26.547h1.539V24.5Zm6.773,10.656a3.693,3.693,0,0,1-2.8-1.129A4.19,4.19,0,0,1,76,31.008v-.266a5.073,5.073,0,0,1,.48-2.246,3.748,3.748,0,0,1,1.344-1.547,3.378,3.378,0,0,1,1.871-.559,3.166,3.166,0,0,1,2.563,1.086,4.7,4.7,0,0,1,.914,3.109v.6H77.441a3,3,0,0,0,.73,2.02,2.3,2.3,0,0,0,1.777.77,2.517,2.517,0,0,0,1.3-.312,3.259,3.259,0,0,0,.93-.828l.883.688A3.55,3.55,0,0,1,79.871,35.156Zm-.18-7.578a1.928,1.928,0,0,0-1.469.637A3.1,3.1,0,0,0,77.488,30h4.234v-.109a2.753,2.753,0,0,0-.594-1.707A1.815,1.815,0,0,0,79.691,27.578Z" transform="translate(-4241.105 -9620.867)" fill="#12263f"/>
    <path id="Trazado_232891" data-name="Trazado 232891" d="M24.07,10.4H21.4V15H19.891V3.625h3.766a4.457,4.457,0,0,1,2.957.875,3.148,3.148,0,0,1,1.035,2.547A3.062,3.062,0,0,1,27.074,8.9a3.428,3.428,0,0,1-1.6,1.18l2.672,4.828V15H26.539ZM21.4,9.172h2.3a2.6,2.6,0,0,0,1.777-.579,1.959,1.959,0,0,0,.66-1.55,2.062,2.062,0,0,0-.629-1.62A2.663,2.663,0,0,0,23.7,4.852H21.4Zm11.633,5.984a3.693,3.693,0,0,1-2.8-1.129,4.19,4.19,0,0,1-1.078-3.02v-.266a5.073,5.073,0,0,1,.48-2.246A3.748,3.748,0,0,1,30.98,6.949a3.378,3.378,0,0,1,1.871-.559,3.166,3.166,0,0,1,2.563,1.086,4.7,4.7,0,0,1,.914,3.109v.6H30.6a3,3,0,0,0,.73,2.02,2.3,2.3,0,0,0,1.777.77,2.517,2.517,0,0,0,1.3-.312,3.259,3.259,0,0,0,.93-.828l.883.688A3.55,3.55,0,0,1,33.031,15.156Zm-.18-7.578a1.928,1.928,0,0,0-1.469.637A3.1,3.1,0,0,0,30.648,10h4.234V9.891a2.753,2.753,0,0,0-.594-1.707A1.815,1.815,0,0,0,32.852,7.578ZM43.219,15a3.036,3.036,0,0,1-.2-.891,3.225,3.225,0,0,1-2.406,1.047,2.984,2.984,0,0,1-2.051-.707,2.287,2.287,0,0,1-.8-1.793,2.39,2.39,0,0,1,1-2.051,4.733,4.733,0,0,1,2.824-.73h1.406V9.211A1.623,1.623,0,0,0,42.539,8,1.821,1.821,0,0,0,41.2,7.555a2.107,2.107,0,0,0-1.3.391,1.151,1.151,0,0,0-.523.945H37.93a2,2,0,0,1,.449-1.223A3.066,3.066,0,0,1,39.6,6.734a4.1,4.1,0,0,1,1.691-.344,3.342,3.342,0,0,1,2.289.73,2.635,2.635,0,0,1,.859,2.012v3.891a4.757,4.757,0,0,0,.3,1.852V15Zm-2.4-1.1a2.54,2.54,0,0,0,1.289-.352,2.127,2.127,0,0,0,.883-.914V10.9H41.859q-2.656,0-2.656,1.555a1.316,1.316,0,0,0,.453,1.063A1.742,1.742,0,0,0,40.82,13.9ZM48.273,15H46.828V3h1.445Zm3.883,0H50.711V6.547h1.445ZM50.594,4.3a.863.863,0,0,1,.215-.594.807.807,0,0,1,.637-.242.819.819,0,0,1,.641.242A.854.854,0,0,1,52.3,4.3a.826.826,0,0,1-.219.586.834.834,0,0,1-.641.234.821.821,0,0,1-.637-.234A.834.834,0,0,1,50.594,4.3Zm5.234,9.516h4.945V15H54.063V13.938l4.664-6.2H54.133v-1.2h6.406V7.57ZM67.617,15a3.036,3.036,0,0,1-.2-.891,3.225,3.225,0,0,1-2.406,1.047,2.984,2.984,0,0,1-2.051-.707,2.287,2.287,0,0,1-.8-1.793,2.39,2.39,0,0,1,1-2.051,4.733,4.733,0,0,1,2.824-.73h1.406V9.211A1.623,1.623,0,0,0,66.938,8,1.821,1.821,0,0,0,65.6,7.555a2.108,2.108,0,0,0-1.3.391,1.151,1.151,0,0,0-.523.945H62.328a2,2,0,0,1,.449-1.223A3.066,3.066,0,0,1,64,6.734a4.1,4.1,0,0,1,1.691-.344,3.342,3.342,0,0,1,2.289.73,2.635,2.635,0,0,1,.859,2.012v3.891a4.757,4.757,0,0,0,.3,1.852V15Zm-2.4-1.1a2.54,2.54,0,0,0,1.289-.352,2.127,2.127,0,0,0,.883-.914V10.9H66.258q-2.656,0-2.656,1.555a1.316,1.316,0,0,0,.453,1.063A1.742,1.742,0,0,0,65.219,13.9Zm9.969-6.055a4.331,4.331,0,0,0-.711-.055A1.9,1.9,0,0,0,72.547,9v6H71.1V6.547h1.406l.023.977a2.251,2.251,0,0,1,2.016-1.133,1.477,1.477,0,0,1,.641.109Zm-43.746,25.2,2.094-6.492h1.477L31.98,35h-1.1l-3.062-8.453h1.477Zm8.367,2.117a3.693,3.693,0,0,1-2.8-1.129,4.19,4.19,0,0,1-1.078-3.02v-.266a5.073,5.073,0,0,1,.48-2.246,3.748,3.748,0,0,1,1.344-1.547,3.378,3.378,0,0,1,1.871-.559,3.166,3.166,0,0,1,2.563,1.086,4.7,4.7,0,0,1,.914,3.109v.6H37.379a3,3,0,0,0,.73,2.02,2.3,2.3,0,0,0,1.777.77,2.517,2.517,0,0,0,1.3-.312,3.258,3.258,0,0,0,.93-.828l.883.688A3.55,3.55,0,0,1,39.809,35.156Zm-.18-7.578a1.928,1.928,0,0,0-1.469.637A3.1,3.1,0,0,0,37.426,30H41.66v-.109a2.753,2.753,0,0,0-.594-1.707A1.815,1.815,0,0,0,39.629,27.578Zm6.516-1.031.047,1.063a3.08,3.08,0,0,1,2.531-1.219q2.68,0,2.7,3.023V35H49.98V29.406a1.946,1.946,0,0,0-.418-1.352,1.675,1.675,0,0,0-1.277-.437,2.086,2.086,0,0,0-1.234.375,2.546,2.546,0,0,0-.828.984V35H44.777V26.547ZM55.566,24.5v2.047h1.578v1.117H55.566v5.249a1.173,1.173,0,0,0,.211.763.888.888,0,0,0,.719.254,3.5,3.5,0,0,0,.688-.094V35a4.215,4.215,0,0,1-1.109.155,1.8,1.8,0,0,1-1.461-.586,2.517,2.517,0,0,1-.492-1.664V27.664H52.582V26.547h1.539V24.5ZM64.051,35a3.036,3.036,0,0,1-.2-.891,3.225,3.225,0,0,1-2.406,1.047,2.984,2.984,0,0,1-2.051-.707,2.287,2.287,0,0,1-.8-1.793,2.39,2.39,0,0,1,1-2.051,4.733,4.733,0,0,1,2.824-.73h1.406v-.664A1.623,1.623,0,0,0,63.371,28a1.821,1.821,0,0,0-1.336-.449,2.107,2.107,0,0,0-1.3.391,1.151,1.151,0,0,0-.523.945H58.762a2,2,0,0,1,.449-1.223,3.066,3.066,0,0,1,1.219-.934,4.1,4.1,0,0,1,1.691-.344,3.342,3.342,0,0,1,2.289.73,2.635,2.635,0,0,1,.859,2.012v3.891a4.757,4.757,0,0,0,.3,1.852V35Zm-2.4-1.1a2.54,2.54,0,0,0,1.289-.352,2.127,2.127,0,0,0,.883-.914V30.9H62.691q-2.656,0-2.656,1.555a1.316,1.316,0,0,0,.453,1.063A1.742,1.742,0,0,0,61.652,33.9Z" transform="translate(-3918.356 -9407.082)" fill="#12263f"/>
    <path id="Trazado_232863" data-name="Trazado 232863" d="M17.7,10.4H15.031V15H13.523V3.625h3.766a4.457,4.457,0,0,1,2.957.875,3.148,3.148,0,0,1,1.035,2.547A3.062,3.062,0,0,1,20.707,8.9a3.428,3.428,0,0,1-1.6,1.18l2.672,4.828V15H20.172ZM15.031,9.172h2.3a2.6,2.6,0,0,0,1.777-.579,1.959,1.959,0,0,0,.66-1.55,2.062,2.062,0,0,0-.629-1.62,2.663,2.663,0,0,0-1.816-.571h-2.3Zm11.633,5.984a3.693,3.693,0,0,1-2.8-1.129,4.19,4.19,0,0,1-1.078-3.02v-.266A5.073,5.073,0,0,1,23.27,8.5a3.748,3.748,0,0,1,1.344-1.547,3.378,3.378,0,0,1,1.871-.559,3.166,3.166,0,0,1,2.563,1.086,4.7,4.7,0,0,1,.914,3.109v.6H24.234a3,3,0,0,0,.73,2.02,2.3,2.3,0,0,0,1.777.77,2.517,2.517,0,0,0,1.3-.312,3.259,3.259,0,0,0,.93-.828l.883.688A3.55,3.55,0,0,1,26.664,15.156Zm-.18-7.578a1.928,1.928,0,0,0-1.469.637A3.1,3.1,0,0,0,24.281,10h4.234V9.891a2.753,2.753,0,0,0-.594-1.707A1.815,1.815,0,0,0,26.484,7.578Zm4.8,3.125A4.968,4.968,0,0,1,32.2,7.559a3.151,3.151,0,0,1,4.836-.074l.07-.937h1.32V14.8a3.439,3.439,0,0,1-.973,2.586,3.589,3.589,0,0,1-2.613.945,4.348,4.348,0,0,1-1.789-.391,3.08,3.08,0,0,1-1.336-1.07l.75-.867a2.826,2.826,0,0,0,2.273,1.148,2.214,2.214,0,0,0,1.645-.594,2.269,2.269,0,0,0,.59-1.672v-.727a2.971,2.971,0,0,1-2.367,1,2.887,2.887,0,0,1-2.4-1.2A5.224,5.224,0,0,1,31.289,10.7Zm1.453.164a3.79,3.79,0,0,0,.586,2.246,1.9,1.9,0,0,0,1.641.816,2.117,2.117,0,0,0,2.008-1.242V8.828a2.142,2.142,0,0,0-1.992-1.211,1.921,1.921,0,0,0-1.648.82A4.128,4.128,0,0,0,32.742,10.867ZM42.18,15H40.734V6.547H42.18ZM40.617,4.3a.863.863,0,0,1,.215-.594.807.807,0,0,1,.637-.242.819.819,0,0,1,.641.242.854.854,0,0,1,.219.594.826.826,0,0,1-.219.586.834.834,0,0,1-.641.234.821.821,0,0,1-.637-.234A.834.834,0,0,1,40.617,4.3Zm8.8,8.453a1.064,1.064,0,0,0-.441-.91,4.249,4.249,0,0,0-1.539-.559,7.277,7.277,0,0,1-1.742-.562,2.479,2.479,0,0,1-.953-.781,1.869,1.869,0,0,1-.309-1.078,2.193,2.193,0,0,1,.879-1.758,3.432,3.432,0,0,1,2.246-.719,3.532,3.532,0,0,1,2.332.742,2.357,2.357,0,0,1,.895,1.9H49.328a1.3,1.3,0,0,0-.5-1.023,1.888,1.888,0,0,0-1.27-.43,1.976,1.976,0,0,0-1.234.344,1.082,1.082,0,0,0-.445.9.877.877,0,0,0,.414.789,5.1,5.1,0,0,0,1.5.508,7.8,7.8,0,0,1,1.754.578,2.558,2.558,0,0,1,1,.809,1.988,1.988,0,0,1,.324,1.152,2.163,2.163,0,0,1-.906,1.816,3.8,3.8,0,0,1-2.352.684,4.257,4.257,0,0,1-1.8-.359,2.922,2.922,0,0,1-1.223-1,2.42,2.42,0,0,1-.441-1.395h1.445a1.5,1.5,0,0,0,.582,1.152,2.258,2.258,0,0,0,1.434.426,2.331,2.331,0,0,0,1.316-.332A1.02,1.02,0,0,0,49.414,12.758ZM54.7,4.5V6.547h1.578V7.664H54.7v5.249a1.173,1.173,0,0,0,.211.763.888.888,0,0,0,.719.254,3.5,3.5,0,0,0,.688-.094V15a4.215,4.215,0,0,1-1.109.155,1.8,1.8,0,0,1-1.461-.586,2.517,2.517,0,0,1-.492-1.664V7.664H51.719V6.547h1.539V4.5Zm7.352,3.344a4.331,4.331,0,0,0-.711-.055A1.9,1.9,0,0,0,59.414,9v6H57.969V6.547h1.406l.023.977a2.251,2.251,0,0,1,2.016-1.133,1.477,1.477,0,0,1,.641.109Zm.789,2.852a4.993,4.993,0,0,1,.488-2.234A3.643,3.643,0,0,1,64.691,6.93a3.7,3.7,0,0,1,1.988-.539,3.565,3.565,0,0,1,2.793,1.2,4.6,4.6,0,0,1,1.066,3.18v.1a5.036,5.036,0,0,1-.473,2.215,3.589,3.589,0,0,1-1.352,1.527,3.743,3.743,0,0,1-2.02.547,3.556,3.556,0,0,1-2.785-1.2A4.575,4.575,0,0,1,62.844,10.8Zm1.453.172a3.616,3.616,0,0,0,.652,2.258,2.211,2.211,0,0,0,3.5-.012,3.955,3.955,0,0,0,.648-2.418,3.61,3.61,0,0,0-.66-2.254,2.1,2.1,0,0,0-1.754-.863,2.075,2.075,0,0,0-1.727.852A3.925,3.925,0,0,0,64.3,10.867Zm14.781,2.016,1.969-6.336h1.547L79.2,16.3q-.789,2.109-2.508,2.109l-.273-.023-.539-.1V17.117l.391.031a1.923,1.923,0,0,0,1.145-.3,2.149,2.149,0,0,0,.676-1.086l.32-.859L75.391,6.547h1.578ZM26.621,35a3.036,3.036,0,0,1-.2-.891,3.225,3.225,0,0,1-2.406,1.047,2.984,2.984,0,0,1-2.051-.707,2.287,2.287,0,0,1-.8-1.793,2.39,2.39,0,0,1,1-2.051,4.733,4.733,0,0,1,2.824-.73h1.406v-.664A1.623,1.623,0,0,0,25.941,28a1.821,1.821,0,0,0-1.336-.449,2.108,2.108,0,0,0-1.3.391,1.151,1.151,0,0,0-.523.945H21.332a2,2,0,0,1,.449-1.223A3.066,3.066,0,0,1,23,26.734a4.1,4.1,0,0,1,1.691-.344,3.342,3.342,0,0,1,2.289.73,2.635,2.635,0,0,1,.859,2.012v3.891a4.757,4.757,0,0,0,.3,1.852V35Zm-2.4-1.1a2.54,2.54,0,0,0,1.289-.352,2.127,2.127,0,0,0,.883-.914V30.9H25.262q-2.656,0-2.656,1.555a1.316,1.316,0,0,0,.453,1.063A1.742,1.742,0,0,0,24.223,33.9Zm7.25-7.352.047,1.063a3.08,3.08,0,0,1,2.531-1.219q2.68,0,2.7,3.023V35H35.309V29.406a1.946,1.946,0,0,0-.418-1.352,1.675,1.675,0,0,0-1.277-.437,2.086,2.086,0,0,0-1.234.375,2.546,2.546,0,0,0-.828.984V35H30.105V26.547ZM44.152,35a3.036,3.036,0,0,1-.2-.891,3.225,3.225,0,0,1-2.406,1.047,2.984,2.984,0,0,1-2.051-.707,2.287,2.287,0,0,1-.8-1.793,2.39,2.39,0,0,1,1-2.051,4.733,4.733,0,0,1,2.824-.73h1.406v-.664A1.623,1.623,0,0,0,43.473,28a1.821,1.821,0,0,0-1.336-.449,2.107,2.107,0,0,0-1.3.391,1.151,1.151,0,0,0-.523.945H38.863a2,2,0,0,1,.449-1.223,3.066,3.066,0,0,1,1.219-.934,4.1,4.1,0,0,1,1.691-.344,3.342,3.342,0,0,1,2.289.73,2.635,2.635,0,0,1,.859,2.012v3.891a4.757,4.757,0,0,0,.3,1.852V35Zm-2.4-1.1a2.54,2.54,0,0,0,1.289-.352,2.127,2.127,0,0,0,.883-.914V30.9H42.793q-2.656,0-2.656,1.555a1.316,1.316,0,0,0,.453,1.063A1.742,1.742,0,0,0,41.754,33.9ZM43.09,23.016h1.75l-2.094,2.3-1.164,0ZM49.207,35H47.762V23h1.445Zm3.883,0H51.645V26.547H53.09ZM51.527,24.3a.863.863,0,0,1,.215-.594.807.807,0,0,1,.637-.242.819.819,0,0,1,.641.242.854.854,0,0,1,.219.594.826.826,0,0,1-.219.586.834.834,0,0,1-.641.234.821.821,0,0,1-.637-.234A.834.834,0,0,1,51.527,24.3Zm8.8,8.453a1.064,1.064,0,0,0-.441-.91,4.249,4.249,0,0,0-1.539-.559,7.277,7.277,0,0,1-1.742-.562,2.479,2.479,0,0,1-.953-.781,1.869,1.869,0,0,1-.309-1.078,2.193,2.193,0,0,1,.879-1.758,3.432,3.432,0,0,1,2.246-.719,3.532,3.532,0,0,1,2.332.742,2.357,2.357,0,0,1,.895,1.9H60.238a1.3,1.3,0,0,0-.5-1.023,1.888,1.888,0,0,0-1.27-.43,1.976,1.976,0,0,0-1.234.344,1.082,1.082,0,0,0-.445.9.877.877,0,0,0,.414.789,5.1,5.1,0,0,0,1.5.508,7.8,7.8,0,0,1,1.754.578,2.558,2.558,0,0,1,1,.809,1.988,1.988,0,0,1,.324,1.152,2.163,2.163,0,0,1-.906,1.816,3.8,3.8,0,0,1-2.352.684,4.257,4.257,0,0,1-1.8-.359,2.922,2.922,0,0,1-1.223-1,2.42,2.42,0,0,1-.441-1.395H56.5a1.5,1.5,0,0,0,.582,1.152,2.258,2.258,0,0,0,1.434.426,2.331,2.331,0,0,0,1.316-.332A1.02,1.02,0,0,0,60.324,32.758ZM65.223,35H63.777V26.547h1.445ZM63.66,24.3a.863.863,0,0,1,.215-.594.807.807,0,0,1,.637-.242.819.819,0,0,1,.641.242.854.854,0,0,1,.219.594.826.826,0,0,1-.219.586.834.834,0,0,1-.641.234.821.821,0,0,1-.637-.234A.834.834,0,0,1,63.66,24.3Zm8.8,8.453a1.064,1.064,0,0,0-.441-.91,4.249,4.249,0,0,0-1.539-.559,7.277,7.277,0,0,1-1.742-.562,2.478,2.478,0,0,1-.953-.781,1.869,1.869,0,0,1-.309-1.078,2.193,2.193,0,0,1,.879-1.758,3.432,3.432,0,0,1,2.246-.719,3.532,3.532,0,0,1,2.332.742,2.357,2.357,0,0,1,.895,1.9H72.371a1.3,1.3,0,0,0-.5-1.023,1.888,1.888,0,0,0-1.27-.43,1.976,1.976,0,0,0-1.234.344,1.082,1.082,0,0,0-.445.9.877.877,0,0,0,.414.789,5.1,5.1,0,0,0,1.5.508,7.8,7.8,0,0,1,1.754.578,2.558,2.558,0,0,1,1,.809,1.988,1.988,0,0,1,.324,1.152A2.163,2.163,0,0,1,73,34.473a3.8,3.8,0,0,1-2.352.684,4.257,4.257,0,0,1-1.8-.359,2.922,2.922,0,0,1-1.223-1,2.42,2.42,0,0,1-.441-1.395h1.445a1.5,1.5,0,0,0,.582,1.152,2.258,2.258,0,0,0,1.434.426,2.331,2.331,0,0,0,1.316-.332A1.02,1.02,0,0,0,72.457,32.758ZM17.293,50.7a4.952,4.952,0,0,1,.922-3.129,3.137,3.137,0,0,1,4.766-.168V43h1.445V55H23.1l-.07-.906a2.943,2.943,0,0,1-2.414,1.063,2.887,2.887,0,0,1-2.395-1.2,5.008,5.008,0,0,1-.926-3.141Zm1.445.164a3.749,3.749,0,0,0,.594,2.25,1.92,1.92,0,0,0,1.641.813A2.108,2.108,0,0,0,22.98,52.7V48.813a2.125,2.125,0,0,0-1.992-1.2,1.929,1.929,0,0,0-1.656.82A4.128,4.128,0,0,0,18.738,50.867Zm11.438,4.289a3.693,3.693,0,0,1-2.8-1.129,4.19,4.19,0,0,1-1.078-3.02v-.266a5.073,5.073,0,0,1,.48-2.246,3.748,3.748,0,0,1,1.344-1.547A3.378,3.378,0,0,1,30,46.391a3.166,3.166,0,0,1,2.563,1.086,4.7,4.7,0,0,1,.914,3.109v.6H27.746a3,3,0,0,0,.73,2.02,2.3,2.3,0,0,0,1.777.77,2.517,2.517,0,0,0,1.3-.312,3.259,3.259,0,0,0,.93-.828l.883.688A3.55,3.55,0,0,1,30.176,55.156ZM30,47.578a1.928,1.928,0,0,0-1.469.637A3.1,3.1,0,0,0,27.793,50h4.234v-.109a2.753,2.753,0,0,0-.594-1.707A1.815,1.815,0,0,0,30,47.578Zm10.836,2.969V55h-1.5V43.625h4.2a4.215,4.215,0,0,1,2.926.953A3.231,3.231,0,0,1,47.512,47.1a3.189,3.189,0,0,1-1.035,2.551,4.4,4.4,0,0,1-2.965.895Zm0-1.227h2.7a2.7,2.7,0,0,0,1.844-.567,2.075,2.075,0,0,0,.641-1.64,2.143,2.143,0,0,0-.641-1.628,2.525,2.525,0,0,0-1.758-.634H40.832Zm17.281.359a7.026,7.026,0,0,1-.523,2.84,4.388,4.388,0,0,1-1.469,1.863l2.031,1.594-1.023.945-2.4-1.906a4.88,4.88,0,0,1-1.187.141,4.244,4.244,0,0,1-4-2.543,6.752,6.752,0,0,1-.59-2.832v-.82a6.953,6.953,0,0,1,.57-2.9,4.218,4.218,0,0,1,4-2.594,4.4,4.4,0,0,1,2.418.664,4.284,4.284,0,0,1,1.605,1.91,7.016,7.016,0,0,1,.563,2.91Zm-1.5-.734a5.162,5.162,0,0,0-.8-3.1A2.89,2.89,0,0,0,51.3,45.84a5,5,0,0,0-.84,3v.836a5.147,5.147,0,0,0,.816,3.078,2.885,2.885,0,0,0,4.52.066,5.079,5.079,0,0,0,.82-3.035ZM64.6,50.4H61.926V55H60.418V43.625h3.766a4.457,4.457,0,0,1,2.957.875,3.148,3.148,0,0,1,1.035,2.547A3.062,3.062,0,0,1,67.6,48.9a3.428,3.428,0,0,1-1.6,1.18l2.672,4.828V55H67.066Zm-2.672-1.227h2.3a2.6,2.6,0,0,0,1.777-.579,1.959,1.959,0,0,0,.66-1.55,2.062,2.062,0,0,0-.629-1.62,2.663,2.663,0,0,0-1.816-.571h-2.3Zm11.7.758a7.053,7.053,0,0,1-2.809-1.363,2.6,2.6,0,0,1-.879-2,2.751,2.751,0,0,1,1.074-2.223,4.269,4.269,0,0,1,2.793-.879,4.66,4.66,0,0,1,2.09.453,3.436,3.436,0,0,1,1.422,1.25,3.2,3.2,0,0,1,.5,1.742H76.316a2.08,2.08,0,0,0-.656-1.627,2.669,2.669,0,0,0-1.852-.592,2.732,2.732,0,0,0-1.73.489,1.632,1.632,0,0,0-.621,1.358,1.468,1.468,0,0,0,.59,1.178,5.786,5.786,0,0,0,2.008.88,9.316,9.316,0,0,1,2.219.88A3.367,3.367,0,0,1,77.461,50.6a2.861,2.861,0,0,1,.387,1.508,2.658,2.658,0,0,1-1.078,2.215,4.6,4.6,0,0,1-2.883.832,5.347,5.347,0,0,1-2.187-.449,3.681,3.681,0,0,1-1.566-1.23,3,3,0,0,1-.551-1.773H71.09a1.959,1.959,0,0,0,.762,1.629,3.207,3.207,0,0,0,2.035.6,2.948,2.948,0,0,0,1.82-.484,1.573,1.573,0,0,0,.633-1.32,1.545,1.545,0,0,0-.586-1.293A6.755,6.755,0,0,0,73.629,49.93Z" transform="translate(-4573.233 -9417.703)" fill="#12263f"/>
    <path id="Trazado_227434" data-name="Trazado 227434" d="M290.924,439.844c-91.131,0-165.27-74.141-165.27-165.273h1.167c0,90.486,73.615,164.1,164.1,164.1Z" transform="translate(-4489.972 -9535.919)" fill="none" stroke="#fed935" stroke-width="8"/>
    <path id="Trazado_227435" data-name="Trazado 227435" d="M235.255,439.844v-1.17c90.487,0,164.1-73.617,164.1-164.1h1.167C400.524,365.7,326.386,439.844,235.255,439.844Z" transform="translate(-4434.303 -9535.919)" fill="none" stroke="#26c7db" stroke-width="8"/>
    <path id="Trazado_227442" data-name="Trazado 227442" d="M235.691,386.308l5.967-4.156L247.622,378v16.62l-5.964-4.154Z" transform="translate(-4446.671 -9483.387)" fill="#26c7db" stroke="#26c7db" stroke-width="1"/>
    <path id="Trazado_227433" data-name="Trazado 227433" d="M460.1,331.223h-7.009c0-88.874-72.308-161.182-161.182-161.182S130.724,242.349,130.724,331.223h-7.007c0-92.74,75.449-168.189,168.19-168.189S460.1,238.483,460.1,331.223Z" transform="translate(-4490.956 -9592.571)" fill="#f57c22"/>
    <path id="Trazado_227440" data-name="Trazado 227440" d="M128.971,274.6l4.156,5.967,4.156,5.965H120.66l4.156-5.965Z" transform="translate(-4492.508 -9542.005)" fill="#fed935" stroke="#fed935" stroke-width="1"/>
    <path id="Trazado_230936" data-name="Trazado 230936" d="M1179.728,83.836h-124.98" transform="translate(-4109.398 -10607.979) rotate(90)" fill="none" stroke="#b7c2c5" stroke-linecap="round" stroke-linejoin="round" stroke-width="2.812" stroke-dasharray="0 6.561"/>
    <path id="Trazado_227415" data-name="Trazado 227415" d="M426.538,435.7l6.006,1.121,6.005,1.116-4.974,4.9-4.97,4.9-1.034-6.016Z" transform="translate(-4678.075 -9987.504)" fill="#12263f" stroke="#12263f" stroke-width="1"/>
    <path id="Trazado_227418" data-name="Trazado 227418" d="M488.629,488.758a77.129,77.129,0,1,1,77.129-77.129A77.215,77.215,0,0,1,488.629,488.758Zm0-153.267a76.138,76.138,0,1,0,76.141,76.138A76.224,76.224,0,0,0,488.629,335.491Z" transform="translate(-4681.863 -10012.996)" fill="#12263f" stroke="#12263f" stroke-width="1"/>
    <path id="Trazado_227419" data-name="Trazado 227419" d="M423.77,408.538a61.77,61.77,0,1,0,61.768-61.768A61.767,61.767,0,0,0,423.77,408.538Zm108.673,0a46.9,46.9,0,1,1-46.9-46.9A46.958,46.958,0,0,1,532.443,408.538Z" transform="translate(-4678.773 -10009.906)" fill="#26c7db"/>
    <path id="Trazado_196303" data-name="Trazado 196303" d="M1134.1,133.25l-41.173-49.414h-83.708" transform="translate(-5477.995 -9475.159)" fill="none" stroke="#b7c2c5" stroke-linecap="round" stroke-linejoin="round" stroke-width="2.812" stroke-dasharray="0 6.561"/>
    <path id="Trazado_196303-2" data-name="Trazado 196303" d="M1009.223,133.25,1050.4,83.836H1134.1" transform="translate(-5063.458 -9475.16)" fill="none" stroke="#b7c2c5" stroke-linecap="round" stroke-linejoin="round" stroke-width="2.812" stroke-dasharray="0 6.561"/>
    <path id="Trazado_227415-2" data-name="Trazado 227415" d="M426.538,435.7l6.006,1.121,6.005,1.116-4.974,4.9-4.97,4.9-1.034-6.016Z" transform="matrix(0.934, 0.358, -0.358, 0.934, -4842.146, -9929.131)" fill="#12263f" stroke="#12263f" stroke-width="1"/>
    <path id="Trazado_227418-2" data-name="Trazado 227418" d="M488.629,488.758a77.129,77.129,0,1,1,77.129-77.129A77.215,77.215,0,0,1,488.629,488.758Zm0-153.267a76.138,76.138,0,1,0,76.141,76.138A76.224,76.224,0,0,0,488.629,335.491Z" transform="translate(-5014.735 -9802.952)" fill="#12263f" stroke="#12263f" stroke-width="1"/>
    <path id="Trazado_227419-2" data-name="Trazado 227419" d="M423.77,408.538a61.77,61.77,0,1,0,61.768-61.768A61.767,61.767,0,0,0,423.77,408.538Zm108.673,0a46.9,46.9,0,1,1-46.9-46.9A46.958,46.958,0,0,1,532.443,408.538Z" transform="translate(-5011.645 -9799.861)" fill="#f57c22"/>
    <path id="Trazado_227415-3" data-name="Trazado 227415" d="M426.538,435.7l6.006,1.121,6.005,1.116-4.974,4.9-4.97,4.9-1.034-6.016Z" transform="translate(-3333.845 -9707.106) rotate(111)" fill="#12263f" stroke="#12263f" stroke-width="1"/>
    <path id="Trazado_227418-3" data-name="Trazado 227418" d="M488.629,488.758a77.129,77.129,0,1,1,77.129-77.129A77.215,77.215,0,0,1,488.629,488.758Zm0-153.267a76.138,76.138,0,1,0,76.141,76.138A76.224,76.224,0,0,0,488.629,335.491Z" transform="translate(-4359.986 -9802.95)" fill="#12263f" stroke="#12263f" stroke-width="1"/>
    <path id="Trazado_227419-3" data-name="Trazado 227419" d="M423.77,408.538a61.77,61.77,0,1,0,61.768-61.768A61.767,61.767,0,0,0,423.77,408.538Zm108.673,0a46.9,46.9,0,1,1-46.9-46.9A46.958,46.958,0,0,1,532.443,408.538Z" transform="translate(-4356.896 -9799.859)" fill="#fed935"/>
    <path id="Trazado_196303-3" data-name="Trazado 196303" d="M1141.248,83.836l-43.528,68h-88.5" transform="translate(-5493.481 -9278.82)" fill="none" stroke="#b7c2c5" stroke-linecap="round" stroke-linejoin="round" stroke-width="2.812" stroke-dasharray="0 6.561"/>
    <path id="Trazado_196303-4" data-name="Trazado 196303" d="M1009.223,83.836l43.528,68h88.5" transform="translate(-5057.457 -9278.82)" fill="none" stroke="#b7c2c5" stroke-linecap="round" stroke-linejoin="round" stroke-width="2.812" stroke-dasharray="0 6.561"/>
    <path id="Trazado_232890" data-name="Trazado 232890" d="M22.9,9.93a7.053,7.053,0,0,1-2.809-1.363,2.6,2.6,0,0,1-.879-2,2.751,2.751,0,0,1,1.074-2.223,4.269,4.269,0,0,1,2.793-.879,4.66,4.66,0,0,1,2.09.453,3.436,3.436,0,0,1,1.422,1.25,3.2,3.2,0,0,1,.5,1.742H25.59a2.08,2.08,0,0,0-.656-1.627A2.669,2.669,0,0,0,23.082,4.7a2.732,2.732,0,0,0-1.73.489,1.632,1.632,0,0,0-.621,1.358,1.468,1.468,0,0,0,.59,1.178,5.785,5.785,0,0,0,2.008.88,9.316,9.316,0,0,1,2.219.88A3.367,3.367,0,0,1,26.734,10.6a2.861,2.861,0,0,1,.387,1.508,2.658,2.658,0,0,1-1.078,2.215,4.6,4.6,0,0,1-2.883.832,5.347,5.347,0,0,1-2.187-.449,3.681,3.681,0,0,1-1.566-1.23,3,3,0,0,1-.551-1.773h1.508a1.959,1.959,0,0,0,.762,1.629,3.207,3.207,0,0,0,2.035.6,2.948,2.948,0,0,0,1.82-.484,1.573,1.573,0,0,0,.633-1.32,1.545,1.545,0,0,0-.586-1.293A6.755,6.755,0,0,0,22.9,9.93Zm9.422,5.227a3.693,3.693,0,0,1-2.8-1.129,4.19,4.19,0,0,1-1.078-3.02v-.266A5.073,5.073,0,0,1,28.93,8.5a3.748,3.748,0,0,1,1.344-1.547,3.378,3.378,0,0,1,1.871-.559,3.166,3.166,0,0,1,2.563,1.086,4.7,4.7,0,0,1,.914,3.109v.6H29.895a3,3,0,0,0,.73,2.02,2.3,2.3,0,0,0,1.777.77,2.517,2.517,0,0,0,1.3-.312,3.259,3.259,0,0,0,.93-.828l.883.688A3.55,3.55,0,0,1,32.324,15.156Zm-.18-7.578a1.928,1.928,0,0,0-1.469.637A3.1,3.1,0,0,0,29.941,10h4.234V9.891a2.753,2.753,0,0,0-.594-1.707A1.815,1.815,0,0,0,32.145,7.578Zm9.234.266a4.331,4.331,0,0,0-.711-.055A1.9,1.9,0,0,0,38.738,9v6H37.293V6.547H38.7l.023.977a2.251,2.251,0,0,1,2.016-1.133,1.477,1.477,0,0,1,.641.109Zm4.258,5.2L47.73,6.547h1.477L46.176,15h-1.1L42.012,6.547h1.477ZM52.168,15H50.723V6.547h1.445ZM50.605,4.3a.863.863,0,0,1,.215-.594.807.807,0,0,1,.637-.242.819.819,0,0,1,.641.242.854.854,0,0,1,.219.594.826.826,0,0,1-.219.586.834.834,0,0,1-.641.234.821.821,0,0,1-.637-.234A.834.834,0,0,1,50.605,4.3Zm7.266,9.672a2.082,2.082,0,0,0,1.352-.469,1.649,1.649,0,0,0,.641-1.172H61.23a2.621,2.621,0,0,1-.5,1.383,3.293,3.293,0,0,1-1.23,1.047,3.55,3.55,0,0,1-1.629.391A3.482,3.482,0,0,1,55.125,14a4.59,4.59,0,0,1-1.02-3.152v-.242a5.089,5.089,0,0,1,.453-2.2,3.451,3.451,0,0,1,1.3-1.492,3.7,3.7,0,0,1,2-.531,3.39,3.39,0,0,1,2.363.852,3.043,3.043,0,0,1,1,2.211H59.863a1.992,1.992,0,0,0-.621-1.348,1.932,1.932,0,0,0-1.379-.527,2.023,2.023,0,0,0-1.707.793,3.724,3.724,0,0,0-.605,2.293v.273a3.65,3.65,0,0,0,.6,2.25A2.033,2.033,0,0,0,57.871,13.977ZM64.426,15H62.98V6.547h1.445ZM62.863,4.3a.863.863,0,0,1,.215-.594.807.807,0,0,1,.637-.242.819.819,0,0,1,.641.242.854.854,0,0,1,.219.594.826.826,0,0,1-.219.586.834.834,0,0,1-.641.234.821.821,0,0,1-.637-.234A.834.834,0,0,1,62.863,4.3ZM66.355,10.7a4.993,4.993,0,0,1,.488-2.234A3.643,3.643,0,0,1,68.2,6.93a3.7,3.7,0,0,1,1.988-.539,3.565,3.565,0,0,1,2.793,1.2,4.6,4.6,0,0,1,1.066,3.18v.1a5.036,5.036,0,0,1-.473,2.215,3.589,3.589,0,0,1-1.352,1.527,3.743,3.743,0,0,1-2.02.547,3.556,3.556,0,0,1-2.785-1.2A4.575,4.575,0,0,1,66.355,10.8Zm1.453.172a3.616,3.616,0,0,0,.652,2.258,2.211,2.211,0,0,0,3.5-.012,3.955,3.955,0,0,0,.648-2.418,3.61,3.61,0,0,0-.66-2.254,2.1,2.1,0,0,0-1.754-.863,2.075,2.075,0,0,0-1.727.852A3.925,3.925,0,0,0,67.809,10.867Zm-45.691,20a5.062,5.062,0,0,1-.883,3.109,2.829,2.829,0,0,1-2.391,1.18,3.1,3.1,0,0,1-2.422-.977v4.07H14.977v-11.7H16.3l.07.938a2.977,2.977,0,0,1,2.453-1.094,2.882,2.882,0,0,1,2.41,1.148,5.117,5.117,0,0,1,.887,3.2ZM20.672,30.7a3.735,3.735,0,0,0-.609-2.258,1.963,1.963,0,0,0-1.672-.828,2.125,2.125,0,0,0-1.969,1.164V32.82a2.129,2.129,0,0,0,1.984,1.156,1.954,1.954,0,0,0,1.652-.824A4.077,4.077,0,0,0,20.672,30.7Zm2.9-.008a4.993,4.993,0,0,1,.488-2.234,3.643,3.643,0,0,1,1.359-1.531,3.7,3.7,0,0,1,1.988-.539,3.565,3.565,0,0,1,2.793,1.2,4.6,4.6,0,0,1,1.066,3.18v.1a5.036,5.036,0,0,1-.473,2.215,3.589,3.589,0,0,1-1.352,1.527,3.743,3.743,0,0,1-2.02.547,3.556,3.556,0,0,1-2.785-1.2A4.575,4.575,0,0,1,23.57,30.8Zm1.453.172a3.616,3.616,0,0,0,.652,2.258,2.211,2.211,0,0,0,3.5-.012A3.955,3.955,0,0,0,29.82,30.7a3.61,3.61,0,0,0-.66-2.254,2.1,2.1,0,0,0-1.754-.863,2.075,2.075,0,0,0-1.727.852A3.925,3.925,0,0,0,25.023,30.867ZM38,32.758a1.064,1.064,0,0,0-.441-.91,4.249,4.249,0,0,0-1.539-.559,7.277,7.277,0,0,1-1.742-.562,2.479,2.479,0,0,1-.953-.781,1.869,1.869,0,0,1-.309-1.078,2.193,2.193,0,0,1,.879-1.758,3.432,3.432,0,0,1,2.246-.719,3.532,3.532,0,0,1,2.332.742,2.357,2.357,0,0,1,.895,1.9H37.914a1.3,1.3,0,0,0-.5-1.023,1.888,1.888,0,0,0-1.27-.43,1.976,1.976,0,0,0-1.234.344,1.082,1.082,0,0,0-.445.9.877.877,0,0,0,.414.789,5.1,5.1,0,0,0,1.5.508,7.8,7.8,0,0,1,1.754.578,2.558,2.558,0,0,1,1,.809,1.988,1.988,0,0,1,.324,1.152,2.163,2.163,0,0,1-.906,1.816,3.8,3.8,0,0,1-2.352.684,4.257,4.257,0,0,1-1.8-.359,2.922,2.922,0,0,1-1.223-1,2.42,2.42,0,0,1-.441-1.395h1.445a1.5,1.5,0,0,0,.582,1.152,2.258,2.258,0,0,0,1.434.426,2.331,2.331,0,0,0,1.316-.332A1.02,1.02,0,0,0,38,32.758Zm6.117.281,2.094-6.492h1.477L44.656,35h-1.1l-3.062-8.453h1.477Zm8.367,2.117a3.693,3.693,0,0,1-2.8-1.129,4.19,4.19,0,0,1-1.078-3.02v-.266a5.073,5.073,0,0,1,.48-2.246,3.748,3.748,0,0,1,1.344-1.547,3.378,3.378,0,0,1,1.871-.559,3.166,3.166,0,0,1,2.563,1.086,4.7,4.7,0,0,1,.914,3.109v.6H50.055a3,3,0,0,0,.73,2.02,2.3,2.3,0,0,0,1.777.77,2.517,2.517,0,0,0,1.3-.312,3.258,3.258,0,0,0,.93-.828l.883.688A3.55,3.55,0,0,1,52.484,35.156Zm-.18-7.578a1.928,1.928,0,0,0-1.469.637A3.1,3.1,0,0,0,50.1,30h4.234v-.109a2.753,2.753,0,0,0-.594-1.707A1.815,1.815,0,0,0,52.3,27.578Zm6.516-1.031.047,1.063A3.08,3.08,0,0,1,61.4,26.391q2.68,0,2.7,3.023V35H62.656V29.406a1.946,1.946,0,0,0-.418-1.352,1.675,1.675,0,0,0-1.277-.437,2.086,2.086,0,0,0-1.234.375,2.546,2.546,0,0,0-.828.984V35H57.453V26.547ZM68.242,24.5v2.047H69.82v1.117H68.242v5.249a1.173,1.173,0,0,0,.211.763.888.888,0,0,0,.719.254,3.5,3.5,0,0,0,.688-.094V35a4.215,4.215,0,0,1-1.109.155,1.8,1.8,0,0,1-1.461-.586,2.517,2.517,0,0,1-.492-1.664V27.664H65.258V26.547H66.8V24.5ZM76.727,35a3.036,3.036,0,0,1-.2-.891,3.225,3.225,0,0,1-2.406,1.047,2.984,2.984,0,0,1-2.051-.707,2.288,2.288,0,0,1-.8-1.793,2.39,2.39,0,0,1,1-2.051,4.733,4.733,0,0,1,2.824-.73H76.5v-.664A1.623,1.623,0,0,0,76.047,28a1.821,1.821,0,0,0-1.336-.449,2.108,2.108,0,0,0-1.3.391,1.151,1.151,0,0,0-.523.945H71.438a2,2,0,0,1,.449-1.223,3.066,3.066,0,0,1,1.219-.934,4.1,4.1,0,0,1,1.691-.344,3.342,3.342,0,0,1,2.289.73,2.635,2.635,0,0,1,.859,2.012v3.891a4.757,4.757,0,0,0,.3,1.852V35Zm-2.4-1.1a2.54,2.54,0,0,0,1.289-.352,2.127,2.127,0,0,0,.883-.914V30.9H75.367q-2.656,0-2.656,1.555a1.316,1.316,0,0,0,.453,1.063A1.742,1.742,0,0,0,74.328,33.9Z" transform="translate(-4583.192 -9146.484)" fill="#12263f"/>
    <path id="Trazado_227415-4" data-name="Trazado 227415" d="M426.538,435.7l6.006,1.121,6.005,1.116-4.974,4.9-4.97,4.9-1.034-6.016Z" transform="translate(-5039.826 -8768.365) rotate(-74)" fill="#12263f" stroke="#12263f" stroke-width="1"/>
    <path id="Trazado_227418-4" data-name="Trazado 227418" d="M488.629,488.758a77.129,77.129,0,1,1,77.129-77.129A77.215,77.215,0,0,1,488.629,488.758Zm0-153.267a76.138,76.138,0,1,0,76.141,76.138A76.224,76.224,0,0,0,488.629,335.491Z" transform="translate(-5025.321 -9538.613)" fill="#12263f" stroke="#12263f" stroke-width="1"/>
    <path id="Trazado_227419-4" data-name="Trazado 227419" d="M423.77,408.538a61.77,61.77,0,1,0,61.768-61.768A61.767,61.767,0,0,0,423.77,408.538Zm108.673,0a46.9,46.9,0,1,1-46.9-46.9A46.958,46.958,0,0,1,532.443,408.538Z" transform="translate(-5022.23 -9535.523)" fill="#12263f"/>
    <path id="Trazado_232892" data-name="Trazado 232892" d="M7.145,9.93A7.053,7.053,0,0,1,4.336,8.566a2.6,2.6,0,0,1-.879-2A2.751,2.751,0,0,1,4.531,4.348a4.269,4.269,0,0,1,2.793-.879,4.66,4.66,0,0,1,2.09.453,3.436,3.436,0,0,1,1.422,1.25,3.2,3.2,0,0,1,.5,1.742H9.832a2.08,2.08,0,0,0-.656-1.627A2.669,2.669,0,0,0,7.324,4.7a2.732,2.732,0,0,0-1.73.489,1.632,1.632,0,0,0-.621,1.358,1.468,1.468,0,0,0,.59,1.178A5.785,5.785,0,0,0,7.57,8.6a9.316,9.316,0,0,1,2.219.88A3.367,3.367,0,0,1,10.977,10.6a2.861,2.861,0,0,1,.387,1.508,2.658,2.658,0,0,1-1.078,2.215,4.6,4.6,0,0,1-2.883.832,5.347,5.347,0,0,1-2.187-.449,3.681,3.681,0,0,1-1.566-1.23A3,3,0,0,1,3.1,11.7H4.605a1.959,1.959,0,0,0,.762,1.629,3.207,3.207,0,0,0,2.035.6,2.948,2.948,0,0,0,1.82-.484,1.573,1.573,0,0,0,.633-1.32,1.545,1.545,0,0,0-.586-1.293A6.755,6.755,0,0,0,7.145,9.93Zm9.422,5.227a3.693,3.693,0,0,1-2.8-1.129,4.19,4.19,0,0,1-1.078-3.02v-.266a5.073,5.073,0,0,1,.48-2.246,3.748,3.748,0,0,1,1.344-1.547,3.378,3.378,0,0,1,1.871-.559,3.166,3.166,0,0,1,2.563,1.086,4.7,4.7,0,0,1,.914,3.109v.6H14.137a3,3,0,0,0,.73,2.02,2.3,2.3,0,0,0,1.777.77,2.517,2.517,0,0,0,1.3-.312,3.259,3.259,0,0,0,.93-.828l.883.688A3.55,3.55,0,0,1,16.566,15.156Zm-.18-7.578a1.928,1.928,0,0,0-1.469.637A3.1,3.1,0,0,0,14.184,10h4.234V9.891a2.753,2.753,0,0,0-.594-1.707A1.815,1.815,0,0,0,16.387,7.578Zm4.8,3.125a4.968,4.968,0,0,1,.914-3.145,3.151,3.151,0,0,1,4.836-.074l.07-.937h1.32V14.8a3.439,3.439,0,0,1-.973,2.586,3.589,3.589,0,0,1-2.613.945,4.348,4.348,0,0,1-1.789-.391,3.08,3.08,0,0,1-1.336-1.07l.75-.867a2.826,2.826,0,0,0,2.273,1.148,2.214,2.214,0,0,0,1.645-.594,2.269,2.269,0,0,0,.59-1.672v-.727a2.971,2.971,0,0,1-2.367,1,2.887,2.887,0,0,1-2.4-1.2A5.224,5.224,0,0,1,21.191,10.7Zm1.453.164a3.79,3.79,0,0,0,.586,2.246,1.9,1.9,0,0,0,1.641.816,2.117,2.117,0,0,0,2.008-1.242V8.828a2.142,2.142,0,0,0-1.992-1.211,1.921,1.921,0,0,0-1.648.82A4.128,4.128,0,0,0,22.645,10.867Zm13.086,3.3a3.07,3.07,0,0,1-2.477.992,2.628,2.628,0,0,1-2.059-.785,3.4,3.4,0,0,1-.715-2.324v-5.5h1.445v5.461q0,1.922,1.563,1.922a2.163,2.163,0,0,0,2.2-1.234V6.547h1.445V15H35.762ZM40.9,15H39.457V6.547H40.9ZM39.34,4.3a.863.863,0,0,1,.215-.594.807.807,0,0,1,.637-.242.819.819,0,0,1,.641.242.854.854,0,0,1,.219.594.826.826,0,0,1-.219.586.834.834,0,0,1-.641.234.821.821,0,0,1-.637-.234A.834.834,0,0,1,39.34,4.3Zm5.234,2.242.039.938a3.122,3.122,0,0,1,2.508-1.094A2.417,2.417,0,0,1,49.535,7.75a3.2,3.2,0,0,1,1.1-.984,3.242,3.242,0,0,1,1.6-.375q2.781,0,2.828,2.945V15H53.613V9.422A1.941,1.941,0,0,0,53.2,8.066a1.823,1.823,0,0,0-1.391-.449,1.917,1.917,0,0,0-1.336.48,1.949,1.949,0,0,0-.617,1.293V15H48.4V9.461a1.613,1.613,0,0,0-1.8-1.844,1.934,1.934,0,0,0-1.945,1.211V15H43.207V6.547ZM58.809,15H57.363V6.547h1.445ZM57.246,4.3a.863.863,0,0,1,.215-.594.807.807,0,0,1,.637-.242.819.819,0,0,1,.641.242.854.854,0,0,1,.219.594.826.826,0,0,1-.219.586.834.834,0,0,1-.641.234.821.821,0,0,1-.637-.234A.834.834,0,0,1,57.246,4.3Zm7.383,10.852a3.693,3.693,0,0,1-2.8-1.129,4.19,4.19,0,0,1-1.078-3.02v-.266a5.073,5.073,0,0,1,.48-2.246,3.748,3.748,0,0,1,1.344-1.547,3.378,3.378,0,0,1,1.871-.559,3.166,3.166,0,0,1,2.563,1.086,4.7,4.7,0,0,1,.914,3.109v.6H62.2a3,3,0,0,0,.73,2.02,2.3,2.3,0,0,0,1.777.77,2.517,2.517,0,0,0,1.3-.312,3.259,3.259,0,0,0,.93-.828l.883.688A3.55,3.55,0,0,1,64.629,15.156Zm-.18-7.578a1.928,1.928,0,0,0-1.469.637A3.1,3.1,0,0,0,62.246,10H66.48V9.891a2.753,2.753,0,0,0-.594-1.707A1.815,1.815,0,0,0,64.449,7.578Zm6.516-1.031.047,1.063a3.08,3.08,0,0,1,2.531-1.219q2.68,0,2.7,3.023V15H74.8V9.406a1.946,1.946,0,0,0-.418-1.352,1.675,1.675,0,0,0-1.277-.437,2.086,2.086,0,0,0-1.234.375,2.546,2.546,0,0,0-.828.984V15H69.6V6.547ZM80.387,4.5V6.547h1.578V7.664H80.387v5.249a1.173,1.173,0,0,0,.211.763.888.888,0,0,0,.719.254A3.5,3.5,0,0,0,82,13.836V15a4.215,4.215,0,0,1-1.109.155,1.8,1.8,0,0,1-1.461-.586,2.517,2.517,0,0,1-.492-1.664V7.664H77.4V6.547h1.539V4.5Zm2.727,6.2A4.993,4.993,0,0,1,83.6,8.461,3.643,3.643,0,0,1,84.961,6.93a3.7,3.7,0,0,1,1.988-.539,3.565,3.565,0,0,1,2.793,1.2,4.6,4.6,0,0,1,1.066,3.18v.1a5.036,5.036,0,0,1-.473,2.215,3.589,3.589,0,0,1-1.352,1.527,3.743,3.743,0,0,1-2.02.547,3.556,3.556,0,0,1-2.785-1.2A4.575,4.575,0,0,1,83.113,10.8Zm1.453.172a3.616,3.616,0,0,0,.652,2.258,2.211,2.211,0,0,0,3.5-.012,3.955,3.955,0,0,0,.648-2.418,3.61,3.61,0,0,0-.66-2.254,2.1,2.1,0,0,0-1.754-.863,2.075,2.075,0,0,0-1.727.852A3.925,3.925,0,0,0,84.566,10.867ZM38.1,27.844a4.331,4.331,0,0,0-.711-.055A1.9,1.9,0,0,0,35.457,29v6H34.012V26.547h1.406l.023.977a2.251,2.251,0,0,1,2.016-1.133,1.477,1.477,0,0,1,.641.109Zm6.547,6.32a3.07,3.07,0,0,1-2.477.992,2.628,2.628,0,0,1-2.059-.785,3.4,3.4,0,0,1-.715-2.324v-5.5H40.84v5.461q0,1.922,1.563,1.922a2.163,2.163,0,0,0,2.2-1.234V26.547h1.445V35H44.676ZM50.207,24.5v2.047h1.578v1.117H50.207v5.249a1.173,1.173,0,0,0,.211.763.888.888,0,0,0,.719.254,3.5,3.5,0,0,0,.688-.094V35a4.215,4.215,0,0,1-1.109.155,1.8,1.8,0,0,1-1.461-.586,2.517,2.517,0,0,1-.492-1.664V27.664H47.223V26.547h1.539V24.5ZM58.691,35a3.036,3.036,0,0,1-.2-.891,3.225,3.225,0,0,1-2.406,1.047,2.984,2.984,0,0,1-2.051-.707,2.287,2.287,0,0,1-.8-1.793,2.39,2.39,0,0,1,1-2.051,4.733,4.733,0,0,1,2.824-.73h1.406v-.664A1.623,1.623,0,0,0,58.012,28a1.821,1.821,0,0,0-1.336-.449,2.107,2.107,0,0,0-1.3.391,1.151,1.151,0,0,0-.523.945H53.4a2,2,0,0,1,.449-1.223,3.066,3.066,0,0,1,1.219-.934,4.1,4.1,0,0,1,1.691-.344,3.342,3.342,0,0,1,2.289.73,2.635,2.635,0,0,1,.859,2.012v3.891a4.757,4.757,0,0,0,.3,1.852V35Zm-2.4-1.1a2.54,2.54,0,0,0,1.289-.352,2.127,2.127,0,0,0,.883-.914V30.9H57.332q-2.656,0-2.656,1.555a1.316,1.316,0,0,0,.453,1.063A1.742,1.742,0,0,0,56.293,33.9Z" transform="translate(-3916.209 -9146.484)" fill="#12263f"/>
    <path id="Trazado_227415-5" data-name="Trazado 227415" d="M426.538,435.7l6.006,1.121,6.005,1.116-4.974,4.9-4.97,4.9-1.034-6.016Z" transform="translate(-3593.331 -8574.26) rotate(-155)" fill="#12263f" stroke="#12263f" stroke-width="1"/>
    <path id="Trazado_227418-5" data-name="Trazado 227418" d="M488.629,488.758a77.129,77.129,0,1,1,77.129-77.129A77.215,77.215,0,0,1,488.629,488.758Zm0-153.267a76.138,76.138,0,1,0,76.141,76.138A76.224,76.224,0,0,0,488.629,335.491Z" transform="translate(-4358.001 -9538.613)" fill="#12263f" stroke="#12263f" stroke-width="1"/>
    <path id="Trazado_227419-5" data-name="Trazado 227419" d="M423.77,408.538a61.77,61.77,0,1,0,61.768-61.768A61.767,61.767,0,0,0,423.77,408.538Zm108.673,0a46.9,46.9,0,1,1-46.9-46.9A46.958,46.958,0,0,1,532.443,408.538Z" transform="translate(-4354.91 -9535.523)" fill="#fda829"/>
  </g>
</svg>
