<svg xmlns="http://www.w3.org/2000/svg" width="400" height="257.845" viewBox="0 0 400 257.845">
  <g id="Grupo_165772" data-name="Grupo 165772" transform="translate(-3581.487 -3152.173)">
    <g id="Grupo_165740" data-name="Grupo 165740" transform="translate(3581.487 3304.926)">
      <path id="Trazado_231695" data-name="Trazado 231695" d="M3600.7,3596.421l1.781-4.04-4.784,2.428a95.235,95.235,0,0,1-16.214-11.673s7.9-5.676,21.567-6.979l9.848,6.019-3.934-7.168c11.839-1.829,25.769-1.107,38.188,7.078l4.639,6.686-.354-3.5a53.609,53.609,0,0,1,7.692,7.907,55.9,55.9,0,0,1-20.5,8.861l.7-6.1-6.275,7.019C3623.851,3604.048,3612.806,3602.561,3600.7,3596.421Z" transform="translate(-3581.487 -3512.87)" fill="#fce688"/>
      <path id="Trazado_231696" data-name="Trazado 231696" d="M3628.849,3594.233a.191.191,0,0,1-.021.046l-7.725,8.7a.2.2,0,1,1-.307-.272l7.578-8.535-10.635-1.375a.2.2,0,0,1-.022.047l-4.589,5.074a.2.2,0,0,1-.3-.275l4.438-4.908-15.795-2.043c-.016.03-.023.064-.053.084l-4.282,2.745a.206.206,0,0,1-.283-.063.2.2,0,0,1,.062-.283l3.989-2.557-8.142-1.053a.2.2,0,1,1,.052-.406l17.074,2.209-6.581-5.307a.2.2,0,1,1,.258-.319l7.1,5.726,25.612,3.313-5.853-9.183a.2.2,0,0,1,.345-.22l6.037,9.472,10.682,1.382-4.4-6.23a.205.205,0,0,1,.335-.238l4.617,6.54,16.588,2.146a.205.205,0,0,1-.053.407l-9.042-1.17a.183.183,0,0,1-.023.051l-5.493,5.887a.205.205,0,1,1-.3-.281l5.335-5.719Z" transform="translate(-3586.953 -3518.341)" fill="#fda829"/>
      <path id="Trazado_231697" data-name="Trazado 231697" d="M3663.944,3478.794l4.729-.9-5.138-2.8a103.879,103.879,0,0,1,.462-21.786s9.987,3.592,19.606,15.062l.682,12.569,4.008-7.967c8.963,9.507,16.927,22.468,17.253,38.687l-3.138,8.3,2.923-2.48a58.531,58.531,0,0,1-2.348,11.8,60.974,60.974,0,0,1-20.634-12.935l5.908-3.143-10.186-1.3C3671.4,3504.306,3665.91,3493.464,3663.944,3478.794Z" transform="translate(-3621.734 -3453.314)" fill="#fce688"/>
      <path id="Trazado_231698" data-name="Trazado 231698" d="M3687.352,3499.76a.2.2,0,0,1-.054.01l-12.592-1.561a.224.224,0,1,1,.055-.444l12.353,1.532-5.339-10.406a.187.187,0,0,1-.056.009l-7.4-.985a.223.223,0,1,1,.059-.443l7.154.952-7.931-15.454a.21.21,0,0,1-.108,0l-5.114-2.15a.224.224,0,0,1,.173-.413l4.764,2-4.088-7.967a.223.223,0,1,1,.4-.2l8.573,16.706.7-9.194a.223.223,0,1,1,.445.034l-.753,9.92,12.86,25.06,4.632-10.936a.223.223,0,1,1,.411.174l-4.777,11.28,5.364,10.451,2.878-7.8a.224.224,0,0,1,.421.153l-3.021,8.192,8.329,16.23a.224.224,0,1,1-.4.2l-4.54-8.848a.206.206,0,0,1-.06.01l-8.686-1.294a.224.224,0,0,1,.067-.443l8.437,1.258Z" transform="translate(-3624.237 -3458.64)" fill="#a29edd"/>
      <path id="Trazado_231699" data-name="Trazado 231699" d="M3605.984,3534.6l3.915-3.3-6.221.088a110.49,110.49,0,0,1-10.934-20.431s11.129-1.88,26.026,3.733l7.187,11.294-.441-9.474c13.265,4.135,27.406,11.994,36.167,26.856l1.421,9.331,1.416-3.823a62.2,62.2,0,0,1,3.979,12.161,64.841,64.841,0,0,1-25.87-1.227l3.837-5.995-10.117,4.11C3626.2,3554.355,3615.456,3547.171,3605.984,3534.6Z" transform="translate(-3587.034 -3481.569)" fill="#90d1d6"/>
      <path id="Trazado_231700" data-name="Trazado 231700" d="M3638.811,3541.91c-.016.012-.026.029-.045.037l-12.485,5.12a.238.238,0,0,1-.181-.441l12.248-5.023-10.376-6.859c-.017.013-.027.03-.047.038l-7.368,2.945a.238.238,0,0,1-.176-.441l7.127-2.848-15.41-10.187c-.032.023-.057.055-.1.06l-5.861.675a.238.238,0,0,1-.055-.473l5.459-.628-7.944-5.251a.238.238,0,1,1,.262-.4l16.657,11.01-4.148-8.885a.238.238,0,1,1,.431-.2l4.476,9.587,24.988,16.518-1.411-12.551a.237.237,0,1,1,.472-.053l1.455,12.946,10.421,6.888-1.4-8.734a.238.238,0,0,1,.469-.077l1.473,9.167,16.184,10.7a.238.238,0,0,1-.262.4l-8.822-5.832c-.018.013-.029.032-.05.041l-8.725,3.33a.238.238,0,0,1-.168-.446l8.475-3.234Z" transform="translate(-3592.331 -3485.285)" fill="#26c7db"/>
    </g>
    <g id="Grupo_165742" data-name="Grupo 165742" transform="translate(3674.076 3152.173)">
      <path id="Trazado_231701" data-name="Trazado 231701" d="M3764.019,3392.857s34.71-15.581,29.966-39.339-56.134-51.69-5.487-83.9,73.131-43.92,57.88-55.89-27.07-25.851-5.544-41.577,98.341-28.461,118.81-12.925-40.3,55.875-34.609,68.006,79.558,40.615,70.695,74.17-33.343,70.9,5.487,91.575Z" transform="translate(-3764.019 -3152.173)" fill="#fda829" opacity="0.35"/>
      <g id="Grupo_165741" data-name="Grupo 165741" transform="translate(13.492 46.336)" opacity="0.35">
        <ellipse id="Elipse_6873" data-name="Elipse 6873" cx="26.743" cy="17.169" rx="26.743" ry="17.169" transform="matrix(0.841, -0.541, 0.541, 0.841, 0, 28.96)" fill="#fda829"/>
      </g>
      <path id="Trazado_231702" data-name="Trazado 231702" d="M3995.729,3441.262a22.072,22.072,0,0,0,.639-3.711c-21.3,14.743-55.462,31.351-102.189,32.331-59.593,1.249-105.474-20.685-127.558-33.884-3.238,21.281,23.973,40.4,27.364,57.376,4.744,23.758-29.966,39.339-29.966,39.339l237.2.125C3962.387,3512.162,3986.867,3474.817,3995.729,3441.262Z" transform="translate(-3764.019 -3292.028)" fill="#c1c0ff"/>
    </g>
    <g id="Grupo_165743" data-name="Grupo 165743" transform="translate(3737.139 3301.657)">
      <rect id="Rectángulo_46062" data-name="Rectángulo 46062" width="57.393" height="57.394" transform="translate(2.365 14.288)" fill="#87959c"/>
      <rect id="Rectángulo_46063" data-name="Rectángulo 46063" width="57.393" height="26.787" transform="translate(2.365 14.288)" fill="#7a878c"/>
      <path id="Rectángulo_46064" data-name="Rectángulo 46064" d="M8.877,0H53.3a8.876,8.876,0,0,1,8.876,8.876V25.251A8.877,8.877,0,0,1,53.3,34.127H8.876A8.876,8.876,0,0,1,0,25.251V8.877A8.877,8.877,0,0,1,8.877,0Z" transform="translate(0 0)" fill="#a6afb8"/>
      <path id="Trazado_231703" data-name="Trazado 231703" d="M3947.811,3504.527h-56.767a2.7,2.7,0,0,1-2.7-2.7v3.548a2.7,2.7,0,0,0,2.7,2.7h56.767a2.7,2.7,0,0,0,2.7-2.7v-3.548A2.7,2.7,0,0,1,3947.811,3504.527Z" transform="translate(-3888.342 -3473.948)" fill="#9ba3aa"/>
      <path id="Trazado_231704" data-name="Trazado 231704" d="M3950.514,3596.834h-62.172v-4.222a4.672,4.672,0,0,1,4.672-4.673h52.827a4.673,4.673,0,0,1,4.673,4.673Z" transform="translate(-3888.342 -3516.381)" fill="#a6afb8"/>
      <rect id="Rectángulo_46065" data-name="Rectángulo 46065" width="62.172" height="2.082" transform="translate(0 78.371)" fill="#9ba3aa"/>
      <path id="Trazado_231705" data-name="Trazado 231705" d="M3936.5,3498.743a1.348,1.348,0,1,1-1.347-1.348A1.347,1.347,0,0,1,3936.5,3498.743Z" transform="translate(-3910.743 -3471.766)" fill="#66757c"/>
      <path id="Trazado_231706" data-name="Trazado 231706" d="M3949.616,3498.743a1.349,1.349,0,1,1-1.348-1.348A1.348,1.348,0,0,1,3949.616,3498.743Z" transform="translate(-3917.206 -3471.766)" fill="#66757c"/>
      <path id="Trazado_231707" data-name="Trazado 231707" d="M3962.733,3498.743a1.348,1.348,0,1,1-1.349-1.348A1.349,1.349,0,0,1,3962.733,3498.743Z" transform="translate(-3923.67 -3471.766)" fill="#66757c"/>
      <path id="Trazado_231708" data-name="Trazado 231708" d="M3949.09,3477.531a5.818,5.818,0,1,1-2.49-7.843A5.818,5.818,0,0,1,3949.09,3477.531Z" transform="translate(-3912.863 -3457.791)" fill="#50575c"/>
      <path id="Trazado_231709" data-name="Trazado 231709" d="M3949.09,3472.394h0a.93.93,0,0,0-1.25.4l-3.26,6.291a.928.928,0,0,0,1.648.854l3.26-6.291A.931.931,0,0,0,3949.09,3472.394Z" transform="translate(-3916.003 -3459.395)" fill="#6a7579"/>
      <path id="Trazado_231710" data-name="Trazado 231710" d="M3901.093,3455.608h-6.669a1.419,1.419,0,1,1,0-2.839h6.669a1.419,1.419,0,1,1,0,2.839Z" transform="translate(-3890.639 -3449.776)" fill="#bbc6c9"/>
      <rect id="Rectángulo_46066" data-name="Rectángulo 46066" width="2.554" height="2.554" rx="1.277" transform="translate(46.264 9.38)" fill="#66757c"/>
      <path id="Rectángulo_46067" data-name="Rectángulo 46067" d="M1.277,0h0A1.277,1.277,0,0,1,2.554,1.277v0A1.277,1.277,0,0,1,1.277,2.554h0A1.276,1.276,0,0,1,0,1.279v0A1.277,1.277,0,0,1,1.277,0Z" transform="translate(49.623 9.38)" fill="#66757c"/>
      <rect id="Rectángulo_46068" data-name="Rectángulo 46068" width="2.555" height="2.554" rx="1.277" transform="translate(52.981 9.38)" fill="#66757c"/>
      <path id="Rectángulo_46069" data-name="Rectángulo 46069" d="M1.276,0h0A1.277,1.277,0,0,1,2.554,1.277v0A1.277,1.277,0,0,1,1.277,2.554h0A1.277,1.277,0,0,1,0,1.277v0A1.276,1.276,0,0,1,1.276,0Z" transform="translate(56.34 9.38)" fill="#66757c"/>
      <path id="Rectángulo_46070" data-name="Rectángulo 46070" d="M1.277,0h0A1.277,1.277,0,0,1,2.554,1.277v0A1.277,1.277,0,0,1,1.277,2.554h0A1.277,1.277,0,0,1,0,1.277v0A1.277,1.277,0,0,1,1.277,0Z" transform="translate(46.264 13.011)" fill="#66757c"/>
      <path id="Rectángulo_46071" data-name="Rectángulo 46071" d="M1.277,0h0A1.277,1.277,0,0,1,2.554,1.277v0A1.277,1.277,0,0,1,1.277,2.554h0A1.277,1.277,0,0,1,0,1.277v0A1.277,1.277,0,0,1,1.277,0Z" transform="translate(49.623 13.011)" fill="#66757c"/>
      <path id="Rectángulo_46072" data-name="Rectángulo 46072" d="M1.277,0h0A1.277,1.277,0,0,1,2.555,1.277v0A1.277,1.277,0,0,1,1.278,2.554h0A1.277,1.277,0,0,1,0,1.277v0A1.277,1.277,0,0,1,1.277,0Z" transform="translate(52.981 13.011)" fill="#66757c"/>
      <path id="Rectángulo_46073" data-name="Rectángulo 46073" d="M1.277,0h0A1.277,1.277,0,0,1,2.554,1.277v0A1.277,1.277,0,0,1,1.277,2.554h0A1.277,1.277,0,0,1,0,1.277v0A1.277,1.277,0,0,1,1.277,0Z" transform="translate(56.34 13.011)" fill="#66757c"/>
      <rect id="Rectángulo_46074" data-name="Rectángulo 46074" width="9.84" height="5.251" rx="1.321" transform="translate(47.541 2.615)" fill="#8affdb"/>
      <path id="Trazado_231711" data-name="Trazado 231711" d="M3946.853,3517.878h-18.041a2.049,2.049,0,0,1-2.049-2.049v-1.682H3948.9v1.682A2.049,2.049,0,0,1,3946.853,3517.878Z" transform="translate(-3907.274 -3480.021)" fill="#bdc6ca"/>
      <path id="Trazado_231712" data-name="Trazado 231712" d="M3944.471,3530.017h-10.525a4.2,4.2,0,0,1-4.2-4.2V3521.5h18.923v4.316A4.2,4.2,0,0,1,3944.471,3530.017Z" transform="translate(-3908.744 -3483.644)" fill="#50575c"/>
      <rect id="Rectángulo_46075" data-name="Rectángulo 46075" width="18.923" height="1.419" transform="translate(21.003 37.858)" fill="#43494c"/>
      <rect id="Rectángulo_46076" data-name="Rectángulo 46076" width="11.174" height="2.573" transform="translate(39.926 40.412)" fill="#bdc6ca"/>
      <rect id="Rectángulo_46077" data-name="Rectángulo 46077" width="11.174" height="1.286" transform="translate(39.926 41.698)" fill="#b1b9bc"/>
      <path id="Trazado_231713" data-name="Trazado 231713" d="M4002.838,3529.205h-15.895a1.987,1.987,0,1,1,0-3.973h15.895a1.987,1.987,0,0,1,0,3.973Z" transform="translate(-3935.949 -3485.482)" fill="#50575c"/>
      <path id="Trazado_231714" data-name="Trazado 231714" d="M3973.218,3563.321H3969.4a4.573,4.573,0,0,1-4.567-4.567v-6.671a4.573,4.573,0,0,1,4.567-4.567h3.817a4.572,4.572,0,0,1,4.566,4.567v6.671A4.572,4.572,0,0,1,3973.218,3563.321Zm-3.817-13.535a2.3,2.3,0,0,0-2.3,2.3v6.671a2.3,2.3,0,0,0,2.3,2.3h3.817a2.3,2.3,0,0,0,2.3-2.3v-6.671a2.3,2.3,0,0,0-2.3-2.3Z" transform="translate(-3926.033 -3496.462)" fill="#e6e9e8"/>
      <path id="Trazado_231715" data-name="Trazado 231715" d="M4003.5,3529.168h-17.219a1.33,1.33,0,0,1-1.325-1.325v1.325a1.329,1.329,0,0,0,1.325,1.324H4003.5a1.328,1.328,0,0,0,1.324-1.324v-1.325A1.329,1.329,0,0,1,4003.5,3529.168Z" transform="translate(-3935.949 -3486.769)" fill="#43494c"/>
      <path id="Trazado_231716" data-name="Trazado 231716" d="M3971.309,3561.05H3969.4a2.3,2.3,0,0,1-2.3-2.3v-6.671a2.3,2.3,0,0,1,2.3-2.3h1.909v-2.271H3969.4a4.573,4.573,0,0,0-4.567,4.567v6.671a4.573,4.573,0,0,0,4.567,4.567h1.909Z" transform="translate(-3926.033 -3496.462)" fill="#d1d3d2"/>
      <path id="Trazado_231717" data-name="Trazado 231717" d="M3947.716,3544.667h-24.2a.946.946,0,0,0-.947.946v14.1a6.91,6.91,0,0,0,6.909,6.908h12.279a6.909,6.909,0,0,0,6.908-6.908v-14.1A.946.946,0,0,0,3947.716,3544.667Z" transform="translate(-3905.206 -3495.059)" fill="#fff"/>
      <path id="Trazado_231718" data-name="Trazado 231718" d="M3961.352,3544.667H3956.2a.946.946,0,0,1,.946.946v14.1a6.908,6.908,0,0,1-6.908,6.908h5.15a6.909,6.909,0,0,0,6.908-6.908v-14.1A.946.946,0,0,0,3961.352,3544.667Z" transform="translate(-3918.843 -3495.059)" fill="#e6e9e8"/>
      <path id="Trazado_231719" data-name="Trazado 231719" d="M3931.148,3518.539H3928.1a1.328,1.328,0,0,0,0,2.657h3.046a1.328,1.328,0,1,0,0-2.657Z" transform="translate(-3907.28 -3482.184)" fill="#eaeaea"/>
      <path id="Trazado_231720" data-name="Trazado 231720" d="M3916.329,3508.594h4.92a1.932,1.932,0,1,0,0-3.864h-4.92a1.932,1.932,0,1,0,0,3.864Z" transform="translate(-3901.181 -3475.38)" fill="#eaeaea"/>
      <path id="Trazado_231721" data-name="Trazado 231721" d="M3924.174,3531.565h-.307a1.983,1.983,0,0,0-1.283-3.5h-5.193a1.993,1.993,0,1,0,0,3.986h3.558a1.134,1.134,0,0,0-.217.664,1.15,1.15,0,0,0,1.146,1.147h2.3a1.147,1.147,0,1,0,0-2.294Z" transform="translate(-3901.674 -3486.877)" fill="#eaeaea"/>
      <path id="Trazado_231722" data-name="Trazado 231722" d="M3916.571,3498.091h1.207a.966.966,0,1,0,0-1.932h-1.207a.966.966,0,1,0,0,1.932Z" transform="translate(-3901.776 -3471.156)" fill="#eaeaea"/>
    </g>
    <g id="Grupo_165744" data-name="Grupo 165744" transform="translate(3767.887 3223.358)">
      <rect id="Rectángulo_46078" data-name="Rectángulo 46078" width="23.701" height="28.648" rx="1.94" transform="translate(0 6.229)" fill="#e1f7f7"/>
      <rect id="Rectángulo_46079" data-name="Rectángulo 46079" width="15.024" height="5.366" transform="translate(4.427 2.549)" fill="#e1f7f7"/>
      <rect id="Rectángulo_46080" data-name="Rectángulo 46080" width="13.28" height="5.366" transform="translate(5.299 2.549)" fill="#9ad7da"/>
      <rect id="Rectángulo_46081" data-name="Rectángulo 46081" width="15.024" height="2.18" transform="translate(4.427 2.549)" fill="#85c3c9"/>
      <path id="Rectángulo_46082" data-name="Rectángulo 46082" d="M.75,0h15a.75.75,0,0,1,.75.75V3.611a0,0,0,0,1,0,0H0a0,0,0,0,1,0,0V.75A.75.75,0,0,1,.75,0Z" transform="translate(3.689 0)" fill="#bf9a60"/>
      <rect id="Rectángulo_46083" data-name="Rectángulo 46083" width="16.499" height="1.341" transform="translate(3.689 2.269)" fill="#a38154"/>
      <rect id="Rectángulo_46084" data-name="Rectángulo 46084" width="21.738" height="26.276" rx="1.35" transform="translate(0.981 7.415)" fill="#9ad7da"/>
    </g>
    <g id="Grupo_165745" data-name="Grupo 165745" transform="translate(3770.193 3250.462)">
      <path id="Trazado_231723" data-name="Trazado 231723" d="M3955.776,3349.381h0a1.4,1.4,0,0,1-1.834-.735l-.324-.758a1.4,1.4,0,0,1,2.57-1.1l.324.758A1.4,1.4,0,0,1,3955.776,3349.381Z" transform="translate(-3953.506 -3345.942)" fill="#541f02"/>
      <path id="Trazado_231724" data-name="Trazado 231724" d="M3955.383,3348.33a.284.284,0,0,0-.281-.287h-.044a.6.6,0,0,1-.592-.605l.016-1.368a1.245,1.245,0,0,0-.128.047,1.4,1.4,0,0,0-.736,1.834l.324.758a1.4,1.4,0,0,0,1.427.84Z" transform="translate(-3953.506 -3346.005)" fill="#662902"/>
      <path id="Trazado_231725" data-name="Trazado 231725" d="M3956.035,3345.948l-.016,1.43a.283.283,0,0,0,.281.288h.043a.6.6,0,0,1,.593.606l-.013,1.143c.031-.011.062-.021.091-.034a1.4,1.4,0,0,0,.736-1.834l-.324-.758A1.4,1.4,0,0,0,3956.035,3345.948Z" transform="translate(-3954.744 -3345.943)" fill="#662902"/>
    </g>
    <g id="Grupo_165746" data-name="Grupo 165746" transform="translate(3774.024 3252.757)">
      <path id="Trazado_231726" data-name="Trazado 231726" d="M3962.091,3354.009h0a1.4,1.4,0,0,1-.985-1.713l.215-.8a1.4,1.4,0,1,1,2.7.729l-.215.8A1.4,1.4,0,0,1,3962.091,3354.009Z" transform="translate(-3961.058 -3350.467)" fill="#541f02"/>
      <path id="Trazado_231727" data-name="Trazado 231727" d="M3962.472,3352.891a.28.28,0,0,0,.062-.208.286.286,0,0,0-.1-.191l-.034-.028a.6.6,0,0,1-.09-.843l.859-1.064c-.042-.016-.086-.03-.13-.042a1.4,1.4,0,0,0-1.713.985l-.215.8a1.4,1.4,0,0,0,.6,1.543Z" transform="translate(-3961.058 -3350.467)" fill="#662902"/>
      <path id="Trazado_231728" data-name="Trazado 231728" d="M3964.362,3350.938l-.9,1.114a.284.284,0,0,0,.042.4l.034.028a.592.592,0,0,1,.22.4.6.6,0,0,1-.129.44l-.718.889c.03.011.061.021.093.03a1.4,1.4,0,0,0,1.713-.985l.215-.8A1.4,1.4,0,0,0,3964.362,3350.938Z" transform="translate(-3961.972 -3350.699)" fill="#662902"/>
    </g>
    <g id="Grupo_165747" data-name="Grupo 165747" transform="translate(3778.779 3252.379)">
      <path id="Trazado_231729" data-name="Trazado 231729" d="M3972.7,3353.159h0a1.4,1.4,0,0,1-1.834-.735l-.324-.758a1.4,1.4,0,1,1,2.569-1.1l.324.758A1.4,1.4,0,0,1,3972.7,3353.159Z" transform="translate(-3970.433 -3349.72)" fill="#541f02"/>
      <path id="Trazado_231730" data-name="Trazado 231730" d="M3972.31,3352.11a.284.284,0,0,0-.281-.287h-.043a.6.6,0,0,1-.593-.606l.016-1.367c-.043.013-.085.029-.128.047a1.4,1.4,0,0,0-.735,1.834l.324.758a1.4,1.4,0,0,0,1.427.84Z" transform="translate(-3970.433 -3349.784)" fill="#662902"/>
      <path id="Trazado_231731" data-name="Trazado 231731" d="M3972.962,3349.727l-.016,1.431a.286.286,0,0,0,.281.288h.044a.6.6,0,0,1,.592.605l-.013,1.143c.03-.011.061-.021.091-.033a1.4,1.4,0,0,0,.735-1.834l-.324-.758A1.4,1.4,0,0,0,3972.962,3349.727Z" transform="translate(-3971.671 -3349.722)" fill="#662902"/>
    </g>
    <g id="Grupo_165748" data-name="Grupo 165748" transform="translate(3781.357 3252.131)">
      <path id="Trazado_231732" data-name="Trazado 231732" d="M3976.687,3352.821h0a1.4,1.4,0,0,1-1.153-1.6l.133-.814a1.4,1.4,0,0,1,2.758.452l-.133.813A1.4,1.4,0,0,1,3976.687,3352.821Z" transform="translate(-3975.516 -3349.232)" fill="#541f02"/>
      <path id="Trazado_231733" data-name="Trazado 231733" d="M3976.953,3351.671a.279.279,0,0,0,.04-.214.282.282,0,0,0-.123-.179l-.036-.024a.6.6,0,0,1-.175-.829l.747-1.145a1.281,1.281,0,0,0-.133-.029,1.4,1.4,0,0,0-1.6,1.153l-.133.814a1.4,1.4,0,0,0,.753,1.475Z" transform="translate(-3975.516 -3349.232)" fill="#662902"/>
      <path id="Trazado_231734" data-name="Trazado 231734" d="M3978.749,3349.56l-.781,1.2a.284.284,0,0,0,.083.393l.037.024a.6.6,0,0,1,.175.828l-.625.958c.032.008.063.016.1.021a1.4,1.4,0,0,0,1.6-1.153l.133-.814A1.4,1.4,0,0,0,3978.749,3349.56Z" transform="translate(-3976.561 -3349.394)" fill="#662902"/>
    </g>
    <g id="Grupo_165749" data-name="Grupo 165749" transform="translate(3786.561 3252.131)">
      <path id="Trazado_231735" data-name="Trazado 231735" d="M3986.946,3352.821h0a1.4,1.4,0,0,1-1.153-1.6l.133-.814a1.4,1.4,0,0,1,2.757.452l-.133.813A1.4,1.4,0,0,1,3986.946,3352.821Z" transform="translate(-3985.775 -3349.232)" fill="#541f02"/>
      <path id="Trazado_231736" data-name="Trazado 231736" d="M3987.211,3351.671a.284.284,0,0,0-.083-.393l-.037-.024a.6.6,0,0,1-.175-.829l.747-1.145a1.259,1.259,0,0,0-.134-.029,1.4,1.4,0,0,0-1.6,1.153l-.133.814a1.4,1.4,0,0,0,.752,1.475Z" transform="translate(-3985.775 -3349.232)" fill="#662902"/>
      <path id="Trazado_231737" data-name="Trazado 231737" d="M3989.007,3349.56l-.781,1.2a.287.287,0,0,0-.04.214.282.282,0,0,0,.123.18l.037.024a.6.6,0,0,1,.175.828l-.624.958c.031.008.063.016.1.021a1.4,1.4,0,0,0,1.6-1.153l.133-.814A1.4,1.4,0,0,0,3989.007,3349.56Z" transform="translate(-3986.82 -3349.394)" fill="#662902"/>
    </g>
    <g id="Grupo_165750" data-name="Grupo 165750" transform="translate(3786.174 3247.99)">
      <path id="Trazado_231738" data-name="Trazado 231738" d="M3986.182,3344.657h0a1.4,1.4,0,0,1-1.153-1.6l.133-.813a1.4,1.4,0,0,1,2.758.452l-.134.813A1.4,1.4,0,0,1,3986.182,3344.657Z" transform="translate(-3985.01 -3341.068)" fill="#541f02"/>
      <path id="Trazado_231739" data-name="Trazado 231739" d="M3986.448,3343.507a.284.284,0,0,0-.083-.393l-.036-.024a.6.6,0,0,1-.175-.829l.747-1.146a1.332,1.332,0,0,0-.134-.029,1.4,1.4,0,0,0-1.6,1.153l-.133.813a1.4,1.4,0,0,0,.753,1.475Z" transform="translate(-3985.011 -3341.068)" fill="#662902"/>
      <path id="Trazado_231740" data-name="Trazado 231740" d="M3988.244,3341.4l-.781,1.2a.285.285,0,0,0,.083.393l.037.024a.6.6,0,0,1,.175.829l-.624.958c.031.008.063.015.095.021a1.4,1.4,0,0,0,1.6-1.153l.133-.813A1.4,1.4,0,0,0,3988.244,3341.4Z" transform="translate(-3986.056 -3341.229)" fill="#662902"/>
    </g>
    <g id="Grupo_165751" data-name="Grupo 165751" transform="translate(3772.861 3247.9)">
      <path id="Trazado_231741" data-name="Trazado 231741" d="M3961.035,3344.329h0a1.4,1.4,0,0,1-1.834-.736l-.324-.758a1.4,1.4,0,0,1,2.569-1.1l.324.758A1.4,1.4,0,0,1,3961.035,3344.329Z" transform="translate(-3958.766 -3340.89)" fill="#541f02"/>
      <path id="Trazado_231742" data-name="Trazado 231742" d="M3960.642,3343.279a.284.284,0,0,0-.281-.287h-.043a.6.6,0,0,1-.593-.606l.015-1.367a1.3,1.3,0,0,0-.128.047,1.4,1.4,0,0,0-.735,1.834l.324.757a1.4,1.4,0,0,0,1.427.84Z" transform="translate(-3958.766 -3340.953)" fill="#662902"/>
      <path id="Trazado_231743" data-name="Trazado 231743" d="M3961.3,3340.9l-.016,1.431a.283.283,0,0,0,.081.2.28.28,0,0,0,.2.086h.043a.6.6,0,0,1,.592.605l-.012,1.144c.03-.011.061-.021.091-.034a1.4,1.4,0,0,0,.735-1.834l-.324-.758A1.4,1.4,0,0,0,3961.3,3340.9Z" transform="translate(-3960.004 -3340.891)" fill="#662902"/>
    </g>
    <g id="Grupo_165752" data-name="Grupo 165752" transform="translate(3778.683 3241.952)">
      <path id="Trazado_231744" data-name="Trazado 231744" d="M3972.514,3332.6h0a1.4,1.4,0,0,1-1.834-.735l-.324-.758a1.4,1.4,0,1,1,2.569-1.1l.324.758A1.4,1.4,0,0,1,3972.514,3332.6Z" transform="translate(-3970.244 -3329.165)" fill="#541f02"/>
      <path id="Trazado_231745" data-name="Trazado 231745" d="M3972.121,3331.553a.284.284,0,0,0-.081-.2.281.281,0,0,0-.2-.085h-.044a.6.6,0,0,1-.593-.606l.016-1.367c-.043.013-.086.029-.128.047a1.4,1.4,0,0,0-.735,1.834l.324.758a1.4,1.4,0,0,0,1.427.84Z" transform="translate(-3970.244 -3329.228)" fill="#662902"/>
      <path id="Trazado_231746" data-name="Trazado 231746" d="M3972.773,3329.171l-.016,1.43a.284.284,0,0,0,.281.288h.043a.6.6,0,0,1,.592.606l-.012,1.143c.03-.01.061-.021.091-.033a1.4,1.4,0,0,0,.735-1.834l-.324-.758A1.4,1.4,0,0,0,3972.773,3329.171Z" transform="translate(-3971.482 -3329.166)" fill="#662902"/>
    </g>
    <g id="Grupo_165753" data-name="Grupo 165753" transform="translate(3778.601 3247.476)">
      <path id="Trazado_231747" data-name="Trazado 231747" d="M3971.587,3343.671h0a1.4,1.4,0,0,1-1.463-1.328l-.04-.823a1.4,1.4,0,0,1,2.791-.134l.04.823A1.4,1.4,0,0,1,3971.587,3343.671Z" transform="translate(-3970.083 -3340.055)" fill="#541f02"/>
      <path id="Trazado_231748" data-name="Trazado 231748" d="M3971.606,3342.491a.283.283,0,0,0-.163-.367l-.041-.016a.6.6,0,0,1-.344-.775l.491-1.276c-.045,0-.09,0-.136,0a1.4,1.4,0,0,0-1.328,1.463l.04.823a1.4,1.4,0,0,0,1.045,1.285Z" transform="translate(-3970.083 -3340.055)" fill="#662902"/>
      <path id="Trazado_231749" data-name="Trazado 231749" d="M3973.081,3340.166l-.513,1.335a.283.283,0,0,0,.163.367l.04.016a.6.6,0,0,1,.344.774l-.411,1.067c.032,0,.065,0,.1,0a1.4,1.4,0,0,0,1.329-1.463l-.04-.823A1.4,1.4,0,0,0,3973.081,3340.166Z" transform="translate(-3971.297 -3340.11)" fill="#662902"/>
    </g>
    <g id="Grupo_165754" data-name="Grupo 165754" transform="translate(3782.246 3247.938)">
      <path id="Trazado_231750" data-name="Trazado 231750" d="M3979.537,3344.4h0a1.4,1.4,0,0,1-1.834-.735l-.324-.758a1.4,1.4,0,0,1,2.569-1.1l.324.758A1.4,1.4,0,0,1,3979.537,3344.4Z" transform="translate(-3977.268 -3340.966)" fill="#541f02"/>
      <path id="Trazado_231751" data-name="Trazado 231751" d="M3979.144,3343.355a.278.278,0,0,0-.081-.2.281.281,0,0,0-.2-.085h-.044a.6.6,0,0,1-.592-.606l.015-1.367c-.042.013-.086.029-.128.047a1.4,1.4,0,0,0-.736,1.834l.324.758a1.4,1.4,0,0,0,1.427.84Z" transform="translate(-3977.268 -3341.029)" fill="#662902"/>
      <path id="Trazado_231752" data-name="Trazado 231752" d="M3979.8,3340.972l-.016,1.43a.284.284,0,0,0,.28.288h.044a.6.6,0,0,1,.592.605l-.012,1.144c.03-.011.061-.021.091-.034a1.4,1.4,0,0,0,.735-1.834l-.324-.758A1.4,1.4,0,0,0,3979.8,3340.972Z" transform="translate(-3978.506 -3340.967)" fill="#662902"/>
    </g>
    <g id="Grupo_165755" data-name="Grupo 165755" transform="translate(3786.079 3243.651)">
      <path id="Trazado_231753" data-name="Trazado 231753" d="M3987.094,3335.953h0a1.4,1.4,0,0,1-1.834-.736l-.324-.758a1.4,1.4,0,0,1,2.57-1.1l.324.758A1.4,1.4,0,0,1,3987.094,3335.953Z" transform="translate(-3984.824 -3332.514)" fill="#541f02"/>
      <path id="Trazado_231754" data-name="Trazado 231754" d="M3986.7,3334.9a.284.284,0,0,0-.281-.287h-.044a.6.6,0,0,1-.593-.606l.016-1.367a1.179,1.179,0,0,0-.128.047,1.4,1.4,0,0,0-.736,1.834l.324.758a1.4,1.4,0,0,0,1.427.84Z" transform="translate(-3984.824 -3332.577)" fill="#662902"/>
      <path id="Trazado_231755" data-name="Trazado 231755" d="M3987.353,3332.52l-.016,1.431a.284.284,0,0,0,.081.2.28.28,0,0,0,.2.085h.044a.6.6,0,0,1,.593.606l-.013,1.143c.031-.011.062-.021.091-.034a1.4,1.4,0,0,0,.736-1.834l-.324-.758A1.4,1.4,0,0,0,3987.353,3332.52Z" transform="translate(-3986.062 -3332.515)" fill="#662902"/>
    </g>
    <g id="Grupo_165756" data-name="Grupo 165756" transform="translate(3784.908 3253.815)">
      <path id="Trazado_231756" data-name="Trazado 231756" d="M3984.785,3355.99h0a1.4,1.4,0,0,1-1.834-.735l-.324-.758a1.4,1.4,0,1,1,2.569-1.1l.324.758A1.4,1.4,0,0,1,3984.785,3355.99Z" transform="translate(-3982.515 -3352.552)" fill="#541f02"/>
      <path id="Trazado_231757" data-name="Trazado 231757" d="M3984.392,3354.94a.285.285,0,0,0-.281-.288h-.044a.6.6,0,0,1-.593-.606l.016-1.367c-.043.014-.086.03-.128.047a1.4,1.4,0,0,0-.735,1.834l.324.758a1.4,1.4,0,0,0,1.427.84Z" transform="translate(-3982.515 -3352.615)" fill="#662902"/>
      <path id="Trazado_231758" data-name="Trazado 231758" d="M3985.044,3352.558l-.016,1.431a.285.285,0,0,0,.281.288h.043a.6.6,0,0,1,.592.605l-.012,1.143c.031-.01.061-.02.091-.033a1.4,1.4,0,0,0,.735-1.834l-.324-.758A1.4,1.4,0,0,0,3985.044,3352.558Z" transform="translate(-3983.753 -3352.553)" fill="#662902"/>
    </g>
    <g id="Grupo_165757" data-name="Grupo 165757" transform="translate(3775.826 3244.741)">
      <path id="Trazado_231759" data-name="Trazado 231759" d="M3965.959,3338.281h0a1.4,1.4,0,0,1-1.347-1.445l.029-.824a1.4,1.4,0,1,1,2.792.1l-.029.824A1.4,1.4,0,0,1,3965.959,3338.281Z" transform="translate(-3964.611 -3334.664)" fill="#541f02"/>
      <path id="Trazado_231760" data-name="Trazado 231760" d="M3966.077,3337.107a.284.284,0,0,0-.132-.38l-.039-.019a.6.6,0,0,1-.279-.8l.595-1.231a1.256,1.256,0,0,0-.136-.012,1.4,1.4,0,0,0-1.445,1.348l-.029.824a1.4,1.4,0,0,0,.934,1.367Z" transform="translate(-3964.612 -3334.664)" fill="#662902"/>
      <path id="Trazado_231761" data-name="Trazado 231761" d="M3967.749,3334.847l-.623,1.288a.283.283,0,0,0,.132.38l.039.019a.6.6,0,0,1,.278.8l-.5,1.029c.032,0,.064.007.1.008a1.4,1.4,0,0,0,1.445-1.347l.029-.824A1.4,1.4,0,0,0,3967.749,3334.847Z" transform="translate(-3965.827 -3334.754)" fill="#662902"/>
    </g>
    <g id="Grupo_165758" data-name="Grupo 165758" transform="translate(3781.834 3243.922)">
      <path id="Trazado_231762" data-name="Trazado 231762" d="M3976.864,3336.015h0a1.4,1.4,0,0,1,0-1.976l.583-.583a1.4,1.4,0,1,1,1.978,1.975l-.583.583A1.4,1.4,0,0,1,3976.864,3336.015Z" transform="translate(-3976.455 -3333.048)" fill="#541f02"/>
      <path id="Trazado_231763" data-name="Trazado 231763" d="M3977.75,3335.236a.282.282,0,0,0,.158-.151.285.285,0,0,0,0-.217l-.016-.041a.6.6,0,0,1,.342-.776l1.275-.5c-.029-.035-.059-.069-.092-.1a1.4,1.4,0,0,0-1.976,0l-.583.583a1.4,1.4,0,0,0-.247,1.637Z" transform="translate(-3976.456 -3333.048)" fill="#662902"/>
      <path id="Trazado_231764" data-name="Trazado 231764" d="M3980.018,3334.584l-1.333.518a.285.285,0,0,0-.162.368l.016.04a.6.6,0,0,1-.342.775l-1.065.415c.021.024.042.049.065.072a1.4,1.4,0,0,0,1.976,0l.583-.583A1.4,1.4,0,0,0,3980.018,3334.584Z" transform="translate(-3976.789 -3333.805)" fill="#662902"/>
    </g>
    <g id="Grupo_165759" data-name="Grupo 165759" transform="translate(3772.562 3242.023)">
      <path id="Trazado_231765" data-name="Trazado 231765" d="M3958.584,3332.273h0a1.4,1.4,0,0,1,0-1.976l.583-.583a1.4,1.4,0,1,1,1.977,1.974l-.582.583A1.4,1.4,0,0,1,3958.584,3332.273Z" transform="translate(-3958.176 -3329.305)" fill="#541f02"/>
      <path id="Trazado_231766" data-name="Trazado 231766" d="M3959.471,3331.493a.28.28,0,0,0,.157-.15.284.284,0,0,0,0-.218l-.016-.041a.6.6,0,0,1,.341-.775l1.275-.5a1.272,1.272,0,0,0-.092-.1,1.4,1.4,0,0,0-1.976,0l-.582.583a1.4,1.4,0,0,0-.248,1.637Z" transform="translate(-3958.176 -3329.305)" fill="#662902"/>
      <path id="Trazado_231767" data-name="Trazado 231767" d="M3961.739,3330.84l-1.333.519a.281.281,0,0,0-.157.15.285.285,0,0,0-.005.218l.016.04a.6.6,0,0,1-.342.776l-1.065.415c.021.024.042.049.065.072a1.4,1.4,0,0,0,1.976,0l.582-.583A1.4,1.4,0,0,0,3961.739,3330.84Z" transform="translate(-3958.509 -3330.062)" fill="#662902"/>
    </g>
    <g id="Grupo_165760" data-name="Grupo 165760" transform="translate(3775.963 3250.995)">
      <path id="Trazado_231768" data-name="Trazado 231768" d="M3967.151,3350.432h0a1.4,1.4,0,0,1-1.833-.735l-.324-.758a1.4,1.4,0,0,1,2.569-1.1l.324.758A1.4,1.4,0,0,1,3967.151,3350.432Z" transform="translate(-3964.881 -3346.993)" fill="#541f02"/>
      <path id="Trazado_231769" data-name="Trazado 231769" d="M3966.758,3349.382a.283.283,0,0,0-.081-.2.28.28,0,0,0-.2-.085h-.043a.6.6,0,0,1-.593-.606l.015-1.367a1.274,1.274,0,0,0-.128.047,1.4,1.4,0,0,0-.735,1.834l.324.758a1.4,1.4,0,0,0,1.427.84Z" transform="translate(-3964.881 -3347.056)" fill="#662902"/>
      <path id="Trazado_231770" data-name="Trazado 231770" d="M3967.41,3347l-.016,1.431a.285.285,0,0,0,.281.287h.044a.6.6,0,0,1,.593.606l-.013,1.143c.031-.011.062-.021.091-.034a1.4,1.4,0,0,0,.736-1.834l-.324-.758A1.4,1.4,0,0,0,3967.41,3347Z" transform="translate(-3966.119 -3346.994)" fill="#662902"/>
    </g>
    <g id="Grupo_165761" data-name="Grupo 165761" transform="translate(3771.751 3254.153)">
      <path id="Trazado_231771" data-name="Trazado 231771" d="M3958.848,3356.657h0a1.4,1.4,0,0,1-1.834-.735l-.324-.759a1.4,1.4,0,0,1,2.569-1.1l.324.759A1.4,1.4,0,0,1,3958.848,3356.657Z" transform="translate(-3956.578 -3353.218)" fill="#541f02"/>
      <path id="Trazado_231772" data-name="Trazado 231772" d="M3958.455,3355.607a.283.283,0,0,0-.281-.288h-.043a.6.6,0,0,1-.592-.606l.015-1.367c-.042.014-.086.029-.128.047a1.4,1.4,0,0,0-.735,1.833l.324.759a1.4,1.4,0,0,0,1.427.84Z" transform="translate(-3956.578 -3353.281)" fill="#662902"/>
      <path id="Trazado_231773" data-name="Trazado 231773" d="M3959.108,3353.224l-.017,1.431a.286.286,0,0,0,.081.2.283.283,0,0,0,.2.085h.043a.6.6,0,0,1,.593.606l-.013,1.143c.031-.011.062-.021.091-.033a1.4,1.4,0,0,0,.735-1.834l-.324-.758A1.4,1.4,0,0,0,3959.108,3353.224Z" transform="translate(-3957.816 -3353.219)" fill="#662902"/>
    </g>
    <g id="Grupo_165762" data-name="Grupo 165762" transform="translate(3769.599 3245.061)">
      <path id="Trazado_231774" data-name="Trazado 231774" d="M3953.174,3338.728h0a1.4,1.4,0,0,1-.724-1.838l.329-.756a1.4,1.4,0,1,1,2.562,1.114l-.328.756A1.4,1.4,0,0,1,3953.174,3338.728Z" transform="translate(-3952.335 -3335.295)" fill="#541f02"/>
      <path id="Trazado_231775" data-name="Trazado 231775" d="M3953.713,3337.678a.283.283,0,0,0,.016-.4l-.03-.032a.6.6,0,0,1,.034-.847l1-.927c-.039-.022-.08-.042-.122-.061a1.4,1.4,0,0,0-1.838.724l-.328.756a1.4,1.4,0,0,0,.368,1.614Z" transform="translate(-3952.334 -3335.295)" fill="#662902"/>
      <path id="Trazado_231776" data-name="Trazado 231776" d="M3955.729,3336.014l-1.052.97a.285.285,0,0,0-.091.2.28.28,0,0,0,.075.2l.03.032a.6.6,0,0,1-.034.847l-.841.775c.029.014.057.03.087.043a1.4,1.4,0,0,0,1.839-.724l.328-.756A1.4,1.4,0,0,0,3955.729,3336.014Z" transform="translate(-3953.065 -3335.649)" fill="#662902"/>
    </g>
    <path id="Trazado_231777" data-name="Trazado 231777" d="M3965.29,3355.135a15.957,15.957,0,0,0-7.45-3.9c-4.865-1.163-13.606,1.18-13.606,1.18s-5.615-5.5-8.406-6.03a14.889,14.889,0,0,0-4.05-.376l10.536,13.7,15.718.928,5.757,11.854,9.121-4.695Z" transform="translate(-172.606 -95.502)" fill="#ffba94"/>
    <path id="Trazado_231778" data-name="Trazado 231778" d="M4040.559,3383.729l-28.2,20.4-17.975-32.024-11.4,5.3,21.6,49.969,43.719-18Z" transform="translate(-197.838 -108.374)" fill="#eac734"/>
    <path id="Trazado_231779" data-name="Trazado 231779" d="M3984.386,3374.888l9.6-1.78-8.538,3.97Z" transform="translate(-198.529 -108.866)" fill="#ff9a83"/>
    <path id="Trazado_231780" data-name="Trazado 231780" d="M3944,3361.915l-6.158-2.249-2.646-9.2Z" transform="translate(-174.289 -97.71)" fill="#ff9a83"/>
    <path id="Trazado_231781" data-name="Trazado 231781" d="M3968.672,3401.59l18.5-8.485s.964,2.087,0,3.26-8.362,4.712-8.362,4.712l2.58.963v2.7l1.927,6.1-6.78,3.421-7.674-3.421Z" transform="translate(-190.786 -118.72)" fill="#ff9a83"/>
    <path id="Trazado_231782" data-name="Trazado 231782" d="M3950.812,3417.849l6.437-3.814,1.67-6.241,4.767-3.532,5.244,9.3s-3.076,2.332-5.483-2.5l4.291,8.7h-4.291l-12.635,8.653Z" transform="translate(-181.986 -124.217)" fill="#ffba94"/>
    <path id="Trazado_231783" data-name="Trazado 231783" d="M3864.786,3373.055l17.573,40.926,25.113-14.787,7.882,10.017-35.725,26.99-20.779-17.135Z" transform="translate(-136.672 -108.84)" fill="#ed9621"/>
    <g id="Grupo_165764" data-name="Grupo 165764" transform="translate(3625.048 3192.064)">
      <path id="Trazado_231784" data-name="Trazado 231784" d="M3741.561,3579.468l-2.431,9.556h15.091v-10.795l-9.556-1.722Z" transform="translate(-3702.727 -3401.156)" fill="#3b3b59"/>
      <path id="Trazado_231785" data-name="Trazado 231785" d="M3805.753,3260.976l9.327-16.135-10.832-6.681,5.329.1s-8.278-7.646-23.456-7.445-18.936,11.309-18.936,11.309-9.213,5.191-9.208,14.907c0,7.393,19.087,28.373,19.087,28.373Z" transform="translate(-3712.014 -3230.815)" fill="#9b6842"/>
      <path id="Trazado_231786" data-name="Trazado 231786" d="M3759.511,3274.1c3.581,8.986,18.31,24.92,18.31,24.92l28.689-24.433,9.327-16.134-.021-.013C3796.987,3274.453,3769.392,3274.627,3759.511,3274.1Z" transform="translate(-3712.77 -3244.427)" fill="#825638"/>
      <g id="Grupo_165763" data-name="Grupo 165763" transform="translate(55.172 18.113)">
        <path id="Trazado_231787" data-name="Trazado 231787" d="M3814.955,3268.776s3.908,22.565-1.151,30.147c-5.205,7.8-12.823,6.561-12.823,6.561l2,5.613c-4.182,13.867-18.73.4-18.73.4l.368-17.928c-10-2.782-10.309-13.492-5.341-14.6,3.834-.857,5.4,3.952,5.4,3.952s5.374-6.966,1.1-13.658c0,0,17.971,4.586,25.461-.483l-2.88-2.252Z" transform="translate(-3776.132 -3266.524)" fill="#ffba94"/>
        <path id="Trazado_231788" data-name="Trazado 231788" d="M3813.858,3342.17l-11.593-1.194,13.594,6.808Z" transform="translate(-3789.009 -3303.21)" fill="#ff9a83"/>
        <path id="Trazado_231789" data-name="Trazado 231789" d="M3831.08,3288.659l1.169,12.732S3840.794,3299.665,3831.08,3288.659Z" transform="translate(-3803.208 -3277.431)" fill="#ff9a83"/>
        <path id="Trazado_231790" data-name="Trazado 231790" d="M3830.109,3319.343l-10.271.458S3825.268,3326.884,3830.109,3319.343Z" transform="translate(-3797.668 -3292.55)" fill="#fff"/>
        <path id="Trazado_231791" data-name="Trazado 231791" d="M3841.48,3294.93a1.973,1.973,0,1,0,1.747-2.388A2.1,2.1,0,0,0,3841.48,3294.93Z" transform="translate(-3808.327 -3279.341)" fill="#2d2d2d"/>
        <path id="Trazado_231792" data-name="Trazado 231792" d="M3809.1,3298.06a2.22,2.22,0,1,0,2.008-2.414A2.219,2.219,0,0,0,3809.1,3298.06Z" transform="translate(-3792.37 -3280.869)" fill="#2d2d2d"/>
        <path id="Trazado_231793" data-name="Trazado 231793" d="M3803.571,3288.874l8.2-.754S3807.238,3281.958,3803.571,3288.874Z" transform="translate(-3789.652 -3275.919)" fill="#825638"/>
        <path id="Trazado_231794" data-name="Trazado 231794" d="M3839.654,3285.672l5.784-.53S3842.065,3278.873,3839.654,3285.672Z" transform="translate(-3807.432 -3274.399)" fill="#825638"/>
      </g>
      <path id="Trazado_231795" data-name="Trazado 231795" d="M3767.754,3353.894s-8.929-13.26-15.77-13.237-6.238,10.084-6.238,10.084l-27.473,13.169,16.406,46.39-4.628,53.062h63.181l-4.252-54.215,6.536-52.055-13.35-3.131s3.221-8.967-4.046-9.737C3772.872,3343.667,3767.754,3353.894,3767.754,3353.894Z" transform="translate(-3692.45 -3284.94)" fill="#fda829"/>
      <path id="Trazado_231796" data-name="Trazado 231796" d="M3754.067,3366.753l4.97,32.059,41.964-1.619-.454-29.735,4.23.992,2.5,32.553-2.637,21,4.654,63.881h-57.036l1.813-83.739-4.025-33.1Z" transform="translate(-3708.104 -3297.799)" fill="#9b6842"/>
      <path id="Trazado_231797" data-name="Trazado 231797" d="M3857.7,3427.548a1.059,1.059,0,1,1-1.06-1.059A1.06,1.06,0,0,1,3857.7,3427.548Z" transform="translate(-3760.107 -3327.234)" fill="#2d2d2d"/>
      <path id="Trazado_231798" data-name="Trazado 231798" d="M3776.885,3479.2l37.29-1.612s-.727,16.144-19.778,15.356C3780.946,3492.388,3776.885,3479.2,3776.885,3479.2Z" transform="translate(-3721.331 -3352.413)" fill="#bf7f52"/>
      <path id="Trazado_231799" data-name="Trazado 231799" d="M3693.188,3386.5l-25.824,43.985,39.1,43.45,6.866-11.6-22.464-31.788,17.626-15.449Z" transform="translate(-3667.364 -3307.528)" fill="#fda829"/>
    </g>
    <path id="Trazado_231800" data-name="Trazado 231800" d="M3809.738,3420.516l-.337-6.43-41.626,8.049Z" transform="translate(-91.793 -129.058)" fill="#ed9621"/>
    <path id="Trazado_231801" data-name="Trazado 231801" d="M3817.57,3468.226l7.305-7.039s1.842,5.237-1.568,7.424A4.374,4.374,0,0,1,3817.57,3468.226Z" transform="translate(-116.33 -152.267)" fill="#ff9a83"/>
    <path id="Trazado_231802" data-name="Trazado 231802" d="M3793.05,3475.136l7.34-7.687a15.184,15.184,0,0,1,5.1-6.169c3.84-2.812,12.372-3.978,12.372-3.978s2.9-6.893,5.153-8.387a14.2,14.2,0,0,1,3.414-1.823l-4.2,15.9-13.448,6.606-8.1,11.533Z" transform="translate(-104.248 -145.322)" fill="#ffba94"/>
    <path id="Trazado_231803" data-name="Trazado 231803" d="M3698.059,3497.5l27.672,17.992,23.758-25.332,9.992,7.4-20.557,32.146-21.687,6.823Z" transform="translate(-57.441 -166.544)" fill="#25b6c1"/>
    <path id="Trazado_231804" data-name="Trazado 231804" d="M3802.535,3492.446l9.1,2.1-2.144,3.053Z" transform="translate(-108.922 -167.67)" fill="#ff9a83"/>
    <path id="Trazado_231805" data-name="Trazado 231805" d="M3755.989,3432.643s12.392-11.335,6.439-27.46c-6.439-17.44-28.461-11.333-28.461-11.333s-11.983.734-17.416,10.508-4.226,29.755,13.344,35.3Z" transform="translate(-65.144 -118.576)" fill="#455460"/>
    <path id="Trazado_231806" data-name="Trazado 231806" d="M3762.559,3406.317a17.586,17.586,0,0,0-11.695-11.2c.181,9.61-1.062,28.3-13.15,31.419-8.346,2.151-17.133-1.8-23.755-6.2.8,8.466,5.438,17.1,16.067,20.457l26.094-7.012S3768.513,3422.441,3762.559,3406.317Z" transform="translate(-65.276 -119.71)" fill="#3a474f"/>
    <path id="Trazado_231807" data-name="Trazado 231807" d="M4057.556,3449.814l-7.464-1.642a44.581,44.581,0,0,0-3.224-5.484c-.83-.827-6.638-3.094-6.638-3.094l-2.528,2.858-12.8-2.615s-2.888.034-.294,2.2,10.411,4.56,10.411,4.56l-1.688,1.293.472,2.331,1.65,1.049.775,4.179,19.6,6.07Z" transform="translate(-217.815 -141.628)" fill="#ffba94"/>
    <path id="Trazado_231808" data-name="Trazado 231808" d="M4051.474,3444.065l5.744,1.565-4.683-2.764Z" transform="translate(-231.587 -143.24)" fill="#ff9a83"/>
    <path id="Trazado_231809" data-name="Trazado 231809" d="M4079.786,3458.492l-5.3,10.348,3.569,1.106Z" transform="translate(-242.925 -150.939)" fill="#ff9a83"/>
    <path id="Trazado_231810" data-name="Trazado 231810" d="M4204.243,3572.9l3.018,14.752H4164l8.451-18.466,30.584,1.207Z" transform="translate(-287.034 -205.484)" fill="#3b3b59"/>
    <path id="Trazado_231811" data-name="Trazado 231811" d="M4133.586,3361.4l-11.462,5.543-25.636,11.511,12.609,44.114-6.047,44.679,70.139,3.269-8.853-50.359,4.468-48.02-28.679-8.749Z" transform="translate(-253.768 -103.094)" fill="#fed935"/>
    <path id="Trazado_231812" data-name="Trazado 231812" d="M4098.4,3278.01s-10.316-3.932-2.341-12.886,39.619-12.894,45.287,1.433-.674,31.018-5.2,37S4098.4,3278.01,4098.4,3278.01Z" transform="translate(-252.066 -51.695)" fill="#3b3b59"/>
    <path id="Trazado_231813" data-name="Trazado 231813" d="M4120.874,3291.1c-17.46-3.072-21.573-14.918-22.413-22.248a13.882,13.882,0,0,0-2.4,2.073c-7.975,8.954,2.341,12.885,2.341,12.885s33.211,31.526,37.742,25.546c2.884-3.809,6.491-11.967,7.275-21.087C4139.715,3291.108,4133.007,3293.23,4120.874,3291.1Z" transform="translate(-252.066 -57.491)" fill="#303047"/>
    <rect id="Rectángulo_46085" data-name="Rectángulo 46085" width="305.202" height="22.421" transform="translate(3630.568 3387.597)" fill="#e3e5e5"/>
    <rect id="Rectángulo_46086" data-name="Rectángulo 46086" width="305.202" height="12.677" transform="translate(3630.568 3387.597)" fill="#adbbbc"/>
    <path id="Trazado_231814" data-name="Trazado 231814" d="M4195.148,3191.131c-12.737,0-23.062,8.5-23.062,18.99,0,7.429,5.193,13.844,12.742,16.964l-1.8,7.848,7.872-6.159a27.9,27.9,0,0,0,4.244.335c12.737,0,23.063-8.5,23.063-18.989S4207.885,3191.131,4195.148,3191.131Z" transform="translate(-291.019 -19.196)" fill="#26c7db"/>
    <path id="Trazado_231815" data-name="Trazado 231815" d="M3705.1,3185.667c12.737,0,23.062,8.5,23.062,18.99,0,7.429-5.193,13.844-12.742,16.964l1.8,7.849-7.872-6.158a27.984,27.984,0,0,1-4.244.335c-12.737,0-23.062-8.5-23.062-18.989S3692.364,3185.667,3705.1,3185.667Z" transform="translate(-49.547 -16.504)" fill="#26c7db"/>
    <path id="Trazado_231816" data-name="Trazado 231816" d="M3663.758,3342.013c12.736,0,23.062,8.5,23.062,18.99,0,7.429-5.193,13.844-12.743,16.964l1.8,7.849-7.871-6.159a27.988,27.988,0,0,1-4.244.335c-12.737,0-23.062-8.5-23.062-18.99S3651.021,3342.013,3663.758,3342.013Z" transform="translate(-29.175 -93.544)" fill="#f57c22"/>
    <path id="Trazado_231817" data-name="Trazado 231817" d="M4053.878,3205.063c10.384,0,18.8,6.931,18.8,15.481,0,6.056-4.234,11.286-10.388,13.83l1.464,6.4-6.417-5.021a22.83,22.83,0,0,1-3.459.273c-10.383,0-18.8-6.93-18.8-15.48S4043.5,3205.063,4053.878,3205.063Z" transform="translate(-223.507 -26.062)" fill="#fda829"/>
    <path id="Trazado_231818" data-name="Trazado 231818" d="M3844.751,3160.418c-10.383,0-18.8,6.931-18.8,15.48,0,6.057,4.234,11.287,10.388,13.83l-1.464,6.4,6.417-5.021a22.788,22.788,0,0,0,3.459.273c10.384,0,18.8-6.93,18.8-15.481S3855.135,3160.418,3844.751,3160.418Z" transform="translate(-120.46 -4.063)" fill="#fed935"/>
    <path id="Trazado_231819" data-name="Trazado 231819" d="M3967.731,3235.791l2.583-.655a7.505,7.505,0,0,0,5.434-5.433l.655-2.582.654,2.582a7.5,7.5,0,0,0,5.433,5.433l2.582.655-2.582.655a7.5,7.5,0,0,0-5.433,5.433l-.654,2.582-.655-2.582a7.5,7.5,0,0,0-5.434-5.433Z" transform="translate(-190.322 -36.931)" fill="#fff"/>
    <path id="Trazado_231820" data-name="Trazado 231820" d="M3886.883,3367.694l2.583-.656a7.505,7.505,0,0,0,5.434-5.433l.654-2.581.654,2.581a7.5,7.5,0,0,0,5.434,5.433l2.581.656-2.581.655a7.5,7.5,0,0,0-5.434,5.433l-.654,2.582-.654-2.582a7.5,7.5,0,0,0-5.434-5.434Z" transform="translate(-150.484 -101.927)" fill="#fff"/>
    <path id="Trazado_231821" data-name="Trazado 231821" d="M4054.83,3344.129l2.582-.655a7.507,7.507,0,0,0,5.435-5.433l.654-2.582.654,2.582a7.505,7.505,0,0,0,5.435,5.433l2.581.655-2.581.655a7.5,7.5,0,0,0-5.435,5.433l-.654,2.583-.654-2.582a7.5,7.5,0,0,0-5.435-5.434Z" transform="translate(-233.241 -90.314)" fill="#fff"/>
    <path id="Trazado_231822" data-name="Trazado 231822" d="M4003.194,3209.81l1.461-.371a4.247,4.247,0,0,0,3.075-3.075l.37-1.461.37,1.461a4.247,4.247,0,0,0,3.075,3.075l1.461.371-1.461.371a4.247,4.247,0,0,0-3.075,3.075l-.37,1.462-.37-1.461a4.246,4.246,0,0,0-3.075-3.076Z" transform="translate(-207.797 -25.983)" fill="#fff"/>
    <path id="Trazado_231823" data-name="Trazado 231823" d="M3928.43,3219.484l1.461-.371a4.249,4.249,0,0,0,3.076-3.075l.37-1.461.37,1.461a4.248,4.248,0,0,0,3.076,3.075l1.461.371-1.461.371a4.247,4.247,0,0,0-3.076,3.075l-.37,1.461-.37-1.461a4.248,4.248,0,0,0-3.076-3.076Z" transform="translate(-170.957 -30.75)" fill="#fff"/>
    <path id="Trazado_231824" data-name="Trazado 231824" d="M4006.446,3282.463l1.462-.371a4.248,4.248,0,0,0,3.076-3.075l.37-1.461.37,1.461a4.248,4.248,0,0,0,3.075,3.075l1.461.371-1.461.37a4.249,4.249,0,0,0-3.075,3.075l-.37,1.462-.37-1.461a4.249,4.249,0,0,0-3.076-3.076Z" transform="translate(-209.399 -61.783)" fill="#fff"/>
    <path id="Trazado_231825" data-name="Trazado 231825" d="M3938.1,3399.3l1.461-.371a4.247,4.247,0,0,0,3.076-3.075l.37-1.461.37,1.461a4.246,4.246,0,0,0,3.075,3.075l1.461.371-1.461.371a4.245,4.245,0,0,0-3.075,3.075l-.37,1.461-.37-1.461a4.245,4.245,0,0,0-3.076-3.075Z" transform="translate(-175.724 -119.354)" fill="#fff"/>
    <g id="Grupo_165765" data-name="Grupo 165765" transform="translate(3897.674 3304.926)">
      <path id="Trazado_231826" data-name="Trazado 231826" d="M4275.41,3596.421l-1.781-4.04,4.783,2.428a95.232,95.232,0,0,0,16.215-11.673s-7.9-5.676-21.567-6.979l-9.849,6.019,3.934-7.168c-11.839-1.829-25.769-1.107-38.188,7.078l-4.638,6.686.354-3.5a53.611,53.611,0,0,0-7.693,7.907,55.9,55.9,0,0,0,20.5,8.861l-.7-6.1,6.274,7.019C4252.263,3604.048,4263.308,3602.561,4275.41,3596.421Z" transform="translate(-4210.814 -3512.87)" fill="#fce688"/>
      <path id="Trazado_231827" data-name="Trazado 231827" d="M4252.531,3594.233c.008.015.009.033.021.046l7.725,8.7a.205.205,0,1,0,.307-.272l-7.579-8.535,10.635-1.375a.194.194,0,0,0,.022.047l4.589,5.074a.2.2,0,1,0,.3-.275l-4.438-4.908,15.795-2.043c.016.03.022.064.053.084l4.283,2.745a.2.2,0,0,0,.221-.345l-3.988-2.557,8.143-1.053a.2.2,0,0,0-.053-.406l-17.074,2.209,6.582-5.307a.2.2,0,1,0-.257-.319l-7.1,5.726-25.612,3.313,5.853-9.183a.2.2,0,0,0-.345-.22l-6.037,9.472-10.681,1.382,4.4-6.23a.205.205,0,0,0-.334-.238l-4.616,6.54-16.589,2.146a.205.205,0,1,0,.053.407l9.042-1.17a.19.19,0,0,0,.023.051l5.493,5.887a.206.206,0,0,0,.29.01.209.209,0,0,0,.01-.291l-5.335-5.719Z" transform="translate(-4210.615 -3518.341)" fill="#fda829"/>
      <path id="Trazado_231828" data-name="Trazado 231828" d="M4246.427,3478.794l-4.729-.9,5.139-2.8a103.894,103.894,0,0,0-.462-21.786s-9.987,3.592-19.606,15.062l-.681,12.569-4.009-7.967c-8.963,9.507-16.927,22.468-17.252,38.687l3.139,8.3-2.924-2.48a58.5,58.5,0,0,0,2.348,11.8,60.972,60.972,0,0,0,20.634-12.935l-5.908-3.143,10.186-1.3C4238.969,3504.306,4244.461,3493.464,4246.427,3478.794Z" transform="translate(-4204.825 -3453.314)" fill="#fce688"/>
      <path id="Trazado_231829" data-name="Trazado 231829" d="M4227.8,3499.76a.188.188,0,0,0,.053.01l12.592-1.561a.224.224,0,1,0-.055-.444l-12.353,1.532,5.339-10.406a.187.187,0,0,0,.056.009l7.4-.985a.223.223,0,1,0-.059-.443l-7.154.952,7.931-15.454a.209.209,0,0,0,.107,0l5.114-2.15a.224.224,0,0,0-.173-.413l-4.763,2,4.088-7.967a.224.224,0,1,0-.4-.2l-8.572,16.706-.7-9.194a.224.224,0,1,0-.446.034l.754,9.92-12.86,25.06-4.632-10.936a.223.223,0,1,0-.411.174l4.777,11.28-5.363,10.451-2.878-7.8a.224.224,0,0,0-.42.153l3.021,8.192-8.329,16.23a.224.224,0,1,0,.4.2l4.54-8.848a.206.206,0,0,0,.06.01l8.686-1.294a.225.225,0,0,0,.188-.255.227.227,0,0,0-.255-.188l-8.437,1.258Z" transform="translate(-4207.097 -3458.64)" fill="#a29edd"/>
      <path id="Trazado_231830" data-name="Trazado 231830" d="M4271.969,3534.6l-3.916-3.3,6.222.088a110.519,110.519,0,0,0,10.933-20.431s-11.128-1.88-26.026,3.733L4252,3525.986l.44-9.474c-13.265,4.135-27.406,11.994-36.166,26.856l-1.421,9.331-1.416-3.823a62.217,62.217,0,0,0-3.978,12.161,64.84,64.84,0,0,0,25.87-1.227l-3.836-5.995,10.116,4.11C4251.75,3554.355,4262.5,3547.171,4271.969,3534.6Z" transform="translate(-4207.106 -3481.569)" fill="#90d1d6"/>
      <path id="Trazado_231831" data-name="Trazado 231831" d="M4244.207,3541.91c.016.012.026.029.045.037l12.484,5.12a.238.238,0,0,0,.181-.441l-12.248-5.023,10.375-6.859c.017.013.027.03.047.038l7.369,2.945a.237.237,0,1,0,.175-.441l-7.126-2.848,15.41-10.187c.032.023.056.055.1.06l5.861.675a.238.238,0,0,0,.055-.473l-5.458-.628,7.943-5.251a.238.238,0,1,0-.262-.4l-16.658,11.01,4.148-8.885a.237.237,0,1,0-.431-.2l-4.476,9.587-24.988,16.518,1.411-12.551a.237.237,0,1,0-.472-.053l-1.456,12.946-10.421,6.888,1.4-8.734a.238.238,0,0,0-.47-.077l-1.474,9.167-16.184,10.7a.238.238,0,0,0,.262.4l8.822-5.832c.018.013.029.032.05.041l8.725,3.33a.238.238,0,1,0,.168-.446l-8.475-3.234Z" transform="translate(-4206.875 -3485.285)" fill="#26c7db"/>
    </g>
    <path id="Rectángulo_46087" data-name="Rectángulo 46087" d="M4.2,0H311.864a4.2,4.2,0,0,1,4.2,4.2v10.13a0,0,0,0,1,0,0H0a0,0,0,0,1,0,0V4.2A4.2,4.2,0,0,1,4.2,0Z" transform="translate(3626.054 3382.168)" fill="#333"/>
    <rect id="Rectángulo_46088" data-name="Rectángulo 46088" width="316.065" height="6.322" transform="translate(3626.054 3390.177)" fill="#2b2b2b"/>
    <path id="Trazado_231832" data-name="Trazado 231832" d="M4131.991,3285.4c-2.532,7.511,4.35,12.963,4.35,12.963s.357-5.034,4.277-5.127c5.078-.123,7.36,10.322-1.657,15.426l4.675,17.273s-10.844,16.549-18.234,4.127l.586-5.919s-7.079,3.036-14-3.265c-6.725-6.124-8.376-28.918-8.376-28.918Z" transform="translate(-257.279 -65.649)" fill="#ffba94"/>
    <path id="Trazado_231833" data-name="Trazado 231833" d="M4147.155,3357.946l10.939-3.949-11.524,9.867Z" transform="translate(-278.445 -99.449)" fill="#ff9a83"/>
    <path id="Trazado_231834" data-name="Trazado 231834" d="M4126.285,3310.273l1.934,12.611S4119.528,3323.271,4126.285,3310.273Z" transform="translate(-267.183 -77.904)" fill="#ff9a83"/>
    <path id="Trazado_231835" data-name="Trazado 231835" d="M4127.452,3340.184l10.056-2.031S4133.957,3346.321,4127.452,3340.184Z" transform="translate(-269.025 -91.642)" fill="#fff"/>
    <path id="Trazado_231836" data-name="Trazado 231836" d="M4116.994,3319.249a1.969,1.969,0,1,1-2.267-1.891A2.1,2.1,0,0,1,4116.994,3319.249Z" transform="translate(-261.954 -81.385)" fill="#2d2d2d"/>
    <path id="Trazado_231837" data-name="Trazado 231837" d="M4148.617,3314.537a2.215,2.215,0,1,1-2.525-1.854A2.215,2.215,0,0,1,4148.617,3314.537Z" transform="translate(-277.284 -79.079)" fill="#2d2d2d"/>
    <path id="Trazado_231838" data-name="Trazado 231838" d="M4148.357,3304.712l-8.119,1.244S4143.141,3298.9,4148.357,3304.712Z" transform="translate(-275.325 -74.032)" fill="#303047"/>
    <path id="Trazado_231839" data-name="Trazado 231839" d="M4114.936,3310.035l-5.729.88S4110.963,3304.031,4114.936,3310.035Z" transform="translate(-260.035 -76.576)" fill="#303047"/>
    <path id="Trazado_231840" data-name="Trazado 231840" d="M4118.334,3376.757,4115.8,3399.2h43.049v-25.13l4.225,1.5,8.652,115.941h-66.771l8.313-62.7-5.049-19.148,6.51-31.283Z" transform="translate(-257.941 -109.338)" fill="#9b6842"/>
    <g id="Grupo_165766" data-name="Grupo 165766" transform="translate(3849.282 3354.872)">
      <path id="Trazado_231841" data-name="Trazado 231841" d="M4109.661,3566.61l-.237,1.752,2.833.132C4111.308,3567.862,4110.445,3567.228,4109.661,3566.61Z" transform="translate(-4109.424 -3559.086)" fill="#ffd9bd"/>
      <path id="Trazado_231842" data-name="Trazado 231842" d="M4203.836,3563.285l22.249,1.037-2.205-12.544A99.57,99.57,0,0,1,4203.836,3563.285Z" transform="translate(-4155.945 -3551.778)" fill="#ffd9bd"/>
    </g>
    <path id="Trazado_231843" data-name="Trazado 231843" d="M4120.069,3479.86l33.149,13.349,21.537-15.4-.354-4.732-9.111-6.631-27.164,11.364Z" transform="translate(-265.387 -154.859)" fill="#825638"/>
    <path id="Trazado_231844" data-name="Trazado 231844" d="M4109.127,3563.323l-2.249,19.219h65.8l-1.771-23.727C4139.357,3579.281,4118.767,3570.568,4109.127,3563.323Z" transform="translate(-258.888 -200.374)" fill="#825638"/>
    <path id="Trazado_231845" data-name="Trazado 231845" d="M3739.414,3543.771l-1.736,31.358h65.8L3801.7,3551.4C3770.577,3569.943,3745.786,3550.309,3739.414,3543.771Z" transform="translate(-76.964 -192.961)" fill="#825638"/>
    <path id="Trazado_231846" data-name="Trazado 231846" d="M4133.06,3497.388h37.325s-1.424,16.1-20.424,14.488C4136.547,3510.739,4133.06,3497.388,4133.06,3497.388Z" transform="translate(-271.789 -170.105)" fill="#bf7f52"/>
    <path id="Trazado_231847" data-name="Trazado 231847" d="M4121.375,3427.338a1.059,1.059,0,1,1-1.059-1.06A1.059,1.059,0,0,1,4121.375,3427.338Z" transform="translate(-264.987 -135.066)" fill="#2d2d2d"/>
    <path id="Trazado_231848" data-name="Trazado 231848" d="M4217.582,3427.338a1.059,1.059,0,1,1-1.06-1.06A1.059,1.059,0,0,1,4217.582,3427.338Z" transform="translate(-312.393 -135.066)" fill="#2d2d2d"/>
    <path id="Trazado_231849" data-name="Trazado 231849" d="M4160.537,3382.561l-32.027,44.516-45.775-6.932-3.025,13.85,53.018,14.056,23.341-17.47S4172.853,3404.8,4160.537,3382.561Z" transform="translate(-245.5 -113.524)" fill="#fed935"/>
    <path id="Trazado_231850" data-name="Trazado 231850" d="M4175.914,3467.4l8.511,1.523-6.346-4.532Z" transform="translate(-292.905 -153.845)" fill="#eac734"/>
    <path id="Trazado_231851" data-name="Trazado 231851" d="M4126.337,3418.916l43.049-4.829v3.644l-1.21,1.682Z" transform="translate(-268.476 -129.058)" fill="#eac734"/>
    <path id="Trazado_231852" data-name="Trazado 231852" d="M4239.3,3579.112l-4.473,5.676-.88-8.858,4.762.293Z" transform="translate(-321.5 -208.806)" fill="#313149"/>
    <g id="Grupo_165767" data-name="Grupo 165767" transform="translate(3834.115 3316.479)">
      <path id="Trazado_231853" data-name="Trazado 231853" d="M4105.149,3514.039l-13.447-1.46,1.224,4.727.059.227Z" transform="translate(-4085.524 -3494.07)" fill="#e6d6c9"/>
      <path id="Trazado_231854" data-name="Trazado 231854" d="M4088.82,3514.938l-1.44,3.623,2.839,6.847,19.351.014,5.261-12.843Z" transform="translate(-4083.394 -3494.07)" fill="#f7ebe0"/>
      <path id="Trazado_231855" data-name="Trazado 231855" d="M4110,3522.538a.848.848,0,0,0-.784-1.17h-28.845a.848.848,0,0,0-.784,1.17l3.292,1.982,5.064,12.33a5.772,5.772,0,0,1,.058,4.238l-5.5,14.5a6.273,6.273,0,0,0,5.865,8.5H4103.7a6.273,6.273,0,0,0,5.866-8.5l-5.5-14.5a5.77,5.77,0,0,1,.058-4.238Z" transform="translate(-4079.523 -3498.401)" fill="#e1f7f7"/>
      <path id="Trazado_231856" data-name="Trazado 231856" d="M4091.648,3562.846h15.328a5.034,5.034,0,0,0,4.707-6.819l-5.5-14.5a6.981,6.981,0,0,1,.07-5.147l6.156-15.011h-26.234l6.19,15.011a6.989,6.989,0,0,1,.07,5.147l-5.5,14.5a5.034,5.034,0,0,0,4.708,6.819Z" transform="translate(-4082.802 -3498.401)" fill="#9ad7da"/>
      <path id="Trazado_231857" data-name="Trazado 231857" d="M4099.923,3556v-18.136h-10.315a.341.341,0,0,0-.322.455l2.7,7.552a2.845,2.845,0,0,1,.017,1.863l-2.63,7.817a.34.34,0,0,0,.323.449Z" transform="translate(-4084.324 -3506.532)" fill="#e1bc71"/>
      <path id="Trazado_231858" data-name="Trazado 231858" d="M4108.532,3556.034V3537.9h13.189a.341.341,0,0,1,.322.455l-2.7,7.552a2.845,2.845,0,0,0-.017,1.863l2.63,7.817a.341.341,0,0,1-.323.45Z" transform="translate(-4093.817 -3506.546)" fill="#e1bc71"/>
      <path id="Trazado_231859" data-name="Trazado 231859" d="M4112.084,3555.759h-17.738a.464.464,0,1,1,0-.928h17.738a.464.464,0,0,1,0,.928Z" transform="translate(-4086.598 -3514.89)" fill="#956337"/>
      <path id="Trazado_231860" data-name="Trazado 231860" d="M4110.237,3562.366a.354.354,0,0,1-.354-.354v-5.883a.354.354,0,1,1,.708,0v5.883A.354.354,0,0,1,4110.237,3562.366Z" transform="translate(-4094.483 -3515.354)" fill="#7f5230"/>
      <path id="Trazado_231861" data-name="Trazado 231861" d="M4112.144,3564.74a.353.353,0,0,1-.354-.354v-8.257a.354.354,0,1,1,.707,0v8.257A.354.354,0,0,1,4112.144,3564.74Z" transform="translate(-4095.422 -3515.354)" fill="#7f5230"/>
      <path id="Trazado_231862" data-name="Trazado 231862" d="M4104.233,3559.526a1.7,1.7,0,0,1-.781-3.21l2.864-1.495a.686.686,0,0,1,.926.926l-1.494,2.864a1.682,1.682,0,0,1-1.25.894A1.724,1.724,0,0,1,4104.233,3559.526Zm-.7-1a.992.992,0,0,0,1.583-.243l1.464-2.8-2.8,1.463a.993.993,0,0,0-.243,1.583Z" transform="translate(-4090.863 -3514.847)" fill="#956337"/>
      <path id="Trazado_231863" data-name="Trazado 231863" d="M4114.106,3559.526a1.75,1.75,0,0,1-.265-.021,1.683,1.683,0,0,1-1.25-.894l-1.495-2.864a.687.687,0,0,1,.927-.926l2.864,1.495a1.7,1.7,0,0,1-.782,3.21Zm-2.35-4.046,1.463,2.8a.993.993,0,1,0,1.341-1.34Z" transform="translate(-4095.042 -3514.847)" fill="#956337"/>
      <path id="Trazado_231864" data-name="Trazado 231864" d="M4110.728,3555.713h0a.7.7,0,0,1-.7-.7v-.368a.7.7,0,0,1,1.4,0v.368A.7.7,0,0,1,4110.728,3555.713Z" transform="translate(-4094.554 -3514.453)" fill="#956337"/>
      <path id="Trazado_231865" data-name="Trazado 231865" d="M4110.22,3579.9h-20.975l-1.884,4.968a5.034,5.034,0,0,0,4.708,6.818H4107.4a5.034,5.034,0,0,0,4.708-6.818Z" transform="translate(-4083.222 -3527.243)" fill="#491c0f"/>
      <path id="Trazado_231866" data-name="Trazado 231866" d="M4111.994,3593.829a5.042,5.042,0,0,1-4.594,2.975h-15.327a5.025,5.025,0,0,1-5.008-4.546,5.029,5.029,0,0,0,5.008,5.519H4107.4a5.041,5.041,0,0,0,4.594-2.975,4.984,4.984,0,0,0,.413-2.544A5.012,5.012,0,0,1,4111.994,3593.829Z" transform="translate(-4083.227 -3533.332)" fill="#33130b"/>
      <path id="Trazado_231867" data-name="Trazado 231867" d="M4112.4,3582.379l-.939-2.477h-20.975l-.939,2.477Z" transform="translate(-4084.46 -3527.244)" fill="#a7723f"/>
      <path id="Trazado_231868" data-name="Trazado 231868" d="M4087.986,3521.368l-.605,1.524,2.839,6.846,19.351.015,3.435-8.385Z" transform="translate(-4083.394 -3498.401)" fill="#e6d6c9"/>
      <path id="Trazado_231869" data-name="Trazado 231869" d="M4110.875,3492.5h-2.234a.974.974,0,1,0,0,1.949h2.234a.974.974,0,0,0,0-1.949Z" transform="translate(-4093.391 -3484.178)" fill="#eaeaea"/>
      <path id="Trazado_231870" data-name="Trazado 231870" d="M4100.006,3485.211h3.609a1.417,1.417,0,1,0,0-2.835h-3.609a1.417,1.417,0,0,0,0,2.835Z" transform="translate(-4088.918 -3479.188)" fill="#eaeaea"/>
      <path id="Trazado_231871" data-name="Trazado 231871" d="M4105.761,3502.059h-.225a1.455,1.455,0,0,0-.942-2.569h-3.809a1.462,1.462,0,1,0,0,2.923h2.609a.833.833,0,0,0-.159.487.845.845,0,0,0,.842.842h1.684a.842.842,0,1,0,0-1.683Z" transform="translate(-4089.279 -3487.621)" fill="#eaeaea"/>
      <path id="Trazado_231872" data-name="Trazado 231872" d="M4100.185,3477.507h.886a.708.708,0,0,0,0-1.417h-.886a.708.708,0,0,0,0,1.417Z" transform="translate(-4089.355 -3476.09)" fill="#eaeaea"/>
    </g>
    <g id="Grupo_165769" data-name="Grupo 165769" transform="translate(3801.954 3359.914)">
      <path id="Trazado_231873" data-name="Trazado 231873" d="M4064.28,3586.107h-8.021v-1.4h8.021a2.471,2.471,0,0,0,2.472-2.471v-5.059a2.471,2.471,0,0,0-2.472-2.471h-3.809a.7.7,0,0,1-.7-.7h0a.7.7,0,0,1,.7-.7h3.809a3.875,3.875,0,0,1,3.875,3.874v5.059A3.875,3.875,0,0,1,4064.28,3586.107Z" transform="translate(-4035.899 -3567.424)" fill="#323542"/>
      <path id="Trazado_231874" data-name="Trazado 231874" d="M4040.165,3563.995a9.933,9.933,0,0,1,10.252,1.043l-.994.533h-7.7Z" transform="translate(-4027.968 -3562.363)" fill="#d3a78e"/>
      <path id="Trazado_231875" data-name="Trazado 231875" d="M4019.289,3564.719s3.17-2.935,6.88-3,6.205,2.022,8.3,2.153,3.845-.719,6.34-.654a4.425,4.425,0,0,1,3.574,1.761Z" transform="translate(-4017.682 -3561.718)" fill="#ffc5a0"/>
      <path id="Trazado_231876" data-name="Trazado 231876" d="M4031.834,3570.819h-12.545l4.019,15.682h17.052l4.019-15.682Z" transform="translate(-4017.682 -3566.202)" fill="#3e4153"/>
      <path id="Trazado_231877" data-name="Trazado 231877" d="M4045.371,3570.819l-2.479,9.67a4.559,4.559,0,0,1-4.417,3.428h-12.569l.663,2.583h17.052l4.019-15.682Z" transform="translate(-4020.942 -3566.202)" fill="#323542"/>
      <g id="Grupo_165768" data-name="Grupo 165768" transform="translate(0.574 19.365)">
        <path id="Trazado_231878" data-name="Trazado 231878" d="M4041.179,3602.779h-21.043a2.893,2.893,0,0,1-2.885-2.885h26.813A2.893,2.893,0,0,1,4041.179,3602.779Z" transform="translate(-4017.251 -3599.894)" fill="#454b5b"/>
      </g>
      <path id="Trazado_231879" data-name="Trazado 231879" d="M4043.734,3601.2a2.841,2.841,0,0,0,.331-1.309h-26.813a2.843,2.843,0,0,0,.33,1.309Z" transform="translate(-4016.677 -3580.529)" fill="#53596f"/>
      <path id="Trazado_231880" data-name="Trazado 231880" d="M4043.335,3569.832h-26.124a1.094,1.094,0,0,1-1.091-1.091h0a1.094,1.094,0,0,1,1.091-1.091h26.124a1.094,1.094,0,0,1,1.09,1.091h0A1.094,1.094,0,0,1,4043.335,3569.832Z" transform="translate(-4016.12 -3564.641)" fill="#333644"/>
    </g>
    <g id="Grupo_165771" data-name="Grupo 165771" transform="translate(3699.332 3359.914)">
      <path id="Trazado_231881" data-name="Trazado 231881" d="M3817.682,3586.107h8.021v-1.4h-8.021a2.471,2.471,0,0,1-2.471-2.471v-5.059a2.471,2.471,0,0,1,2.471-2.471h3.81a.7.7,0,0,0,.7-.7h0a.7.7,0,0,0-.7-.7h-3.81a3.874,3.874,0,0,0-3.874,3.874v5.059A3.875,3.875,0,0,0,3817.682,3586.107Z" transform="translate(-3813.808 -3567.424)" fill="#323542"/>
      <path id="Trazado_231882" data-name="Trazado 231882" d="M3843.394,3563.995a9.933,9.933,0,0,0-10.252,1.043l.994.533h7.7Z" transform="translate(-3823.335 -3562.363)" fill="#d3a78e"/>
      <path id="Trazado_231883" data-name="Trazado 231883" d="M3849.855,3564.719s-3.17-2.935-6.879-3-6.205,2.022-8.3,2.153-3.844-.719-6.34-.654a4.426,4.426,0,0,0-3.575,1.761Z" transform="translate(-3819.207 -3561.718)" fill="#ffc5a0"/>
      <path id="Trazado_231884" data-name="Trazado 231884" d="M3837.31,3570.819h12.545l-4.019,15.682h-17.052l-4.019-15.682Z" transform="translate(-3819.207 -3566.202)" fill="#3e4153"/>
      <path id="Trazado_231885" data-name="Trazado 231885" d="M3827.035,3570.819l2.478,9.67a4.56,4.56,0,0,0,4.417,3.428H3846.5l-.663,2.583h-17.052l-4.019-15.682Z" transform="translate(-3819.207 -3566.202)" fill="#323542"/>
      <g id="Grupo_165770" data-name="Grupo 165770" transform="translate(4.869 19.365)">
        <path id="Trazado_231886" data-name="Trazado 231886" d="M3826.292,3602.779h21.044a2.893,2.893,0,0,0,2.885-2.885h-26.813A2.893,2.893,0,0,0,3826.292,3602.779Z" transform="translate(-3823.407 -3599.894)" fill="#454b5b"/>
      </g>
      <path id="Trazado_231887" data-name="Trazado 231887" d="M3823.738,3601.2a2.838,2.838,0,0,1-.331-1.309h26.813a2.84,2.84,0,0,1-.33,1.309Z" transform="translate(-3818.538 -3580.529)" fill="#53596f"/>
      <path id="Trazado_231888" data-name="Trazado 231888" d="M3822.687,3569.832h26.124a1.094,1.094,0,0,0,1.091-1.091h0a1.094,1.094,0,0,0-1.091-1.091h-26.124a1.094,1.094,0,0,0-1.091,1.091h0A1.094,1.094,0,0,0,3822.687,3569.832Z" transform="translate(-3817.646 -3564.641)" fill="#333644"/>
    </g>
    <path id="Trazado_231889" data-name="Trazado 231889" d="M3767.173,3420.886s7.139,3.76,6.661,6.863a3.776,3.776,0,0,1-2.665,3.045s2.146,9.3-1.9,15.036c-3.426,4.853-12.751,3.045-12.751,3.045l-1.472,17.89-15.912-6.76,3.3-11.51s7.688-3.426,5.879-11.4c0,0-3.976-1.163-4.927-6.872s6.72-7.682,8.242-1.212c0,0,4.837-3.022-1.506-12.479,0,0,6.436-.089,8.095-5.779l-1.659,5.69s5.2-.193,6.406-4.475a52.261,52.261,0,0,1,4.212,8.917C3768.145,3423.609,3763.366,3409.074,3767.173,3420.886Z" transform="translate(-77.679 -127.416)" fill="#ffba94"/>
    <path id="Trazado_231890" data-name="Trazado 231890" d="M3782.154,3435.776c.315,1.605,1.45,2.735,2.536,2.522s1.711-1.686,1.4-3.292-1.45-2.735-2.536-2.523S3781.839,3434.171,3782.154,3435.776Z" transform="translate(-98.839 -138.111)" fill="#24243d"/>
    <path id="Trazado_231891" data-name="Trazado 231891" d="M3757.278,3460.928a1.808,1.808,0,1,1-1.808-1.808A1.808,1.808,0,0,1,3757.278,3460.928Z" transform="translate(-84.84 -151.249)" fill="#fff"/>
    <path id="Trazado_231892" data-name="Trazado 231892" d="M3766.422,3482.764l-7.185-3.235,6.7,9.138Z" transform="translate(-87.587 -161.305)" fill="#ff9a83"/>
    <path id="Trazado_231893" data-name="Trazado 231893" d="M3791.41,3459.121h-8.275S3786.539,3467.358,3791.41,3459.121Z" transform="translate(-99.362 -151.249)" fill="#fff"/>
    <path id="Trazado_231894" data-name="Trazado 231894" d="M3778.455,3427.335l4.748-1.771S3779.784,3420.692,3778.455,3427.335Z" transform="translate(-97.056 -133.865)" fill="#455460"/>
    <path id="Trazado_231895" data-name="Trazado 231895" d="M3794.413,3430.729l4,9.908S3806.915,3437.555,3794.413,3430.729Z" transform="translate(-104.92 -137.259)" fill="#ff9a83"/>
    <path id="Trazado_231896" data-name="Trazado 231896" d="M3781.923,3510.8s15.7,23.594,19.988,48.743h-33.8l-1.854-10.3,15.669-1.342-5.734-8.552Z" transform="translate(-91.044 -176.714)" fill="#25b6c1"/>
    <path id="Trazado_231897" data-name="Trazado 231897" d="M3703.414,3490.866l14.7,1.181,17.035,8.931-8.164,40.647,3.208,35.284h-58.863l5.432-49.44S3678.6,3500.273,3703.414,3490.866Z" transform="translate(-44.271 -166.891)" fill="#26c7db"/>
    <path id="Trazado_231898" data-name="Trazado 231898" d="M3750.741,3490.639l4.639-6.43-23.754-6.649v11.933Z" transform="translate(-73.981 -160.335)" fill="#26c7db"/>
    <path id="Trazado_231899" data-name="Trazado 231899" d="M3794.852,3580.524l8.452-.412L3792.49,3577Z" transform="translate(-103.972 -209.336)" fill="#24a7aa"/>
    <path id="Trazado_231900" data-name="Trazado 231900" d="M3732.813,3529.386l18.311,53.788,4.841-3.972-22.429-51.046Z" transform="translate(-74.566 -185.266)" fill="#24a7aa"/>
    <path id="Trazado_231901" data-name="Trazado 231901" d="M3673.214,3624.764l-1.884,17.143h58.863l-1.739-19.133C3702.792,3637.468,3682.4,3629.95,3673.214,3624.764Z" transform="translate(-44.271 -231.89)" fill="#25b6c1"/>
    <path id="Trazado_231902" data-name="Trazado 231902" d="M3724.33,3501.085l29.5,69.923s7.324-.788,9.739,2.541a26.086,26.086,0,0,1,3.5,8.4H3750.3v-9.566l-28.986-70.526Z" transform="translate(-68.899 -171.927)" fill="#455460"/>
    <path id="Trazado_231903" data-name="Trazado 231903" d="M3696.321,3465.742c-4.824,2.815-11.263,10.588-10.377,22.322l-3.3-3.083s-3.019,7.049,4.426,13.887,27.164,2.143,29.176-15.229a40.909,40.909,0,0,0,.162-8.462C3715.514,3465.475,3704.738,3460.831,3696.321,3465.742Z" transform="translate(-49.547 -153.537)" fill="#3a474f"/>
    <path id="Trazado_231904" data-name="Trazado 231904" d="M3778.455,3649.117v5.551h16.764a29.8,29.8,0,0,0-2.087-6C3787.812,3653.649,3781.795,3651.219,3778.455,3649.117Z" transform="translate(-97.056 -244.649)" fill="#3a474f"/>
    <path id="Trazado_231905" data-name="Trazado 231905" d="M4227.536,3483.124l1.967-1.531-.767-4.363-1.553,1.162Z" transform="translate(-318.168 -160.172)" fill="#ffd9bd"/>
    <path id="Trazado_231906" data-name="Trazado 231906" d="M3896.486,3448.381l-8.967,5.4,6.6-10.917Z" transform="translate(-150.798 -143.24)" fill="#ea7424"/>
    <path id="Trazado_231907" data-name="Trazado 231907" d="M3858.851,3419.067l9.407-37.925-3.472-8.087Z" transform="translate(-136.672 -108.84)" fill="#ea7424"/>
  </g>
</svg>
