<svg xmlns="http://www.w3.org/2000/svg" width="150.968" height="150.961" viewBox="0 0 150.968 150.961">
  <g id="Grupo_167081" data-name="Grupo 167081" transform="translate(-565.697 -6343.17)">
    <g id="Grupo_165785" data-name="Grupo 165785" transform="translate(-3256.866 1960.731)">
      <g id="Grupo_165782" data-name="Grupo 165782">
        <circle id="Elipse_6875" data-name="Elipse 6875" cx="68.069" cy="68.069" r="68.069" transform="translate(3829.978 4389.848)" fill="#ffe9c9"/>
      </g>
      <path id="Trazado_191622" data-name="Trazado 191622" d="M3878.807,4529.679a74.3,74.3,0,1,1,91-52.521,74.3,74.3,0,0,1-91,52.521Z" fill="none" stroke="#fff" stroke-linecap="round" stroke-width="2" stroke-dasharray="10.001 10"/>
      <g id="Grupo_165784" data-name="Grupo 165784">
        <g id="Grupo_165783" data-name="Grupo 165783">
          <path id="Trazado_232029" data-name="Trazado 232029" d="M3929.176,4469.305c1.2.272,1.669.8,1.67,1.994.007,7.8.029,15.589-.011,23.383a6.106,6.106,0,0,1-5.051,6.1c-.07.016-.128.088-.191.133h-46.764c-.178-.277-.5-.215-.755-.31a6.061,6.061,0,0,1-4.229-5.354,15.7,15.7,0,0,1-.042-2.556c.043-.739-.121-1.043-.952-1-1.446.078-2.9.032-4.349.019a6.189,6.189,0,0,1-6.339-6.031c-.014-.227-.012-.455-.012-.683q0-30.547,0-61.095c0-3.369,1.82-5.8,4.859-6.539a8.127,8.127,0,0,1,1.95-.138q20.732,0,41.462.007a2.69,2.69,0,0,0,1.649-.5,17.864,17.864,0,0,1,27.951,12.378c.931,7.549-2.082,13.465-8.443,17.631a1.355,1.355,0,0,0-.746,1.333c.041,2.388.009,4.778.02,7.167a1.86,1.86,0,0,1-1.35,2.017c-1.373.318-2.232-.33-2.283-1.8-.062-1.763-.011-3.527-.021-5.291-.006-1.11-.04-1.142-1.1-.924a20.391,20.391,0,0,1-5.517.342c-.956-.065-1.029-.022-1.032.94-.01,3.357,0,6.714,0,10.071q0,11.9,0,23.81a8.657,8.657,0,0,1-.595,3.593,6.179,6.179,0,0,1-5.867,3.948c-2.786.064-5.574.015-8.361.015h-25.6c-.341,0-.682,0-1.024.014a.635.635,0,0,0-.69.688,12.075,12.075,0,0,0,0,1.45c.15,2.185,1.129,3.11,3.318,3.111q21.587.006,43.173,0c2.3,0,3.285-.961,3.291-3.269.019-7.339,0-14.678.008-22.017a5.588,5.588,0,0,1,.091-1.444A1.491,1.491,0,0,1,3929.176,4469.305Z"/>
          <path id="Trazado_232030" data-name="Trazado 232030" d="M3929.176,4469.305c-1.29.215-1.736.733-1.737,2.071q-.006,11.347,0,22.7c0,2.406-1.021,3.431-3.414,3.431H3880.6c-2.394,0-3.4-1.014-3.4-3.435a13.5,13.5,0,0,0-.012-1.534c-.082-.7.214-.828.857-.827q17.359.029,34.719.011a6.174,6.174,0,0,0,6.265-4.746,8.8,8.8,0,0,0,.193-2.117c0-11.576.009-23.151-.024-34.727,0-.876.225-1.017,1.037-.892a16.133,16.133,0,0,0,6.5-.426c.577-.149.721-.085.71.527-.035,1.962-.018,3.925-.011,5.887.005,1.492.574,2.048,2.065,2.044-.084.076-.232.145-.241.229a17.025,17.025,0,0,0,0,3.883c.01.084.16.152.244.227-.145.275-.429.224-.666.286a1.411,1.411,0,0,0,.007,2.77c.235.061.522.006.66.291a.78.78,0,0,0-.344.792C3929.184,4466.933,3929.175,4468.119,3929.176,4469.305Z" fill="#26c7db"/>
          <path id="Trazado_232031" data-name="Trazado 232031" d="M3929.511,4464.954c-1.072.016-1.733-.326-1.975-1.094a1.667,1.667,0,0,1,.536-1.908,1.929,1.929,0,0,1,1.438-.345,1.722,1.722,0,0,1,0,3.347Z" fill="#010101"/>
          <path id="Trazado_232032" data-name="Trazado 232032" d="M3907.982,4420.644a18.525,18.525,0,0,0-3.481,8.434c-.074.522.175,1.258-.263,1.516a3.606,3.606,0,0,1-1.665.1q-13.267.006-26.534,0c-1.966,0-2.448.489-2.448,2.479s-.005,3.982,0,5.973c0,1.551.627,2.173,2.171,2.174q14.93,0,29.86,0c.143,0,.315.05.422-.012,1.077-.62,1.422.233,1.917.892a17.466,17.466,0,0,0,7.21,5.682.907.907,0,0,1,.646,1q-.023,18.09-.013,36.181c0,2.177-1.071,3.231-3.257,3.231h-43.767c-2.125,0-3.216-1.074-3.217-3.186q0-30.635,0-61.269c0-2.134,1.072-3.205,3.2-3.206q19.154,0,38.306,0Z" fill="#fed935"/>
          <path id="Trazado_232033" data-name="Trazado 232033" d="M3907.786,4431.436a14.511,14.511,0,1,1,14.441,14.525A14.5,14.5,0,0,1,3907.786,4431.436Z" fill="#f57c22"/>
          <path id="Trazado_232034" data-name="Trazado 232034" d="M3890.638,4437.915c-4.292,0-8.584-.011-12.876.012-.574,0-.815-.117-.771-.74a15.1,15.1,0,0,0,0-2.3c-.056-.679.218-.793.825-.784,2.3.033,4.6.013,6.907.013,6.253,0,12.506.011,18.759-.016.691,0,.977.148.9.881-.1.952.4,2.233-.2,2.778-.52.473-1.779.151-2.712.153Q3896.052,4437.922,3890.638,4437.915Z" fill="#fda829"/>
          <path id="Trazado_232035" data-name="Trazado 232035" d="M3890.68,4466.851q-7.338,0-14.676,0a6.962,6.962,0,0,1-.937-.035,1.675,1.675,0,0,1-.071-3.312,5.859,5.859,0,0,1,1.019-.064q14.676,0,29.353,0c1.575,0,2.37.56,2.4,1.679.027,1.151-.782,1.735-2.408,1.735Z"/>
          <path id="Trazado_232036" data-name="Trazado 232036" d="M3890.691,4450.674q-7.509,0-15.018,0c-1.445,0-2.29-.888-2.007-2.081a1.563,1.563,0,0,1,1.4-1.292,6.962,6.962,0,0,1,.937-.037q14.676,0,29.353,0c1.621,0,2.434.59,2.405,1.739-.029,1.122-.817,1.675-2.394,1.675Z"/>
          <path id="Trazado_232037" data-name="Trazado 232037" d="M3890.682,4458.76c-5.035,0-10.069-.007-15.1.006a1.8,1.8,0,0,1-1.816-1.011,1.7,1.7,0,0,1,1.314-2.385,4.894,4.894,0,0,1,.767-.024h29.7a5.564,5.564,0,0,1,.682.015,1.708,1.708,0,0,1,1.542,1.742,1.674,1.674,0,0,1-1.636,1.644c-.937.038-1.877.012-2.815.012Z"/>
          <path id="Trazado_232038" data-name="Trazado 232038" d="M3890.776,4471.55q7.511,0,15.019,0a1.728,1.728,0,0,1,1.9,1.24,1.7,1.7,0,0,1-1.394,2.146,4.155,4.155,0,0,1-.681.025q-14.933,0-29.866.009a1.927,1.927,0,0,1-1.988-1.022,1.684,1.684,0,0,1,1.57-2.391c1.365-.032,2.731-.008,4.1-.009Z"/>
          <path id="Trazado_232039" data-name="Trazado 232039" d="M3920.6,4435.01c0-1.847-.009-3.694,0-5.541.008-1.207.644-1.937,1.662-1.953a1.732,1.732,0,0,1,1.741,1.9q.027,5.626,0,11.254a1.7,1.7,0,0,1-1.731,1.9c-1.027-.007-1.664-.726-1.672-1.934C3920.591,4438.762,3920.6,4436.886,3920.6,4435.01Z"/>
          <path id="Trazado_232040" data-name="Trazado 232040" d="M3920.6,4423.751a1.645,1.645,0,0,1,1.611-1.715,1.7,1.7,0,0,1,1.775,1.66,1.754,1.754,0,0,1-1.719,1.739A1.7,1.7,0,0,1,3920.6,4423.751Z" fill="#010000"/>
        </g>
        <rect id="Rectángulo_46096" data-name="Rectángulo 46096" width="3.423" height="27.758" transform="translate(3927.433 4452.458)"/>
      </g>
    </g>
  </g>
</svg>
