<svg xmlns="http://www.w3.org/2000/svg" width="150.964" height="150.968" viewBox="0 0 150.964 150.968">
  <g id="Grupo_167083" data-name="Grupo 167083" transform="translate(-1191.95 -6343.163)">
    <g id="Grupo_165793" data-name="Grupo 165793" transform="translate(-3005.486 1960.731)">
      <g id="Grupo_165790" data-name="Grupo 165790">
        <circle id="Elipse_6877" data-name="Elipse 6877" cx="68.069" cy="68.069" r="68.069" transform="translate(4204.85 4389.848)" fill="#ffe9c9"/>
      </g>
      <path id="Trazado_191622" data-name="Trazado 191622" d="M4253.678,4529.679a74.3,74.3,0,1,1,91-52.521,74.3,74.3,0,0,1-91,52.521Z" fill="none" stroke="#fff" stroke-linecap="round" stroke-width="2" stroke-dasharray="10.001 10"/>
      <g id="Grupo_165792" data-name="Grupo 165792">
        <g id="Grupo_165791" data-name="Grupo 165791">
          <path id="Trazado_232051" data-name="Trazado 232051" d="M4286.452,4503.309l-24.5.012c-.459-.345-.338-.854-.341-1.308-.016-2.776.009-5.552-.021-8.328-.006-.537.249-1.421-.655-1.389-.827.029-.612.882-.643,1.441-.041.723-.01,1.45-.016,2.176s-.321,1.124-1.076,1.134q-2.317.033-4.637,0a.982.982,0,0,1-1.086-1.125,52.962,52.962,0,0,1,.054-6.62,10.807,10.807,0,0,1,10.772-9.466c6.593-.007,13.186-.023,19.779,0a10.726,10.726,0,0,1,10.717,9,47.051,47.051,0,0,1,.087,7.277.873.873,0,0,1-.972.926q-2.413.062-4.825,0c-.663-.017-.952-.393-.973-1.03-.025-.82,0-1.64-.015-2.46a3.093,3.093,0,0,0-.084-.845.571.571,0,0,0-.633-.451.557.557,0,0,0-.525.465,4.091,4.091,0,0,0-.077,1.035c0,2.744.006,5.489-.007,8.233C4286.769,4502.442,4286.875,4502.945,4286.452,4503.309Z" fill="#fda829"/>
          <path id="Trazado_232052" data-name="Trazado 232052" d="M4286.452,4503.309q.019-5.06.041-10.12a1.731,1.731,0,0,1,.125-.924.947.947,0,0,1,1.764.535c.005,1.073.035,2.147-.01,3.217-.025.591.169.753.748.739,1.608-.037,3.217-.011,4.826-.015.331,0,.739.1.723-.463-.073-2.519.26-5.06-.183-7.555a10.186,10.186,0,0,0-9.9-8.544c-6.937-.1-13.879-.116-20.816,0a10.254,10.254,0,0,0-10.045,10.156c-.049,1.892,0,3.785-.025,5.677-.005.487.073.751.661.739,1.671-.035,3.343-.028,5.014,0,.5.008.664-.153.65-.647-.029-1.04-.009-2.081-.008-3.122,0-.635.189-1.162.924-1.177.795-.017.971.52.972,1.206,0,3.437.023,6.873.037,10.309-.114.484-.35.853-.9.9-.6.051-.873-.337-1.068-.82a1.4,1.4,0,0,1-.181-.286,18.069,18.069,0,0,1-.091-3.205c-.009-.676-.26-.972-.952-.959q-1.892.034-3.783,0c-.693-.013-.941.287-.951.961a17.363,17.363,0,0,1-.1,3.205,1.424,1.424,0,0,1-.192.279c-.229.528-.544.947-1.2.8-.676-.151-.727-.681-.726-1.25.007-4.191-.041-8.382.018-12.572a12.266,12.266,0,0,1,12.3-12.123c1.062-.008,2.124,0,3.426,0a10.651,10.651,0,0,1-3.754-4.348c-.607-1.464-1.046-2.723-3.05-3-1.618-.223-2.588-2.31-2.42-3.943a3.9,3.9,0,0,1,3.336-3.589c.8-.116.838-.442.829-1.067-.029-1.827-.016-3.655-.006-5.483a6.011,6.011,0,0,1,6.9-6.209,1.048,1.048,0,0,1,1.036.912c.229.768-.277,1.01-.861,1.163a7.485,7.485,0,0,1-1.32.084,4.066,4.066,0,0,0-3.595,4.949.609.609,0,0,0,.575.524,8.366,8.366,0,0,0,.945.025c5.583,0,11.168-.058,16.749.034,1.79.029,2.5-.685,3.323-2.263a4.088,4.088,0,0,0-1.388-5.053.786.786,0,0,0-1.227.08,5.04,5.04,0,0,1-4.235,1.693c-.756-.038-1.517.045-2.27-.043-.836-.1-1.08-.4-1.046-1.192a1.079,1.079,0,0,1,1.228-.914c.851.016,1.7.018,2.553,0a2.663,2.663,0,0,0,2.678-1.973c.392-1.109.865-1.284,1.824-.648.655.435,1.315.867,1.934,1.351a6.152,6.152,0,0,1,.818,9.237c-1.331,1.344-1.189,2.754-1.219,4.288-.011.534.368.383.642.435a3.928,3.928,0,0,1,3.4,3.1,3.873,3.873,0,0,1-1.549,4.164,3.7,3.7,0,0,1-2.288.769.663.663,0,0,0-.722.553c-1.019,3.044-1.849,4.21-4.554,6.365,1.143,0,2.093.009,3.042,0a13.074,13.074,0,0,1,4.544.728,12.177,12.177,0,0,1,8.14,11.2c.071,4.255.019,8.512.028,12.767,0,.569-.05,1.1-.726,1.251s-.977-.268-1.2-.8a1.452,1.452,0,0,1-.189-.28,17.055,17.055,0,0,1-.1-3.2c-.009-.672-.253-.975-.948-.962-1.292.024-2.585.011-3.877,0-.6,0-.838.267-.855.856a23.3,23.3,0,0,1-.087,3.3,1.421,1.421,0,0,1-.173.291.986.986,0,0,1-.973.817C4286.839,4504.219,4286.583,4503.827,4286.452,4503.309Z"/>
          <path id="Trazado_232053" data-name="Trazado 232053" d="M4263.358,4415.406c.461-.4,1.071-.62,1.383-1.19,1.348.216,1.359.209,1.654-1.087a1.9,1.9,0,0,0,1.722-1.529c.693,1.175.688,1.157,2.08.8a14.88,14.88,0,0,1,8.1,28.634,3.651,3.651,0,0,0-2.377,1.823,18.77,18.77,0,0,1-1.16,1.839c-.479.68-.684.673-1.172-.025-.506-.724-.951-1.487-1.413-2.239a2.9,2.9,0,0,0-1.769-1.3c-6.1-1.821-9.836-5.876-10.892-12.153a13.946,13.946,0,0,1,2.939-11.376A3.29,3.29,0,0,0,4263.358,4415.406Z" fill="#eee"/>
          <path id="Trazado_232054" data-name="Trazado 232054" d="M4226.93,4445.41c.452-8.9,6.713-15.225,15.185-15.761a15.81,15.81,0,0,1,14.4,23.641,1.307,1.307,0,0,0-.071,1.153c.5,1.589.983,3.182,1.5,4.766.155.477.256.913-.147,1.311s-.856.261-1.32.112c-1.556-.5-3.12-.973-4.675-1.473a1.523,1.523,0,0,0-1.32.115,15.817,15.817,0,0,1-23.364-11.474A23.865,23.865,0,0,1,4226.93,4445.41Z"/>
          <path id="Trazado_232055" data-name="Trazado 232055" d="M4321.439,4445.494a15.833,15.833,0,0,1-23.5,13.8,1.606,1.606,0,0,0-1.408-.119c-1.583.517-3.183.982-4.765,1.5a1,1,0,0,1-1.368-1.333c.512-1.585.97-3.187,1.494-4.768a1.69,1.69,0,0,0-.14-1.494,15.824,15.824,0,1,1,29.69-7.584Z"/>
          <path id="Trazado_232056" data-name="Trazado 232056" d="M4263.358,4415.406a1.2,1.2,0,0,1-.157,1.681c-7.21,8.681-3.211,21.121,7.681,23.905a1.956,1.956,0,0,1,1.307.965c.613,1.05,1.285,2.065,2,3.2.677-1.077,1.322-2.034,1.892-3.034a2.3,2.3,0,0,1,1.587-1.179,14.631,14.631,0,1,0-7.961-28.14c-1.233.38-1.65.054-1.59-1.205a7.792,7.792,0,0,1,4.17-1.276,16.526,16.526,0,0,1,6.485,32.3,2.123,2.123,0,0,0-1.431,1.056c-.615,1.1-1.323,2.14-1.991,3.207-.861,1.375-1.452,1.387-2.3.04-.718-1.146-1.444-2.288-2.145-3.445a1.6,1.6,0,0,0-.983-.776,16.435,16.435,0,0,1-12.178-17.624,15.979,15.979,0,0,1,4.037-9.277A1.187,1.187,0,0,1,4263.358,4415.406Z"/>
          <path id="Trazado_232057" data-name="Trazado 232057" d="M4276.068,4451.526c.1.734.545,1,1.249.984.851-.022,1.7-.007,2.552-.008a4.392,4.392,0,0,0,3.735-1.866c.356-.49.581-.46,1.046-.165,2.6,1.644,3.367,5.265.073,7.956a1.152,1.152,0,0,1-.812.161c-6.238,0-12.476-.008-18.714.016-.677,0-.9-.22-.832-.866.038-.343,0-.693.007-1.039a4.005,4.005,0,0,1,4.233-4.2c.775-.006,1.656.175,1.813-.979h1.863c.941.911.98.911,1.924,0Z" fill="#7c7b7a"/>
          <path id="Trazado_232058" data-name="Trazado 232058" d="M4302.623,4471.981a1.03,1.03,0,0,1,1.056.8c.145.447.256.906.4,1.352a3.5,3.5,0,0,0,2.431,2.42c.568.167,1.08.412,1.065,1.128-.013.663-.5.906-1.03,1.057a3.851,3.851,0,0,0-2.666,3.023c-.189.671-.215,1.556-1.207,1.552s-1.016-.9-1.173-1.569a3.858,3.858,0,0,0-2.7-3c-.518-.171-1-.4-1.011-1.079s.442-.946.983-1.088c1.78-.468,2.433-1.855,2.827-3.442C4301.747,4472.546,4301.943,4472.052,4302.623,4471.981Z"/>
          <path id="Trazado_232059" data-name="Trazado 232059" d="M4250.582,4477.611a.909.909,0,0,1-.7.994c-1.907.476-2.734,1.868-3.126,3.634-.125.568-.362,1.039-1,1.074a1,1,0,0,1-1.086-.958,4.262,4.262,0,0,0-3.14-3.734.947.947,0,0,1-.731-.981.931.931,0,0,1,.751-.962c1.878-.459,2.676-1.845,3.071-3.568.138-.6.355-1.109,1.06-1.119s.949.486,1.083,1.09c.393,1.768,1.231,3.152,3.137,3.621A.888.888,0,0,1,4250.582,4477.611Z"/>
          <path id="Trazado_232060" data-name="Trazado 232060" d="M4274.205,4451.524c-.071.543-.323.94-.914.963-.641.025-.923-.378-1.01-.961a.965.965,0,0,1,1.924,0Z" fill="#040404"/>
          <path id="Trazado_232061" data-name="Trazado 232061" d="M4266.4,4413.129c.2.5.268.988-.24,1.348-.547.387-1,.141-1.414-.261-.085-.5-.132-.979.4-1.294C4265.62,4412.635,4266.009,4412.861,4266.4,4413.129Z" fill="#080808"/>
          <path id="Trazado_232062" data-name="Trazado 232062" d="M4253.738,4503.4l.01-.185a13.311,13.311,0,0,1,6.229,0l.008.191Z" fill="#ebac9e"/>
          <path id="Trazado_232063" data-name="Trazado 232063" d="M4294.628,4503.211l.01.186-6.228.008.006-.2A13.3,13.3,0,0,1,4294.628,4503.211Z" fill="#ecad9f"/>
          <path id="Trazado_232064" data-name="Trazado 232064" d="M4277.011,4482.029c2.333,0,4.666-.008,7,0a8.513,8.513,0,0,1,8.754,8.694c.008.819,0,1.639,0,2.459a.86.86,0,0,1-.905.978.872.872,0,0,1-.964-.934c-.045-.849-.013-1.7-.022-2.553a6.6,6.6,0,0,0-6.759-6.749c-4.76-.016-9.521,0-14.281,0-.253,0-.5,0-.757,0a.862.862,0,0,1-.959-.926c-.01-.637.39-.9.952-.949.47-.038.945-.013,1.418-.013Z" fill="#f57c22"/>
          <path id="Trazado_232065" data-name="Trazado 232065" d="M4264.624,4483.922c-.407-.022-.926.116-1.247-.353a.907.907,0,0,1,.106-1.276,2.535,2.535,0,0,1,2.334-.015.86.86,0,0,1,.149,1.258C4265.64,4484,4265.145,4483.919,4264.624,4483.922Z" fill="#f57c22"/>
          <path id="Trazado_232066" data-name="Trazado 232066" d="M4274.22,4460.5h8.98c.406,0,.826-.089.8.579-.089,2.959.184,5.927-.153,8.877a9.467,9.467,0,0,1-9.672,8.292,9.367,9.367,0,0,1-9.658-8.272c-.353-2.979-.07-5.98-.153-8.97-.018-.635.425-.5.776-.5Q4269.682,4460.491,4274.22,4460.5Z" fill="#feb59e"/>
          <path id="Trazado_232067" data-name="Trazado 232067" d="M4259.977,4503.21h-6.229c-.015-1.355-.017-2.71-.052-4.064-.012-.437.178-.522.562-.518,1.735.014,3.47.022,5.2,0,.488-.007.569.2.56.616C4259.991,4500.563,4259.989,4501.887,4259.977,4503.21Z" fill="#feb59e"/>
          <path id="Trazado_232068" data-name="Trazado 232068" d="M4294.628,4503.211l-6.212,0c-.011-1.322,0-2.644-.043-3.965-.017-.519.176-.626.65-.619q2.5.037,5.007,0c.475-.007.672.1.653.622C4294.637,4500.568,4294.643,4501.89,4294.628,4503.211Z" fill="#feb59e"/>
          <path id="Trazado_232069" data-name="Trazado 232069" d="M4285.892,4467.291a13.442,13.442,0,0,0-.009-1.41c-.088-.841.323-.779.887-.557a2.1,2.1,0,0,1-.283,4.036c-.414.084-.66.063-.618-.471s.01-1.065.01-1.6Z" fill="#fdb49d"/>
          <path id="Trazado_232070" data-name="Trazado 232070" d="M4262.483,4467.345c0,.408,0,.815,0,1.222.01.921-.157,1.033-1,.663a2.142,2.142,0,0,1-1.264-2.115,2.213,2.213,0,0,1,1.7-1.9c.386-.081.59-.018.566.441-.029.563-.007,1.128-.007,1.691Z" fill="#fdb49d"/>
          <path id="Trazado_232071" data-name="Trazado 232071" d="M4274.194,4415.451a11.3,11.3,0,1,1-11.3,11.314A11.366,11.366,0,0,1,4274.194,4415.451Z"/>
          <path id="Trazado_232072" data-name="Trazado 232072" d="M4255.7,4458.4c-1.45-.446-2.746-.82-4.024-1.25a1.775,1.775,0,0,0-1.6.18,13.916,13.916,0,1,1,6.624-12.362,13.014,13.014,0,0,1-1.985,7.655,1.968,1.968,0,0,0-.232,1.861C4254.918,4455.717,4255.264,4456.988,4255.7,4458.4Z" fill="#eee"/>
          <path id="Trazado_232073" data-name="Trazado 232073" d="M4292.683,4458.4c.431-1.407.8-2.7,1.227-3.963a1.846,1.846,0,0,0-.178-1.688,13.921,13.921,0,1,1,4.615,4.608,1.854,1.854,0,0,0-1.689-.19C4295.39,4457.594,4294.1,4457.961,4292.683,4458.4Z" fill="#eee"/>
          <path id="Trazado_232074" data-name="Trazado 232074" d="M4302.653,4476.018a1.972,1.972,0,0,1,.227.19c.4.509,1.145,1.044,1.111,1.523-.037.5-.866.907-1.161,1.481-.116-.025-.19-.018-.219-.05-.438-.508-1.262-1.074-1.2-1.52C4301.48,4477.107,4302.305,4476.672,4302.653,4476.018Z" fill="#fed935"/>
          <path id="Trazado_232075" data-name="Trazado 232075" d="M4245.7,4479.242c-.47-.543-1.274-1.069-1.279-1.6,0-.467.852-.975,1.233-1.548.012-.018.044-.025.067-.037a1.016,1.016,0,0,1,.136.127c.409.528,1.131,1.059,1.127,1.586C4246.98,4478.245,4246.188,4478.718,4245.7,4479.242Z" fill="#fed935"/>
          <path id="Trazado_232076" data-name="Trazado 232076" d="M4274.2,4475.072a4.21,4.21,0,0,1-3.865-2.434c-.287-.566-.348-1.127.285-1.473s1.042-.009,1.37.561c1.144,1.983,3.24,1.988,4.389.009.328-.565.729-.913,1.367-.574s.587.9.3,1.467A4.211,4.211,0,0,1,4274.2,4475.072Z" fill="#010000"/>
          <path id="Trazado_232077" data-name="Trazado 232077" d="M4275.123,4467.144a14.686,14.686,0,0,1-.011,1.5.874.874,0,0,1-.943.853.864.864,0,0,1-.911-.885c-.035-1-.04-2.006,0-3.007a.838.838,0,0,1,.94-.841.86.86,0,0,1,.915.874c.041.5.009,1,.009,1.5Z" fill="#010101"/>
          <path id="Trazado_232078" data-name="Trazado 232078" d="M4280.117,4465.339c.036.75-.209,1.3-.964,1.275s-.938-.609-.933-1.276.239-1.237.991-1.214S4280.172,4464.719,4280.117,4465.339Z" fill="#070504"/>
          <path id="Trazado_232079" data-name="Trazado 232079" d="M4268.252,4465.355c-.028-.723.221-1.26.982-1.228s.923.63.917,1.287c-.007.683-.258,1.233-1.007,1.2S4268.206,4465.994,4268.252,4465.355Z" fill="#070504"/>
          <path id="Trazado_232080" data-name="Trazado 232080" d="M4283.589,4426.739a9.4,9.4,0,1,1-9.409-9.392A9.462,9.462,0,0,1,4283.589,4426.739Z" fill="#fed935"/>
          <path id="Trazado_232081" data-name="Trazado 232081" d="M4242.781,4456.772a11.3,11.3,0,1,1,11.292-11.329A11.374,11.374,0,0,1,4242.781,4456.772Z"/>
          <path id="Trazado_232082" data-name="Trazado 232082" d="M4305.608,4456.772a11.3,11.3,0,1,1,11.289-11.329A11.378,11.378,0,0,1,4305.608,4456.772Z"/>
          <path id="Trazado_232083" data-name="Trazado 232083" d="M4274.18,4432.835a5.247,5.247,0,0,1-5.237-4.833c-.053-.617.054-1.184.781-1.287.767-.108,1.019.357,1.11,1.066a3.36,3.36,0,0,0,6.709-.015c.087-.66.31-1.122,1.03-1.06.789.068.917.651.857,1.312A5.241,5.241,0,0,1,4274.18,4432.835Z"/>
          <path id="Trazado_232084" data-name="Trazado 232084" d="M4276.738,4424.323c.028-.686.284-1.181,1-1.147s.921.569.9,1.2c-.021.6-.267,1.058-.944,1.056C4276.945,4425.429,4276.765,4424.907,4276.738,4424.323Z" fill="#030200"/>
          <path id="Trazado_232085" data-name="Trazado 232085" d="M4271.637,4424.36c-.046.643-.3,1.12-1.028,1.066s-.885-.609-.865-1.222.317-1.058.972-1.03C4271.429,4423.2,4271.636,4423.725,4271.637,4424.36Z" fill="#030200"/>
          <path id="Trazado_232086" data-name="Trazado 232086" d="M4242.99,4454.863a9.4,9.4,0,1,1,9.179-9.606A9.437,9.437,0,0,1,4242.99,4454.863Z" fill="#26c7db"/>
          <path id="Trazado_232087" data-name="Trazado 232087" d="M4314.982,4445.148a9.391,9.391,0,1,1-18.771.65,9.391,9.391,0,0,1,18.771-.65Z" fill="#f57c22"/>
          <path id="Trazado_232088" data-name="Trazado 232088" d="M4242.734,4448.919c-.564,0-1.129,0-1.693,0a.9.9,0,0,1-1.013-.883.874.874,0,0,1,.906-.989c1.221-.04,2.445-.037,3.667,0a.883.883,0,0,1,.924.978.9.9,0,0,1-1,.9Z" fill="#010102"/>
          <path id="Trazado_232089" data-name="Trazado 232089" d="M4238.334,4443.1c0-.694.229-1.2.95-1.191s.945.531.935,1.164c-.01.593-.231,1.073-.91,1.09C4238.576,4444.176,4238.348,4443.69,4238.334,4443.1Z" fill="#010202"/>
          <path id="Trazado_232090" data-name="Trazado 232090" d="M4245.338,4442.946c.019-.609.285-1.08,1-1.04.664.036.886.527.883,1.122,0,.635-.233,1.145-.964,1.131S4245.335,4443.627,4245.338,4442.946Z" fill="#010202"/>
          <path id="Trazado_232091" data-name="Trazado 232091" d="M4303.64,4449.488c-.364.039-.611-.2-.867-.445-1.079-1.011-1.081-1.008-2.207.019a2.045,2.045,0,0,1-.284.247.91.91,0,0,1-1.275-.136.835.835,0,0,1,.005-1.2c.667-.711,1.346-1.415,2.071-2.066.543-.489,1.032-.187,1.484.243,1.07,1.017,1.076,1.01,2.13.02.736-.692,1.085-.688,1.841.025.046.043.089.089.134.133.9.887.9.887,1.8,0,.911-.9,1.191-.908,2.1-.013q.773.764,1.53,1.542a.88.88,0,0,1,.071,1.34.933.933,0,0,1-1.423-.028c-.421-.374-.8-1-1.257-1.06-.333-.044-.769.647-1.15,1.019a1,1,0,0,1-1.571-.011,2.29,2.29,0,0,1-.333-.334c-.576-.838-1.111-.768-1.7.008A1.357,1.357,0,0,1,4303.64,4449.488Z"/>
          <path id="Trazado_232092" data-name="Trazado 232092" d="M4301.924,4442.233c.218.019.439.027.656.061a.975.975,0,0,1,.646.351.884.884,0,0,1,.044,1.129,2.072,2.072,0,0,1-2.2.187.877.877,0,0,1-.544-.993.9.9,0,0,1,1.021-.767C4301.674,4442.205,4301.8,4442.222,4301.924,4442.233Z" fill="#030101"/>
          <path id="Trazado_232093" data-name="Trazado 232093" d="M4308.9,4444.163a.919.919,0,0,1-1.138-.849c-.057-.632.372-.944.98-1.042,1.224-.2,1.848.027,1.945.722C4310.79,4443.725,4310.133,4444.155,4308.9,4444.163Z" fill="#040101"/>
        </g>
        <path id="Trazado_232094" data-name="Trazado 232094" d="M4261.43,4416.226s4.339-5.5,10.207-5.824l.4,1.87s-5.778.654-9.147,5.2Z"/>
      </g>
    </g>
  </g>
</svg>
