<svg xmlns="http://www.w3.org/2000/svg" width="150.965" height="150.968" viewBox="0 0 150.965 150.968">
  <g id="Grupo_167082" data-name="Grupo 167082" transform="translate(-881.321 -6343.164)">
    <g id="Grupo_165789" data-name="Grupo 165789" transform="translate(-3128.678 1960.732)">
      <g id="Grupo_165786" data-name="Grupo 165786">
        <circle id="Elipse_6876" data-name="Elipse 6876" cx="68.069" cy="68.069" r="68.069" transform="translate(4017.414 4389.848)" fill="#ffe9c9"/>
      </g>
      <path id="Trazado_191622" data-name="Trazado 191622" d="M4066.242,4529.679a74.3,74.3,0,1,1,91-52.521,74.3,74.3,0,0,1-91,52.521Z" fill="none" stroke="#fff" stroke-linecap="round" stroke-width="2" stroke-dasharray="10.001 10"/>
      <g id="Grupo_165788" data-name="Grupo 165788">
        <g id="Grupo_165787" data-name="Grupo 165787">
          <path id="Trazado_232041" data-name="Trazado 232041" d="M4094.084,4429.371c.359-1.534.921-1.992,2.484-1.992q17,0,34,0a7.319,7.319,0,0,1,7.611,7.585q.021,9.371,0,18.742a7.377,7.377,0,0,1-7.711,7.709c-1.8.016-1.8.016-1.8,1.84,0,3.356.008,6.712,0,10.069-.014,4.828-3.082,7.876-7.923,7.883-1.749,0-1.749,0-1.749,1.75,0,2.825.011,5.65,0,8.474a7.372,7.372,0,0,1-7.772,7.743q-24.081.007-48.161,0a7.38,7.38,0,0,1-7.813-7.8c-.009-3.124-.022-6.248.015-9.371.007-.663-.184-.84-.826-.809a8.978,8.978,0,0,1-4.668-.725,7.194,7.194,0,0,1-4.192-6.8c-.015-3.522,0-7.045,0-10.567,0-1.677,0-1.7-1.653-1.679a7.548,7.548,0,0,1-6.589-3.246,13.2,13.2,0,0,1-1.267-2.873v-21.935c.321-.212.254-.591.353-.887a7.269,7.269,0,0,1,6.876-5.091q17.516-.033,35.03-.008c1.373,0,1.986.56,2.262,1.988a1.836,1.836,0,0,1-1.485,2.188,6.365,6.365,0,0,1-1.784.131q-16,0-32.009,0c-.365,0-.731,0-1.1,0-2.694.022-3.833,1.145-3.837,3.82q-.012,8.923,0,17.846c0,2.49,1.205,3.713,3.7,3.813.333.013.665.008,1,.008h84.06a8.632,8.632,0,0,0,2.279-.179,2.988,2.988,0,0,0,2.44-3c.041-6.381.054-12.762-.006-19.142a3.044,3.044,0,0,0-3.077-3.145c-.464-.033-.93-.019-1.4-.019h-32.009a7.543,7.543,0,0,1-1.591-.08A1.96,1.96,0,0,1,4094.084,4429.371Z"/>
          <path id="Trazado_232042" data-name="Trazado 232042" d="M4094.084,4429.371c.371,1.519.954,1.993,2.5,1.993q16.849.005,33.7,0c2.635,0,3.91,1.273,3.911,3.9q0,9.171,0,18.342c0,2.464-1.345,3.816-3.821,3.816q-43.219.006-86.439,0c-2.555,0-3.873-1.322-3.874-3.863q0-9.22,0-18.441c0-2.434,1.324-3.758,3.754-3.758q17.15-.005,34.3,0c1.562,0,2.178-.5,2.48-1.995q2.045,0,4.087,0c.354,0,.741.092.977-.3.359.132.29.481.368.748a1.659,1.659,0,0,0,3.205,0c.079-.267.011-.616.368-.749.205.336.534.3.862.3C4091.667,4429.37,4092.875,4429.372,4094.084,4429.371Z" fill="#fed935"/>
          <path id="Trazado_232043" data-name="Trazado 232043" d="M4089.6,4429.075c-.068,1.458-.817,2.3-2.022,2.264-1.174-.032-1.853-.835-1.919-2.266.392-1.189,1.019-1.729,2.021-1.683A1.939,1.939,0,0,1,4089.6,4429.075Z" fill="#010101"/>
          <path id="Trazado_232044" data-name="Trazado 232044" d="M4061.934,4469.22c.673-.955,1.259-1.746,1.8-2.566.923-1.4,1.758-2.832,1.513-4.611-.046-.335.106-.409.38-.408.233,0,.466,0,.7,0q28.611,0,57.221-.018c.855,0,1.177.139,1.159,1.1-.067,3.62-.021,7.242-.029,10.863-.005,2.564-1.3,3.856-3.864,3.856h-67.389c-2.561,0-3.857-1.294-3.862-3.859-.006-3.688.015-7.375-.016-11.063-.006-.665.119-.91.851-.9,3.19.043,6.38.013,9.57.022,1.285,0,1.679.636,1.042,1.795a51.172,51.172,0,0,1-3.585,5.138,13.729,13.729,0,0,0-1.07,1.554,1.978,1.978,0,0,0,1.534,2.97,34.779,34.779,0,0,0,6.171.006,1.871,1.871,0,0,0,1.715-1.879,1.911,1.911,0,0,0-1.709-1.988A20.153,20.153,0,0,0,4061.934,4469.22Z" fill="#26c7db"/>
          <path id="Trazado_232045" data-name="Trazado 232045" d="M4073.911,4481.209h1.033q19.485,0,38.972-.024c.948,0,1.133.284,1.118,1.159-.052,3.022-.013,6.046-.022,9.068a3.417,3.417,0,0,1-3.759,3.776q-24.12,0-48.242,0a3.411,3.411,0,0,1-3.768-3.763c-.01-3.089.017-6.179-.018-9.268-.007-.7.1-.991.9-.969,2.258.06,4.518.017,6.778.026.292,0,.652-.15.726.4.168,1.247.967,1.751,2.187,1.888a1.957,1.957,0,0,1,1.751,2.426,2.022,2.022,0,0,1-3.946-.054c-.414-1.4-1.3-2.04-2.418-1.762-1.234.308-1.8,1.371-1.407,2.824a5.715,5.715,0,0,0,4.635,4.416,5.643,5.643,0,0,0,6.147-2.535,5.777,5.777,0,0,0,.078-6.565C4074.474,4481.941,4074.239,4481.663,4073.911,4481.209Z" fill="#f57c22"/>
          <path id="Trazado_232046" data-name="Trazado 232046" d="M4095.509,4441.408H4068.4c-1.9,0-2.839-.684-2.809-2.028.029-1.3.968-1.96,2.8-1.96H4122.6c1.863,0,2.843.716,2.811,2.049-.031,1.307-.94,1.939-2.8,1.939Z"/>
          <path id="Trazado_232047" data-name="Trazado 232047" d="M4087.631,4451.338H4068.4c-.332,0-.666.014-1-.016a1.956,1.956,0,0,1-1.807-1.806,1.991,1.991,0,0,1,1.41-2.047,3.913,3.913,0,0,1,1.282-.118q19.33,0,38.66,0a5.064,5.064,0,0,1,1.184.1,1.964,1.964,0,0,1-.376,3.878c-.4.025-.8.011-1.195.011Z"/>
          <path id="Trazado_232048" data-name="Trazado 232048" d="M4055.6,4444.569c0,2.291.008,4.582,0,6.873-.007,1.462-.771,2.325-2.016,2.317s-1.966-.865-1.968-2.35c0-3.752-.019-7.5.014-11.256.006-.686-.165-.89-.87-.891a2,2,0,1,1,0-3.962c.9-.016,1.794-.024,2.69,0a1.98,1.98,0,0,1,2.143,2.2C4055.617,4439.854,4055.6,4442.211,4055.6,4444.569Z"/>
          <path id="Trazado_232049" data-name="Trazado 232049" d="M4095.312,4466.66q10.964,0,21.926,0c1.691,0,2.692,1.171,2.23,2.58a1.936,1.936,0,0,1-1.76,1.39,7.607,7.607,0,0,1-.9.015h-43.054c-1.821,0-2.759-.664-2.783-1.966-.024-1.359.9-2.022,2.81-2.022Z"/>
          <path id="Trazado_232050" data-name="Trazado 232050" d="M4095.278,4486.326q6.327,0,12.655,0a7.684,7.684,0,0,1,1.093.047,1.957,1.957,0,0,1,.108,3.848,6.739,6.739,0,0,1-1.288.088q-12.6.007-25.21,0a7.282,7.282,0,0,1-1.191-.068,1.955,1.955,0,0,1,.084-3.881,9.493,9.493,0,0,1,1.094-.036Q4088.95,4486.324,4095.278,4486.326Z"/>
        </g>
        <rect id="Rectángulo_46097" data-name="Rectángulo 46097" width="25.183" height="3.952" transform="translate(4075.963 4427.387)"/>
      </g>
    </g>
  </g>
</svg>
