<svg xmlns="http://www.w3.org/2000/svg" width="82.271" height="82.971" viewBox="0 0 82.271 82.971">
  <g id="BcuORj.tif" transform="translate(-2936.246 -5243.189)">
    <g id="Grupo_166986" data-name="Grupo 166986" transform="translate(2936.246 5243.189)">
      <path id="Trazado_232621" data-name="Trazado 232621" d="M2936.246,5323.6c.342-.476.255-1.061.4-1.589,1.208-4.567,4.2-7.321,8.659-8.623a72.4,72.4,0,0,1,10.209-2.056,1.008,1.008,0,0,0,1.014-1.174q-.031-1.9,0-3.806a.965.965,0,0,0-.408-.891,11.385,11.385,0,0,1-2.721-2.858.819.819,0,0,0-.806-.39q-1.213.034-2.429,0a3.452,3.452,0,0,1-3.38-3.354,9.033,9.033,0,0,0-.051-2.174c-.206-.694-1.144-.6-1.691-1.008a4.906,4.906,0,0,1-2.259-3.673,31.626,31.626,0,0,1,.858-10.752,22.2,22.2,0,0,1,43.263,3.547,27.564,27.564,0,0,1,.061,7.428,5.083,5.083,0,0,1-5.094,4.323c-1,.018-2,.016-3,0-.346-.006-.522.041-.547.462a11.276,11.276,0,0,1-4.575,8.39,1.133,1.133,0,0,0-.481,1.019c.026,1.241.019,2.484.005,3.725a1.015,1.015,0,0,0,1,1.187,79.067,79.067,0,0,1,9.669,1.885c4.058,1.1,7.164,3.285,8.742,7.32a11.946,11.946,0,0,1,.774,4.432c-.011,5.265,0,10.529-.006,15.794a3.691,3.691,0,0,1-4.06,4.063h-48.83c-2.341,0-3.356-.716-4.164-2.925-.023-.062-.1-.1-.158-.153v-.162a9.613,9.613,0,0,0,.077-2.234c.02-1.743.006-3.486.007-5.229.168-.9.3-1.027,1.257-1.167.929.193,1.175.464,1.318,1.364a41.439,41.439,0,0,1,.172,5.576c.008.35-.013.7.011,1.052.059.828.385,1.171,1.217,1.2,1.1.036,2.212,0,3.318.017.6.01.815-.256.81-.828-.01-1.241-.006-2.482,0-3.724a3.192,3.192,0,0,1,.116-1.041,1.41,1.41,0,0,1,1.554-1.016,1.28,1.28,0,0,1,1.205,1.3c.08,1,.021,2,.031,2.994,0,.432,0,.864,0,1.3.013.946.072,1.014,1.013,1.016q6.03.01,12.059,0c.675,0,1.349.008,2.024,0,.849-.013.936-.088.944-.924.014-1.565,0-3.13,0-4.7q0-6.072,0-12.143c0-1.56,0-1.546-1.578-1.347a25.167,25.167,0,0,1-4.174.473,4.507,4.507,0,0,1-3.818-2.076c-.988-1.515-1.753-3.159-2.645-4.731-.106-.187-.195-.385-.3-.574-.648-1.181-.724-1.22-2.038-.9-1.258.306-2.509.633-3.74,1.043a8.719,8.719,0,0,0-6.029,8.5,22.933,22.933,0,0,1-.031,3.558c-.117,1.213-.6,1.625-1.758,1.631a1.008,1.008,0,0,1-.945-1.12c-.051-1.478.1-2.959-.084-4.435Z" transform="translate(-2936.246 -5261.851)"/>
      <path id="Trazado_232622" data-name="Trazado 232622" d="M3280.79,5243.422a6.8,6.8,0,0,1,5.793,6.07,66.509,66.509,0,0,1,0,8.5,6.816,6.816,0,0,1-6.476,6.2c-3.047.073-6.1.042-9.146.019a1.5,1.5,0,0,0-1.411.7c-1.3,1.855-2.649,3.673-3.986,5.5a1.8,1.8,0,0,1-2.138.889c-.794-.247-1.179-.881-1.183-1.981-.005-1.457-.015-2.914.005-4.372a.881.881,0,0,0-.711-.99,6.92,6.92,0,0,1-5.089-7.036q-.006-3.116,0-6.234a6.958,6.958,0,0,1,5.889-7.283c.04-.009.068-.072.1-.11h3.564a1.2,1.2,0,0,1,1.015,1.208,1.469,1.469,0,0,1-1.462,1.424c-.616.058-1.237.018-1.856.023a4.4,4.4,0,0,0-4.6,4.567q-.019,3.23,0,6.461a4.333,4.333,0,0,0,3.341,4.475,3.606,3.606,0,0,1,1.9,1.423c.747,1.186.541,2.526.58,3.924,1-1.371,1.947-2.656,2.864-3.965a3.646,3.646,0,0,1,3-1.311q3.637-.007,7.274,0a7.135,7.135,0,0,0,3.639-.479,3.919,3.919,0,0,0,2.152-2.968,32.387,32.387,0,0,0,.01-8.63,4.274,4.274,0,0,0-3.948-3.479c-.619-.033-1.241-.025-1.862,0q-3.181.008-6.359,0a1.574,1.574,0,0,1-1.772-1.186,1.237,1.237,0,0,1,.94-1.489h9.072C3280.2,5243.479,3280.521,5243.283,3280.79,5243.422Z" transform="translate(-3204.449 -5243.272)"/>
      <path id="Trazado_232623" data-name="Trazado 232623" d="M2937.533,5660.213a1.233,1.233,0,0,0-1.135.853q-.069.12-.152.009v-5.023c.056-.075.1-.071.146.013a1.171,1.171,0,0,0,.886.842c.188.05.388.129.407.336A5.323,5.323,0,0,1,2937.533,5660.213Z" transform="translate(-2936.246 -5588.96)" fill="#fefdfe"/>
      <path id="Trazado_232624" data-name="Trazado 232624" d="M3320.163,5243.288a1.884,1.884,0,0,0-.819,1.289,3.71,3.71,0,0,1-3.194-.152,1.546,1.546,0,0,0-.847-1.137Z" transform="translate(-3253.746 -5243.272)" fill="#fdfcfd"/>
      <path id="Trazado_232625" data-name="Trazado 232625" d="M2936.246,5687.209a.141.141,0,0,0,.152-.008q.006,3.571.009,7.144c0,.17.089.386-.16.48Z" transform="translate(-2936.246 -5615.095)" fill="#7f7f7f"/>
      <path id="Trazado_232626" data-name="Trazado 232626" d="M2936.392,5632.941l-.072-.014h-.074v-4.537c.319.276.147.643.151.962C2936.416,5630.549,2936.4,5631.745,2936.392,5632.941Z" transform="translate(-2936.246 -5565.836)" fill="gray"/>
      <path id="Trazado_232627" data-name="Trazado 232627" d="M3401.942,5243.422a.924.924,0,0,1-.852-.134h.81A.3.3,0,0,1,3401.942,5243.422Z" transform="translate(-3325.601 -5243.272)" fill="#393939"/>
      <path id="Trazado_232628" data-name="Trazado 232628" d="M2942.85,5587.174q0-1.27.01-2.541c0-.286.046-.587-.265-.765,1.092-.026,1.459-.367,1.48-1.452.022-1.106,0-2.213.007-3.319a9.017,9.017,0,0,1,6.462-9.055,46.2,46.2,0,0,1,4.524-1.205c.494-.118.667.048.87.424.957,1.78,1.933,3.549,2.9,5.321a4.751,4.751,0,0,0,5.563,2.705c1.3-.214,2.613-.388,3.917-.6.443-.071.681-.047.679.531q-.03,9.352,0,18.7c0,.427-.132.544-.551.543q-7.732-.019-15.463,0c-.437,0-.545-.148-.54-.561.02-1.565.015-3.131.005-4.7-.006-.935-.413-1.415-1.171-1.43-.779-.016-1.243.5-1.252,1.455-.014,1.511-.032,3.024.01,4.533.017.585-.169.722-.725.7-1.24-.041-2.482-.007-3.724-.014-1.044-.006-1.489-.422-1.5-1.464-.022-2.1-.006-4.21-.024-6.315C2944.055,5587.678,2943.819,5587.41,2942.85,5587.174Z" transform="translate(-2941.563 -5515.922)" fill="#fda829"/>
      <path id="Trazado_232629" data-name="Trazado 232629" d="M3139.566,5614.651c-.487.13-.595-.1-.589-.547.02-1.592.024-3.186,0-4.778-.014-.94-.614-1.466-1.437-1.305-.749.147-.977.7-.98,1.379-.009,1.539-.027,3.078.008,4.616.012.534-.148.675-.675.673q-7.613-.029-15.225,0c-.557,0-.663-.183-.662-.69q.023-9.234,0-18.467c0-.633.234-.706.76-.624,1.518.238,3.036.485,4.563.657a4.47,4.47,0,0,0,4.7-2.469c.451-.8.9-1.6,1.342-2.4.328-.26.665-.133,1-.019a10.521,10.521,0,0,1,7.343,8.486,6.345,6.345,0,0,1,.1,1.208q0,6.56,0,13.118A1.543,1.543,0,0,1,3139.566,5614.651Z" transform="translate(-3090.16 -5534.138)" fill="#fda829"/>
      <path id="Trazado_232630" data-name="Trazado 232630" d="M3054.181,5377.64a9.568,9.568,0,0,1-4-1.761c.72,0,1.443.029,2.162-.006a3.412,3.412,0,0,0,3.26-3.208,3.48,3.48,0,0,0-2.77-3.581,4.313,4.313,0,0,0-.807-.048c-1.214,0-2.429.021-3.644-.009a4.3,4.3,0,0,0-3.294.9,5.3,5.3,0,0,1-.3-1.891c-.007-3.509-.026-7.019-.017-10.528a3,3,0,0,1,3.208-3.172,47.083,47.083,0,0,0,6.545-.161,10.147,10.147,0,0,0,5.341-2.672,2.116,2.116,0,0,1,1.282-.773c.391-.167.467.115.529.385a4.272,4.272,0,0,1,.048.967q0,7.523,0,15.047c0,4.792-2.448,8.064-6.469,10.34A1.173,1.173,0,0,1,3054.181,5377.64Z" transform="translate(-3027.144 -5333.223)" fill="#fbebe3"/>
      <path id="Trazado_232631" data-name="Trazado 232631" d="M3198.16,5596.3c0-4.672-.01-9.344.005-14.015a10.236,10.236,0,0,0-6.522-9.437,4.09,4.09,0,0,0-1.688-.5c.6-1.113,1.207-2.223,1.794-3.343a.541.541,0,0,1,.7-.341,32.726,32.726,0,0,1,5.426,1.548,8.579,8.579,0,0,1,5.62,8.14c.12,5.5.04,11,.035,16.5,0,1.034-.449,1.463-1.49,1.466C3200.747,5596.327,3199.454,5596.309,3198.16,5596.3Z" transform="translate(-3148.754 -5515.787)" fill="#fda829"/>
      <path id="Trazado_232632" data-name="Trazado 232632" d="M3033.752,5305.963a15.723,15.723,0,0,1,15.193,11.893c.154.635.121.864-.646.873-.863.012-1.284-.128-1.4-1.108a6.241,6.241,0,0,0-1.759-3.4,24.721,24.721,0,0,0-2.518-2.4,4.476,4.476,0,0,0-6.059.059,9.074,9.074,0,0,1-7.062,2.584c-1.319-.071-2.646-.055-3.966,0a5.116,5.116,0,0,0-4.809,3.239,1.378,1.378,0,0,1-1.566,1.021c-.747-.023-.888-.151-.7-.9A15.709,15.709,0,0,1,3033.752,5305.963Z" transform="translate(-3005.044 -5295.769)" fill="#683b11"/>
      <path id="Trazado_232633" data-name="Trazado 232633" d="M3102.732,5377.124a8.389,8.389,0,0,0,3.346-2,10.3,10.3,0,0,0,3.69-5.9,10.594,10.594,0,0,0,.257-2.064c.021-5.387.014-10.773.006-16.161,0-.292.153-.683-.334-.782a1.744,1.744,0,0,1,1.877.323,16.756,16.756,0,0,1,2.625,2.514,5.161,5.161,0,0,1,1.171,3.368c.014,3.723.062,7.447-.025,11.167-.075,3.232-1.845,5.55-4.4,7.334a14.1,14.1,0,0,1-5.92,2.433A4.576,4.576,0,0,1,3102.732,5377.124Z" transform="translate(-3075.695 -5332.708)" fill="#fbebe3"/>
      <path id="Trazado_232634" data-name="Trazado 232634" d="M3028.853,5306.345c0-2.1.061-4.093-.011-6.079-.283-7.828-3.928-13.549-11.1-16.7a18.073,18.073,0,0,0-25.012,14.53c-.262,2.37-.076,4.746-.135,7.118-.008.342,0,.685,0,1.129a2.54,2.54,0,0,1-1.591-2.166c-.141-3.916-.126-7.8,1.417-11.54a19.77,19.77,0,0,1,37.784,4.253,41.339,41.339,0,0,1,.266,7.027A2.744,2.744,0,0,1,3028.853,5306.345Z" transform="translate(-2982.06 -5274.367)" fill="#26c7db"/>
      <path id="Trazado_232635" data-name="Trazado 232635" d="M3080.5,5532.4c-.879.87-1.766,1.735-2.633,2.617-.241.246-.39.255-.647,0-2.065-2.016-4.146-4.015-6.218-6.023-.162-.156-.421-.292-.164-.587a4.259,4.259,0,0,0,.754-3.137c-.016-.646,0-1.294,0-2.062a15.728,15.728,0,0,0,6.459,1.688,1.388,1.388,0,0,1,.235.994c.007,1.182-.011,2.364.007,3.545.022,1.516.392,2.018,1.825,2.552C3080.31,5532.061,3080.563,5532.085,3080.5,5532.4Z" transform="translate(-3048.893 -5477.736)" fill="#fbebe3"/>
      <path id="Trazado_232636" data-name="Trazado 232636" d="M3118.237,5532.861a.438.438,0,0,0-.329-.2,2.213,2.213,0,0,1-2.119-2.448c-.013-1.616,0-3.233,0-4.85a17.523,17.523,0,0,0,4.99-1.51c.387-.192.463-.061.457.306-.013.673.011,1.347-.007,2.019a3.7,3.7,0,0,0,.732,2.654c.237.276.1.413-.092.591Q3120.047,5531.138,3118.237,5532.861Z" transform="translate(-3086.625 -5478.199)" fill="#fbebe3"/>
      <path id="Trazado_232637" data-name="Trazado 232637" d="M3139.268,5563.731c-1.05,1.907-2.064,3.8-3.133,5.669a1.9,1.9,0,0,1-2.007.938c-1.355-.17-2.705-.375-4.059-.566-.027-.35.236-.453.4-.608,1.837-1.785,3.7-3.546,5.514-5.353a1.363,1.363,0,0,1,1.429-.46A11.616,11.616,0,0,1,3139.268,5563.731Z" transform="translate(-3098.591 -5511.313)" fill="#fda829"/>
      <path id="Trazado_232638" data-name="Trazado 232638" d="M3048.444,5570.021c-1.339.189-2.643.379-3.949.556a2.131,2.131,0,0,1-2.332-1.219c-.887-1.633-1.768-3.27-2.692-4.883-.3-.519-.109-.646.366-.687a.39.39,0,0,0,.08-.013,2.934,2.934,0,0,1,3.384,1.029c1.5,1.657,3.2,3.133,4.8,4.69C3048.232,5569.619,3048.418,5569.71,3048.444,5570.021Z" transform="translate(-3022.587 -5511.562)" fill="#fda829"/>
      <path id="Trazado_232639" data-name="Trazado 232639" d="M3018.218,5402.688c0,1-.014,1.992.007,2.987.007.376-.108.5-.5.521-1.755.1-1.755.113-1.755-1.667,0-1.534.027-3.068-.013-4.6-.014-.555.181-.668.689-.667,1.56,0,1.56-.018,1.562,1.571,0,.619,0,1.238,0,1.856Z" transform="translate(-3003.013 -5373.915)" fill="#26c7db"/>
      <path id="Trazado_232640" data-name="Trazado 232640" d="M3195.553,5402.515c0-.97.013-1.94-.007-2.909-.008-.379.109-.5.5-.521,1.754-.1,1.754-.111,1.754,1.629,0,1.535-.028,3.071.014,4.6.016.587-.185.71-.731.7-1.537-.019-1.537.005-1.535-1.568q0-.97,0-1.939Z" transform="translate(-3153.436 -5373.738)" fill="#26c7db"/>
      <path id="Trazado_232641" data-name="Trazado 232641" d="M3058.323,5478.659c.755,0,1.511.006,2.266,0,.683-.007,1.118.328,1.122,1s-.441,1-1.118,1c-1.511,0-3.022,0-4.533,0-.673,0-1.094-.339-1.074-1.032.019-.649.434-.952,1.071-.954C3056.812,5478.656,3057.567,5478.659,3058.323,5478.659Z" transform="translate(-3035.702 -5440.417)" fill="#26c7db"/>
      <path id="Trazado_232642" data-name="Trazado 232642" d="M3018.669,5459.98c-2.647.164-2.711.084-2.722-2.507,0-.565.139-.718.706-.7,1.427.034,1.421.005,1.651,1.364C3018.407,5458.739,3018.542,5459.339,3018.669,5459.98Z" transform="translate(-3003.004 -5422.083)" fill="#fed935"/>
      <path id="Trazado_232643" data-name="Trazado 232643" d="M3279.357,5250.285a14.69,14.69,0,0,0,3.194.152,1.484,1.484,0,0,0,1.675,1.155c2.145-.032,4.29,0,6.436.013a1.019,1.019,0,0,1,.649.676,5.636,5.636,0,0,1,.019,3.4,2.137,2.137,0,0,1-1.258.19q-5.867.008-11.734,0a6.678,6.678,0,0,0-1.051.037c-.5.08-.96.257-1.082.82a.951.951,0,0,0,.684,1.133,2.461,2.461,0,0,0,1.116.126q6.067,0,12.135,0c1.3,0,1.418.122,1.43,1.438.015,1.715-.04,1.772-1.743,1.773q-5.906,0-11.812,0a2.314,2.314,0,0,0-1.11.137c-.486.217-.83.54-.7,1.122a1.1,1.1,0,0,0,1.146.84c.484.04.97.018,1.456.018q5.622,0,11.244,0a2.267,2.267,0,0,1,1.263.179,5.325,5.325,0,0,1-.039,3.5,1.114,1.114,0,0,1-.611.6c-2.392.012-4.784.055-7.175.023a3.682,3.682,0,0,0-3.139,1.3,5.519,5.519,0,0,1-3.566-.028,3.642,3.642,0,0,0-2.076-1.441,4.475,4.475,0,0,1-3.317-4.45c-.013-2.267-.017-4.534,0-6.8a4.559,4.559,0,0,1,4.6-4.637c.62-.009,1.241,0,1.862,0C3278.837,5251.568,3279.186,5251.266,3279.357,5250.285Z" transform="translate(-3216.952 -5249.133)" fill="#26c7db"/>
      <path id="Trazado_232644" data-name="Trazado 232644" d="M3318.255,5274.311a3.848,3.848,0,0,0,.65-2.824c-.009-.4,0-.807,0-1.209.147-.248.42-.328.64-.478a.868.868,0,0,0,.442-.958.914.914,0,0,0-.862-.731,8.669,8.669,0,0,0-.969-.029q-6.305,0-12.61-.006c-.418,0-.873.1-1.221-.262.278-.25.618-.14.929-.141,4.255-.007,8.511-.021,12.766.012.713.005.92-.185.9-.9-.042-1.853-.008-1.854-1.87-1.854q-5.9,0-11.8-.005c-.312,0-.65.1-.933-.133.337-.38.795-.275,1.21-.276,4.172-.009,8.343,0,12.514-.014.689,0,1.563.265,1.895-.65.323-.89-.621-1.052-1.037-1.514,0-.727-.012-1.453,0-2.179a2.8,2.8,0,0,0-.651-1.857,16.048,16.048,0,0,1,2.175.034,4.4,4.4,0,0,1,3.852,4.228c.092,2.474.1,4.956.006,7.429a4.431,4.431,0,0,1-4.583,4.35C3319.223,5274.35,3318.739,5274.322,3318.255,5274.311Z" transform="translate(-3244.548 -5255.83)" fill="#26c7db"/>
      <path id="Trazado_232645" data-name="Trazado 232645" d="M3304.652,5364.973l3.566.027-3.073,4.339C3304.882,5367.788,3305.339,5366.3,3304.652,5364.973Z" transform="translate(-3244.824 -5345.195)" fill="#26c7db"/>
      <path id="Trazado_232646" data-name="Trazado 232646" d="M3150.274,5650.24c1.132,0,2.264-.015,3.4,0a1.958,1.958,0,0,1,2.07,2.012c.035.915.035,1.833,0,2.748a1.987,1.987,0,0,1-2.139,2.035q-3.354.023-6.709,0a1.988,1.988,0,0,1-2.112-2.062c-.029-.888-.027-1.779,0-2.668a1.985,1.985,0,0,1,2.1-2.067c.054,0,.108,0,.162,0Z" transform="translate(-3110.896 -5584.132)"/>
      <path id="Trazado_232647" data-name="Trazado 232647" d="M3299.766,5316.99l14.542.006c1.017,0,1.654.643,1.44,1.457a1.382,1.382,0,0,1-1.4,1l-13.232-.032c-.242,0-.484,0-.727,0-.672.007-1.245-.176-1.446-.894A1.214,1.214,0,0,1,3299.766,5316.99Z" transform="translate(-3239.991 -5305.005)"/>
      <path id="Trazado_232648" data-name="Trazado 232648" d="M3314.368,5283.261c.184.039.372.063.55.12a1.119,1.119,0,0,1,.864,1.282,1.1,1.1,0,0,1-1.134,1.05c-1.1.024-2.208.011-3.312.01q-5.776,0-11.551-.008a1.192,1.192,0,0,1-.842-1.454c.172-.78.767-.96,1.471-.96q6.535,0,13.07,0C3313.779,5283.3,3314.073,5283.275,3314.368,5283.261Z" transform="translate(-3240.01 -5276.754)" fill="#010001"/>
      <path id="Trazado_232649" data-name="Trazado 232649" d="M3162.818,5667.1c-.809,0-1.619-.035-2.425.013-.555.033-.668-.18-.661-.688.016-1.268-.008-1.268,1.277-1.268,1.4,0,2.8.026,4.2-.014.55-.015.722.174.653.686a2.05,2.05,0,0,0,0,.565c.084.563-.127.756-.7.719C3164.383,5667.063,3163.6,5667.1,3162.818,5667.1Z" transform="translate(-3123.438 -5596.617)" fill="#26c7db"/>
      <rect id="Rect치ngulo_46157" data-name="Rect치ngulo 46157" width="10.676" height="2.451" transform="translate(59.828)"/>
      <rect id="Rect치ngulo_46158" data-name="Rect치ngulo 46158" width="2.508" height="17.453" transform="translate(0 62.276)"/>
    </g>
  </g>
</svg>
