<svg xmlns="http://www.w3.org/2000/svg" width="169" height="105.497" viewBox="0 0 169 105.497">
  <g id="Grupo_167077" data-name="Grupo 167077" transform="translate(-180 -492.59)">
    <g id="Grupo_161652" data-name="Grupo 161652" transform="translate(0 76.09)">
      <path id="Trazado_113613" data-name="Trazado 113613" d="M-22,0H107a40,40,0,0,1,0,80H-22Z" transform="translate(202 435)" fill="rgba(121,210,220,0.2)"/>
    </g>
    <g id="Grupo_165776" data-name="Grupo 165776" transform="translate(-2528.185 -3265.87)">
      <path id="Trazado_231937" data-name="Trazado 231937" d="M2824.656,3758.46c1.093.284,2.219.479,3.273.867,7.249,2.671,11.759,7.707,13,15.421a19.025,19.025,0,0,1-15.323,21.626,16.716,16.716,0,0,1-5.4.268c-.493-.075-.472.122-.532.45-.529,2.888-1.084,5.771-1.611,8.659-1.2,6.584-2.382,13.171-3.6,19.751-.128.69-.07.976.679,1.248a19.151,19.151,0,1,1-25.282,21.444c-1.286-7.58,1.259-13.757,7.168-18.59.469-.384.549-.626.225-1.156q-10.1-16.525-20.152-33.078c-.3-.5-.5-.61-1.087-.344a18.376,18.376,0,0,1-9.051,1.675c-.744-.054-.867.255-.966.772-.57,2.983-1.123,5.97-1.7,8.952-1.2,6.233-2.4,12.467-3.643,18.691-.2.979-.048,1.369.98,1.787,6.709,2.731,10.88,7.716,12.086,14.846a19.194,19.194,0,0,1-37.811,6.6c-.063-.309.17-.7-.226-.926v-5.149a15.6,15.6,0,0,1,2.849-8.125,19.271,19.271,0,0,1,16.733-8.827c1.879-.009,1.581.265,1.938-1.548,1.728-8.783,3.374-17.582,5.127-26.36.176-.884-.054-1.247-.9-1.589-7.014-2.836-11.39-7.974-12.514-15.461a19.311,19.311,0,0,1,13.713-21.455c.954-.292,1.953-.252,2.918-.449h5.149a17.3,17.3,0,0,1,11.076,5.271,19.413,19.413,0,0,1-.412,28.031c-1.541,1.475-1.611,1.027-.4,3,5.057,8.248,10.064,16.526,15.116,24.777,1.362,2.223,2.7,4.462,4.067,6.681a.978.978,0,0,0,1.428.471,18.1,18.1,0,0,1,8.36-1.326c.692.056.9-.221,1.008-.822,1.514-8.232,3.061-16.458,4.585-24.688.156-.843.292-1.692.493-2.525a1.152,1.152,0,0,0-.838-1.574,19.457,19.457,0,0,1-5.728-3.39,18.455,18.455,0,0,1-6.573-11.555c-1.229-8.258,1.769-14.808,8.6-19.545a15.241,15.241,0,0,1,8.038-2.8Z" fill="#12263f"/>
      <path id="Trazado_231938" data-name="Trazado 231938" d="M2868.763,3914.405c0,1.677,0,1.677-2.086,1.677-1.343,0-1.343,0-1.342-2.122,0-1.309,0-1.321,2.251-1.3C2868.994,3912.669,2868.736,3912.425,2868.763,3914.405Z" transform="translate(-93.964 -111.753)" fill="#12263f"/>
      <path id="Trazado_231939" data-name="Trazado 231939" d="M2867.036,3978.31c-1.711,0-1.724,0-1.708-1.743.017-1.959-.279-1.665,1.674-1.682,1.751-.016,1.751,0,1.751,1.7C2868.753,3978.31,2868.753,3978.31,2867.036,3978.31Z" transform="translate(-93.955 -156.851)" fill="#12263f"/>
      <path id="Trazado_231940" data-name="Trazado 231940" d="M3094.848,3914.379c0-1.724,0-1.724,1.684-1.724,1.613,0,1.613,0,1.613,1.693,0,1.734,0,1.734-1.684,1.734C3094.848,3916.083,3094.848,3916.083,3094.848,3914.379Z" transform="translate(-260.306 -111.755)" fill="#12263f"/>
      <path id="Trazado_231941" data-name="Trazado 231941" d="M2866.95,3947.229c-1.735,0-1.735,0-1.735-1.786a1.7,1.7,0,0,0,0-.307c-.182-.978.188-1.268,1.193-1.23,2.236.084,2.193.027,2.258,2.222.026.879-.169,1.285-1.1,1.107A3.3,3.3,0,0,0,2866.95,3947.229Z" transform="translate(-93.844 -134.401)" fill="#12263f"/>
      <path id="Trazado_231942" data-name="Trazado 231942" d="M3098.145,3976.591c0,1.729,0,1.729-1.678,1.729-1.618,0-1.618,0-1.618-1.687,0-1.74,0-1.74,1.678-1.74C3098.145,3974.894,3098.145,3974.894,3098.145,3976.591Z" transform="translate(-260.306 -156.863)" fill="#12263f"/>
      <path id="Trazado_231943" data-name="Trazado 231943" d="M3096.457,3947.309c-1.605,0-1.605,0-1.605-1.587,0-1.708,0-1.708,1.689-1.708,1.606,0,1.606,0,1.606,1.587C3098.146,3947.309,3098.146,3947.309,3096.457,3947.309Z" transform="translate(-260.309 -134.482)" fill="#12263f"/>
      <path id="Trazado_231944" data-name="Trazado 231944" d="M2946.5,4039.566c-3.814-4.77-3.885-12.517-.164-17.961a15.775,15.775,0,0,1,28.551,6.08,15.238,15.238,0,0,1-2.643,11.874c-.453-.032-.487-.435-.615-.729a3.809,3.809,0,0,0-3.858-2.5q-8.388.06-16.776,0a3.763,3.763,0,0,0-3.884,2.448C2946.982,4039.1,2946.868,4039.43,2946.5,4039.566Z" transform="translate(-150.684 -185.736)" fill="#fefefe"/>
      <path id="Trazado_231945" data-name="Trazado 231945" d="M2750.619,4039.69a15.768,15.768,0,1,1,28.543-11.049,14.749,14.749,0,0,1-2.817,11.023c-.436-.236-.505-.712-.712-1.1a3.626,3.626,0,0,0-3.365-2.135q-8.691,0-17.381,0a3.741,3.741,0,0,0-3.622,2.393C2751.109,4039.154,2751.055,4039.565,2750.619,4039.69Z" transform="translate(-8.709 -185.821)" fill="#fefefe"/>
      <path id="Trazado_231946" data-name="Trazado 231946" d="M2995,3795.436c-4.752-6.09-3.587-15.869,2.5-21.009a15.781,15.781,0,0,1,25.891,9.271,15.1,15.1,0,0,1-2.7,11.76c-.4-.118-.441-.5-.567-.8a4.017,4.017,0,0,0-4.037-2.606c-4.041-.012-8.083,0-12.124,0-1.438,0-2.877,0-4.315,0a4.065,4.065,0,0,0-4.057,2.583A1.342,1.342,0,0,1,2995,3795.436Z" transform="translate(-185.82 -8.781)" fill="#fefefe"/>
      <path id="Trazado_231947" data-name="Trazado 231947" d="M2799.113,3795.145a14.292,14.292,0,0,1-2.682-10.928c1-6.567,4.709-10.965,10.995-13a15.649,15.649,0,0,1,20.17,12.635,16.16,16.16,0,0,1-2.709,11.4c-.454-.09-.526-.5-.681-.83a3.873,3.873,0,0,0-3.639-2.428q-8.637-.09-17.276,0a3.8,3.8,0,0,0-3.591,2.326A1.58,1.58,0,0,1,2799.113,3795.145Z" transform="translate(-43.894 -8.705)" fill="#fefefe"/>
      <path id="Trazado_231948" data-name="Trazado 231948" d="M3002.718,3851.231c.875-2.772,2.079-3.669,4.933-3.669H3023.5c2.843,0,4.1.949,4.913,3.691a14.812,14.812,0,0,1-10.614,6.529,15.408,15.408,0,0,1-14.535-5.694A1.9,1.9,0,0,1,3002.718,3851.231Z" transform="translate(-193.534 -64.577)" fill="#fed935"/>
      <path id="Trazado_231949" data-name="Trazado 231949" d="M2806.656,3850.934a4.151,4.151,0,0,1,4.457-3.448c5.248-.008,10.5.081,15.743-.036,2.782-.062,4.721.838,5.574,3.6a14.629,14.629,0,0,1-10.125,6.52c-6.4,1.222-11.359-1.232-15.346-6.1A3.525,3.525,0,0,1,2806.656,3850.934Z" transform="translate(-51.437 -64.494)" fill="#26c7db"/>
      <path id="Trazado_231950" data-name="Trazado 231950" d="M2954.161,4095.52a6.172,6.172,0,0,1,1.142-2.278,4.226,4.226,0,0,1,3.332-1.305c5.284.023,10.569.01,15.854.01,3.423,0,4.177.5,5.416,3.567a14.267,14.267,0,0,1-9.034,6.278c-6.665,1.546-12.188-.518-16.5-5.817A1.951,1.951,0,0,1,2954.161,4095.52Z" transform="translate(-158.343 -241.691)" fill="#f57c22"/>
      <path id="Trazado_231951" data-name="Trazado 231951" d="M2758.3,4095.567c.129-.351.236-.711.391-1.05a3.854,3.854,0,0,1,3.639-2.549c5.889-.021,11.779-.032,17.668,0,2.084.012,3.239,1.1,4.028,3.571a13.633,13.633,0,0,1-5.949,5.168C2771.138,4104.115,2762.344,4101.814,2758.3,4095.567Z" transform="translate(-16.39 -241.699)" fill="#fda829"/>
      <path id="Trazado_231952" data-name="Trazado 231952" d="M2976.689,3914.3c0-1.649,0-1.649,1.691-1.649,1.738,0,1.738,0,1.738,1.717s0,1.712-1.753,1.712C2976.689,3916.081,2976.689,3916.081,2976.689,3914.3Z" transform="translate(-174.67 -111.753)" fill="#12263f"/>
      <path id="Trazado_231953" data-name="Trazado 231953" d="M2978.368,3978.24c-1.679,0-1.679,0-1.679-1.662,0-1.767,0-1.767,1.791-1.767a4.234,4.234,0,0,0,.615,0c.8-.12,1.161.178,1.029,1.011a4.657,4.657,0,0,0-.005.718C2980.118,3978.24,2980.118,3978.24,2978.368,3978.24Z" transform="translate(-174.67 -156.781)" fill="#12263f"/>
      <path id="Trazado_231954" data-name="Trazado 231954" d="M2978.353,3947.308c-1.661,0-1.661,0-1.661-1.645s0-1.652,1.653-1.652c1.773,0,1.773,0,1.773,1.747C2980.119,3947.308,2980.119,3947.308,2978.353,3947.308Z" transform="translate(-174.672 -134.48)" fill="#12263f"/>
      <path id="Trazado_231955" data-name="Trazado 231955" d="M2747.654,3914.3c0-1.649,0-1.649,1.656-1.649,1.64,0,1.64,0,1.64,1.666,0,1.761,0,1.761-1.76,1.761C2747.654,3916.083,2747.654,3916.083,2747.654,3914.3Z" transform="translate(-8.675 -111.755)" fill="#12263f"/>
      <path id="Trazado_231956" data-name="Trazado 231956" d="M2750.951,3976.535c0,1.687,0,1.687-1.721,1.687-1.576,0-1.576,0-1.576-1.627,0-1.8,0-1.8,1.823-1.8a2.486,2.486,0,0,0,.409,0c.823-.14,1.222.14,1.07,1.027A4.3,4.3,0,0,0,2750.951,3976.535Z" transform="translate(-8.675 -156.764)" fill="#12263f"/>
      <path id="Trazado_231957" data-name="Trazado 231957" d="M2750.952,3945.7c0,1.605,0,1.605-1.587,1.605-1.708,0-1.708,0-1.708-1.689,0-1.605,0-1.605,1.587-1.605C2750.952,3944.014,2750.952,3944.014,2750.952,3945.7Z" transform="translate(-8.677 -134.482)" fill="#12263f"/>
      <path id="Trazado_231958" data-name="Trazado 231958" d="M2981.279,4041.351a7.428,7.428,0,0,1-7.42-7.471,7.531,7.531,0,0,1,7.391-7.342,7.421,7.421,0,0,1,7.42,7.471A7.291,7.291,0,0,1,2981.279,4041.351Z" transform="translate(-172.618 -194.292)" fill="#f57c22"/>
      <path id="Trazado_231959" data-name="Trazado 231959" d="M2785.632,4041.368a7.335,7.335,0,0,1-7.367-7.386,7.41,7.41,0,1,1,7.367,7.386Z" transform="translate(-30.86 -194.305)" fill="#fda829"/>
      <path id="Trazado_231960" data-name="Trazado 231960" d="M3037.171,3789.811a7.382,7.382,0,0,1-7.353,7.423,7.412,7.412,0,1,1-.021-14.823A7.377,7.377,0,0,1,3037.171,3789.811Z" transform="translate(-207.762 -17.359)" fill="#fed935"/>
      <path id="Trazado_231961" data-name="Trazado 231961" d="M2826.792,3789.738a7.359,7.359,0,0,1,7.442-7.324,7.411,7.411,0,1,1-.171,14.82A7.365,7.365,0,0,1,2826.792,3789.738Z" transform="translate(-66.03 -17.36)" fill="#26c7db"/>
    </g>
  </g>
</svg>
