<svg xmlns="http://www.w3.org/2000/svg" width="150.971" height="150.961" viewBox="0 0 150.971 150.961">
  <g id="Grupo_167080" data-name="Grupo 167080" transform="translate(-250.071 -6343.172)">
    <ellipse id="Elipse_6872" data-name="Elipse 6872" cx="40.582" cy="4.133" rx="40.582" ry="4.133" transform="translate(290.976 6455.155)" fill="#fdb74d"/>
    <g id="Grupo_165781" data-name="Grupo 165781" transform="translate(-3385.055 1960.733)">
      <g id="Grupo_165778" data-name="Grupo 165778">
        <circle id="Elipse_6874" data-name="Elipse 6874" cx="68.069" cy="68.069" r="68.069" transform="translate(3642.542 4389.848)" fill="#ffe9c9"/>
      </g>
      <path id="Trazado_191622" data-name="Trazado 191622" d="M3691.371,4529.679a74.3,74.3,0,1,1,91-52.521,74.3,74.3,0,0,1-91,52.521Z" fill="none" stroke="#fff" stroke-linecap="round" stroke-width="2" stroke-dasharray="10.001 10"/>
      <g id="Grupo_165780" data-name="Grupo 165780">
        <g id="Grupo_165779" data-name="Grupo 165779">
          <path id="Trazado_232005" data-name="Trazado 232005" d="M3722.907,4479.511a1.356,1.356,0,0,1,1.469-1.032q10.4.007,20.808,0a1.542,1.542,0,0,1,1.5.909q2.275,4.375,4.573,8.739a1.6,1.6,0,0,1-.032,1.612q-2.283,4.323-4.525,8.668a1.785,1.785,0,0,1-1.829.953q-9.807-.021-19.614-.008-13.9,0-27.8-.008c-.538,0-.967,0-1.213.617-.21.525-.783.7-1.252.958h-20.823a2.851,2.851,0,0,1-1.56-2.9c.05-6.142.021-12.284.022-18.426,0-1.906.786-2.705,2.675-2.706,6.227,0,12.454.006,18.681-.007a2.384,2.384,0,0,1,2.462,1.31c.208.447.572.29.88.291q10.193.012,20.386.008c1.194,0,1.44.176,1.753,1.191a1.2,1.2,0,0,1-.864,1.509,5.236,5.236,0,0,1-1.853.206q-9.2,0-18.406,0c-1.366,0-1.372.008-1.373,1.375q0,6.22,0,12.442a3.1,3.1,0,0,0,.1,1.094c.314.436.779.276,1.184.276q15.985.012,31.972.008c4.348,0,8.7-.037,13.045-.007a1.724,1.724,0,0,0,1.791-1.1c.932-1.947,1.976-3.84,2.992-5.746a1.536,1.536,0,0,0,.038-1.53c-.971-1.993-2.095-3.907-3.052-5.908a1.524,1.524,0,0,0-1.56-.933q-2.685.041-5.372,0c-4.367.045-8.734.017-13.1.015a3.879,3.879,0,0,1-1.01-.127C3723.013,4480.986,3722.724,4480.524,3722.907,4479.511Z"/>
          <path id="Trazado_232006" data-name="Trazado 232006" d="M3719.46,4416.307a7.629,7.629,0,0,0,3.461-.148c.383.516.52,1.283,1.359,1.336,1.619.121,3.238.039,4.855.049,2.67.017,5.34,0,8.01.008,1.047,0,1.219.132,1.483,1.141a31.5,31.5,0,0,1,.591,13.344,1.975,1.975,0,0,1-.556,1.388,2.6,2.6,0,0,1-1.254.172q-19.662,0-39.325,0a7.083,7.083,0,0,1-.851-.036.8.8,0,0,1-.771-.767,7.942,7.942,0,0,1-.041-1.022q0-6.313,0-12.626c0-.284.005-.568.022-.852a.877.877,0,0,1,.9-.929c.369-.027.738-.027,1.108-.027,6.113,0,12.227-.013,18.34.012C3717.849,4417.355,3718.84,4417.348,3719.46,4416.307Z" fill="#fda829"/>
          <path id="Trazado_232007" data-name="Trazado 232007" d="M3722.907,4479.511c.075,1.168.443,1.527,1.661,1.53,4.2.008,8.394,0,12.591,0,.338,0,.676.035,1.014.053a3.044,3.044,0,0,1,.578,1.406,31.317,31.317,0,0,1,.479,12.865c-.219,1.316-.3,1.363-1.652,1.363q-19.924,0-39.849,0a2.206,2.206,0,0,1-1.008-.075c-.02-1.445-.053-2.891-.056-4.336-.009-3.465.017-6.93-.02-10.4-.007-.694.149-.9.874-.9,6.7.03,13.4.019,20.106.017,1.321,0,1.645-.249,1.842-1.37a26.076,26.076,0,0,0,3.026.081C3722.7,4479.764,3722.774,4479.6,3722.907,4479.511Z" fill="#fed935"/>
          <path id="Trazado_232008" data-name="Trazado 232008" d="M3721.13,4467.637q-11.862,0-23.725,0c-.494,0-.86.013-1.137.585a2.016,2.016,0,0,1-2.021,1c-3.556-.014-7.112-.006-10.668-.006-2.816,0-5.632.006-8.449,0a2.193,2.193,0,0,1-2.5-2.513q0-9.474,0-18.948c0-1.709.789-2.527,2.489-2.53,6.344-.01,12.688,0,19.031-.01a2.255,2.255,0,0,1,2.3,1.287.458.458,0,0,0,.524.3c.2-.015.4,0,.6,0q23.554,0,47.109-.022a2.181,2.181,0,0,1,2.254,1.373c1.349,2.718,2.781,5.4,4.215,8.07a1.917,1.917,0,0,1,0,2q-2.232,4.162-4.382,8.367a1.787,1.787,0,0,1-1.826,1.071C3737,4467.628,3729.067,4467.637,3721.13,4467.637Z"/>
          <path id="Trazado_232009" data-name="Trazado 232009" d="M3719.46,4416.307c-.187,1.073-.507,1.337-1.681,1.338-6.708,0-13.415.018-20.123-.02-.844,0-1.018.236-1.011,1.04.04,4.633.028,9.266.008,13.9,0,.589.088.839.773.838q20.379-.031,40.757-.018c.169,0,.338-.027.507-.041a1.285,1.285,0,0,1,1.039-.264c1.278-.01,2.557-.022,3.835,0a1.4,1.4,0,0,0,1.436-.841c1-2.072,2.165-4.06,3.166-6.133a1.318,1.318,0,0,0-.034-1.294c-1.073-2-2.15-4-3.155-6.042a1.448,1.448,0,0,0-1.461-.919c-4.852.018-9.7-.252-14.555-.163-1.645.03-3.293.057-4.939-.03a1.3,1.3,0,0,1-1.1-1.5,1.313,1.313,0,0,1,1.434-1.069q10.411,0,20.823,0a1.557,1.557,0,0,1,1.5.917q2.276,4.378,4.573,8.746a1.6,1.6,0,0,1-.025,1.614q-2.284,4.326-4.536,8.67a1.519,1.519,0,0,1-1.492.926c-.256-.008-.512,0-.768,0q-23.425,0-46.852-.008c-.59,0-1.042.018-1.37.663a1.965,1.965,0,0,1-1.89.944c-6.457,0-12.915.013-19.372-.007a2.164,2.164,0,0,1-2.315-2.376q-.011-9.645,0-19.289a2.166,2.166,0,0,1,2.4-2.36q9.6-.01,19.2-.007a2.151,2.151,0,0,1,2.162,1.216c.224.48.589.351.929.351q10.2.009,20.4,0C3718.853,4415.089,3719.178,4415.323,3719.46,4416.307Z"/>
          <path id="Trazado_232010" data-name="Trazado 232010" d="M3689.184,4498.327q-6.741.015-13.481.033c-.316,0-.523,0-.521-.433q.039-9.171.048-18.344a1.291,1.291,0,0,1,.748-.083q6.218-.006,12.435,0c.919,0,1.039.086,1.043,1.012q.031,8.432,0,16.864A1.211,1.211,0,0,1,3689.184,4498.327Z" fill="#f8f6f7"/>
          <path id="Trazado_232011" data-name="Trazado 232011" d="M3696.721,4496.653q20.422,0,40.846.009c.858,0,1.221-.19,1.372-1.114a35.535,35.535,0,0,0,.3-8.54c-.156-2.016-.719-3.938-1.066-5.909,2.016-.017,4.033-.026,6.049-.06.393-.007.542.21.7.5q1.808,3.472,3.636,6.936a.816.816,0,0,1,0,.862c-1.223,2.306-2.452,4.61-3.626,6.941-.273.544-.658.511-1.11.511q-19.406,0-38.809.008c-2.5,0-5,.005-7.506-.008C3697.243,4496.789,3696.936,4496.942,3696.721,4496.653Z" fill="#fed935"/>
          <path id="Trazado_232012" data-name="Trazado 232012" d="M3689.184,4498.327c0-5.933-.012-11.866.019-17.8,0-.745-.183-.961-.944-.955-4.343.035-8.686.013-13.029.01.168-.3.452-.145.673-.145,5.8-.007,11.6.009,17.4-.012.627,0,.815.14.812.793q-.04,8.7,0,17.4c0,.6-.16.77-.755.747C3691.97,4498.318,3690.576,4498.337,3689.184,4498.327Z" fill="#f8f6f7"/>
          <path id="Trazado_232013" data-name="Trazado 232013" d="M3724.022,4417.661q10.056-.008,20.113-.025a.77.77,0,0,1,.774.508q1.8,3.477,3.639,6.934a.889.889,0,0,1-.032.941q-1.788,3.387-3.552,6.788c-.18.345-.357.595-.823.586-1.816-.039-3.634-.037-5.451-.05a30.7,30.7,0,0,0,.533-9.783,43.7,43.7,0,0,0-.849-4.833c-.149-.7-.4-.967-1.169-.959-4.092.044-8.185.023-12.278.016C3724.624,4417.784,3724.3,4417.883,3724.022,4417.661Z" fill="#fda829"/>
          <path id="Trazado_232014" data-name="Trazado 232014" d="M3710.385,4427.5q3.839,0,7.677,0c1.058,0,1.673.484,1.656,1.284-.016.782-.61,1.271-1.6,1.272q-7.719.01-15.439.006a1.354,1.354,0,0,1-1.511-.974,1.21,1.21,0,0,1,.557-1.4,1.636,1.636,0,0,1,.987-.187Z"/>
          <path id="Trazado_232015" data-name="Trazado 232015" d="M3706.318,4423.762c-1.25,0-2.5.011-3.75,0-.918-.01-1.464-.523-1.444-1.31a1.274,1.274,0,0,1,1.431-1.241q3.792-.02,7.585,0a1.28,1.28,0,1,1,.013,2.549C3708.875,4423.775,3707.6,4423.762,3706.318,4423.762Z"/>
          <path id="Trazado_232016" data-name="Trazado 232016" d="M3710.413,4493.413q-3.84,0-7.68,0c-1.031,0-1.585-.432-1.609-1.23-.026-.84.549-1.326,1.606-1.327q7.68-.006,15.359,0c1.035,0,1.657.518,1.627,1.324-.028.778-.615,1.232-1.624,1.233Q3714.252,4493.417,3710.413,4493.413Z"/>
          <path id="Trazado_232017" data-name="Trazado 232017" d="M3706.342,4487.121c-1.251,0-2.5.011-3.752,0-.942-.011-1.475-.492-1.467-1.28s.551-1.267,1.491-1.272q3.709-.018,7.418,0c.939,0,1.5.487,1.517,1.253.02.8-.55,1.292-1.541,1.3C3708.786,4487.13,3707.564,4487.121,3706.342,4487.121Z" fill="#010000"/>
          <path id="Trazado_232018" data-name="Trazado 232018" d="M3738.686,4465.047c-.255.01-.51.029-.766.029q-20.175,0-40.352.02c-.75,0-.931-.175-.925-.925.038-4.692.024-9.385.013-14.077,0-.479.009-.758.652-.756q20.305.033,40.609.019a1.945,1.945,0,0,1,.253.031,9.2,9.2,0,0,1,1.016,3.576,30.935,30.935,0,0,1-.032,11.024A1.452,1.452,0,0,1,3738.686,4465.047Z" fill="#26c7db"/>
          <path id="Trazado_232019" data-name="Trazado 232019" d="M3689.187,4466.6q-6.047.023-12.095.044c-1.9,0-1.9,0-1.9-1.939q0-8.1,0-16.191c0-.372-.143-.766.54-.761,4.4.031,8.8.018,13.207.021a1.35,1.35,0,0,1,.249.045,1.579,1.579,0,0,1,.275,1.13q.009,8.26,0,16.522A1.544,1.544,0,0,1,3689.187,4466.6Z" fill="#f8f6f7"/>
          <path id="Trazado_232020" data-name="Trazado 232020" d="M3738.686,4465.047a32.382,32.382,0,0,0,.555-9.764c-.175-2.007-.711-3.931-1.071-5.9,2.019-.011,4.037-.016,6.056-.041a.641.641,0,0,1,.649.421q1.842,3.554,3.716,7.091a.743.743,0,0,1-.04.784q-1.826,3.467-3.632,6.943a.754.754,0,0,1-.774.5C3742.326,4465.054,3740.506,4465.057,3738.686,4465.047Z" fill="#26c7db"/>
          <path id="Trazado_232021" data-name="Trazado 232021" d="M3689.187,4466.6q0-9.39,0-18.781c1.476-.017,2.951-.019,4.426-.057.542-.013.49.32.489.668q0,3.069,0,6.137c0,3.778-.014,7.557.013,11.335.005.6-.162.779-.757.755C3691.969,4466.608,3690.577,4466.62,3689.187,4466.6Z" fill="#f8f6f7"/>
          <path id="Trazado_232022" data-name="Trazado 232022" d="M3675.23,4434.854q-.019-5.2-.039-10.407c-.006-2.589,0-5.178,0-7.766,0-.37-.014-.618.516-.614,4.494.034,8.987.034,13.481.043a1.439,1.439,0,0,1,.278,1.124q.012,8.262,0,16.524c0,1.127-.08,1.182-1.219,1.182q-6.047,0-12.093,0A1.766,1.766,0,0,1,3675.23,4434.854Z" fill="#f8f6f7"/>
          <path id="Trazado_232023" data-name="Trazado 232023" d="M3675.23,4434.854c4.343,0,8.686-.024,13.029.011.761.006.947-.211.944-.955-.031-5.933-.018-11.866-.019-17.8,1.421-.01,2.843.014,4.262-.045.629-.026.667.255.664.75-.017,2.815-.008,5.63-.008,8.445,0,3.015-.008,6.029.008,9.043,0,.476-.06.709-.634.707-5.943-.017-11.886,0-17.829-.007C3675.5,4435,3675.3,4435.1,3675.23,4434.854Z" fill="#f8f6f7"/>
          <path id="Trazado_232024" data-name="Trazado 232024" d="M3684.637,4494.989a3.644,3.644,0,0,1-3.668-3.593,1.263,1.263,0,0,1,2.5-.324c.043.164.036.341.081.5a1.046,1.046,0,0,0,1.123.844,1.1,1.1,0,0,0,.362-2.137,3.191,3.191,0,0,0-.578-.12,1.209,1.209,0,0,1-1.079-1.228,1.148,1.148,0,0,1,1.022-1.269c.766-.113,1.34-.355,1.351-1.213a1.011,1.011,0,0,0-.844-1.044c-.843-.175-1.207.343-1.469,1.066a1.221,1.221,0,0,1-1.6.757,1.315,1.315,0,0,1-.777-1.675,3.565,3.565,0,0,1,2.9-2.685,3.467,3.467,0,0,1,3.657,1.48,3.409,3.409,0,0,1,.208,3.923,1.052,1.052,0,0,0,0,1.26A3.644,3.644,0,0,1,3684.637,4494.989Z"/>
          <path id="Trazado_232025" data-name="Trazado 232025" d="M3710.383,4461.517q-3.84,0-7.678,0c-1.042,0-1.574-.431-1.581-1.246s.548-1.306,1.55-1.308q7.72-.015,15.442,0c.989,0,1.589.5,1.6,1.279.013.8-.593,1.275-1.656,1.277Q3714.221,4461.521,3710.383,4461.517Z"/>
          <path id="Trazado_232026" data-name="Trazado 232026" d="M3706.31,4455.242c-1.222,0-2.443.015-3.665,0-1.016-.016-1.546-.494-1.522-1.318.023-.782.544-1.228,1.524-1.233q3.706-.021,7.414,0c.949.006,1.488.5,1.488,1.276s-.536,1.256-1.489,1.273C3708.81,4455.258,3707.56,4455.242,3706.31,4455.242Z" fill="#000101"/>
          <path id="Trazado_232027" data-name="Trazado 232027" d="M3684.862,4460.725c.877,0,1.583-.019,2.287,0a1.267,1.267,0,0,1,1.349,1.238,1.231,1.231,0,0,1-1.293,1.29c-1.56.041-3.124.052-4.682-.01a1.324,1.324,0,0,1-1.084-2.224c.972-1.4,2.005-2.752,3.007-4.127a7.059,7.059,0,0,0,.985-1.682,1,1,0,0,0-.57-1.4,1.053,1.053,0,0,0-1.48.581c-.038.075-.056.161-.089.239-.357.854-.92,1.171-1.639.922a1.33,1.33,0,0,1-.77-1.814,3.7,3.7,0,0,1,4.762-2.384,3.6,3.6,0,0,1,2.2,4.685,16.6,16.6,0,0,1-2.269,3.678C3685.374,4460.02,3685.158,4460.312,3684.862,4460.725Z"/>
          <path id="Trazado_232028" data-name="Trazado 232028" d="M3686.938,4425.55c0,1.447.007,2.894,0,4.341-.007,1.05-.5,1.627-1.332,1.6-.809-.022-1.222-.551-1.225-1.6,0-2.327-.016-4.654.009-6.98.006-.563-.033-.886-.746-.857a1.194,1.194,0,0,1-1.282-1.188,1.254,1.254,0,0,1,1.252-1.333,15.831,15.831,0,0,1,2.042,0c.827.053,1.269.578,1.279,1.5C3686.951,4422.542,3686.938,4424.046,3686.938,4425.55Z"/>
        </g>
        <rect id="Rect치ngulo_46094" data-name="Rect치ngulo 46094" width="9.155" height="2.469" transform="translate(3717.724 4415.088)"/>
        <rect id="Rect치ngulo_46095" data-name="Rect치ngulo 46095" width="11.056" height="2.557" transform="translate(3715.667 4478.482)"/>
      </g>
    </g>
  </g>
</svg>
