<svg xmlns="http://www.w3.org/2000/svg" width="687.023" height="584.53" viewBox="0 0 687.023 584.53">
  <g id="Grupo_167078" data-name="Grupo 167078" transform="translate(-455.007 -2718.344)">
    <path id="Trazado_232745" data-name="Trazado 232745" d="M292.265,0C453.678,0,584.529,130.852,584.529,292.265S453.678,584.53,292.265,584.53,0,453.679,0,292.265,130.851,0,292.265,0Z" transform="translate(516.991 2718.344)" fill="#26c7db" opacity="0.35"/>
    <path id="Trazado_230794" data-name="Trazado 230794" d="M220.647,238.887a1.164,1.164,0,0,1-.745-2.059,132.373,132.373,0,0,0,47.689-101.867c0-73.133-59.5-132.63-132.63-132.63S2.332,61.828,2.332,134.961a1.166,1.166,0,0,1-2.332,0C0,60.542,60.542,0,134.961,0S269.922,60.542,269.922,134.961a134.693,134.693,0,0,1-48.528,103.655A1.159,1.159,0,0,1,220.647,238.887Z" transform="translate(826.911 3096.914) rotate(173)" fill="#f57c22"/>
    <path id="Trazado_230797" data-name="Trazado 230797" d="M220.647,238.886a1.164,1.164,0,0,1-.745-2.059,132.373,132.373,0,0,0,47.689-101.867c0-73.133-59.5-132.63-132.63-132.63S2.332,61.828,2.332,134.961a1.166,1.166,0,0,1-2.332,0C0,60.542,60.543,0,134.961,0S269.922,60.542,269.922,134.961a134.693,134.693,0,0,1-48.528,103.655A1.16,1.16,0,0,1,220.647,238.886Z" transform="translate(1075.092 2998.656) rotate(104)" fill="#fed935"/>
    <path id="Trazado_230795" data-name="Trazado 230795" d="M625.468,292.545A106.484,106.484,0,1,1,731.951,186.06,106.485,106.485,0,0,1,625.468,292.545Z" transform="translate(52.932 2792.896)" fill="#fed935"/>
    <path id="Trazado_230798" data-name="Trazado 230798" d="M625.468,292.545A106.484,106.484,0,1,1,731.951,186.06,106.485,106.485,0,0,1,625.468,292.545Z" transform="translate(287.494 2911.031)" fill="#26c7db"/>
    <path id="Trazado_230796" data-name="Trazado 230796" d="M626.126,295.31a108.591,108.591,0,1,1,108.59-108.592A108.593,108.593,0,0,1,626.126,295.31Z" transform="translate(52.273 2792.238)" fill="none" stroke="#f57c22" stroke-miterlimit="10" stroke-width="7"/>
    <path id="Trazado_230799" data-name="Trazado 230799" d="M626.126,295.31a108.591,108.591,0,1,1,108.59-108.592A108.593,108.593,0,0,1,626.126,295.31Z" transform="translate(286.836 2910.373)" fill="none" stroke="#fed935" stroke-miterlimit="10" stroke-width="7"/>
    <path id="Trazado_232746" data-name="Trazado 232746" d="M51.107,11.391a4.185,4.185,0,0,1-1.332,2.785,4.365,4.365,0,0,1-2.98.98,4.008,4.008,0,0,1-3.23-1.445A5.815,5.815,0,0,1,42.35,9.844V8.75a6.481,6.481,0,0,1,.566-2.789,4.231,4.231,0,0,1,1.605-1.848,4.47,4.47,0,0,1,2.406-.645A4.11,4.11,0,0,1,49.834,4.48a4.235,4.235,0,0,1,1.273,2.8H49.6a3.268,3.268,0,0,0-.848-1.975A2.565,2.565,0,0,0,46.928,4.7a2.684,2.684,0,0,0-2.254,1.063,4.882,4.882,0,0,0-.816,3.026v1.1a5.018,5.018,0,0,0,.773,2.948,2.5,2.5,0,0,0,2.164,1.095,2.887,2.887,0,0,0,1.918-.566,3.143,3.143,0,0,0,.887-1.973ZM54.5,15H53.053V3H54.5Zm3.883,0H56.936V6.547h1.445ZM56.818,4.3a.863.863,0,0,1,.215-.594.807.807,0,0,1,.637-.242.819.819,0,0,1,.641.242.854.854,0,0,1,.219.594.826.826,0,0,1-.219.586.834.834,0,0,1-.641.234.821.821,0,0,1-.637-.234A.834.834,0,0,1,56.818,4.3ZM64.2,15.156a3.693,3.693,0,0,1-2.8-1.129,4.19,4.19,0,0,1-1.078-3.02v-.266a5.073,5.073,0,0,1,.48-2.246A3.748,3.748,0,0,1,62.15,6.949a3.378,3.378,0,0,1,1.871-.559,3.166,3.166,0,0,1,2.563,1.086,4.7,4.7,0,0,1,.914,3.109v.6H61.771a3,3,0,0,0,.73,2.02,2.3,2.3,0,0,0,1.777.77,2.517,2.517,0,0,0,1.3-.312,3.259,3.259,0,0,0,.93-.828l.883.688A3.55,3.55,0,0,1,64.2,15.156Zm-.18-7.578a1.928,1.928,0,0,0-1.469.637A3.1,3.1,0,0,0,61.818,10h4.234V9.891a2.753,2.753,0,0,0-.594-1.707A1.815,1.815,0,0,0,64.021,7.578Zm6.516-1.031.047,1.063a3.08,3.08,0,0,1,2.531-1.219q2.68,0,2.7,3.023V15H74.373V9.406a1.946,1.946,0,0,0-.418-1.352,1.675,1.675,0,0,0-1.277-.437,2.086,2.086,0,0,0-1.234.375,2.546,2.546,0,0,0-.828.984V15H69.17V6.547ZM79.959,4.5V6.547h1.578V7.664H79.959v5.249a1.173,1.173,0,0,0,.211.763.888.888,0,0,0,.719.254,3.5,3.5,0,0,0,.688-.094V15a4.215,4.215,0,0,1-1.109.155,1.8,1.8,0,0,1-1.461-.586,2.517,2.517,0,0,1-.492-1.664V7.664H76.975V6.547h1.539V4.5Zm6.773,10.656a3.693,3.693,0,0,1-2.8-1.129,4.19,4.19,0,0,1-1.078-3.02v-.266a5.073,5.073,0,0,1,.48-2.246,3.748,3.748,0,0,1,1.344-1.547,3.378,3.378,0,0,1,1.871-.559,3.166,3.166,0,0,1,2.563,1.086,4.7,4.7,0,0,1,.914,3.109v.6H84.3a3,3,0,0,0,.73,2.02,2.3,2.3,0,0,0,1.777.77,2.517,2.517,0,0,0,1.3-.312,3.259,3.259,0,0,0,.93-.828l.883.688A3.55,3.55,0,0,1,86.732,15.156Zm-.18-7.578a1.928,1.928,0,0,0-1.469.637A3.1,3.1,0,0,0,84.35,10h4.234V9.891a2.753,2.753,0,0,0-.594-1.707A1.815,1.815,0,0,0,86.553,7.578Zm10.07,5.18a1.064,1.064,0,0,0-.441-.91,4.249,4.249,0,0,0-1.539-.559,7.277,7.277,0,0,1-1.742-.562,2.479,2.479,0,0,1-.953-.781,1.869,1.869,0,0,1-.309-1.078,2.193,2.193,0,0,1,.879-1.758,3.432,3.432,0,0,1,2.246-.719,3.532,3.532,0,0,1,2.332.742,2.357,2.357,0,0,1,.895,1.9H96.537a1.3,1.3,0,0,0-.5-1.023,1.888,1.888,0,0,0-1.27-.43,1.976,1.976,0,0,0-1.234.344,1.082,1.082,0,0,0-.445.9.877.877,0,0,0,.414.789,5.1,5.1,0,0,0,1.5.508,7.8,7.8,0,0,1,1.754.578,2.558,2.558,0,0,1,1,.809,1.988,1.988,0,0,1,.324,1.152,2.163,2.163,0,0,1-.906,1.816,3.8,3.8,0,0,1-2.352.684,4.257,4.257,0,0,1-1.8-.359,2.922,2.922,0,0,1-1.223-1A2.42,2.42,0,0,1,91.35,12.4h1.445a1.5,1.5,0,0,0,.582,1.152,2.258,2.258,0,0,0,1.434.426,2.331,2.331,0,0,0,1.316-.332A1.02,1.02,0,0,0,96.623,12.758ZM37.271,30.867a5.062,5.062,0,0,1-.883,3.109A2.829,2.829,0,0,1,34,35.156a3.1,3.1,0,0,1-2.422-.977v4.07H30.131v-11.7h1.32l.07.938a2.977,2.977,0,0,1,2.453-1.094,2.882,2.882,0,0,1,2.41,1.148,5.117,5.117,0,0,1,.887,3.2ZM35.826,30.7a3.735,3.735,0,0,0-.609-2.258,1.963,1.963,0,0,0-1.672-.828,2.125,2.125,0,0,0-1.969,1.164V32.82a2.129,2.129,0,0,0,1.984,1.156,1.954,1.954,0,0,0,1.652-.824A4.077,4.077,0,0,0,35.826,30.7Zm2.9-.008a4.993,4.993,0,0,1,.488-2.234,3.643,3.643,0,0,1,1.359-1.531,3.7,3.7,0,0,1,1.988-.539,3.565,3.565,0,0,1,2.793,1.2,4.6,4.6,0,0,1,1.066,3.18v.1a5.036,5.036,0,0,1-.473,2.215A3.589,3.589,0,0,1,44.6,34.609a3.743,3.743,0,0,1-2.02.547,3.556,3.556,0,0,1-2.785-1.2A4.575,4.575,0,0,1,38.725,30.8Zm1.453.172a3.616,3.616,0,0,0,.652,2.258,2.211,2.211,0,0,0,3.5-.012,3.955,3.955,0,0,0,.648-2.418,3.61,3.61,0,0,0-.66-2.254,2.1,2.1,0,0,0-1.754-.863,2.075,2.075,0,0,0-1.727.852A3.925,3.925,0,0,0,40.178,30.867ZM50.193,24.5v2.047h1.578v1.117H50.193v5.249a1.173,1.173,0,0,0,.211.763.888.888,0,0,0,.719.254,3.5,3.5,0,0,0,.688-.094V35a4.215,4.215,0,0,1-1.109.155,1.8,1.8,0,0,1-1.461-.586,2.517,2.517,0,0,1-.492-1.664V27.664H47.209V26.547h1.539V24.5Zm6.773,10.656a3.693,3.693,0,0,1-2.8-1.129,4.19,4.19,0,0,1-1.078-3.02v-.266a5.073,5.073,0,0,1,.48-2.246,3.748,3.748,0,0,1,1.344-1.547,3.378,3.378,0,0,1,1.871-.559,3.166,3.166,0,0,1,2.563,1.086,4.7,4.7,0,0,1,.914,3.109v.6H54.537a3,3,0,0,0,.73,2.02,2.3,2.3,0,0,0,1.777.77,2.517,2.517,0,0,0,1.3-.312,3.258,3.258,0,0,0,.93-.828l.883.688A3.55,3.55,0,0,1,56.967,35.156Zm-.18-7.578a1.928,1.928,0,0,0-1.469.637A3.1,3.1,0,0,0,54.584,30h4.234v-.109a2.753,2.753,0,0,0-.594-1.707A1.815,1.815,0,0,0,56.787,27.578ZM63.3,26.547l.047,1.063a3.08,3.08,0,0,1,2.531-1.219q2.68,0,2.7,3.023V35H67.139V29.406a1.946,1.946,0,0,0-.418-1.352,1.675,1.675,0,0,0-1.277-.437,2.086,2.086,0,0,0-1.234.375,2.546,2.546,0,0,0-.828.984V35H61.936V26.547Zm10.852,7.43a2.082,2.082,0,0,0,1.352-.469,1.649,1.649,0,0,0,.641-1.172h1.367a2.621,2.621,0,0,1-.5,1.383,3.293,3.293,0,0,1-1.23,1.047,3.55,3.55,0,0,1-1.629.391A3.482,3.482,0,0,1,71.408,34a4.59,4.59,0,0,1-1.02-3.152v-.242a5.089,5.089,0,0,1,.453-2.2,3.451,3.451,0,0,1,1.3-1.492,3.7,3.7,0,0,1,2-.531,3.39,3.39,0,0,1,2.363.852,3.043,3.043,0,0,1,1,2.211H76.146a1.992,1.992,0,0,0-.621-1.348,1.932,1.932,0,0,0-1.379-.527,2.023,2.023,0,0,0-1.707.793,3.724,3.724,0,0,0-.605,2.293v.273a3.65,3.65,0,0,0,.6,2.25A2.033,2.033,0,0,0,74.154,33.977ZM80.709,35H79.264V26.547h1.445ZM79.146,24.3a.863.863,0,0,1,.215-.594A.807.807,0,0,1,80,23.469a.819.819,0,0,1,.641.242.854.854,0,0,1,.219.594.826.826,0,0,1-.219.586.834.834,0,0,1-.641.234.821.821,0,0,1-.637-.234A.834.834,0,0,1,79.146,24.3ZM88.24,35a3.036,3.036,0,0,1-.2-.891,3.225,3.225,0,0,1-2.406,1.047,2.984,2.984,0,0,1-2.051-.707,2.288,2.288,0,0,1-.8-1.793,2.39,2.39,0,0,1,1-2.051,4.733,4.733,0,0,1,2.824-.73h1.406v-.664A1.623,1.623,0,0,0,87.561,28a1.821,1.821,0,0,0-1.336-.449,2.108,2.108,0,0,0-1.3.391,1.151,1.151,0,0,0-.523.945H82.951a2,2,0,0,1,.449-1.223,3.066,3.066,0,0,1,1.219-.934,4.1,4.1,0,0,1,1.691-.344,3.342,3.342,0,0,1,2.289.73,2.635,2.635,0,0,1,.859,2.012v3.891a4.757,4.757,0,0,0,.3,1.852V35Zm-2.4-1.1a2.54,2.54,0,0,0,1.289-.352,2.127,2.127,0,0,0,.883-.914V30.9H86.881q-2.656,0-2.656,1.555a1.316,1.316,0,0,0,.453,1.063A1.742,1.742,0,0,0,85.842,33.9ZM93.295,35H91.85V23h1.445Zm5.82.156a3.693,3.693,0,0,1-2.8-1.129,4.19,4.19,0,0,1-1.078-3.02v-.266a5.073,5.073,0,0,1,.48-2.246,3.748,3.748,0,0,1,1.344-1.547,3.378,3.378,0,0,1,1.871-.559,3.166,3.166,0,0,1,2.562,1.086,4.7,4.7,0,0,1,.914,3.109v.6H96.686a3,3,0,0,0,.73,2.02,2.3,2.3,0,0,0,1.777.77,2.517,2.517,0,0,0,1.3-.312,3.259,3.259,0,0,0,.93-.828l.883.688A3.55,3.55,0,0,1,99.115,35.156Zm-.18-7.578a1.928,1.928,0,0,0-1.469.637A3.1,3.1,0,0,0,96.732,30h4.234v-.109a2.753,2.753,0,0,0-.594-1.707A1.815,1.815,0,0,0,98.936,27.578Zm10.07,5.18a1.064,1.064,0,0,0-.441-.91,4.249,4.249,0,0,0-1.539-.559,7.277,7.277,0,0,1-1.742-.562,2.478,2.478,0,0,1-.953-.781,1.869,1.869,0,0,1-.309-1.078,2.193,2.193,0,0,1,.879-1.758,3.432,3.432,0,0,1,2.246-.719,3.532,3.532,0,0,1,2.332.742,2.357,2.357,0,0,1,.895,1.9H108.92a1.3,1.3,0,0,0-.5-1.023,1.888,1.888,0,0,0-1.27-.43,1.976,1.976,0,0,0-1.234.344,1.082,1.082,0,0,0-.445.9.877.877,0,0,0,.414.789,5.1,5.1,0,0,0,1.5.508,7.8,7.8,0,0,1,1.754.578,2.558,2.558,0,0,1,1,.809,1.988,1.988,0,0,1,.324,1.152,2.163,2.163,0,0,1-.906,1.816,3.8,3.8,0,0,1-2.352.684,4.257,4.257,0,0,1-1.8-.359,2.922,2.922,0,0,1-1.223-1,2.42,2.42,0,0,1-.441-1.395h1.445a1.5,1.5,0,0,0,.582,1.152,2.258,2.258,0,0,0,1.434.426,2.331,2.331,0,0,0,1.316-.332A1.02,1.02,0,0,0,109.006,32.758Z" transform="translate(608.262 3009.188)" fill="#12263f"/>
    <path id="Trazado_232747" data-name="Trazado 232747" d="M10.178,11.391a4.185,4.185,0,0,1-1.332,2.785,4.365,4.365,0,0,1-2.98.98,4.008,4.008,0,0,1-3.23-1.445A5.815,5.815,0,0,1,1.42,9.844V8.75a6.481,6.481,0,0,1,.566-2.789A4.231,4.231,0,0,1,3.592,4.113,4.47,4.47,0,0,1,6,3.469,4.11,4.11,0,0,1,8.9,4.48a4.235,4.235,0,0,1,1.273,2.8H8.67a3.268,3.268,0,0,0-.848-1.975A2.565,2.565,0,0,0,6,4.7,2.684,2.684,0,0,0,3.744,5.759a4.882,4.882,0,0,0-.816,3.026v1.1A5.018,5.018,0,0,0,3.7,12.835,2.5,2.5,0,0,0,5.865,13.93a2.887,2.887,0,0,0,1.918-.566,3.143,3.143,0,0,0,.887-1.973ZM13.568,15H12.123V3h1.445Zm3.883,0H16.006V6.547h1.445ZM15.889,4.3a.863.863,0,0,1,.215-.594.807.807,0,0,1,.637-.242.819.819,0,0,1,.641.242A.854.854,0,0,1,17.6,4.3a.826.826,0,0,1-.219.586.834.834,0,0,1-.641.234.821.821,0,0,1-.637-.234A.834.834,0,0,1,15.889,4.3Zm7.383,10.852a3.693,3.693,0,0,1-2.8-1.129,4.19,4.19,0,0,1-1.078-3.02v-.266a5.073,5.073,0,0,1,.48-2.246,3.748,3.748,0,0,1,1.344-1.547,3.378,3.378,0,0,1,1.871-.559,3.166,3.166,0,0,1,2.563,1.086,4.7,4.7,0,0,1,.914,3.109v.6H20.842a3,3,0,0,0,.73,2.02,2.3,2.3,0,0,0,1.777.77,2.517,2.517,0,0,0,1.3-.312,3.259,3.259,0,0,0,.93-.828l.883.688A3.55,3.55,0,0,1,23.271,15.156Zm-.18-7.578a1.928,1.928,0,0,0-1.469.637A3.1,3.1,0,0,0,20.889,10h4.234V9.891a2.753,2.753,0,0,0-.594-1.707A1.815,1.815,0,0,0,23.092,7.578Zm6.516-1.031.047,1.063a3.08,3.08,0,0,1,2.531-1.219q2.68,0,2.7,3.023V15H33.443V9.406a1.946,1.946,0,0,0-.418-1.352,1.675,1.675,0,0,0-1.277-.437,2.086,2.086,0,0,0-1.234.375,2.546,2.546,0,0,0-.828.984V15H28.24V6.547ZM39.029,4.5V6.547h1.578V7.664H39.029v5.249a1.173,1.173,0,0,0,.211.763.888.888,0,0,0,.719.254,3.5,3.5,0,0,0,.688-.094V15a4.215,4.215,0,0,1-1.109.155,1.8,1.8,0,0,1-1.461-.586,2.517,2.517,0,0,1-.492-1.664V7.664H36.045V6.547h1.539V4.5ZM45.8,15.156a3.693,3.693,0,0,1-2.8-1.129,4.19,4.19,0,0,1-1.078-3.02v-.266a5.073,5.073,0,0,1,.48-2.246,3.748,3.748,0,0,1,1.344-1.547,3.378,3.378,0,0,1,1.871-.559,3.166,3.166,0,0,1,2.563,1.086,4.7,4.7,0,0,1,.914,3.109v.6H43.373a3,3,0,0,0,.73,2.02,2.3,2.3,0,0,0,1.777.77,2.517,2.517,0,0,0,1.3-.312,3.259,3.259,0,0,0,.93-.828l.883.688A3.55,3.55,0,0,1,45.8,15.156Zm-.18-7.578a1.928,1.928,0,0,0-1.469.637A3.1,3.1,0,0,0,43.42,10h4.234V9.891a2.753,2.753,0,0,0-.594-1.707A1.815,1.815,0,0,0,45.623,7.578Zm10.07,5.18a1.064,1.064,0,0,0-.441-.91,4.249,4.249,0,0,0-1.539-.559,7.277,7.277,0,0,1-1.742-.562,2.479,2.479,0,0,1-.953-.781,1.869,1.869,0,0,1-.309-1.078,2.193,2.193,0,0,1,.879-1.758,3.432,3.432,0,0,1,2.246-.719,3.532,3.532,0,0,1,2.332.742,2.357,2.357,0,0,1,.895,1.9H55.607a1.3,1.3,0,0,0-.5-1.023,1.888,1.888,0,0,0-1.27-.43,1.976,1.976,0,0,0-1.234.344,1.082,1.082,0,0,0-.445.9.877.877,0,0,0,.414.789,5.1,5.1,0,0,0,1.5.508,7.8,7.8,0,0,1,1.754.578,2.558,2.558,0,0,1,1,.809,1.988,1.988,0,0,1,.324,1.152,2.163,2.163,0,0,1-.906,1.816,3.8,3.8,0,0,1-2.352.684,4.257,4.257,0,0,1-1.8-.359,2.922,2.922,0,0,1-1.223-1A2.42,2.42,0,0,1,50.42,12.4h1.445a1.5,1.5,0,0,0,.582,1.152,2.258,2.258,0,0,0,1.434.426,2.331,2.331,0,0,0,1.316-.332A1.02,1.02,0,0,0,55.693,12.758Zm10.8,2.4a3.693,3.693,0,0,1-2.8-1.129,4.19,4.19,0,0,1-1.078-3.02v-.266A5.073,5.073,0,0,1,63.1,8.5a3.748,3.748,0,0,1,1.344-1.547,3.378,3.378,0,0,1,1.871-.559,3.166,3.166,0,0,1,2.563,1.086,4.7,4.7,0,0,1,.914,3.109v.6H64.061a3,3,0,0,0,.73,2.02,2.3,2.3,0,0,0,1.777.77,2.517,2.517,0,0,0,1.3-.312,3.259,3.259,0,0,0,.93-.828l.883.688A3.55,3.55,0,0,1,66.49,15.156Zm-.18-7.578a1.928,1.928,0,0,0-1.469.637A3.1,3.1,0,0,0,64.107,10h4.234V9.891a2.753,2.753,0,0,0-.594-1.707A1.815,1.815,0,0,0,66.311,7.578ZM72.17,15V7.664H70.834V6.547H72.17V5.68a2.878,2.878,0,0,1,.727-2.1,2.745,2.745,0,0,1,2.055-.742,3.816,3.816,0,0,1,.992.132l-.078,1.165a4.151,4.151,0,0,0-.781-.07A1.41,1.41,0,0,0,74,4.474a1.669,1.669,0,0,0-.383,1.18v.893h1.8V7.664h-1.8V15Zm8.164.156a3.693,3.693,0,0,1-2.8-1.129,4.19,4.19,0,0,1-1.078-3.02v-.266a5.073,5.073,0,0,1,.48-2.246,3.748,3.748,0,0,1,1.344-1.547,3.378,3.378,0,0,1,1.871-.559,3.166,3.166,0,0,1,2.563,1.086,4.7,4.7,0,0,1,.914,3.109v.6H77.9a3,3,0,0,0,.73,2.02,2.3,2.3,0,0,0,1.777.77,2.517,2.517,0,0,0,1.3-.312,3.259,3.259,0,0,0,.93-.828l.883.688A3.55,3.55,0,0,1,80.334,15.156Zm-.18-7.578a1.928,1.928,0,0,0-1.469.637A3.1,3.1,0,0,0,77.951,10h4.234V9.891a2.753,2.753,0,0,0-.594-1.707A1.815,1.815,0,0,0,80.154,7.578Zm8.539,6.4a2.082,2.082,0,0,0,1.352-.469,1.649,1.649,0,0,0,.641-1.172h1.367a2.621,2.621,0,0,1-.5,1.383,3.293,3.293,0,0,1-1.23,1.047,3.55,3.55,0,0,1-1.629.391A3.482,3.482,0,0,1,85.947,14a4.59,4.59,0,0,1-1.02-3.152v-.242a5.089,5.089,0,0,1,.453-2.2,3.451,3.451,0,0,1,1.3-1.492,3.7,3.7,0,0,1,2-.531,3.39,3.39,0,0,1,2.363.852,3.043,3.043,0,0,1,1,2.211H90.686a1.992,1.992,0,0,0-.621-1.348,1.932,1.932,0,0,0-1.379-.527,2.023,2.023,0,0,0-1.707.793,3.724,3.724,0,0,0-.605,2.293v.273a3.65,3.65,0,0,0,.6,2.25A2.033,2.033,0,0,0,88.693,13.977ZM95.639,4.5V6.547h1.578V7.664H95.639v5.249a1.173,1.173,0,0,0,.211.763.888.888,0,0,0,.719.254,3.5,3.5,0,0,0,.688-.094V15a4.215,4.215,0,0,1-1.109.155,1.8,1.8,0,0,1-1.461-.586,2.517,2.517,0,0,1-.492-1.664V7.664H92.654V6.547h1.539V4.5ZM100.475,15H99.029V6.547h1.445ZM98.912,4.3a.863.863,0,0,1,.215-.594.807.807,0,0,1,.637-.242.819.819,0,0,1,.641.242.854.854,0,0,1,.219.594.826.826,0,0,1-.219.586.834.834,0,0,1-.641.234.821.821,0,0,1-.637-.234A.834.834,0,0,1,98.912,4.3Zm6.664,8.734,2.094-6.492h1.477L106.115,15h-1.1l-3.062-8.453h1.477Zm4.461-2.344a4.993,4.993,0,0,1,.488-2.234,3.643,3.643,0,0,1,1.359-1.531,3.7,3.7,0,0,1,1.988-.539,3.565,3.565,0,0,1,2.793,1.2,4.6,4.6,0,0,1,1.066,3.18v.1a5.036,5.036,0,0,1-.473,2.215,3.589,3.589,0,0,1-1.352,1.527,3.743,3.743,0,0,1-2.02.547,3.556,3.556,0,0,1-2.785-1.2,4.575,4.575,0,0,1-1.066-3.164Zm1.453.172a3.616,3.616,0,0,0,.652,2.258,2.211,2.211,0,0,0,3.5-.012,3.955,3.955,0,0,0,.648-2.418,3.61,3.61,0,0,0-.66-2.254,2.1,2.1,0,0,0-1.754-.863,2.075,2.075,0,0,0-1.727.852A3.925,3.925,0,0,0,111.49,10.867Zm12.977,1.891a1.064,1.064,0,0,0-.441-.91,4.249,4.249,0,0,0-1.539-.559,7.277,7.277,0,0,1-1.742-.562,2.479,2.479,0,0,1-.953-.781,1.869,1.869,0,0,1-.309-1.078,2.193,2.193,0,0,1,.879-1.758,3.432,3.432,0,0,1,2.246-.719,3.532,3.532,0,0,1,2.332.742,2.357,2.357,0,0,1,.895,1.9h-1.453a1.3,1.3,0,0,0-.5-1.023,1.888,1.888,0,0,0-1.27-.43,1.976,1.976,0,0,0-1.234.344,1.082,1.082,0,0,0-.445.9.877.877,0,0,0,.414.789,5.1,5.1,0,0,0,1.5.508,7.8,7.8,0,0,1,1.754.578,2.558,2.558,0,0,1,1,.809,1.988,1.988,0,0,1,.324,1.152,2.163,2.163,0,0,1-.906,1.816,3.8,3.8,0,0,1-2.352.684,4.257,4.257,0,0,1-1.8-.359,2.922,2.922,0,0,1-1.223-1,2.42,2.42,0,0,1-.441-1.395h1.445a1.5,1.5,0,0,0,.582,1.152,2.258,2.258,0,0,0,1.434.426,2.331,2.331,0,0,0,1.316-.332A1.02,1.02,0,0,0,124.467,12.758Zm6.906-2.062a4.993,4.993,0,0,1,.488-2.234,3.642,3.642,0,0,1,1.359-1.531,3.7,3.7,0,0,1,1.988-.539A3.565,3.565,0,0,1,138,7.586a4.6,4.6,0,0,1,1.066,3.18v.1a5.036,5.036,0,0,1-.473,2.215,3.589,3.589,0,0,1-1.352,1.527,3.743,3.743,0,0,1-2.02.547,3.556,3.556,0,0,1-2.785-1.2,4.575,4.575,0,0,1-1.066-3.164Zm1.453.172a3.616,3.616,0,0,0,.652,2.258,2.211,2.211,0,0,0,3.5-.012,3.954,3.954,0,0,0,.648-2.418,3.61,3.61,0,0,0-.66-2.254,2.1,2.1,0,0,0-1.754-.863,2.075,2.075,0,0,0-1.727.852A3.925,3.925,0,0,0,132.826,10.867ZM53.791,27.844a4.331,4.331,0,0,0-.711-.055A1.9,1.9,0,0,0,51.15,29v6H49.705V26.547h1.406l.023.977a2.251,2.251,0,0,1,2.016-1.133,1.477,1.477,0,0,1,.641.109Zm4.688,7.313a3.693,3.693,0,0,1-2.8-1.129,4.19,4.19,0,0,1-1.078-3.02v-.266a5.073,5.073,0,0,1,.48-2.246,3.748,3.748,0,0,1,1.344-1.547,3.378,3.378,0,0,1,1.871-.559,3.166,3.166,0,0,1,2.563,1.086,4.7,4.7,0,0,1,.914,3.109v.6H56.049a3,3,0,0,0,.73,2.02,2.3,2.3,0,0,0,1.777.77,2.517,2.517,0,0,0,1.3-.312,3.258,3.258,0,0,0,.93-.828l.883.688A3.55,3.55,0,0,1,58.478,35.156Zm-.18-7.578a1.928,1.928,0,0,0-1.469.637A3.1,3.1,0,0,0,56.1,30H60.33v-.109a2.753,2.753,0,0,0-.594-1.707A1.815,1.815,0,0,0,58.3,27.578ZM68.666,35a3.036,3.036,0,0,1-.2-.891,3.225,3.225,0,0,1-2.406,1.047,2.984,2.984,0,0,1-2.051-.707,2.287,2.287,0,0,1-.8-1.793,2.39,2.39,0,0,1,1-2.051,4.733,4.733,0,0,1,2.824-.73h1.406v-.664A1.623,1.623,0,0,0,67.986,28a1.821,1.821,0,0,0-1.336-.449,2.108,2.108,0,0,0-1.3.391,1.151,1.151,0,0,0-.523.945H63.377a2,2,0,0,1,.449-1.223,3.066,3.066,0,0,1,1.219-.934,4.1,4.1,0,0,1,1.691-.344,3.342,3.342,0,0,1,2.289.73,2.635,2.635,0,0,1,.859,2.012v3.891a4.757,4.757,0,0,0,.3,1.852V35Zm-2.4-1.1a2.54,2.54,0,0,0,1.289-.352,2.127,2.127,0,0,0,.883-.914V30.9H67.307q-2.656,0-2.656,1.555a1.316,1.316,0,0,0,.453,1.063A1.742,1.742,0,0,0,66.268,33.9ZM73.721,35H72.275V23h1.445Zm5.82.156a3.693,3.693,0,0,1-2.8-1.129,4.19,4.19,0,0,1-1.078-3.02v-.266a5.073,5.073,0,0,1,.48-2.246,3.748,3.748,0,0,1,1.344-1.547,3.378,3.378,0,0,1,1.871-.559,3.166,3.166,0,0,1,2.563,1.086,4.7,4.7,0,0,1,.914,3.109v.6H77.111a3,3,0,0,0,.73,2.02,2.3,2.3,0,0,0,1.777.77,2.517,2.517,0,0,0,1.3-.312,3.259,3.259,0,0,0,.93-.828l.883.688A3.55,3.55,0,0,1,79.541,35.156Zm-.18-7.578a1.928,1.928,0,0,0-1.469.637A3.1,3.1,0,0,0,77.158,30h4.234v-.109a2.753,2.753,0,0,0-.594-1.707A1.815,1.815,0,0,0,79.361,27.578Zm10.07,5.18a1.064,1.064,0,0,0-.441-.91,4.249,4.249,0,0,0-1.539-.559,7.277,7.277,0,0,1-1.742-.562,2.478,2.478,0,0,1-.953-.781,1.869,1.869,0,0,1-.309-1.078,2.193,2.193,0,0,1,.879-1.758,3.432,3.432,0,0,1,2.246-.719,3.532,3.532,0,0,1,2.332.742,2.357,2.357,0,0,1,.895,1.9H89.346a1.3,1.3,0,0,0-.5-1.023,1.888,1.888,0,0,0-1.27-.43,1.976,1.976,0,0,0-1.234.344,1.082,1.082,0,0,0-.445.9.877.877,0,0,0,.414.789,5.1,5.1,0,0,0,1.5.508,7.8,7.8,0,0,1,1.754.578,2.558,2.558,0,0,1,1,.809,1.988,1.988,0,0,1,.324,1.152,2.163,2.163,0,0,1-.906,1.816,3.8,3.8,0,0,1-2.352.684,4.257,4.257,0,0,1-1.8-.359,2.922,2.922,0,0,1-1.223-1,2.42,2.42,0,0,1-.441-1.395H85.6a1.5,1.5,0,0,0,.582,1.152,2.258,2.258,0,0,0,1.434.426,2.331,2.331,0,0,0,1.316-.332A1.02,1.02,0,0,0,89.432,32.758Z" transform="translate(842.823 3129.81)" fill="#12263f"/>
    <path id="Trazado_232748" data-name="Trazado 232748" d="M16,0H274.811a16,16,0,0,1,16,16V47.978a16,16,0,0,1-16,16H16a16,16,0,0,1-16-16V16A16,16,0,0,1,16,0Z" transform="translate(663.592 2787.121)" fill="#26c7db"/>
    <path id="Trazado_232749" data-name="Trazado 232749" d="M68.088,4.2l2.856,8.9,2.848-8.9h4.061V17H74.759V14.012l.3-6.117L71.964,17H69.925l-3.1-9.114.3,6.126V17H64.037V4.2ZM84.278,17.176a4.889,4.889,0,0,1-3.542-1.305,4.507,4.507,0,0,1-1.354-3.4v-.246a5.84,5.84,0,0,1,.541-2.575A3.955,3.955,0,0,1,81.5,7.925a4.763,4.763,0,0,1,2.461-.611,4.117,4.117,0,0,1,3.164,1.244,4.887,4.887,0,0,1,1.16,3.467v1.151H82.4a2.135,2.135,0,0,0,.694,1.257,2.066,2.066,0,0,0,1.389.457,2.662,2.662,0,0,0,2.2-.984l1.354,1.6a3.784,3.784,0,0,1-1.569,1.217A5.3,5.3,0,0,1,84.278,17.176ZM83.944,9.6q-1.3,0-1.547,1.723h2.988v-.229a1.467,1.467,0,0,0-.36-1.1A1.434,1.434,0,0,0,83.944,9.6Zm11.285.571-.976-.07a1.752,1.752,0,0,0-1.793.879V17H89.5V7.49h2.777l.1,1.222a2.294,2.294,0,0,1,2.083-1.4,2.888,2.888,0,0,1,.826.105Zm4.922,4.72a1.317,1.317,0,0,0,.967-.338,1.241,1.241,0,0,0,.334-.945h2.777a3.288,3.288,0,0,1-1.121,2.566,4.168,4.168,0,0,1-2.887,1,4.22,4.22,0,0,1-3.27-1.3,5.125,5.125,0,0,1-1.2-3.6v-.123A5.792,5.792,0,0,1,96.288,9.6a3.872,3.872,0,0,1,1.534-1.7,4.573,4.573,0,0,1,2.373-.593,4.116,4.116,0,0,1,2.944,1.028,3.647,3.647,0,0,1,1.09,2.786h-2.777a1.626,1.626,0,0,0-.36-1.134,1.244,1.244,0,0,0-.967-.4q-1.151,0-1.345,1.468a10.357,10.357,0,0,0-.062,1.283,4.068,4.068,0,0,0,.343,1.986A1.187,1.187,0,0,0,100.151,14.891ZM110.838,17a3.344,3.344,0,0,1-.281-.853,2.754,2.754,0,0,1-2.285,1.028,3.374,3.374,0,0,1-2.285-.813,2.588,2.588,0,0,1-.94-2.043,2.66,2.66,0,0,1,1.143-2.338,5.821,5.821,0,0,1,3.322-.791h.914v-.5q0-1.316-1.134-1.316a.927.927,0,0,0-1.055,1.042h-2.962a2.655,2.655,0,0,1,1.173-2.239,4.931,4.931,0,0,1,2.993-.86,4.323,4.323,0,0,1,2.874.888,3.086,3.086,0,0,1,1.081,2.435v4.21a4.311,4.311,0,0,0,.4,2V17Zm-1.854-1.934a1.652,1.652,0,0,0,.918-.237,1.487,1.487,0,0,0,.523-.536V12.772h-.861q-1.547,0-1.547,1.389a.848.848,0,0,0,.272.655A.986.986,0,0,0,108.984,15.066Zm5.678-2.892a5.809,5.809,0,0,1,.976-3.56,3.211,3.211,0,0,1,2.725-1.3,2.731,2.731,0,0,1,2.145,1V3.5h2.971V17h-2.663l-.149-1.02a2.8,2.8,0,0,1-2.32,1.2,3.205,3.205,0,0,1-2.689-1.3A5.993,5.993,0,0,1,114.662,12.175Zm2.962.185q0,2.531,1.477,2.531a1.458,1.458,0,0,0,1.406-.826V10.443a1.419,1.419,0,0,0-1.389-.844q-1.371,0-1.485,2.215Zm7.163-.2a5.613,5.613,0,0,1,.554-2.536,3.96,3.96,0,0,1,1.591-1.709,4.791,4.791,0,0,1,2.435-.6,4.373,4.373,0,0,1,3.366,1.323,5.076,5.076,0,0,1,1.23,3.6v.105a4.925,4.925,0,0,1-1.235,3.529,4.384,4.384,0,0,1-3.344,1.305,4.434,4.434,0,0,1-3.261-1.217,4.761,4.761,0,0,1-1.327-3.3Zm2.962.185a3.538,3.538,0,0,0,.413,1.934,1.376,1.376,0,0,0,1.222.615q1.582,0,1.617-2.435v-.3Q131,9.6,129.366,9.6q-1.485,0-1.608,2.206Zm11.628-.167a5.809,5.809,0,0,1,.976-3.56,3.211,3.211,0,0,1,2.725-1.3,2.731,2.731,0,0,1,2.145,1V3.5h2.971V17h-2.663l-.149-1.02a2.8,2.8,0,0,1-2.32,1.2,3.205,3.205,0,0,1-2.689-1.3A5.993,5.993,0,0,1,139.376,12.175Zm2.962.185q0,2.531,1.477,2.531a1.458,1.458,0,0,0,1.406-.826V10.443a1.419,1.419,0,0,0-1.389-.844q-1.371,0-1.485,2.215Zm12.138,4.816a4.889,4.889,0,0,1-3.542-1.305,4.507,4.507,0,0,1-1.354-3.4v-.246a5.84,5.84,0,0,1,.541-2.575A3.955,3.955,0,0,1,151.7,7.925a4.763,4.763,0,0,1,2.461-.611,4.117,4.117,0,0,1,3.164,1.244,4.887,4.887,0,0,1,1.16,3.467v1.151H152.6a2.135,2.135,0,0,0,.694,1.257,2.066,2.066,0,0,0,1.389.457,2.662,2.662,0,0,0,2.2-.984l1.354,1.6a3.784,3.784,0,0,1-1.569,1.217A5.3,5.3,0,0,1,154.476,17.176ZM154.142,9.6q-1.3,0-1.547,1.723h2.988v-.229a1.467,1.467,0,0,0-.36-1.1A1.434,1.434,0,0,0,154.142,9.6Zm14.036,5.291a1.317,1.317,0,0,0,.967-.338,1.241,1.241,0,0,0,.334-.945h2.777a3.288,3.288,0,0,1-1.121,2.566,4.168,4.168,0,0,1-2.887,1,4.22,4.22,0,0,1-3.27-1.3,5.125,5.125,0,0,1-1.2-3.6v-.123a5.792,5.792,0,0,1,.532-2.544,3.872,3.872,0,0,1,1.534-1.7,4.573,4.573,0,0,1,2.373-.593,4.116,4.116,0,0,1,2.944,1.028,3.647,3.647,0,0,1,1.09,2.786h-2.777a1.626,1.626,0,0,0-.36-1.134,1.244,1.244,0,0,0-.967-.4q-1.151,0-1.345,1.468a10.357,10.357,0,0,0-.062,1.283,4.068,4.068,0,0,0,.343,1.986A1.187,1.187,0,0,0,168.178,14.891ZM176.633,17h-2.971V3.5h2.971Zm4.948,0h-2.971V7.49h2.971ZM178.435,5.029a1.334,1.334,0,0,1,.457-1.043,1.934,1.934,0,0,1,2.373,0,1.334,1.334,0,0,1,.457,1.043,1.334,1.334,0,0,1-.457,1.043,1.934,1.934,0,0,1-2.373,0A1.334,1.334,0,0,1,178.435,5.029Zm9.571,12.146a4.889,4.889,0,0,1-3.542-1.305,4.507,4.507,0,0,1-1.354-3.4v-.246a5.84,5.84,0,0,1,.541-2.575,3.955,3.955,0,0,1,1.578-1.727,4.763,4.763,0,0,1,2.461-.611,4.117,4.117,0,0,1,3.164,1.244,4.887,4.887,0,0,1,1.16,3.467v1.151h-5.889a2.135,2.135,0,0,0,.694,1.257,2.066,2.066,0,0,0,1.389.457,2.662,2.662,0,0,0,2.2-.984l1.354,1.6a3.784,3.784,0,0,1-1.569,1.217A5.3,5.3,0,0,1,188.006,17.176ZM187.672,9.6q-1.3,0-1.547,1.723h2.988v-.229a1.467,1.467,0,0,0-.36-1.1A1.434,1.434,0,0,0,187.672,9.6Zm8.253-2.109.1,1.116a3.225,3.225,0,0,1,2.716-1.292,2.713,2.713,0,0,1,2.219.888,4.226,4.226,0,0,1,.76,2.672V17h-2.971V11a1.6,1.6,0,0,0-.29-1.059A1.342,1.342,0,0,0,197.4,9.6a1.413,1.413,0,0,0-1.292.686V17h-2.962V7.49Zm10.881-2.364V7.49h1.564V9.547h-1.564V13.9a1.111,1.111,0,0,0,.193.747,1.037,1.037,0,0,0,.765.211,4.345,4.345,0,0,0,.738-.053v2.118a5.466,5.466,0,0,1-1.67.255,3.1,3.1,0,0,1-2.259-.721,2.954,2.954,0,0,1-.729-2.188V9.547h-1.213V7.49h1.213V5.126Zm7.33,12.05a4.889,4.889,0,0,1-3.542-1.305,4.507,4.507,0,0,1-1.354-3.4v-.246a5.84,5.84,0,0,1,.541-2.575,3.955,3.955,0,0,1,1.578-1.727,4.763,4.763,0,0,1,2.461-.611,4.117,4.117,0,0,1,3.164,1.244,4.887,4.887,0,0,1,1.16,3.467v1.151h-5.889a2.135,2.135,0,0,0,.694,1.257,2.066,2.066,0,0,0,1.389.457,2.662,2.662,0,0,0,2.2-.984l1.354,1.6a3.784,3.784,0,0,1-1.569,1.217A5.3,5.3,0,0,1,214.136,17.176ZM213.8,9.6q-1.3,0-1.547,1.723h2.988v-.229a1.467,1.467,0,0,0-.36-1.1A1.434,1.434,0,0,0,213.8,9.6Zm10.512,4.729a.684.684,0,0,0-.4-.606,6.016,6.016,0,0,0-1.5-.475,6.853,6.853,0,0,1-1.828-.646,3.062,3.062,0,0,1-1.1-.971,2.319,2.319,0,0,1-.378-1.31,2.628,2.628,0,0,1,1.081-2.158,4.453,4.453,0,0,1,2.83-.848,4.934,4.934,0,0,1,3.023.853,2.666,2.666,0,0,1,1.143,2.241h-2.971q0-1.143-1.2-1.143a1.194,1.194,0,0,0-.782.259.8.8,0,0,0-.316.646.737.737,0,0,0,.387.642,3.654,3.654,0,0,0,1.235.4,10.671,10.671,0,0,1,1.49.378,2.706,2.706,0,0,1,2.145,2.646,2.491,2.491,0,0,1-1.156,2.118,5.068,5.068,0,0,1-2.993.817,5.172,5.172,0,0,1-2.18-.439,3.645,3.645,0,0,1-1.494-1.2,2.707,2.707,0,0,1-.536-1.591h2.769a1.145,1.145,0,0,0,.439.962,1.808,1.808,0,0,0,1.081.3,1.422,1.422,0,0,0,.91-.246A.787.787,0,0,0,224.314,14.328Z" transform="translate(663.592 2804.569)" fill="#12263f"/>
    <g id="Grupo_156319" data-name="Grupo 156319" transform="matrix(0.951, -0.309, 0.309, 0.951, 413.093, 2875.66)">
      <g id="Grupo_130269" data-name="Grupo 130269" transform="translate(230.06 192.908) rotate(180)">
        <g id="Grupo_130268" data-name="Grupo 130268" transform="translate(0 0)">
          <ellipse id="Elipse_5852" data-name="Elipse 5852" cx="15.586" cy="15.587" rx="15.586" ry="15.587" transform="translate(152.754 151.432)" fill="#26c7db"/>
          <ellipse id="Elipse_5853" data-name="Elipse 5853" cx="15.586" cy="15.587" rx="15.586" ry="15.587" transform="translate(168.34 0)" fill="#26c7db"/>
          <path id="Trazado_196335" data-name="Trazado 196335" d="M16.8,8.4A8.4,8.4,0,1,1,8.4,0,8.4,8.4,0,0,1,16.8,8.4Z" transform="translate(213.26 40.467)" fill="#26c7db"/>
          <ellipse id="Elipse_5854" data-name="Elipse 5854" cx="8.315" cy="8.315" rx="8.315" ry="8.315" transform="translate(61.271 165.975)" fill="#26c7db"/>
          <ellipse id="Elipse_5855" data-name="Elipse 5855" cx="15.587" cy="15.587" rx="15.587" ry="15.587" transform="translate(0 161.735)" fill="#26c7db"/>
        </g>
      </g>
    </g>
    <g id="Grupo_80120" data-name="Grupo 80120" transform="translate(465.103 2873.439)">
      <ellipse id="Elipse_4756" data-name="Elipse 4756" cx="1.74" cy="1.74" rx="1.74" ry="1.74" transform="translate(0 93.354)" fill="#f57c22"/>
      <ellipse id="Elipse_4760" data-name="Elipse 4760" cx="1.74" cy="1.74" rx="1.74" ry="1.74" transform="translate(29.995 46.704)" fill="#f57c22"/>
      <ellipse id="Elipse_4761" data-name="Elipse 4761" cx="1.74" cy="1.74" rx="1.74" ry="1.74" transform="translate(29.995 70.057)" fill="#f57c22"/>
      <ellipse id="Elipse_4762" data-name="Elipse 4762" cx="1.74" cy="1.74" rx="1.74" ry="1.74" transform="translate(29.995 93.409)" fill="#f57c22"/>
      <ellipse id="Elipse_4763" data-name="Elipse 4763" cx="1.74" cy="1.74" rx="1.74" ry="1.74" transform="translate(29.995 116.761)" fill="#f57c22"/>
      <ellipse id="Elipse_4765" data-name="Elipse 4765" cx="1.74" cy="1.74" rx="1.74" ry="1.74" transform="translate(59.99 0)" fill="#f57c22"/>
      <ellipse id="Elipse_4766" data-name="Elipse 4766" cx="1.74" cy="1.74" rx="1.74" ry="1.74" transform="translate(59.99 23.352)" fill="#f57c22"/>
      <ellipse id="Elipse_4767" data-name="Elipse 4767" cx="1.74" cy="1.74" rx="1.74" ry="1.74" transform="translate(59.99 46.704)" fill="#f57c22"/>
      <ellipse id="Elipse_4768" data-name="Elipse 4768" cx="1.74" cy="1.74" rx="1.74" ry="1.74" transform="translate(59.99 70.057)" fill="#f57c22"/>
      <ellipse id="Elipse_4769" data-name="Elipse 4769" cx="1.74" cy="1.74" rx="1.74" ry="1.74" transform="translate(59.99 93.409)" fill="#f57c22"/>
      <ellipse id="Elipse_4770" data-name="Elipse 4770" cx="1.74" cy="1.74" rx="1.74" ry="1.74" transform="translate(59.99 116.761)" fill="#f57c22"/>
      <ellipse id="Elipse_4771" data-name="Elipse 4771" cx="1.74" cy="1.74" rx="1.74" ry="1.74" transform="translate(59.99 140.113)" fill="#f57c22"/>
      <ellipse id="Elipse_4773" data-name="Elipse 4773" cx="1.74" cy="1.74" rx="1.74" ry="1.74" transform="translate(89.985 0)" fill="#f57c22"/>
      <ellipse id="Elipse_4776" data-name="Elipse 4776" cx="1.74" cy="1.74" rx="1.74" ry="1.74" transform="translate(89.985 23.352)" fill="#f57c22"/>
      <ellipse id="Elipse_4777" data-name="Elipse 4777" cx="1.74" cy="1.74" rx="1.74" ry="1.74" transform="translate(89.985 46.704)" fill="#f57c22"/>
      <ellipse id="Elipse_4778" data-name="Elipse 4778" cx="1.74" cy="1.74" rx="1.74" ry="1.74" transform="translate(89.985 70.057)" fill="#f57c22"/>
      <ellipse id="Elipse_4779" data-name="Elipse 4779" cx="1.74" cy="1.74" rx="1.74" ry="1.74" transform="translate(89.985 93.409)" fill="#f57c22"/>
      <ellipse id="Elipse_4780" data-name="Elipse 4780" cx="1.74" cy="1.74" rx="1.74" ry="1.74" transform="translate(89.985 116.761)" fill="#f57c22"/>
      <ellipse id="Elipse_4781" data-name="Elipse 4781" cx="1.74" cy="1.74" rx="1.74" ry="1.74" transform="translate(89.985 140.113)" fill="#f57c22"/>
      <ellipse id="Elipse_4783" data-name="Elipse 4783" cx="1.74" cy="1.74" rx="1.74" ry="1.74" transform="translate(119.98 0)" fill="#f57c22"/>
      <ellipse id="Elipse_4784" data-name="Elipse 4784" cx="1.74" cy="1.74" rx="1.74" ry="1.74" transform="translate(119.98 23.352)" fill="#f57c22"/>
      <ellipse id="Elipse_4785" data-name="Elipse 4785" cx="1.74" cy="1.74" rx="1.74" ry="1.74" transform="translate(119.98 46.704)" fill="#f57c22"/>
      <ellipse id="Elipse_4786" data-name="Elipse 4786" cx="1.74" cy="1.74" rx="1.74" ry="1.74" transform="translate(119.98 70.057)" fill="#f57c22"/>
      <ellipse id="Elipse_4787" data-name="Elipse 4787" cx="1.74" cy="1.74" rx="1.74" ry="1.74" transform="translate(119.98 93.409)" fill="#f57c22"/>
      <ellipse id="Elipse_4788" data-name="Elipse 4788" cx="1.74" cy="1.74" rx="1.74" ry="1.74" transform="translate(119.98 116.761)" fill="#f57c22"/>
      <ellipse id="Elipse_4789" data-name="Elipse 4789" cx="1.74" cy="1.74" rx="1.74" ry="1.74" transform="translate(149.975 23.297)" fill="#f57c22"/>
      <ellipse id="Elipse_4791" data-name="Elipse 4791" cx="1.74" cy="1.74" rx="1.74" ry="1.74" transform="translate(149.975 0)" fill="#f57c22"/>
      <ellipse id="Elipse_4792" data-name="Elipse 4792" cx="1.74" cy="1.74" rx="1.74" ry="1.74" transform="translate(149.975 46.649)" fill="#f57c22"/>
      <ellipse id="Elipse_4793" data-name="Elipse 4793" cx="1.74" cy="1.74" rx="1.74" ry="1.74" transform="translate(149.975 70.002)" fill="#f57c22"/>
      <ellipse id="Elipse_4794" data-name="Elipse 4794" cx="1.74" cy="1.74" rx="1.74" ry="1.74" transform="translate(149.975 93.354)" fill="#f57c22"/>
    </g>
    <g id="Grupo_80119" data-name="Grupo 80119" transform="translate(964.259 2895.379)">
      <ellipse id="Elipse_4711" data-name="Elipse 4711" cx="2.015" cy="2.015" rx="2.015" ry="2.015" transform="translate(0 81.094)" fill="#26c7db"/>
      <ellipse id="Elipse_4712" data-name="Elipse 4712" cx="2.015" cy="2.015" rx="2.015" ry="2.015" transform="translate(0 108.147)" fill="#26c7db"/>
      <ellipse id="Elipse_4713" data-name="Elipse 4713" cx="2.015" cy="2.015" rx="2.015" ry="2.015" transform="translate(0 135.199)" fill="#26c7db"/>
      <ellipse id="Elipse_4714" data-name="Elipse 4714" cx="2.015" cy="2.015" rx="2.015" ry="2.015" transform="translate(0 162.252)" fill="#26c7db"/>
      <ellipse id="Elipse_4715" data-name="Elipse 4715" cx="2.015" cy="2.015" rx="2.015" ry="2.015" transform="translate(34.748 27.053)" fill="#26c7db"/>
      <ellipse id="Elipse_4716" data-name="Elipse 4716" cx="2.015" cy="2.015" rx="2.015" ry="2.015" transform="translate(34.748 54.105)" fill="#26c7db"/>
      <ellipse id="Elipse_4717" data-name="Elipse 4717" cx="2.015" cy="2.015" rx="2.015" ry="2.015" transform="translate(34.748 81.158)" fill="#26c7db"/>
      <ellipse id="Elipse_4718" data-name="Elipse 4718" cx="2.015" cy="2.015" rx="2.015" ry="2.015" transform="translate(34.748 108.21)" fill="#26c7db"/>
      <ellipse id="Elipse_4719" data-name="Elipse 4719" cx="2.015" cy="2.015" rx="2.015" ry="2.015" transform="translate(34.748 135.263)" fill="#26c7db"/>
      <ellipse id="Elipse_4720" data-name="Elipse 4720" cx="2.015" cy="2.015" rx="2.015" ry="2.015" transform="translate(34.748 162.316)" fill="#26c7db"/>
      <ellipse id="Elipse_4721" data-name="Elipse 4721" cx="2.015" cy="2.015" rx="2.015" ry="2.015" transform="translate(34.748 189.368)" fill="#26c7db"/>
      <ellipse id="Elipse_4722" data-name="Elipse 4722" cx="2.015" cy="2.015" rx="2.015" ry="2.015" transform="translate(69.496 27.053)" fill="#26c7db"/>
      <ellipse id="Elipse_4723" data-name="Elipse 4723" cx="2.015" cy="2.015" rx="2.015" ry="2.015" transform="translate(69.496 54.105)" fill="#26c7db"/>
      <ellipse id="Elipse_4724" data-name="Elipse 4724" cx="2.015" cy="2.015" rx="2.015" ry="2.015" transform="translate(69.496 81.158)" fill="#26c7db"/>
      <ellipse id="Elipse_4725" data-name="Elipse 4725" cx="2.015" cy="2.015" rx="2.015" ry="2.015" transform="translate(69.496 108.21)" fill="#26c7db"/>
      <ellipse id="Elipse_4726" data-name="Elipse 4726" cx="2.015" cy="2.015" rx="2.015" ry="2.015" transform="translate(69.496 135.263)" fill="#26c7db"/>
      <ellipse id="Elipse_4727" data-name="Elipse 4727" cx="2.015" cy="2.015" rx="2.015" ry="2.015" transform="translate(69.496 162.316)" fill="#26c7db"/>
      <ellipse id="Elipse_4728" data-name="Elipse 4728" cx="2.015" cy="2.015" rx="2.015" ry="2.015" transform="translate(69.496 189.368)" fill="#26c7db"/>
      <ellipse id="Elipse_4729" data-name="Elipse 4729" cx="2.015" cy="2.015" rx="2.015" ry="2.015" transform="translate(69.496 216.421)" fill="#26c7db"/>
      <ellipse id="Elipse_4731" data-name="Elipse 4731" cx="2.015" cy="2.015" rx="2.015" ry="2.015" transform="translate(104.244 54.105)" fill="#26c7db"/>
      <ellipse id="Elipse_4732" data-name="Elipse 4732" cx="2.015" cy="2.015" rx="2.015" ry="2.015" transform="translate(69.496 0)" fill="#26c7db"/>
      <ellipse id="Elipse_4734" data-name="Elipse 4734" cx="2.015" cy="2.015" rx="2.015" ry="2.015" transform="translate(104.244 81.158)" fill="#26c7db"/>
      <ellipse id="Elipse_4735" data-name="Elipse 4735" cx="2.015" cy="2.015" rx="2.015" ry="2.015" transform="translate(104.244 108.21)" fill="#26c7db"/>
      <ellipse id="Elipse_4736" data-name="Elipse 4736" cx="2.015" cy="2.015" rx="2.015" ry="2.015" transform="translate(104.244 135.263)" fill="#26c7db"/>
      <ellipse id="Elipse_4737" data-name="Elipse 4737" cx="2.015" cy="2.015" rx="2.015" ry="2.015" transform="translate(104.244 162.316)" fill="#26c7db"/>
      <ellipse id="Elipse_4738" data-name="Elipse 4738" cx="2.015" cy="2.015" rx="2.015" ry="2.015" transform="translate(104.244 189.368)" fill="#26c7db"/>
      <ellipse id="Elipse_4739" data-name="Elipse 4739" cx="2.015" cy="2.015" rx="2.015" ry="2.015" transform="translate(104.244 216.421)" fill="#26c7db"/>
      <ellipse id="Elipse_4743" data-name="Elipse 4743" cx="2.015" cy="2.015" rx="2.015" ry="2.015" transform="translate(138.992 108.21)" fill="#26c7db"/>
      <ellipse id="Elipse_4744" data-name="Elipse 4744" cx="2.015" cy="2.015" rx="2.015" ry="2.015" transform="translate(138.992 135.263)" fill="#26c7db"/>
      <ellipse id="Elipse_4745" data-name="Elipse 4745" cx="2.015" cy="2.015" rx="2.015" ry="2.015" transform="translate(138.992 162.316)" fill="#26c7db"/>
      <ellipse id="Elipse_4746" data-name="Elipse 4746" cx="2.015" cy="2.015" rx="2.015" ry="2.015" transform="translate(138.992 189.368)" fill="#26c7db"/>
      <ellipse id="Elipse_4748" data-name="Elipse 4748" cx="2.015" cy="2.015" rx="2.015" ry="2.015" transform="translate(0 54.105)" fill="#26c7db"/>
      <ellipse id="Elipse_4752" data-name="Elipse 4752" cx="2.015" cy="2.015" rx="2.015" ry="2.015" transform="translate(173.74 162.252)" fill="#26c7db"/>
    </g>
    <g id="Grupo_156320" data-name="Grupo 156320" transform="matrix(-0.259, 0.966, -0.966, -0.259, 1120.048, 2962.69)">
      <g id="Grupo_130269-2" data-name="Grupo 130269" transform="translate(230.06 192.908) rotate(180)">
        <g id="Grupo_130268-2" data-name="Grupo 130268" transform="translate(0 0)">
          <ellipse id="Elipse_5852-2" data-name="Elipse 5852" cx="15.587" cy="15.586" rx="15.587" ry="15.586" transform="translate(152.755 151.432)" fill="#f57c22"/>
          <ellipse id="Elipse_5853-2" data-name="Elipse 5853" cx="15.587" cy="15.586" rx="15.587" ry="15.586" transform="translate(168.34 0)" fill="#f57c22"/>
          <path id="Trazado_196335-2" data-name="Trazado 196335" d="M16.8,8.4A8.4,8.4,0,1,1,8.4,0,8.4,8.4,0,0,1,16.8,8.4Z" transform="translate(213.261 40.467)" fill="#f57c22"/>
          <ellipse id="Elipse_5854-2" data-name="Elipse 5854" cx="8.315" cy="8.315" rx="8.315" ry="8.315" transform="translate(61.271 165.975)" fill="#f57c22"/>
          <ellipse id="Elipse_5855-2" data-name="Elipse 5855" cx="15.587" cy="15.587" rx="15.587" ry="15.587" transform="translate(0 161.735)" fill="#f57c22"/>
        </g>
      </g>
    </g>
    <path id="Trazado_231620" data-name="Trazado 231620" d="M3205.659,2652.594H3183.4a3.41,3.41,0,0,1-.2-2.055c.007-.713-.279-.986-.957-1.1a40.059,40.059,0,0,1-20.277-9.644c-.488-.429-.784-.353-1.19.061-1.454,1.48-1.273,1.575-2.9-.091-.652-.666-.636-.834.023-1.53,1.192-1.257,1.192-1.257.081-2.558a40.32,40.32,0,0,1-9.323-21.318,13.59,13.59,0,0,1-.212-2.515c.031-.6-.2-.848-.823-.865-1.91-.053-1.909-.074-1.908-1.942,0-1.177,0-1.177,1.151-1.191.225,0,.451-.017.674,0,.636.055.869-.2.918-.861a40.461,40.461,0,0,1,10.164-24.446c.393-.445.469-.806,0-1.212a1.287,1.287,0,0,1-.177-.18c-.358-.474-1.19-.774-.977-1.45a4.013,4.013,0,0,1,1.638-1.758c.277-.207.537-.038.76.149a12.75,12.75,0,0,1,1.026,1,.705.705,0,0,0,1.152.02,39.318,39.318,0,0,1,10.177-6.679,7.324,7.324,0,0,1,.85-.369,3.314,3.314,0,0,0,1.582-1.191,11.615,11.615,0,0,1,9.521-4.717c6.885.033,13.77.009,20.655.009,1,0,1.046.031,1.056,1.031.014,1.461.026,2.923-.006,4.384a1.331,1.331,0,0,0,.865,1.378,38.582,38.582,0,0,1,8.974,5.927c.788.694.854.671,1.582-.048,1.284-1.269,1.284-1.269,2.546.009.918.929.918,1.025,0,1.958-.079.08-.159.159-.239.239-.792.8-.783.885-.061,1.713a39.921,39.921,0,0,1,9.61,21.092,26.81,26.81,0,0,1,.34,3.265c.01.541.23.732.763.749.63.021,1.3-.189,1.887.212v2.7c-.562.388-1.2.2-1.8.2s-.818.206-.862.827a40.781,40.781,0,0,1-5.058,17.308,38.74,38.74,0,0,1-5.1,7.191c-.431.475-.458.865.048,1.271a.677.677,0,0,1,.119.119c.359.475,1.195.777.99,1.441-.238.771-1,1.257-1.631,1.764-.271.216-.532.052-.758-.135-.324-.27-.606-.584-.908-.877-.635-.616-.752-.626-1.385-.049a37.857,37.857,0,0,1-4.521,3.5,35.85,35.85,0,0,1-4.615,2.6,1.187,1.187,0,0,0-.784,1.235c.025,1.459.012,2.919,0,4.379A1.388,1.388,0,0,1,3205.659,2652.594Z" transform="translate(-2275.96 462.534)"/>
    <path id="Trazado_231621" data-name="Trazado 231621" d="M3220.334,2652.258c.341,3.063,1.664,4.982,4.177,5.5a2.175,2.175,0,0,1,1.988,1.89,8.815,8.815,0,0,0,3.73,5.031c.22.152.514.225.665.547a12.682,12.682,0,0,0-6.334,11.82c.019.574.355.451.668.451q3.5.005,7,0c.377,0,.7-.061.692.528-.026,3.116-.012,6.233-.012,9.5a8.8,8.8,0,0,0-3.552-1.573c-2.843-.5-5.01,1.33-4.751,4.016a5.624,5.624,0,0,0,.644,1.809,23.947,23.947,0,0,1,2.045,11.8,29.087,29.087,0,0,1-6.956-51.315Z" transform="translate(-2324.093 395.838)" fill="#fed935"/>
    <path id="Trazado_231622" data-name="Trazado 231622" d="M3372.879,2696.483c0-2.521-.083-4.912.02-7.295a4.216,4.216,0,0,0-5.9-4.318c-.294.144-.435.036-.624-.183a3.987,3.987,0,0,0-4.909-1.224c-.345.142-.488.033-.693-.207a3.951,3.951,0,0,0-4.13-1.435c-.385.089-.486-.017-.48-.4.019-1.1.034-2.192-.006-3.287-.019-.527.147-.658.663-.652,2.332.028,4.664-.005,7,.025.546.007.692-.135.7-.69.047-5.084-1.808-8.527-6.3-11.606,0-.131.085-.187.185-.249a9.687,9.687,0,0,0,4.513-6.42c.077-.36.178-.5.56-.559,3.382-.559,5.038-2.384,5.239-5.726C3383.091,2661.712,3385.8,2683.454,3372.879,2696.483Z" transform="translate(-2438.976 395.834)" fill="#fed935"/>
    <path id="Trazado_231623" data-name="Trazado 231623" d="M3302.829,2752.518c0-3.821-.007-7.643.006-11.464a1.38,1.38,0,0,1,1.368-1.5,1.4,1.4,0,0,1,1.379,1.491c.009.2,0,.393,0,.59v7c0,5.058.011,10.116-.014,15.173,0,.639.127.863.819.848,2.007-.041,2.008-.007,2.008-2q0-4.426,0-8.851c0-1.079.474-1.661,1.335-1.684.9-.023,1.416.58,1.418,1.687.006,3.316.031,6.632-.02,9.947-.012.779.226.922.94.9,1.894-.048,1.894-.014,1.894-1.946q0-3.751,0-7.5c0-1.122.5-1.716,1.4-1.7.863.014,1.349.6,1.351,1.67.007,2.894.022,5.789-.013,8.683-.007.627.15.8.789.8,2.036-.029,2.036,0,2.036-2.054,0-2.023-.005-4.046,0-6.07,0-1.03.54-1.655,1.386-1.65s1.368.622,1.369,1.667c.007,5.227-.021,10.453.012,15.679.016,2.629-1.34,4.5-3.172,6.146a1.044,1.044,0,0,1-.795.178q-8.556,0-17.112.009a1.462,1.462,0,0,1-1.043-.408,8.137,8.137,0,0,1-2.95-6.925,27.11,27.11,0,0,0-1.968-12.111c-.22-.515-.474-1.016-.681-1.536-.308-.776.1-1.329.944-1.306a4.694,4.694,0,0,1,4.462,4.351c.052,1.149.037,2.3.013,3.455-.009.451.146.555.578.57,2.245.076,2.245.089,2.245-2.183Q3302.828,2757.492,3302.829,2752.518Z" transform="translate(-2391.204 328.217)" fill="#efcfb3"/>
    <path id="Trazado_231624" data-name="Trazado 231624" d="M3300.669,2625.882c0-1.629-.064-3.262.02-4.886a4.345,4.345,0,0,1,1.909-3.234.67.67,0,0,1,.959,0,10.933,10.933,0,0,0,7,2.242c1.687,0,3.373-.007,5.059,0,1.215.006,1.706.469,1.713,1.668.016,2.642.05,5.285-.006,7.926a6.956,6.956,0,0,1-7.263,7.107,15.607,15.607,0,0,1-4.357-.275,6.826,6.826,0,0,1-5.017-6.005c-.106-1.51-.019-3.032-.019-4.55Z" transform="translate(-2395.964 422.713)" fill="#efcfb3"/>
    <path id="Trazado_231625" data-name="Trazado 231625" d="M3293.642,2578.912c3.089,0,6.178.017,9.267-.013.617-.006.825.142.809.79-.08,3.171.087,6.345-.1,9.515-.008.14-.02.28-.037.42-.078.662-.131.987-1.084.745a4.169,4.169,0,0,1-2.823-1.8,3.4,3.4,0,0,0-2.969-1.317c-1.825-.007-3.651-.022-5.476,0a8.11,8.11,0,0,1-6.136-2.478,1.017,1.017,0,0,0-1.246-.271,7.339,7.339,0,0,0-4.836,4.886.842.842,0,0,1-.928.71,2.386,2.386,0,0,0-1.142.234c-.829.5-.892-.053-.985-.626a9.3,9.3,0,0,1,8.671-10.745c3-.127,6.008-.023,9.012-.023Z" transform="translate(-2376.762 452.663)" fill="#ae665a"/>
    <path id="Trazado_231626" data-name="Trazado 231626" d="M3173.733,2764.152c.674,0,1.353.048,2.022-.013.643-.058.815.2.846.8a30.229,30.229,0,0,0,2.17,9.643,30.826,30.826,0,0,0,5.64,9.215c.443.5.4.761-.063,1.19-1.028.957-2.011,1.962-2.985,2.975-.32.333-.491.384-.831,0a37.32,37.32,0,0,1-9.323-20.52c-.108-.863-.132-1.738-.261-2.6-.09-.6.143-.725.678-.7C3172.327,2764.179,3173.031,2764.152,3173.733,2764.152Z" transform="translate(-2295.498 309.182)" fill="#fda829"/>
    <path id="Trazado_231627" data-name="Trazado 231627" d="M3454.046,2669.367c-.841,0-1.851.289-2.479-.077-.7-.41-.329-1.541-.432-2.349a31.873,31.873,0,0,0-7.751-17.309c-.353-.4-.359-.622.035-.994,1.021-.962,2.005-1.964,2.981-2.973.326-.337.515-.467.906-.026a37.436,37.436,0,0,1,9.143,19.251c.206,1.275.308,2.56.413,3.846.045.55-.115.688-.627.664-.728-.034-1.459-.009-2.189-.009Z" transform="translate(-2506.34 401.183)" fill="#fda829"/>
    <path id="Trazado_231628" data-name="Trazado 231628" d="M3454.177,2764.113c.73,0,1.461.013,2.191-.006.4-.01.533.1.508.533a37.58,37.58,0,0,1-9.57,23.206c-.382.435-.572.33-.906-.017-.955-.992-1.914-1.982-2.928-2.912-.471-.431-.427-.677-.029-1.126a31.194,31.194,0,0,0,6.494-11.584,28.7,28.7,0,0,0,1.322-7.182c.031-.679.2-1.028.98-.929A15.57,15.57,0,0,0,3454.177,2764.113Z" transform="translate(-2506.349 309.22)" fill="#fda829"/>
    <path id="Trazado_231629" data-name="Trazado 231629" d="M3173.877,2669.525c-.73,0-1.461-.02-2.191.007-.452.017-.562-.137-.534-.588a37.686,37.686,0,0,1,9.491-23.06c.385-.443.606-.488,1.024-.04q1.377,1.479,2.86,2.858c.442.411.479.65.057,1.124a31.059,31.059,0,0,0-6.335,11.1,28.367,28.367,0,0,0-1.467,7.576c-.036.827-.292,1.148-1.138,1.036A13.586,13.586,0,0,0,3173.877,2669.525Z" transform="translate(-2295.667 401.05)" fill="#fda829"/>
    <path id="Trazado_231630" data-name="Trazado 231630" d="M3244.174,2876.8a36.945,36.945,0,0,1-6.781-1.741,37.755,37.755,0,0,1-12.226-7.259c-.446-.393-.579-.6-.069-1.066,1.056-.966,2.061-1.99,3.04-3.034.371-.4.58-.331.939-.011a31.072,31.072,0,0,0,11.073,6.375c.26.086.527.153.605.5a10.738,10.738,0,0,0,3.493,5.531,1.1,1.1,0,0,1,.352.454C3244.684,2876.882,3244.413,2876.808,3244.174,2876.8Z" transform="translate(-2337.204 232.263)" fill="#fda829"/>
    <path id="Trazado_231631" data-name="Trazado 231631" d="M3311.648,2723.192c-.7,0-1.407-.035-2.106.011-.542.036-.682-.175-.648-.676a5.216,5.216,0,0,0-.235-2.078,4.171,4.171,0,0,0-4.568-2.791,4.216,4.216,0,0,0-3.567,4c-.092,1.535-.092,1.535-1.629,1.535-1.04,0-2.08-.022-3.119.009-.54.017-.736-.072-.6-.692a9.754,9.754,0,0,1,19.081.056c.1.488.02.661-.5.636C3313.055,2723.166,3312.351,2723.192,3311.648,2723.192Z" transform="translate(-2391.707 347.383)" fill="#f57c22"/>
    <path id="Trazado_231632" data-name="Trazado 231632" d="M3233.852,2608.422a11.5,11.5,0,0,0,.073,5.674.557.557,0,0,1-.329.732,28.36,28.36,0,0,0-4.595,3.4c-.34.311-.53.22-.807-.065-1.018-1.047-2.058-2.072-3.089-3.106-.21-.211-.469-.35-.116-.728A35.081,35.081,0,0,1,3233.852,2608.422Z" transform="translate(-2337.238 429.793)" fill="#fda829"/>
    <path id="Trazado_231633" data-name="Trazado 231633" d="M3409.622,2615.047a16.187,16.187,0,0,0,.452-5.218c-.006-.53.146-.552.569-.333a38.077,38.077,0,0,1,7.933,5.5c.308.277.31.445.02.729q-1.658,1.617-3.277,3.274c-.232.237-.379.228-.615.018a32.263,32.263,0,0,0-4.8-3.542C3409.684,2615.341,3409.548,2615.2,3409.622,2615.047Z" transform="translate(-2480.375 429.063)" fill="#fda829"/>
    <path id="Trazado_231634" data-name="Trazado 231634" d="M3333.5,2924.917c2.554,0,5.109.019,7.662-.014.6-.008.745.173.742.753-.012,2.028.01,2.028-2,2.028-4.6,0-9.207-.014-13.81.015-.7,0-.981-.117-.958-.9.057-1.877.013-1.878,1.881-1.878Z" transform="translate(-2414.942 184.646)" fill="#f57c22"/>
    <path id="Trazado_231635" data-name="Trazado 231635" d="M3428.759,2871.054c.6-2.175.295-4.344.348-6.487a1.126,1.126,0,0,1,.439-1.013c.255-.188.395-.2.622.031,1.082,1.1,2.183,2.188,3.272,3.284.146.147.394.288.121.542A28.459,28.459,0,0,1,3428.759,2871.054Z" transform="translate(-2495.214 232.277)" fill="#fda829"/>
    <path id="Trazado_231636" data-name="Trazado 231636" d="M3278.607,2643.556c0,.758-.025,1.516.009,2.273.021.46-.183.5-.552.438a2.8,2.8,0,0,1,.074-5.5c.4-.062.483.075.475.434C3278.594,2641.985,3278.607,2642.771,3278.607,2643.556Z" transform="translate(-2376.741 404.752)" fill="#eecfb3"/>
    <path id="Trazado_231637" data-name="Trazado 231637" d="M3389.79,2643.5a2.855,2.855,0,0,1-2.246,2.782c-.364.064-.564.032-.557-.433.026-1.543.023-3.086,0-4.629-.006-.455.168-.5.554-.417A2.85,2.85,0,0,1,3389.79,2643.5Z" transform="translate(-2462.857 404.738)" fill="#eecfb3"/>
    <path id="Trazado_231638" data-name="Trazado 231638" d="M3318.833,2674.073a5.712,5.712,0,0,1-4.616-3c-.248-.41-.216-.633.245-.8a3.657,3.657,0,0,0,.75-.378c.743-.484,1.215-.6,1.888.335a2.98,2.98,0,0,0,4.873-.371c.284-.439.48-.585.949-.277a6.066,6.066,0,0,0,1.278.635c.614.221.543.507.255.979A6.131,6.131,0,0,1,3318.833,2674.073Z" transform="translate(-2406.371 382.545)"/>
    <path id="Trazado_231639" data-name="Trazado 231639" d="M3314.295,2640.7a1.392,1.392,0,0,1,.038,2.784,1.392,1.392,0,0,1-.038-2.784Z" transform="translate(-2405.491 404.788)" fill="#010101"/>
    <path id="Trazado_231640" data-name="Trazado 231640" d="M3352.816,2642.048a1.406,1.406,0,0,1-1.344,1.431,1.393,1.393,0,0,1-.079-2.784A1.413,1.413,0,0,1,3352.816,2642.048Z" transform="translate(-2434.251 404.795)" fill="#010101"/>
    <path id="Trazado_231641" data-name="Trazado 231641" d="M2706.082,2568.4a4.079,4.079,0,0,1,2.989,2.588,3.828,3.828,0,0,1-3.593,5.083q-3.757.049-7.514-.007c-.567-.008-.7.144-.692.7.033,2.4.018,4.8.013,7.2a3.838,3.838,0,0,1-7.54,1.26.745.745,0,0,0-.137-.182v-12.478a4.787,4.787,0,0,1,4.318-4.16Z" transform="translate(-2052.161 344.491)"/>
    <path id="Trazado_231642" data-name="Trazado 231642" d="M2689.608,2862.539a4.227,4.227,0,0,1,2.732-2.874,3.823,3.823,0,0,1,4.937,3.625c.035,2.5.025,5.009,0,7.513-.006.54.1.718.681.709,2.423-.037,4.848-.02,7.271-.014a3.843,3.843,0,1,1,.036,7.676c-.852.006-1.7,0-2.557,0-1.047,0-1.337-.24-1.592-1.276-.055-.79.367-1.251,1.278-1.322.845-.066,1.694-.014,2.542-.025a2.466,2.466,0,0,0,.863-.107,1.143,1.143,0,0,0,.509-1.855,2.01,2.01,0,0,0-1.564-.448c-2.634,0-5.269.005-7.9,0-1.706,0-2.188-.481-2.193-2.183-.009-2.528,0-5.057,0-7.585a8.625,8.625,0,0,0-.019-.878,1.265,1.265,0,0,0-1.165-1.289,1.24,1.24,0,0,0-1.185,1.261,8.631,8.631,0,0,0-.019.878c0,3.087.007,6.174,0,9.26a2.664,2.664,0,0,0,2.735,2.941c.822.031,1.647-.034,2.467.029.906.071,1.324.517,1.306,1.324-.187.974-.523,1.267-1.493,1.273-.851.007-1.7.014-2.552,0a5.226,5.226,0,0,1-4.8-3.453c-.087-.235-.044-.537-.3-.7Z" transform="translate(-2052.161 115.624)"/>
    <path id="Trazado_231643" data-name="Trazado 231643" d="M2995.953,2568.4a12.573,12.573,0,0,1,1.375.529,5.015,5.015,0,0,1,2.928,4.6c.049,3.568.03,7.137.009,10.705a3.832,3.832,0,1,1-7.664.02c-.024-2.45-.043-4.9.015-7.349.018-.747-.225-.849-.881-.837-2.343.039-4.686.019-7.029.014a3.839,3.839,0,0,1-1.25-7.541.749.749,0,0,0,.182-.137h4.159a1.221,1.221,0,0,1,.973,1.372,1.494,1.494,0,0,1-1.6,1.241c-.792.035-1.585.013-2.377.012a1.413,1.413,0,0,0-1.464.864c-.033,1.078.383,1.527,1.522,1.539,2.573.027,5.146.007,7.719.01.4,0,.8-.014,1.194.024,1.1.238,1.468.683,1.474,1.916.015,2.717.022,5.434,0,8.149a3.24,3.24,0,0,0,0,.792,1.2,1.2,0,0,0,2.4,0,4.237,4.237,0,0,0,.007-.875c-.014-3.061,0-6.12-.009-9.18-.007-2.227-.995-3.211-3.216-3.224-.665,0-1.33.015-1.994-.011a1.521,1.521,0,0,1-1.593-1.183,1.225,1.225,0,0,1,.966-1.445Z" transform="translate(-2280.933 344.491)"/>
    <path id="Trazado_231644" data-name="Trazado 231644" d="M2731.133,2648.629c-.067-.518.277-1.34-.142-1.719-.363-.329-1.162-.186-1.77-.234a35.692,35.692,0,0,1-31.921-28.76,32.226,32.226,0,0,1-.576-4.834c-.021-.668-.274-.77-.843-.744-.877.04-1.759.029-2.638,0s-1.387-.512-1.369-1.233a1.218,1.218,0,0,1,1.347-1.172c.932-.027,1.867-.036,2.8,0,.506.022.664-.118.691-.644a33.623,33.623,0,0,1,3.215-13.088c5.255-10.825,13.765-17.562,25.557-20.09a27.3,27.3,0,0,1,4.91-.6c.659-.02.778-.261.749-.839-.043-.877-.027-1.76-.005-2.639s.5-1.389,1.224-1.373a1.215,1.215,0,0,1,1.172,1.345c.024.906.045,1.814-.006,2.718-.033.578.116.751.723.783a33.656,33.656,0,0,1,13.51,3.445,35.325,35.325,0,0,1,19.592,25.316,29.3,29.3,0,0,1,.6,4.992c.023.579.223.7.751.671.877-.044,1.759-.026,2.638-.008.933.019,1.47.488,1.453,1.231-.016.712-.536,1.16-1.424,1.18-.906.02-1.813.034-2.718-.006-.5-.022-.668.111-.7.642a33.208,33.208,0,0,1-2.7,11.922c-5.134,11.518-13.85,18.67-26.226,21.285a28.079,28.079,0,0,1-4.753.569c-.661.025-.775.266-.748.842.042.878.027,1.76,0,2.638s-.507,1.389-1.228,1.37c-.688-.018-1.137-.521-1.169-1.349C2731.117,2649.751,2731.133,2649.244,2731.133,2648.629Z" transform="translate(-2053.943 342.709)"/>
    <path id="Trazado_231645" data-name="Trazado 231645" d="M3000.33,2868.778c0,1.706.013,3.413,0,5.119a5.194,5.194,0,0,1-5.265,5.276q-5.238.03-10.475,0a3.836,3.836,0,1,1-.017-7.671c2.479-.014,4.958-.018,7.436.009.512.006.667-.116.66-.649-.031-2.425-.019-4.852-.012-7.278a3.845,3.845,0,1,1,7.676,0C3000.335,2865.312,3000.33,2867.045,3000.33,2868.778Z" transform="translate(-2280.992 115.623)"/>
    <path id="Trazado_231646" data-name="Trazado 231646" d="M2715.487,2926.862a1.392,1.392,0,0,1-1.171,2.242c-.9.038-1.807.039-2.709,0a1.373,1.373,0,0,0-1.576,1.131l-2.354,0a1.3,1.3,0,0,0-1.481-1.13c-.8.023-1.594.018-2.39,0a2.79,2.79,0,0,1-2.854-3.031c.053,0,.122-.021.156.006,1.347,1.083,2.935,1.056,4.541,1.037,2.572-.032,5.146-.016,7.718,0A6.536,6.536,0,0,0,2715.487,2926.862Z" transform="translate(-2061.08 63.286)" fill="#f57c22"/>
    <path id="Trazado_231647" data-name="Trazado 231647" d="M2705.009,2582.458c-1.013.217-1.272.532-1.277,1.577q-.018,4.262-.029,8.524a1.964,1.964,0,0,1-2.82-.155c-.008-3.354-.038-6.709-.014-10.063a2.715,2.715,0,0,1,2.7-2.719c3.541-.037,7.082-.02,10.623-.01a1.273,1.273,0,0,1,1.388.951c-.366.609-.988.553-1.556.558-2.252.023-4.505.047-6.756-.007C2706.177,2581.088,2705.249,2581.147,2705.009,2582.458Z" transform="translate(-2061.007 335.688)" fill="#f57c22"/>
    <path id="Trazado_231648" data-name="Trazado 231648" d="M2720.269,2586c.009-1.485.1-1.573,1.59-1.573,2.451,0,4.9-.009,7.355.007a3.512,3.512,0,0,0,1.622-.329,1.353,1.353,0,0,1-1.314,1.908C2726.438,2586.037,2723.353,2586.009,2720.269,2586Z" transform="translate(-2076.268 332.146)" fill="#f57c22"/>
    <path id="Trazado_231649" data-name="Trazado 231649" d="M2700.847,2639.5a2.88,2.88,0,0,0,2.82.155,1.531,1.531,0,0,1-.765,1.75,1.317,1.317,0,0,1-1.549-.171A1.746,1.746,0,0,1,2700.847,2639.5Z" transform="translate(-2060.972 288.596)" fill="#f57c22"/>
    <path id="Trazado_231650" data-name="Trazado 231650" d="M2715.422,2883.374c-.151.508-.6.481-.974.483-3.669.015-7.339.044-11.007-.014a3.153,3.153,0,0,1-2.553-1.252c-.008-3.436-.024-6.873-.017-10.309a1.435,1.435,0,1,1,2.863.038c.014,2.931,0,5.861.006,8.792,0,1.249.378,1.634,1.6,1.635q4.315,0,8.631,0A1.452,1.452,0,0,1,2715.422,2883.374Z" transform="translate(-2061.015 106.774)" fill="#f57c22"/>
    <path id="Trazado_231651" data-name="Trazado 231651" d="M2998.054,2574.373h2.356a1.364,1.364,0,0,0,1.574,1.13c.849-.035,1.7-.027,2.551,0a2.76,2.76,0,0,1,2.753,2.745c.023,3.349-.006,6.7-.014,10.046a1.965,1.965,0,0,1-2.82.154q-.014-4.261-.029-8.522c0-1.046-.263-1.36-1.277-1.579-.24-1.311-1.168-1.37-2.255-1.344-2.251.053-4.5.03-6.756.007-.569-.006-1.19.049-1.556-.559a1.277,1.277,0,0,1,1.377-.951c.846-.02,1.695-.03,2.541,0A1.333,1.333,0,0,0,2998.054,2574.373Z" transform="translate(-2290.364 339.798)" fill="#f57c22"/>
    <path id="Trazado_231652" data-name="Trazado 231652" d="M2992.243,2584.1a3.516,3.516,0,0,0,1.622.329c2.452-.016,4.9-.007,7.356-.007,1.492,0,1.58.088,1.59,1.573-3.084.008-6.169.036-9.254.013A1.352,1.352,0,0,1,2992.243,2584.1Z" transform="translate(-2290.027 332.146)" fill="#e74642"/>
    <path id="Trazado_231653" data-name="Trazado 231653" d="M3048.022,2639.655a2.883,2.883,0,0,0,2.82-.154c.009.184.032.368.024.552a1.437,1.437,0,1,1-2.87,0A3.561,3.561,0,0,1,3048.022,2639.655Z" transform="translate(-2333.933 288.593)" fill="#f57c22"/>
    <path id="Trazado_231654" data-name="Trazado 231654" d="M2792.018,2635.062c0,.026,0,.053.007.08.114,1.263.114,1.263-1.165,1.332-.864.047-1.406.516-1.4,1.214s.544,1.161,1.412,1.207c1.266.067,1.266.067,1.154,1.341a33.241,33.241,0,0,1-25.443,29.815,36.346,36.346,0,0,1-5.918.879c-.447.036-.642-.066-.6-.545a4.781,4.781,0,0,0-.029-1.037,1.18,1.18,0,0,0-2.342-.027c-.009.052-.01.107-.022.158-.115.476.263,1.142-.2,1.405-.35.2-.931-.016-1.409-.054a33.361,33.361,0,0,1-29.808-26.534,46.872,46.872,0,0,1-.624-4.75c-.052-.553.13-.7.647-.66a4.088,4.088,0,0,0,1.033-.053,1.081,1.081,0,0,0,.949-1.119,1.111,1.111,0,0,0-.965-1.19,2.954,2.954,0,0,0-.476-.05c-1.23-.053-1.228-.052-1.115-1.306a33.4,33.4,0,0,1,31.326-30.729c.484-.031.694.062.644.582a4.394,4.394,0,0,0,.034,1.036,1.1,1.1,0,0,0,1.149,1.01,1.111,1.111,0,0,0,1.177-.981,2.762,2.762,0,0,0,.041-.4c.067-1.288.07-1.311,1.325-1.172,14.119,1.558,23.709,9.015,28.878,22.212a25.56,25.56,0,0,1,1.162,4.144A29.327,29.327,0,0,1,2792.018,2635.062Z" transform="translate(-2080.469 316.163)" fill="#26c7db"/>
    <path id="Trazado_231655" data-name="Trazado 231655" d="M2993.29,2883.372a1.456,1.456,0,0,1,1.449-.627q4.315.006,8.63,0c1.227,0,1.6-.386,1.605-1.634q0-4.276,0-8.552c0-1.143.552-1.816,1.457-1.8.877.014,1.417.672,1.416,1.763q-.006,5.114-.027,10.228a3.147,3.147,0,0,1-2.964,1.351c-2.5.046-5,.018-7.493.013-1.063,0-2.129.064-3.187-.042C2993.8,2884.031,2993.189,2884.1,2993.29,2883.372Z" transform="translate(-2290.913 106.774)" fill="#f57c22"/>
    <path id="Trazado_231656" data-name="Trazado 231656" d="M2992.34,2927.472c.149.508.6.482.971.484,3.687.016,7.374.034,11.061-.009a4.134,4.134,0,0,0,2.5-1.1,2.744,2.744,0,0,1-2.769,2.866q-5.258.044-10.515,0A1.393,1.393,0,0,1,2992.34,2927.472Z" transform="translate(-2289.964 62.675)" fill="#f57c22"/>
    <path id="Trazado_231657" data-name="Trazado 231657" d="M2804.89,2641.792c-.32-1.005-.187-1.418.746-1.881a17.95,17.95,0,0,1,12.064-1.832,9.394,9.394,0,0,1,3.52,1.64,1.437,1.437,0,0,0,.865.321c4.692.085,7.756,2.488,9.046,7.07a14.265,14.265,0,0,1-.038,7.883.84.84,0,0,0,.245.962,4.727,4.727,0,0,1,1.1,5.371,4.822,4.822,0,0,1-4.59,3.139c-.334.016-.605-.02-.679.437a12.556,12.556,0,0,1-4.746,7.971,25.159,25.159,0,0,1,4.112,2.9,24.267,24.267,0,0,1,4.946,6.129c.577,1.009.489,1.443-.436,2.18a25.98,25.98,0,0,1-32.568-.087,1.289,1.289,0,0,1-.4-2,23.251,23.251,0,0,1,8.6-8.815c.155-.09.3-.192.5-.32a12.871,12.871,0,0,1-4.1-5.548,9.937,9.937,0,0,1-.617-2.306c-.05-.427-.227-.543-.664-.556a4.788,4.788,0,0,1-4.582-3.026,4.706,4.706,0,0,1,.978-5.393c.394-.422.263-.821.225-1.254a16.183,16.183,0,0,1,1.878-9.876,11.8,11.8,0,0,1,.854-1.252c.567-.735,1-.809,1.862-.367.754.521.839,1.088.2,1.955a11.4,11.4,0,0,0-1.957,4.427,16.338,16.338,0,0,0-.313,3.974c.013.427.172.656.632.592a1.1,1.1,0,0,1,.477.02c1.894.6,3.624-.051,5.351-.7a41.333,41.333,0,0,0,9.18-5.149c.13-.092.255-.192.384-.287,1.523-1.128,1.987-1.064,3.144.421a32.393,32.393,0,0,0,4.958,5.192,2.536,2.536,0,0,0,2.289.571c1.293-.264,1.35-.207,1.516-1.561a10.6,10.6,0,0,0-1.347-7.386,5.983,5.983,0,0,0-5.632-2.686,2.574,2.574,0,0,1-1.9-.584,7.471,7.471,0,0,0-4.635-1.71,16.828,16.828,0,0,0-8.425,1.795C2805.928,2642.683,2805.3,2642.534,2804.89,2641.792Z" transform="translate(-2136.413 290.002)"/>
    <path id="Trazado_231658" data-name="Trazado 231658" d="M2819.428,2650.682a1.449,1.449,0,0,0,1.948.2,16.7,16.7,0,0,1,8.559-1.854,7.779,7.779,0,0,1,4.887,1.906,1.583,1.583,0,0,0,1.226.45,6.417,6.417,0,0,1,7.156,4.7,12.66,12.66,0,0,1,.219,6.78c-.1.446-.271.63-.762.517a1.815,1.815,0,0,0-.944.055,2.157,2.157,0,0,1-2.167-.575,29.36,29.36,0,0,1-5.154-5.435c-.942-1.245-1.325-1.295-2.606-.359a40.05,40.05,0,0,1-10.87,5.975,6.027,6.027,0,0,1-3.958.387,1.136,1.136,0,0,0-.628-.073c-.985.286-1.057-.242-1.07-1.027a12.941,12.941,0,0,1,2.449-8.493,1.175,1.175,0,0,0-.16-1.655Z" transform="translate(-2150.952 281.113)" fill="#ae665a"/>
    <path id="Trazado_231659" data-name="Trazado 231659" d="M2834.408,2713.972a7.385,7.385,0,0,1-.665-3.246c-.021-1.837-.006-3.675-.019-5.512,0-.356.044-.587.466-.682,4.6-1.036,8.574-3.381,12.379-6.041.625-.437.871-.382,1.333.2a23.778,23.778,0,0,0,5.768,5.467.532.532,0,0,1,.322.5c-.088,2.6.208,5.219-.207,7.813a3.963,3.963,0,0,1-.475,1.5C2849.287,2720.673,2838.662,2720.924,2834.408,2713.972Z" transform="translate(-2165.469 242.439)" fill="#fcd3ba"/>
    <path id="Trazado_231660" data-name="Trazado 231660" d="M2899.97,2821.277c-.329-1.747-.664-3.493-.982-5.241a1.21,1.21,0,0,1,.043-.622c.543-1.409,1.126-2.8,1.657-4.218.168-.448.369-.319.653-.169a19.6,19.6,0,0,1,7.271,6.525c.178.4-.094.6-.374.766a24.488,24.488,0,0,1-7.434,3.05C2900.52,2821.428,2900.226,2821.512,2899.97,2821.277Z" transform="translate(-2216.764 153.846)" fill="#edf1f4"/>
    <path id="Trazado_231661" data-name="Trazado 231661" d="M2817.992,2817.623a19.583,19.583,0,0,1,7.34-6.556c.394-.208.49-.046.614.273.526,1.359,1.064,2.713,1.6,4.067a1.22,1.22,0,0,1,.073.7q-.5,2.619-.99,5.239c-.256.235-.55.153-.834.09a24.775,24.775,0,0,1-7.432-3.048C2818.089,2818.22,2817.81,2818.027,2817.992,2817.623Z" transform="translate(-2153.054 153.777)" fill="#edf1f4"/>
    <path id="Trazado_231662" data-name="Trazado 231662" d="M2836.923,2771.959a15.781,15.781,0,0,0,3.4,3.164,11.324,11.324,0,0,0,13.274-.833c.866-.688,1.414-1.63,2.233-2.332a9.667,9.667,0,0,1-7.512,6.409,10.079,10.079,0,0,1-11.3-6.026A2.675,2.675,0,0,1,2836.923,2771.959Z" transform="translate(-2167.983 184.452)" fill="#fcd3ba"/>
    <path id="Trazado_231663" data-name="Trazado 231663" d="M2870.017,2843.1q.4-2.348.808-4.7a.3.3,0,0,1,.336-.264c.08,0,.16-.005.24,0,.82.038,1.868-.332,2.393.143.473.427.392,1.478.537,2.257.158.853.3,1.708.442,2.562a.882.882,0,0,1-.647.24q-1.731.045-3.462,0A.881.881,0,0,1,2870.017,2843.1Z" transform="translate(-2194.003 132.496)" fill="#fda829"/>
    <path id="Trazado_231664" data-name="Trazado 231664" d="M2903.658,2845.789a17.968,17.968,0,0,0,5.36-1.661c.943-.42,1.833-.96,2.75-1.439.268-.139.524-.273.532-.626.914,1.158.916,1.161-.262,1.948a24.431,24.431,0,0,1-7.271,3.284c-.662.178-1,.118-.992-.647A5.54,5.54,0,0,0,2903.658,2845.789Z" transform="translate(-2220.451 129.334)" fill="#edf1f4"/>
    <path id="Trazado_231665" data-name="Trazado 231665" d="M2815.837,2842.078c.025.559.541.621.882.815a22,22,0,0,0,7.758,2.907c-.345,2.084.06,1.8-1.867,1.27a23.848,23.848,0,0,1-6.849-3.259c-.685-.453-.738-.819-.228-1.377C2815.639,2842.319,2815.736,2842.2,2815.837,2842.078Z" transform="translate(-2150.899 129.323)" fill="#edf1f4"/>
    <path id="Trazado_231666" data-name="Trazado 231666" d="M2873.306,2812.616c-.1.285-.142.435-.2.579-.337.835-.458,2.048-1.074,2.406-.742.431-1.906.132-2.887.152-.245,0-.444,0-.555-.3-.334-.913-.708-1.812-1.107-2.818A14.038,14.038,0,0,0,2873.306,2812.616Z" transform="translate(-2192.009 152.486)" fill="#fda829"/>
    <path id="Trazado_231667" data-name="Trazado 231667" d="M2868.985,2861.727h4.756c.4,1.964.681,1.6-1.27,1.743a20.828,20.828,0,0,1-3.167-.047c-.579-.044-.7-.254-.525-.771A8.127,8.127,0,0,0,2868.985,2861.727Z" transform="translate(-2192.971 113.874)" fill="#fda829"/>
    <path id="Trazado_231668" data-name="Trazado 231668" d="M2939.9,2727.664a2.355,2.355,0,0,1,2.9,2.155c.144.423-.168.636-.423.847a2.541,2.541,0,0,1-1.151.5c-1.147.227-1.421.016-1.4-1.144A11.749,11.749,0,0,1,2939.9,2727.664Z" transform="translate(-2248.867 219.337)" fill="#fcd3ba"/>
    <path id="Trazado_231669" data-name="Trazado 231669" d="M2808.282,2729.817a2.364,2.364,0,0,1,2.9-2.151,23.247,23.247,0,0,1,.074,3.069.414.414,0,0,1-.3.413,2.65,2.65,0,0,1-2.7-1.025A.384.384,0,0,1,2808.282,2729.817Z" transform="translate(-2145.427 219.335)" fill="#fcd3ba"/>
    <path id="Trazado_231670" data-name="Trazado 231670" d="M2808.37,2730.1a2.7,2.7,0,0,0,2.637,1.162c.318-.118.25-.372.252-.6.01-.905.009-1.811.012-2.716a34.828,34.828,0,0,1,.09,4.729c.01.4-.333.342-.588.337A2.554,2.554,0,0,1,2808.37,2730.1Z" transform="translate(-2145.515 219.057)" fill="#fcd3ba"/>
    <path id="Trazado_231671" data-name="Trazado 231671" d="M2939.774,2727.945c0,.852.05,1.707-.006,2.554-.045.671.232.847.829.775a2.277,2.277,0,0,0,2.078-1.174,2.543,2.543,0,0,1-2.4,2.911c-.256.005-.6.059-.586-.339A34.952,34.952,0,0,1,2939.774,2727.945Z" transform="translate(-2248.744 219.057)" fill="#fcd3ba"/>
    <path id="Trazado_231672" data-name="Trazado 231672" d="M2865.692,2769.167a4.348,4.348,0,0,1-3.54-1.806c-.565-.8-.5-1.527.14-1.964.615-.42,1.233-.235,1.805.542a2.4,2.4,0,0,0,3.616.008c.581-.783,1.185-.969,1.8-.555.641.43.7,1.158.156,1.963A4.614,4.614,0,0,1,2865.692,2769.167Z" transform="translate(-2187.517 189.783)"/>
    <path id="Trazado_231673" data-name="Trazado 231673" d="M2901.406,2732.866a8.963,8.963,0,0,1-.007,1.038,1.157,1.157,0,0,1-1.266,1.06,1.1,1.1,0,0,1-1.107-1.134c-.034-.611-.026-1.225-.005-1.837a1.179,1.179,0,0,1,1.187-1.231,1.2,1.2,0,0,1,1.2,1.226c.019.291,0,.586,0,.878Z" transform="translate(-2216.791 216.841)" fill="#010000"/>
    <path id="Trazado_231674" data-name="Trazado 231674" d="M2854.28,2732.949a8.631,8.631,0,0,1-.007.958,1.106,1.106,0,0,1-1.157,1.083,1.085,1.085,0,0,1-1.2-1.034,9.686,9.686,0,0,1,.006-2.152,1.083,1.083,0,0,1,1.225-1.007,1.116,1.116,0,0,1,1.131,1.115C2854.309,2732.254,2854.281,2732.6,2854.28,2732.949Z" transform="translate(-2179.725 216.816)" fill="#010000"/>
  </g>
</svg>
