<svg xmlns="http://www.w3.org/2000/svg" width="92.847" height="82.97" viewBox="0 0 92.847 82.97">
  <g id="Grupo_165773" data-name="Grupo 165773" transform="translate(-3556.754 -3779.799)">
    <path id="Trazado_231908" data-name="Trazado 231908" d="M3649.6,3858.794c-.281.153-.229.47-.328.706a5.019,5.019,0,0,1-4.5,3.257c-.24.021-.483.01-.724.01q-40.488,0-80.975,0c-3.209,0-5.745-1.73-6.076-4.669-.648-5.771-.191-11.4,3.414-16.326.55-.751,1.155-1.135,2.07-.685a1.219,1.219,0,0,1,.751,1.662,4.846,4.846,0,0,1-.66,1.181,16.459,16.459,0,0,0-2.774,9.395c0,1.115-.015,2.231,0,3.346a2.925,2.925,0,0,0,3.105,3.132c.874.015,1.749-.007,2.623.006.572.008.824-.242.82-.812-.006-.844,0-1.689,0-2.532,0-.332-.01-.664.014-.995a1.722,1.722,0,0,1,1.4-1.757c.817-.139,1.4.282,1.791,1.287.051,1.267.01,2.535.025,3.8.011.962.052,1.01,1.045,1.01q10.188.006,20.376,0c2.294,0,4.589.021,6.883-.012,1.024-.015,1.066-.073,1.078-1.09s-.018-2.053.018-3.079a2,2,0,0,1,.616-1.553,1.575,1.575,0,0,1,1.7-.275,1.415,1.415,0,0,1,.891,1.356c.064,1.176.011,2.354.029,3.531.015,1.018.085,1.1,1.073,1.1.906.007,1.813.041,2.716-.016a2.825,2.825,0,0,0,2.857-2.637c.214-3.476.244-6.969-1.171-10.251-2.541-5.893-7.072-9.236-13.378-10.235a1.805,1.805,0,0,0-1.442.384,11.184,11.184,0,0,1-2,1.226,12.7,12.7,0,0,1-6.173,1.512,13.023,13.023,0,0,1-8.1-2.663,2.559,2.559,0,0,0-2.253-.492,19.659,19.659,0,0,0-6.922,2.509,1.387,1.387,0,0,1-2.2-.475c-.34-1.108-.2-1.5.76-2.113a22.006,22.006,0,0,1,8.382-2.927c.416-.07.833-.135,1.245-.224a2.059,2.059,0,0,0,1.521-2.723c-.091-.255-.327-.342-.518-.476a12.332,12.332,0,0,1-5.3-8.588,5.53,5.53,0,0,0-.5-1.822,14.443,14.443,0,0,1-1.476-5.183c-.193-1.6-.977-3.038-1.165-4.634a6.064,6.064,0,0,1,.942-4.482,1.358,1.358,0,0,0,.225-.666,4.768,4.768,0,0,1,2.578-3.706,1.731,1.731,0,0,0,.848-.856,4.014,4.014,0,0,1,2.841-2.309,2.28,2.28,0,0,0,1.068-.591,4.27,4.27,0,0,1,3.659-1.161,1.026,1.026,0,0,0,.826-.175,5.748,5.748,0,0,1,6.365-.028,1,1,0,0,0,.818.214,4.281,4.281,0,0,1,3.738,1.182,2.113,2.113,0,0,0,.992.552,4.1,4.1,0,0,1,2.9,2.366,1.447,1.447,0,0,0,.716.743,4.922,4.922,0,0,1,2.7,3.737,1.217,1.217,0,0,0,.142.6,6.411,6.411,0,0,1,.7,5.966,28.918,28.918,0,0,0-1.017,4.573,3.331,3.331,0,0,1-.171.794c-1.028,2.54-1.561,5.233-2.415,7.821a10.387,10.387,0,0,1-4.287,5.456,1.718,1.718,0,0,0-.73,2,1.65,1.65,0,0,0,1.47,1.392c.854.181,1.721.3,2.574.491,1.114.244,2.218.524,3.374.8.111-1.318-.007-2.638.168-3.951a16.63,16.63,0,0,1,8.7-12.893c.572-.325.849-.634.777-1.306-.067-.627,0-1.267-.017-1.9a1.4,1.4,0,0,1,.9-1.507c1.468-.3,2.008.124,2.06,1.614a4.37,4.37,0,0,1,0,.452c-.046.667.227.876.87.659,1.031-.348,2.109-.518,3.159-.794,1.115-.293,1.427-.724,1.455-1.863a5.82,5.82,0,0,1,.006-.633,2.8,2.8,0,0,0-1.077-2.7,11.143,11.143,0,0,1-2.688-4.039c-.087-.192-.153-.395-.257-.579-.24-.426-.638-.4-1.034-.341s-.417.388-.427.7c-.027.814.04,1.632-.034,2.443a1.326,1.326,0,0,1-1.7,1.323,1.357,1.357,0,0,1-1.236-1.512c0-.724,0-1.449,0-2.173a10.342,10.342,0,0,0-.6-2.883c-.76-2.574-1.13-5.3.413-7.823a2.158,2.158,0,0,0,.258-.929c.925-7.009,5.431-12.2,12-13.81a15.687,15.687,0,0,1,19.123,13.131,4.385,4.385,0,0,0,.743,2.153c.8,1.1.8,6.383-.01,7.47a3.309,3.309,0,0,0-.575,2.178q.015,5.751,0,11.5c0,.427.007.749.493,1.015a16.6,16.6,0,0,1,8.967,13c.01.073.09.136.138.2v.363a1.385,1.385,0,0,0,0,1.087Z" transform="translate(0 0)"/>
    <path id="Trazado_231909" data-name="Trazado 231909" d="M3939.485,3993.349a.8.8,0,0,1,0-1.087Z" transform="translate(-289.883 -161.01)" fill="#222"/>
    <path id="Trazado_231910" data-name="Trazado 231910" d="M3573.869,4015.056a1.509,1.509,0,0,0,2.173.218,20.531,20.531,0,0,1,7.982-2.69.668.668,0,0,1,.584.139c4.544,3.624,9.48,4.071,14.747,1.807a1.43,1.43,0,0,1,1.145.438,18.084,18.084,0,0,1,6.924,12,51.132,51.132,0,0,1,.163,6.69,3.955,3.955,0,0,1-.362,1.487,1.749,1.749,0,0,1-1.847,1.247c-8.783-.035-17.567-.02-26.35-.021-.954,0-.942,0-.959-.995-.024-1.325.077-2.652-.055-3.976a1.334,1.334,0,0,0-1.624-1.081c-.858.168-1.111.822-1.106,1.627.008,1.3-.014,2.592.01,3.887.008.458-.116.64-.605.626-1.174-.032-2.351.022-3.525-.022a2.935,2.935,0,0,1-2.926-2.683c-.076-3.062-.28-6.146.665-9.145a18.172,18.172,0,0,1,2.42-4.917c.654-.945.6-1.4-.19-2.206C3572.159,4016.8,3572.918,4015.822,3573.869,4015.056Z" transform="translate(-8.648 -176.399)" fill="#f57c22"/>
    <path id="Trazado_231911" data-name="Trazado 231911" d="M3775.107,3886.9c1.1-.131,1.468-.534,1.48-1.627.009-.783-.011-1.566.009-2.349.007-.292-.157-.775.381-.727.522.045,1.281-.391,1.531.332a12.04,12.04,0,0,0,3.846,5.566.642.642,0,0,1,.233.554c0,.873.009,1.747-.013,2.62a1.467,1.467,0,0,1-1.261,1.442c-1.539.4-3.082.777-4.617,1.161-.468-1.21.788-3.406-1.926-3.215.141-.176.494-.151.476-.472A14.481,14.481,0,0,0,3775.107,3886.9Z" transform="translate(-165.218 -77.529)" fill="#756e77"/>
    <path id="Trazado_231912" data-name="Trazado 231912" d="M3774.1,4055.367c1.188-2.66.726-5.463.627-8.209a17.823,17.823,0,0,0-2.75-8.7c-.278-.456-.422-.7.34-.7q13.406.029,26.811.017a.979.979,0,0,1,.178.032,1.6,1.6,0,0,1,.291,1.2q.009,7.021,0,14.042a4.749,4.749,0,0,1-.073.9c-.239,1.24-.557,1.507-1.8,1.507q-11.324,0-22.648,0A1.834,1.834,0,0,1,3774.1,4055.367Z" transform="translate(-162.932 -195.491)" fill="#e9f1fe"/>
    <path id="Trazado_231913" data-name="Trazado 231913" d="M3626.4,3884.193a12.932,12.932,0,0,1-7.669-3.261,9.326,9.326,0,0,1-2.312-4.533c-.683-2.3-.906-4.709-1.631-7.012a3.075,3.075,0,0,1,.622-2.972,2.126,2.126,0,0,0,.474-1.342,2.147,2.147,0,0,1,1.382-2.042,3.029,3.029,0,0,0,1.746-1.835,1.607,1.607,0,0,1,1.453-1.058,2.367,2.367,0,0,0,1.63-.864,1.9,1.9,0,0,1,2.341-.619,3.136,3.136,0,0,1,3.25,2.212,1.6,1.6,0,0,0,.883.741,3.954,3.954,0,0,1,2.24,3.091,1.825,1.825,0,0,0,.234.774c1.257,1.885,1.094,3.872.428,5.894a11.273,11.273,0,0,0-.5,2.017,18.65,18.65,0,0,1-1.652,5.8,15.567,15.567,0,0,0-.683,2.989c-.077.292-.169.579-.264.865C3627.936,3884.342,3627.858,3884.387,3626.4,3884.193Z" transform="translate(-43.87 -59.634)" fill="#756e78"/>
    <path id="Trazado_231914" data-name="Trazado 231914" d="M3657.056,3880.644c1.09.216,1.5-.355,1.8-1.33.431-1.434.369-2.991,1.115-4.339a17.982,17.982,0,0,0,1.467-5.437c.127-.645.329-1.275.506-1.91.544-1.958.865-3.893-.564-5.654a1.026,1.026,0,0,1-.131-.606,3.555,3.555,0,0,0-2.072-3.051,2.319,2.319,0,0,1-1.294-1.381,2.7,2.7,0,0,0-2.2-1.663c-.2-.037-.428.023-.585-.168a3.178,3.178,0,0,0,2.158-.771,2.784,2.784,0,0,1,3.293.02,2.765,2.765,0,0,0,2.607.621,1.645,1.645,0,0,1,1.7.6,2.816,2.816,0,0,0,1.844,1.021,1.61,1.61,0,0,1,1.412,1.117,2.816,2.816,0,0,0,1.63,1.717,2.248,2.248,0,0,1,1.481,2.177,1.837,1.837,0,0,0,.419,1.175,3.561,3.561,0,0,1,.575,3.523c-.646,2-.883,4.058-1.372,6.073a17.893,17.893,0,0,1-1.8,4.229,6.235,6.235,0,0,1-2.6,2.187,15.463,15.463,0,0,1-8.958,1.986A1.737,1.737,0,0,1,3657.056,3880.644Z" transform="translate(-74.522 -56.085)" fill="#756e78"/>
    <path id="Trazado_231915" data-name="Trazado 231915" d="M3757.359,3937.1a70.381,70.381,0,0,0-.78,8.424,61.366,61.366,0,0,0,.9,12.441c.116.662.015.833-.656.82q-2.944-.056-5.888,0c-.609.011-.881-.11-.817-.78a14.12,14.12,0,0,0,.006-1.9,1.357,1.357,0,1,0-2.706.023c-.021.844,0,1.689,0,2.507-.2.149-.311.042-.417-.064a19.377,19.377,0,0,0-4.075-3.142.616.616,0,0,1-.392-.545c-.16-3.856.125-7.606,2.416-10.923a14.227,14.227,0,0,1,8.057-5.791C3754.411,3937.768,3755.849,3937.464,3757.359,3937.1Z" transform="translate(-140.755 -119.205)" fill="#26c7db"/>
    <path id="Trazado_231916" data-name="Trazado 231916" d="M3608.733,4031.827a12.916,12.916,0,0,1,.118,3.763c-.023.938.261,1.146,1.166,1.142,8.453-.035,16.906-.021,25.358-.021,1.75,0,2.623-.719,2.655-2.463.062-3.395.27-6.819-.9-10.1a17.6,17.6,0,0,0-3.48-6.07,15.257,15.257,0,0,0-3.58-3.116c.8-.536,1.611-1.053,2.388-1.618a1.168,1.168,0,0,1,.932-.183,16.845,16.845,0,0,1,14.891,13.929,31.4,31.4,0,0,1,.216,6.953,2.978,2.978,0,0,1-2.993,2.828c-1.176.04-2.354-.01-3.531.019-.482.012-.625-.164-.616-.629.024-1.3.017-2.6.005-3.893-.01-1.1-.48-1.658-1.356-1.648-.86.01-1.341.587-1.355,1.678-.016,1.237-.027,2.475.007,3.711.015.561-.109.787-.739.786q-14.259-.026-28.518.006c-.576,0-.715-.187-.7-.727C3608.741,4034.724,3608.726,4033.275,3608.733,4031.827Z" transform="translate(-39.367 -176.829)" fill="#f57c22"/>
    <path id="Trazado_231917" data-name="Trazado 231917" d="M3781.275,4055.376l23.36,0c1.333,0,1.776-.422,1.84-1.8.031-.663.006-1.328.006-1.992q0-6.881,0-13.763c3.319-.013,6.638-.018,9.957-.046.427,0,.564.107.563.55-.016,4.98.006,9.96-.025,14.941a2.281,2.281,0,0,1-2.511,2.279c-3.018.017-6.036.009-9.055.009q-11.681,0-23.362,0c-.268,0-.537-.031-.8-.05-.009,0-.026-.039-.021-.052A.346.346,0,0,1,3781.275,4055.376Z" transform="translate(-170.107 -195.501)" fill="#e9f1fe"/>
    <path id="Trazado_231918" data-name="Trazado 231918" d="M3817.595,3977.287c-1.357,0-2.715-.018-4.072.01-.485.01-.654-.135-.745-.635a62.442,62.442,0,0,1-.878-14.593c.026-.494.138-.622.634-.461a16.105,16.105,0,0,0,10.213-.018c.451-.148.55-.011.577.437a61.286,61.286,0,0,1-.881,14.681c-.083.46-.236.6-.685.588C3820.371,3977.271,3818.982,3977.287,3817.595,3977.287Z" transform="translate(-193.283 -137.723)" fill="#eef6ff"/>
    <path id="Trazado_231919" data-name="Trazado 231919" d="M3867.694,3942.2l-.643-5.05c3.206.779,6.442,1.29,9.116,3.389a14.13,14.13,0,0,1,5.688,11.483c.022,1.992-.017,3.984.017,5.975.01.6-.095.864-.772.828a32.73,32.73,0,0,0-3.348,0c-.668.034-.826-.218-.781-.826a16.508,16.508,0,0,0,0-1.9,1.347,1.347,0,1,0-2.694-.07c-.046.751-.029,1.509-.011,2.262.009.385-.12.528-.518.526q-3.214-.019-6.428,0c-.717,0-.509-.369-.345-.746a8.032,8.032,0,0,0,3.551.262c.548,0,.532-.484.538-.873.018-1.171,0-2.343.01-3.514a2.5,2.5,0,0,1,.171-1.234c.328-.361.771-.295,1.185-.3,1.267-.015,2.534.01,3.8-.01a2.414,2.414,0,0,0,2.642-2.646c.012-.724.037-1.449-.015-2.172a2.324,2.324,0,0,0-2.284-2.248c-1.537-.051-3.077-.017-4.615-.011a4.952,4.952,0,0,0-1.628.5c-.49.048-.545-.383-.707-.671A18.045,18.045,0,0,0,3867.694,3942.2Z" transform="translate(-234.975 -119.247)" fill="#26c7db"/>
    <path id="Trazado_231920" data-name="Trazado 231920" d="M3809.833,3849.622a4.164,4.164,0,0,0-1.3,2.222,4.614,4.614,0,0,1-2.328,2.379,8.7,8.7,0,0,1-6.859-7.639c-.11-1.771-.023-3.553-.066-5.33-.018-.723.456-.562.848-.558a19.613,19.613,0,0,0,7.351-1.162,21.751,21.751,0,0,0,2.872-1.485c.521.06.469.494.472.818.028,2.669.087,5.339-.026,8.006A4.07,4.07,0,0,1,3809.833,3849.622Z" transform="translate(-183.79 -44.144)" fill="#fedccd"/>
    <path id="Trazado_231921" data-name="Trazado 231921" d="M3798.212,3798.464a8.918,8.918,0,0,1-5.871,3.553,40.47,40.47,0,0,1-8.822.521c-.728,0-.588-.446-.5-.85a12.946,12.946,0,0,1,8.5-9.773,7.749,7.749,0,0,1,2.813-.587,2.458,2.458,0,0,1,2.843,1.158A6.953,6.953,0,0,1,3798.212,3798.464Z" transform="translate(-171.416 -8.659)" fill="#756e78"/>
    <path id="Trazado_231922" data-name="Trazado 231922" d="M3823.236,3914.1c.391,2.661.769,5.255,1.154,7.848.066.447.068.76-.493.957a13.9,13.9,0,0,1-9.571.005c-.471-.169-.65-.37-.568-.906.379-2.474.715-4.955,1.055-7.435.035-.258.03-.513.395-.386A11.781,11.781,0,0,0,3823.236,3914.1Z" transform="translate(-194.749 -101.777)" fill="#fedccd"/>
    <path id="Trazado_231923" data-name="Trazado 231923" d="M3842.87,3841.912a11.986,11.986,0,0,0,.741-4.77c-.055-1.958-.008-3.919-.018-5.879,0-.316.118-.675-.208-.923a15.627,15.627,0,0,0,2.475-2.464,11.149,11.149,0,0,0,3.843,4.34.562.562,0,0,1,.3.516c-.047,2.231.111,4.467-.115,6.694a5.672,5.672,0,0,1-.173.8c-.18.719-.335,1.252-1.393,1.05a19.015,19.015,0,0,0-3.521-.05A3.911,3.911,0,0,0,3842.87,3841.912Z" transform="translate(-216.827 -36.434)" fill="#fedccd"/>
    <path id="Trazado_231924" data-name="Trazado 231924" d="M3833.859,3798.257c-.11-1.568.18-3.166-.552-4.683a7.012,7.012,0,0,0-1.754-2.241c-.453-.4-1.05-.09-1.567-.212a10.691,10.691,0,0,1,6.329.858,12.9,12.9,0,0,1,7.795,9.427c.166.708-.024.908-.78.952-2.121.122-3.169-1.318-4.24-2.742a7.022,7.022,0,0,1-.944-1.941,1.925,1.925,0,0,0-3.6-.361C3834.338,3797.643,3834.088,3797.944,3833.859,3798.257Z" transform="translate(-207.063 -8.453)" fill="#756e78"/>
    <path id="Trazado_231925" data-name="Trazado 231925" d="M3871.85,3968.169c0,1.744-.014,3.488.009,5.232.007.531-.144.763-.712.743-.991-.035-1.985-.026-2.977,0-.435.01-.7-.1-.692-.582.267-2.335.612-4.66.763-7.01.191-2.959.055-5.91-.048-8.864.086-.116.2-.146.285-.023a13.7,13.7,0,0,1,2.1,3.592c.12.225-.007.409-.109.588a5.624,5.624,0,0,0-.447,3.775,2.736,2.736,0,0,0,1.28,1.986C3871.527,3967.745,3871.782,3967.869,3871.85,3968.169Z" transform="translate(-235.475 -134.729)" fill="#26c7db"/>
    <path id="Trazado_231926" data-name="Trazado 231926" d="M3658.906,3998.371a10.535,10.535,0,0,1-11.456.058c-.3-.2-.343-.327-.084-.609a3.9,3.9,0,0,0,.977-2.1c.059-.393.139-.509.555-.373a12.717,12.717,0,0,0,8,.013c.228-.073.486-.209.527.2A4.648,4.648,0,0,0,3658.906,3998.371Z" transform="translate(-68.54 -163.298)" fill="#fcdbcc"/>
    <path id="Trazado_231927" data-name="Trazado 231927" d="M3870.51,3909.592c-1.648-.416-3.2-.79-4.734-1.2a1.556,1.556,0,0,1-1.261-1.737c.02-.391.017-.785,0-1.177-.016-.372.123-.533.51-.573a3.207,3.207,0,0,0,2.388-1.46.85.85,0,0,1,.736-.416,18.61,18.61,0,0,0,1.884-.2c.268-.042.477-.119.477.267C3870.509,3905.234,3870.51,3907.37,3870.51,3909.592Z" transform="translate(-233.227 -93.21)" fill="#756e78"/>
    <path id="Trazado_231928" data-name="Trazado 231928" d="M3654.1,3969.277a18.274,18.274,0,0,0,11.295-2.128c-1.7,4.12-8.85,6.1-13.28,3.724A14.941,14.941,0,0,0,3654.1,3969.277Z" transform="translate(-72.269 -141.979)" fill="#fcdbcc"/>
    <path id="Trazado_231929" data-name="Trazado 231929" d="M3883.517,3851.73c0-.723.011-1.446,0-2.169-.008-.372.111-.573.513-.543.18.013.361,0,.542,0,1.394,0,1.434.038,1.434,1.4,0,.994-.019,1.989.007,2.982.017.682-.253.977-.953.991-1.539.031-1.538.053-1.538-1.488Q3883.517,3852.318,3883.517,3851.73Z" transform="translate(-247.626 -52.453)" fill="#fda829"/>
    <path id="Trazado_231930" data-name="Trazado 231930" d="M3780.286,3851.571v1.176c0,1.462-.467,1.811-1.919,1.441a.723.723,0,0,1-.576-.8c0-1.236,0-2.473,0-3.709,0-.563.284-.8.831-.843,1.667-.14,1.666-.15,1.666,1.467Z" transform="translate(-167.506 -52.275)" fill="#fda829"/>
    <path id="Trazado_231931" data-name="Trazado 231931" d="M3640.656,3969.423a2.675,2.675,0,0,1-1.985,1.6,9.265,9.265,0,0,1-4.3-3.678A20.962,20.962,0,0,0,3640.656,3969.423Z" transform="translate(-58.823 -142.125)" fill="#fcdbcc"/>
    <path id="Trazado_231932" data-name="Trazado 231932" d="M3851.05,3895.682c-.51,0-1.02.014-1.529,0a.688.688,0,0,1-.754-.717.711.711,0,0,1,.773-.8q1.528-.024,3.057,0a.7.7,0,0,1,.752.725c.023.521-.28.771-.773.789C3852.07,3895.7,3851.56,3895.683,3851.05,3895.682Z" transform="translate(-221.296 -86.66)" fill="#fda829"/>
    <path id="Trazado_231933" data-name="Trazado 231933" d="M3880.166,3882.251c.9-.2.972.323.869.979a1.928,1.928,0,0,1-2.309,1.483c-.326-.074-.368-.208-.24-.5.229-.519.435-1.048.628-1.582C3879.322,3882.061,3879.807,3882.315,3880.166,3882.251Z" transform="translate(-243.767 -77.61)" fill="#756e78"/>
    <path id="Trazado_231934" data-name="Trazado 231934" d="M3827.873,3897.388a22.946,22.946,0,0,0,2.329-2.38,3.814,3.814,0,0,0,.635,2.56A5.979,5.979,0,0,1,3827.873,3897.388Z" transform="translate(-205.462 -87.309)" fill="#f9c6b9"/>
    <path id="Trazado_231935" data-name="Trazado 231935" d="M3878.878,3977.221a3.189,3.189,0,0,1-2.122-3.454c.043-1.226-.076-2.464.851-3.462a3.52,3.52,0,0,1,2.428-.776c1.264.039,2.532-.01,3.8.016a2.753,2.753,0,0,1,2.9,2.893c.02.722.028,1.448-.014,2.169a2.685,2.685,0,0,1-2.687,2.626C3882.313,3977.27,3880.6,3977.229,3878.878,3977.221Z" transform="translate(-242.504 -143.782)"/>
    <path id="Trazado_231936" data-name="Trazado 231936" d="M3890.245,3982.975c-.361,0-.722,0-1.082,0-1.35-.02-1.123.184-1.21-1.2-.054-.865.186-1.175,1.077-1.093a20.728,20.728,0,0,0,2.7.009c.546-.021.794.087.788.722-.014,1.565.021,1.566-1.555,1.566Z" transform="translate(-250.986 -152.222)" fill="#fed935"/>
  </g>
</svg>
