<svg xmlns="http://www.w3.org/2000/svg" width="80.305" height="83.112" viewBox="0 0 80.305 83.112">
  <g id="Grupo_165739" data-name="Grupo 165739" transform="translate(-3533.901 -2924.482)">
    <g id="Grupo_165739-2" data-name="Grupo 165739" transform="translate(3533.901 2924.482)">
      <path id="Trazado_231675" data-name="Trazado 231675" d="M3576.805,2987.888c-1.406,1.685-2.67,3.2-3.941,4.717a.772.772,0,0,0-.115.65c.417,4.1.823,8.2,1.244,12.3.15,1.466-.338,2.037-1.809,2.037q-18.214,0-36.427,0c-1.519,0-1.984-.566-1.828-2.1q.95-9.333,1.874-18.668.419-4.173.851-8.344a1.37,1.37,0,0,1,1.5-1.344c1.1-.019,2.193-.04,3.287.009.584.026.785-.1.77-.735-.046-1.989,0-3.979-.02-5.97a6.861,6.861,0,0,1,1.943-5.017.8.8,0,0,0,.227-.983c-.251-.641-.452-1.3-.652-1.963a1.374,1.374,0,0,1,1.35-1.952c1.788-.028,3.576,0,5.364-.01a1.315,1.315,0,0,1,1.394.954c.437,1.669,1.535,2,3.083,1.839a7.233,7.233,0,0,1,4.66.949,6.566,6.566,0,0,1,3.244,4.666,20.515,20.515,0,0,0,1.191,3.768c.47,1.3.972,2.583,1.434,3.882a.777.777,0,0,0,.787.583,1.784,1.784,0,0,0,2.15-1.26,49.935,49.935,0,0,1,2.241-4.471c.247-.462.169-.646-.266-.932a6.753,6.753,0,0,1-3.215-5.959,19.044,19.044,0,0,1,.123-3.883,6.7,6.7,0,0,1,4.733-5.333c.516-.171.695-.366.69-.933-.031-3.864-.022-7.729-.015-11.594a18,18,0,0,1,35.664-3.712,21.734,21.734,0,0,1,.338,3.869c-.011,3.836.005,7.672-.015,11.508a.707.707,0,0,0,.587.833,6.821,6.821,0,0,1,4.955,6.807,22.086,22.086,0,0,1-.1,3.712,6.6,6.6,0,0,1-1.66,3.449.805.805,0,0,0-.165,1.045,7.1,7.1,0,0,1,.56,2.946q-.015,16.223-.007,32.447c0,1.468-.432,1.9-1.9,1.9h-32.187c-1.477,0-1.906-.427-1.906-1.9C3576.8,2999.844,3576.805,2993.991,3576.805,2987.888Z" transform="translate(-3533.901 -2924.482)"/>
      <path id="Trazado_231676" data-name="Trazado 231676" d="M3695.011,3136.251c-.359-3.524-.7-6.849-1.038-10.174-.023-.228.019-.538-.112-.668-.71-.706-.187-1.3.12-1.917.812-1.622,1.64-3.235,2.456-4.855a4.239,4.239,0,0,1,4.1-2.495c2.279.011,4.557.016,6.836-.008a.885.885,0,0,1,.925.548,4.048,4.048,0,0,0,3.73,2.229c.894.015,1.789.02,2.683,0a4.025,4.025,0,0,0,3.612-2.137,1.023,1.023,0,0,1,1.045-.641c3,.032,6,.007,9,.018a4.141,4.141,0,0,1,4.349,4.351c.011,4.759-.008,9.519.017,14.278,0,.594-.127.792-.75.769-1.383-.051-2.77-.044-4.153,0-.553.017-.666-.163-.661-.681.024-2.913.007-5.826.016-8.74a1.574,1.574,0,0,0-.56-1.381,1.369,1.369,0,0,0-2.189.892,5.322,5.322,0,0,0-.023.863c0,8.221-.017,16.441.022,24.662,0,.867-.245,1.01-1.046,1.005q-10.124-.051-20.248,0c-.706,0-.9-.149-.9-.883.03-8.22.019-16.441.019-24.661,0-.231.008-.462,0-.692a1.389,1.389,0,0,0-1.378-1.467,1.366,1.366,0,0,0-1.38,1.458c-.024,1.3-.041,2.6.005,3.893a2.462,2.462,0,0,1-.658,1.863C3697.572,3133.113,3696.369,3134.619,3695.011,3136.251Z" transform="translate(-3656.589 -3071.801)" fill="#26c7db"/>
      <path id="Trazado_231677" data-name="Trazado 231677" d="M3560.222,3188.967c-4.3,0-8.594-.018-12.891.018-.7.006-.8-.221-.732-.838q1.207-11.693,2.36-23.391c.062-.633.289-.723.841-.722q10.425.025,20.851,0c.594,0,.821.1.886.77q1.13,11.657,2.351,23.305c.067.654-.047.884-.775.878C3568.816,3188.948,3564.519,3188.967,3560.222,3188.967Z" transform="translate(-3543.649 -3108.624)" fill="#fda829"/>
      <path id="Trazado_231678" data-name="Trazado 231678" d="M3756.594,2994.873a24.234,24.234,0,0,1-.347,5.59,9.749,9.749,0,0,1-9.928,7.113,9.632,9.632,0,0,1-8.943-8.084c-.4-2.833-.082-5.7-.17-8.543-.01-.343.193-.417.461-.507q6.994-2.322,13.981-4.667a.63.63,0,0,1,.75.192c1.294,1.313,2.592,2.622,3.911,3.911a1.042,1.042,0,0,1,.286.852C3756.59,2992.027,3756.594,2993.324,3756.594,2994.873Z" transform="translate(-3690.152 -2971.559)" fill="#f6cba8"/>
      <path id="Trazado_231679" data-name="Trazado 231679" d="M3743.976,2951.794a8.263,8.263,0,0,0-3.289-1.265c-.32-.044-.482-.3-.682-.5-1.432-1.424-2.884-2.828-4.274-4.292a1.958,1.958,0,0,0-2.315-.568c-4.877,1.664-9.771,3.281-14.66,4.912a8.8,8.8,0,0,1-1.919.477,7.253,7.253,0,0,0-3.2,1.255,15.172,15.172,0,0,1,30.344-.02Z" transform="translate(-3672.058 -2933.844)" fill="#ac6643"/>
      <path id="Trazado_231680" data-name="Trazado 231680" d="M3695.019,3050.688a7.66,7.66,0,0,0,2.988,1.208c.369.048.5.3.632.614a12.445,12.445,0,0,0,5.512,6.218.783.783,0,0,1,.508.789c-.033.979-.036,1.961,0,2.94.019.506-.169.628-.645.624-2.191-.021-4.382.01-6.573-.015a7,7,0,0,0-5.173,2,.661.661,0,0,1-1.026.049,4.135,4.135,0,0,1-1.811-3.283c-.036-1.008-.031-2.018-.006-3.027a4.17,4.17,0,0,1,3.878-4.033c1.259-.1,1.645-.52,1.653-1.81,0-.692.006-1.383.011-2.075A1.4,1.4,0,0,1,3695.019,3050.688Z" transform="translate(-3653.437 -3021.496)" fill="#ac6643"/>
      <path id="Trazado_231681" data-name="Trazado 231681" d="M3812.686,3050.5c0,.96-.016,1.791,0,2.621a1.38,1.38,0,0,0,1.434,1.5,4.159,4.159,0,0,1,4.1,4.437c0,.836-.007,1.673,0,2.509a3.954,3.954,0,0,1-.276,1.434c-.5,1.354-.731,1.445-1.958.781a6.983,6.983,0,0,0-3.4-.854c-2.942.005-5.884-.013-8.826.014-.58.005-.822-.113-.788-.749a15.63,15.63,0,0,1,.069-3.014c.255-.975,1.49-1.118,2.21-1.75a12.739,12.739,0,0,0,3.638-4.87,1.248,1.248,0,0,1,1.119-.888A7.061,7.061,0,0,0,3812.686,3050.5Z" transform="translate(-3740.704 -3021.352)" fill="#ac6643"/>
      <path id="Trazado_231682" data-name="Trazado 231682" d="M3670.805,3188.951h-.259c-1.877,0-1.83,0-2.013-1.919-.539-5.616-1.119-11.228-1.683-16.842-.182-1.8-.352-3.61-.549-5.413-.057-.52.012-.8.648-.763.948.053,1.9.027,2.853.008.407-.008.6.074.65.552.442,4.642.912,9.282,1.377,13.922.31,3.094.611,6.188.947,9.278.129,1.181.168,1.177-1.021,1.177Z" transform="translate(-3635.665 -3108.608)" fill="#f57c22"/>
      <path id="Trazado_231683" data-name="Trazado 231683" d="M3844.617,3218.888c0,2.075-.018,4.15.013,6.224.007.524-.113.689-.661.674-1.439-.042-2.881-.031-4.321,0-.451.008-.581-.12-.579-.576q.026-6.354,0-12.708c0-.441.106-.593.57-.583,1.44.03,2.882.036,4.322,0,.533-.014.678.127.669.666C3844.6,3214.681,3844.617,3216.785,3844.617,3218.888Z" transform="translate(-3768.483 -3145.429)" fill="#f6cba8"/>
      <path id="Trazado_231684" data-name="Trazado 231684" d="M3582.326,3112.583a9.192,9.192,0,0,0,1.39,1.746,6.808,6.808,0,0,0,4.7,1.848c.426,0,.665.086.818.527.521,1.49,1.062,2.973,1.654,4.435.232.572.029.6-.446.594q-4.1-.022-8.205,0c-.455,0-.577-.125-.571-.574.023-2.131.01-4.261.013-6.392A4.26,4.26,0,0,1,3582.326,3112.583Z" transform="translate(-3570.617 -3069.075)" fill="#fed935"/>
      <path id="Trazado_231685" data-name="Trazado 231685" d="M3767.267,3090.952a12.506,12.506,0,0,0,5.092.074c.357-.072.448,0,.444.349-.014,1.353.018,2.706-.019,4.057a1.326,1.326,0,0,1-1.391,1.349c-.92.031-1.842.035-2.762,0a1.276,1.276,0,0,1-1.35-1.292C3767.23,3094,3767.267,3092.5,3767.267,3090.952Z" transform="translate(-3713.28 -3052.447)" fill="#ecc3a1"/>
      <path id="Trazado_231686" data-name="Trazado 231686" d="M3590,3091.964a3.794,3.794,0,0,0,.557,0c1.586-.295,2.69.169,3.149,1.849a1.387,1.387,0,0,0,1.412.934,4.129,4.129,0,0,1,4.039,4.3,22.265,22.265,0,0,1-.12,2.936c-.413-1.086-.853-2.162-1.229-3.261a1.607,1.607,0,0,0-1.739-1.225,7.687,7.687,0,0,1-2.232-.127,4.012,4.012,0,0,1-2.819-2.449C3590.643,3093.989,3590.363,3093.023,3590,3091.964Z" transform="translate(-3577.026 -3053.159)" fill="#f6cba8"/>
      <path id="Trazado_231687" data-name="Trazado 231687" d="M3637.528,3106.473a3.609,3.609,0,0,1,2.22,2.9,15.772,15.772,0,0,0,1.06,3.531c.479,1.347,1,2.681,1.536,4.124-1.217,0-2.33-.021-3.442.01-.526.015-.438-.311-.439-.618,0-1.729-.031-3.458.009-5.187A9.03,9.03,0,0,0,3637.528,3106.473Z" transform="translate(-3613.559 -3064.378)" fill="#f6cba8"/>
      <path id="Trazado_231688" data-name="Trazado 231688" d="M3716.1,3017.448a3.864,3.864,0,0,1-2.7-3.463,4.072,4.072,0,0,1,2.7-4.141Z" transform="translate(-3671.877 -2990.1)" fill="#ecc3a1"/>
      <path id="Trazado_231689" data-name="Trazado 231689" d="M3833.243,3017.658v-7.616a3.88,3.88,0,0,1,2.737,3.589A4.035,4.035,0,0,1,3833.243,3017.658Z" transform="translate(-3764.005 -2990.252)" fill="#ecc3a1"/>
      <path id="Trazado_231690" data-name="Trazado 231690" d="M3750.688,3020.434a1.381,1.381,0,1,1-1.347,1.39A1.392,1.392,0,0,1,3750.688,3020.434Z" transform="translate(-3699.509 -2998.24)" fill="#030202"/>
      <path id="Trazado_231691" data-name="Trazado 231691" d="M3798.588,3020.435a1.38,1.38,0,1,1-1.358,1.379A1.391,1.391,0,0,1,3798.588,3020.435Z" transform="translate(-3736.322 -2998.241)" fill="#030202"/>
    </g>
    <path id="Trazado_231692" data-name="Trazado 231692" d="M3764.1,3055.164a4.705,4.705,0,0,1-3.83-1.953c-.612-.862-.541-1.652.151-2.125.666-.455,1.334-.255,1.954.586a2.6,2.6,0,0,0,3.912.009c.628-.848,1.282-1.049,1.95-.6.693.465.756,1.254.169,2.125A4.992,4.992,0,0,1,3764.1,3055.164Z" transform="translate(-173.686 -97.137)"/>
    <path id="Trazado_231693" data-name="Trazado 231693" d="M3799.684,3018.708a9.564,9.564,0,0,1-.008,1.123,1.251,1.251,0,0,1-1.369,1.146,1.194,1.194,0,0,1-1.2-1.226c-.037-.661-.029-1.326-.006-1.988a1.275,1.275,0,0,1,1.283-1.332,1.3,1.3,0,0,1,1.3,1.326c.021.316,0,.634,0,.951Z" transform="translate(-202.308 -70.682)" fill="#010000"/>
    <path id="Trazado_231694" data-name="Trazado 231694" d="M3752.561,3018.8a9.34,9.34,0,0,1-.008,1.036A1.2,1.2,0,0,1,3751.3,3021a1.174,1.174,0,0,1-1.3-1.119,10.493,10.493,0,0,1,.006-2.329,1.173,1.173,0,0,1,1.325-1.09,1.207,1.207,0,0,1,1.224,1.207C3752.592,3018.044,3752.562,3018.421,3752.561,3018.8Z" transform="translate(-166.067 -70.706)" fill="#010000"/>
  </g>
</svg>
